{
  "header": {
    "keySignatures": [
      {
        "key": "Bb",
        "scale": "major",
        "ticks": 0
      }
    ],
    "meta": [
      {
        "text": "Joe Hisaishi",
        "ticks": 0,
        "type": "text"
      }
    ],
    "name": "Ghibli Medley",
    "ppq": 192,
    "tempos": [
      {
        "bpm": 100,
        "ticks": 0
      },
      {
        "bpm": 100,
        "ticks": 2304
      },
      {
        "bpm": 96.47062228374904,
        "ticks": 2338
      },
      {
        "bpm": 92.94140973530287,
        "ticks": 2372
      },
      {
        "bpm": 89.41198209972119,
        "ticks": 2405
      },
      {
        "bpm": 85.88249271072343,
        "ticks": 2439
      },
      {
        "bpm": 82.35298961940566,
        "ticks": 2473
      },
      {
        "bpm": 78.82353250288362,
        "ticks": 2507
      },
      {
        "bpm": 75.29430662100485,
        "ticks": 2540
      },
      {
        "bpm": 71.76484096911241,
        "ticks": 2574
      },
      {
        "bpm": 68.23539847766826,
        "ticks": 2608
      },
      {
        "bpm": 64.70593310269263,
        "ticks": 2642
      },
      {
        "bpm": 61.17648498270235,
        "ticks": 2675
      },
      {
        "bpm": 57.64707690888687,
        "ticks": 2709
      },
      {
        "bpm": 54.11772770484913,
        "ticks": 2743
      },
      {
        "bpm": 50.58825711650307,
        "ticks": 2777
      },
      {
        "bpm": 47.05882352941177,
        "ticks": 2810
      },
      {
        "bpm": 43.52942371395945,
        "ticks": 2844
      },
      {
        "bpm": 121.00043156820593,
        "ticks": 3072
      },
      {
        "bpm": 121.00067558710536,
        "ticks": 12288
      },
      {
        "bpm": 110.00011000011,
        "ticks": 12288
      },
      {
        "bpm": 110.00011000011,
        "ticks": 20736
      },
      {
        "bpm": 105.00028875079407,
        "ticks": 20736
      },
      {
        "bpm": 105.00047250212626,
        "ticks": 29376
      },
      {
        "bpm": 120,
        "ticks": 29664
      },
      {
        "bpm": 120,
        "ticks": 29760
      },
      {
        "bpm": 105.00028875079407,
        "ticks": 29856
      },
      {
        "bpm": 116.00008506672904,
        "ticks": 32832
      },
      {
        "bpm": 76.00016213367923,
        "ticks": 45888
      },
      {
        "bpm": 76.00016213367923,
        "ticks": 55872
      },
      {
        "bpm": 76.00016213367923,
        "ticks": 56256
      },
      {
        "bpm": 124.00050426871736,
        "ticks": 56256
      },
      {
        "bpm": 125,
        "ticks": 61920
      },
      {
        "bpm": 84.000084000084,
        "ticks": 82368
      }
    ],
    "timeSignatures": [
      {
        "ticks": 0,
        "timeSignature": [
          3,
          4
        ],
        "measures": 0
      },
      {
        "ticks": 2304,
        "timeSignature": [
          4,
          4
        ],
        "measures": 4
      },
      {
        "ticks": 3072,
        "timeSignature": [
          3,
          4
        ],
        "measures": 5
      },
      {
        "ticks": 12288,
        "timeSignature": [
          4,
          4
        ],
        "measures": 21
      },
      {
        "ticks": 20736,
        "timeSignature": [
          3,
          4
        ],
        "measures": 32
      },
      {
        "ticks": 29376,
        "timeSignature": [
          2,
          4
        ],
        "measures": 47
      },
      {
        "ticks": 29760,
        "timeSignature": [
          4,
          4
        ],
        "measures": 48
      },
      {
        "ticks": 55872,
        "timeSignature": [
          2,
          4
        ],
        "measures": 82
      },
      {
        "ticks": 56256,
        "timeSignature": [
          4,
          4
        ],
        "measures": 83
      }
    ]
  },
  "tracks": [
    {
      "channel": 0,
      "controlChanges": {
        "7": [
          {
            "number": 7,
            "ticks": 0,
            "time": 0,
            "value": 0.7874015748031497
          },
          {
            "number": 7,
            "ticks": 0,
            "time": 0,
            "value": 0.7874015748031497
          }
        ],
        "10": [
          {
            "number": 10,
            "ticks": 0,
            "time": 0,
            "value": 0.4015748031496063
          },
          {
            "number": 10,
            "ticks": 0,
            "time": 0,
            "value": 0.4015748031496063
          }
        ],
        "64": [
          {
            "number": 64,
            "ticks": 0,
            "time": 0,
            "value": 0
          },
          {
            "number": 64,
            "ticks": 0,
            "time": 0,
            "value": 0
          }
        ],
        "91": [
          {
            "number": 91,
            "ticks": 0,
            "time": 0,
            "value": 0.3779527559055118
          },
          {
            "number": 91,
            "ticks": 0,
            "time": 0,
            "value": 0.3779527559055118
          }
        ],
        "121": [
          {
            "number": 121,
            "ticks": 0,
            "time": 0,
            "value": 0
          },
          {
            "number": 121,
            "ticks": 0,
            "time": 0,
            "value": 0
          }
        ]
      },
      "pitchBends": [],
      "instrument": {
        "family": "piano",
        "number": 0,
        "name": "acoustic grand piano"
      },
      "name": "Piano",
      "notes": [
        {
          "duration": 0.30624999999999997,
          "durationTicks": 98,
          "midi": 70,
          "name": "A#4",
          "ticks": 0,
          "time": 0,
          "velocity": 0.5354330708661418
        },
        {
          "duration": 0.30624999999999997,
          "durationTicks": 98,
          "midi": 74,
          "name": "D5",
          "ticks": 0,
          "time": 0,
          "velocity": 0.5354330708661418
        },
        {
          "duration": 0.3062500000000001,
          "durationTicks": 98,
          "midi": 72,
          "name": "C5",
          "ticks": 96,
          "time": 0.3,
          "velocity": 0.5669291338582677
        },
        {
          "duration": 0.3062500000000001,
          "durationTicks": 98,
          "midi": 75,
          "name": "D#5",
          "ticks": 96,
          "time": 0.3,
          "velocity": 0.5669291338582677
        },
        {
          "duration": 0.30625,
          "durationTicks": 98,
          "midi": 70,
          "name": "A#4",
          "ticks": 192,
          "time": 0.6,
          "velocity": 0.5905511811023622
        },
        {
          "duration": 0.30625,
          "durationTicks": 98,
          "midi": 74,
          "name": "D5",
          "ticks": 192,
          "time": 0.6,
          "velocity": 0.5905511811023622
        },
        {
          "duration": 0.3062499999999999,
          "durationTicks": 98,
          "midi": 72,
          "name": "C5",
          "ticks": 288,
          "time": 0.8999999999999999,
          "velocity": 0.6062992125984252
        },
        {
          "duration": 0.3062499999999999,
          "durationTicks": 98,
          "midi": 75,
          "name": "D#5",
          "ticks": 288,
          "time": 0.8999999999999999,
          "velocity": 0.6062992125984252
        },
        {
          "duration": 0.3062499999999999,
          "durationTicks": 98,
          "midi": 70,
          "name": "A#4",
          "ticks": 384,
          "time": 1.2,
          "velocity": 0.5590551181102362
        },
        {
          "duration": 0.3062499999999999,
          "durationTicks": 98,
          "midi": 74,
          "name": "D5",
          "ticks": 384,
          "time": 1.2,
          "velocity": 0.5590551181102362
        },
        {
          "duration": 0.28437500000000004,
          "durationTicks": 91,
          "midi": 72,
          "name": "C5",
          "ticks": 480,
          "time": 1.5,
          "velocity": 0.5748031496062992
        },
        {
          "duration": 0.28437500000000004,
          "durationTicks": 91,
          "midi": 75,
          "name": "D#5",
          "ticks": 480,
          "time": 1.5,
          "velocity": 0.5748031496062992
        },
        {
          "duration": 0.3062499999999999,
          "durationTicks": 98,
          "midi": 69,
          "name": "A4",
          "ticks": 576,
          "time": 1.7999999999999998,
          "velocity": 0.5905511811023622
        },
        {
          "duration": 0.3062499999999999,
          "durationTicks": 98,
          "midi": 72,
          "name": "C5",
          "ticks": 576,
          "time": 1.7999999999999998,
          "velocity": 0.5905511811023622
        },
        {
          "duration": 0.3062499999999999,
          "durationTicks": 98,
          "midi": 70,
          "name": "A#4",
          "ticks": 672,
          "time": 2.1,
          "velocity": 0.6614173228346457
        },
        {
          "duration": 0.3062499999999999,
          "durationTicks": 98,
          "midi": 74,
          "name": "D5",
          "ticks": 672,
          "time": 2.1,
          "velocity": 0.6614173228346457
        },
        {
          "duration": 0.30625000000000036,
          "durationTicks": 98,
          "midi": 69,
          "name": "A4",
          "ticks": 768,
          "time": 2.4,
          "velocity": 0.5984251968503937
        },
        {
          "duration": 0.30625000000000036,
          "durationTicks": 98,
          "midi": 72,
          "name": "C5",
          "ticks": 768,
          "time": 2.4,
          "velocity": 0.5984251968503937
        },
        {
          "duration": 0.30625000000000036,
          "durationTicks": 98,
          "midi": 70,
          "name": "A#4",
          "ticks": 864,
          "time": 2.6999999999999997,
          "velocity": 0.6456692913385826
        },
        {
          "duration": 0.30625000000000036,
          "durationTicks": 98,
          "midi": 74,
          "name": "D5",
          "ticks": 864,
          "time": 2.6999999999999997,
          "velocity": 0.6456692913385826
        },
        {
          "duration": 0.3062499999999999,
          "durationTicks": 98,
          "midi": 69,
          "name": "A4",
          "ticks": 960,
          "time": 3,
          "velocity": 0.5669291338582677
        },
        {
          "duration": 0.3062499999999999,
          "durationTicks": 98,
          "midi": 72,
          "name": "C5",
          "ticks": 960,
          "time": 3,
          "velocity": 0.5669291338582677
        },
        {
          "duration": 0.2843749999999998,
          "durationTicks": 91,
          "midi": 70,
          "name": "A#4",
          "ticks": 1056,
          "time": 3.3,
          "velocity": 0.6220472440944882
        },
        {
          "duration": 0.2843749999999998,
          "durationTicks": 91,
          "midi": 74,
          "name": "D5",
          "ticks": 1056,
          "time": 3.3,
          "velocity": 0.6220472440944882
        },
        {
          "duration": 0.30625000000000036,
          "durationTicks": 98,
          "midi": 67,
          "name": "G4",
          "ticks": 1152,
          "time": 3.5999999999999996,
          "velocity": 0.5118110236220472
        },
        {
          "duration": 0.30625000000000036,
          "durationTicks": 98,
          "midi": 70,
          "name": "A#4",
          "ticks": 1152,
          "time": 3.5999999999999996,
          "velocity": 0.5118110236220472
        },
        {
          "duration": 0.3062499999999999,
          "durationTicks": 98,
          "midi": 69,
          "name": "A4",
          "ticks": 1248,
          "time": 3.9,
          "velocity": 0.5354330708661418
        },
        {
          "duration": 0.3062499999999999,
          "durationTicks": 98,
          "midi": 72,
          "name": "C5",
          "ticks": 1248,
          "time": 3.9,
          "velocity": 0.5354330708661418
        },
        {
          "duration": 0.30624999999999947,
          "durationTicks": 98,
          "midi": 67,
          "name": "G4",
          "ticks": 1344,
          "time": 4.2,
          "velocity": 0.5905511811023622
        },
        {
          "duration": 0.30624999999999947,
          "durationTicks": 98,
          "midi": 70,
          "name": "A#4",
          "ticks": 1344,
          "time": 4.2,
          "velocity": 0.5905511811023622
        },
        {
          "duration": 0.30624999999999947,
          "durationTicks": 98,
          "midi": 69,
          "name": "A4",
          "ticks": 1440,
          "time": 4.5,
          "velocity": 0.6141732283464567
        },
        {
          "duration": 0.30624999999999947,
          "durationTicks": 98,
          "midi": 72,
          "name": "C5",
          "ticks": 1440,
          "time": 4.5,
          "velocity": 0.6141732283464567
        },
        {
          "duration": 0.30624999999999947,
          "durationTicks": 98,
          "midi": 67,
          "name": "G4",
          "ticks": 1536,
          "time": 4.8,
          "velocity": 0.5590551181102362
        },
        {
          "duration": 0.30624999999999947,
          "durationTicks": 98,
          "midi": 70,
          "name": "A#4",
          "ticks": 1536,
          "time": 4.8,
          "velocity": 0.5590551181102362
        },
        {
          "duration": 0.2843750000000007,
          "durationTicks": 91,
          "midi": 69,
          "name": "A4",
          "ticks": 1632,
          "time": 5.1,
          "velocity": 0.5433070866141733
        },
        {
          "duration": 0.2843750000000007,
          "durationTicks": 91,
          "midi": 72,
          "name": "C5",
          "ticks": 1632,
          "time": 5.1,
          "velocity": 0.5433070866141733
        },
        {
          "duration": 0.15312500000000107,
          "durationTicks": 49,
          "midi": 66,
          "name": "F#4",
          "ticks": 1728,
          "time": 5.3999999999999995,
          "velocity": 0.5354330708661418
        },
        {
          "duration": 0.15312500000000107,
          "durationTicks": 49,
          "midi": 69,
          "name": "A4",
          "ticks": 1728,
          "time": 5.3999999999999995,
          "velocity": 0.5354330708661418
        },
        {
          "duration": 0.15312500000000018,
          "durationTicks": 49,
          "midi": 64,
          "name": "E4",
          "ticks": 1776,
          "time": 5.55,
          "velocity": 0.47244094488188976
        },
        {
          "duration": 0.15312500000000018,
          "durationTicks": 49,
          "midi": 67,
          "name": "G4",
          "ticks": 1776,
          "time": 5.55,
          "velocity": 0.47244094488188976
        },
        {
          "duration": 1.4249999999999998,
          "durationTicks": 456,
          "midi": 63,
          "name": "D#4",
          "ticks": 1824,
          "time": 5.7,
          "velocity": 0.5590551181102362
        },
        {
          "duration": 1.4249999999999998,
          "durationTicks": 456,
          "midi": 66,
          "name": "F#4",
          "ticks": 1824,
          "time": 5.7,
          "velocity": 0.5590551181102362
        },
        {
          "duration": 0.3172571562499993,
          "durationTicks": 98,
          "midi": 38,
          "name": "D2",
          "ticks": 2304,
          "time": 7.199999999999999,
          "velocity": 0.5433070866141733
        },
        {
          "duration": 0.35422518229166666,
          "durationTicks": 98,
          "midi": 45,
          "name": "A2",
          "ticks": 2400,
          "time": 7.5105324895833325,
          "velocity": 0.5511811023622047
        },
        {
          "duration": 0.4007741927083339,
          "durationTicks": 98,
          "midi": 50,
          "name": "D3",
          "ticks": 2496,
          "time": 7.857168390625,
          "velocity": 0.6299212598425197
        },
        {
          "duration": 0.42562321874999753,
          "durationTicks": 91,
          "midi": 57,
          "name": "A3",
          "ticks": 2592,
          "time": 8.249233583333334,
          "velocity": 0.6692913385826772
        },
        {
          "duration": 2.5543707864583336,
          "durationTicks": 384,
          "midi": 54,
          "name": "F#3",
          "ticks": 2688,
          "time": 8.700397661458332,
          "velocity": 0.5433070866141733
        },
        {
          "duration": 2.477748208333333,
          "durationTicks": 369,
          "midi": 57,
          "name": "A3",
          "ticks": 2703,
          "time": 8.777020239583333,
          "velocity": 0.5433070866141733
        },
        {
          "duration": 2.398310927083333,
          "durationTicks": 354,
          "midi": 62,
          "name": "D4",
          "ticks": 2718,
          "time": 8.856457520833333,
          "velocity": 0.5433070866141733
        },
        {
          "duration": 2.3169971770833317,
          "durationTicks": 339,
          "midi": 66,
          "name": "F#4",
          "ticks": 2733,
          "time": 8.937771270833334,
          "velocity": 0.5433070866141733
        },
        {
          "duration": 0.4958659999999995,
          "durationTicks": 192,
          "midi": 62,
          "name": "D4",
          "ticks": 3072,
          "time": 11.254768447916666,
          "velocity": 0.5039370078740157
        },
        {
          "duration": 0.49586600000000125,
          "durationTicks": 192,
          "midi": 67,
          "name": "G4",
          "ticks": 3264,
          "time": 11.750634447916665,
          "velocity": 0.6456692913385826
        },
        {
          "duration": 0.4958659999999995,
          "durationTicks": 192,
          "midi": 70,
          "name": "A#4",
          "ticks": 3456,
          "time": 12.246500447916667,
          "velocity": 0.6456692913385826
        },
        {
          "duration": 0.991731999999999,
          "durationTicks": 384,
          "midi": 74,
          "name": "D5",
          "ticks": 3648,
          "time": 12.742366447916666,
          "velocity": 0.6850393700787402
        },
        {
          "duration": 0.4958659999999995,
          "durationTicks": 192,
          "midi": 36,
          "name": "C2",
          "ticks": 3648,
          "time": 12.742366447916666,
          "velocity": 0.5433070866141733
        },
        {
          "duration": 0.4958659999999995,
          "durationTicks": 192,
          "midi": 55,
          "name": "G3",
          "ticks": 3840,
          "time": 13.238232447916666,
          "velocity": 0.7401574803149606
        },
        {
          "duration": 0.4958659999999995,
          "durationTicks": 192,
          "midi": 58,
          "name": "A#3",
          "ticks": 3840,
          "time": 13.238232447916666,
          "velocity": 0.7401574803149606
        },
        {
          "duration": 0.4958659999999995,
          "durationTicks": 192,
          "midi": 63,
          "name": "D#4",
          "ticks": 3840,
          "time": 13.238232447916666,
          "velocity": 0.7401574803149606
        },
        {
          "duration": 0.49586600000000125,
          "durationTicks": 192,
          "midi": 74,
          "name": "D5",
          "ticks": 4032,
          "time": 13.734098447916665,
          "velocity": 0.6141732283464567
        },
        {
          "duration": 0.49586600000000125,
          "durationTicks": 192,
          "midi": 55,
          "name": "G3",
          "ticks": 4032,
          "time": 13.734098447916665,
          "velocity": 0.6535433070866141
        },
        {
          "duration": 0.49586600000000125,
          "durationTicks": 192,
          "midi": 58,
          "name": "A#3",
          "ticks": 4032,
          "time": 13.734098447916665,
          "velocity": 0.6535433070866141
        },
        {
          "duration": 0.49586600000000125,
          "durationTicks": 192,
          "midi": 63,
          "name": "D#4",
          "ticks": 4032,
          "time": 13.734098447916665,
          "velocity": 0.6535433070866141
        },
        {
          "duration": 0.4958659999999995,
          "durationTicks": 192,
          "midi": 72,
          "name": "C5",
          "ticks": 4224,
          "time": 14.229964447916666,
          "velocity": 0.5748031496062992
        },
        {
          "duration": 0.4958659999999995,
          "durationTicks": 192,
          "midi": 38,
          "name": "D2",
          "ticks": 4224,
          "time": 14.229964447916666,
          "velocity": 0.5275590551181102
        },
        {
          "duration": 0.49586600000000125,
          "durationTicks": 192,
          "midi": 70,
          "name": "A#4",
          "ticks": 4416,
          "time": 14.725830447916666,
          "velocity": 0.5669291338582677
        },
        {
          "duration": 0.49586600000000125,
          "durationTicks": 192,
          "midi": 54,
          "name": "F#3",
          "ticks": 4416,
          "time": 14.725830447916666,
          "velocity": 0.7322834645669292
        },
        {
          "duration": 0.49586600000000125,
          "durationTicks": 192,
          "midi": 60,
          "name": "C4",
          "ticks": 4416,
          "time": 14.725830447916666,
          "velocity": 0.7322834645669292
        },
        {
          "duration": 0.49586600000000125,
          "durationTicks": 192,
          "midi": 62,
          "name": "D4",
          "ticks": 4416,
          "time": 14.725830447916666,
          "velocity": 0.7322834645669292
        },
        {
          "duration": 0.4958659999999995,
          "durationTicks": 192,
          "midi": 69,
          "name": "A4",
          "ticks": 4608,
          "time": 15.221696447916667,
          "velocity": 0.5826771653543307
        },
        {
          "duration": 0.4958659999999995,
          "durationTicks": 192,
          "midi": 54,
          "name": "F#3",
          "ticks": 4608,
          "time": 15.221696447916667,
          "velocity": 0.6220472440944882
        },
        {
          "duration": 0.4958659999999995,
          "durationTicks": 192,
          "midi": 60,
          "name": "C4",
          "ticks": 4608,
          "time": 15.221696447916667,
          "velocity": 0.6220472440944882
        },
        {
          "duration": 0.4958659999999995,
          "durationTicks": 192,
          "midi": 62,
          "name": "D4",
          "ticks": 4608,
          "time": 15.221696447916667,
          "velocity": 0.6220472440944882
        },
        {
          "duration": 1.487598000000002,
          "durationTicks": 576,
          "midi": 70,
          "name": "A#4",
          "ticks": 4800,
          "time": 15.717562447916666,
          "velocity": 0.5984251968503937
        },
        {
          "duration": 0.4958659999999995,
          "durationTicks": 192,
          "midi": 43,
          "name": "G2",
          "ticks": 4800,
          "time": 15.717562447916666,
          "velocity": 0.5196850393700787
        },
        {
          "duration": 0.4958659999999995,
          "durationTicks": 192,
          "midi": 55,
          "name": "G3",
          "ticks": 4992,
          "time": 16.213428447916666,
          "velocity": 0.7716535433070866
        },
        {
          "duration": 0.4958659999999995,
          "durationTicks": 192,
          "midi": 58,
          "name": "A#3",
          "ticks": 4992,
          "time": 16.213428447916666,
          "velocity": 0.7716535433070866
        },
        {
          "duration": 0.4958659999999995,
          "durationTicks": 192,
          "midi": 62,
          "name": "D4",
          "ticks": 4992,
          "time": 16.213428447916666,
          "velocity": 0.7716535433070866
        },
        {
          "duration": 0.495866000000003,
          "durationTicks": 192,
          "midi": 55,
          "name": "G3",
          "ticks": 5184,
          "time": 16.709294447916665,
          "velocity": 0.6692913385826772
        },
        {
          "duration": 0.495866000000003,
          "durationTicks": 192,
          "midi": 58,
          "name": "A#3",
          "ticks": 5184,
          "time": 16.709294447916665,
          "velocity": 0.6692913385826772
        },
        {
          "duration": 0.495866000000003,
          "durationTicks": 192,
          "midi": 62,
          "name": "D4",
          "ticks": 5184,
          "time": 16.709294447916665,
          "velocity": 0.6692913385826772
        },
        {
          "duration": 0.4958659999999995,
          "durationTicks": 192,
          "midi": 67,
          "name": "G4",
          "ticks": 5376,
          "time": 17.20516044791667,
          "velocity": 0.5354330708661418
        },
        {
          "duration": 0.4958659999999995,
          "durationTicks": 192,
          "midi": 43,
          "name": "G2",
          "ticks": 5376,
          "time": 17.20516044791667,
          "velocity": 0.5511811023622047
        },
        {
          "duration": 0.4958659999999995,
          "durationTicks": 192,
          "midi": 70,
          "name": "A#4",
          "ticks": 5568,
          "time": 17.701026447916668,
          "velocity": 0.6141732283464567
        },
        {
          "duration": 0.4958659999999995,
          "durationTicks": 192,
          "midi": 55,
          "name": "G3",
          "ticks": 5568,
          "time": 17.701026447916668,
          "velocity": 0.7480314960629921
        },
        {
          "duration": 0.4958659999999995,
          "durationTicks": 192,
          "midi": 58,
          "name": "A#3",
          "ticks": 5568,
          "time": 17.701026447916668,
          "velocity": 0.7480314960629921
        },
        {
          "duration": 0.4958659999999995,
          "durationTicks": 192,
          "midi": 62,
          "name": "D4",
          "ticks": 5568,
          "time": 17.701026447916668,
          "velocity": 0.7480314960629921
        },
        {
          "duration": 0.4958659999999995,
          "durationTicks": 192,
          "midi": 74,
          "name": "D5",
          "ticks": 5760,
          "time": 18.196892447916667,
          "velocity": 0.6377952755905512
        },
        {
          "duration": 0.4958659999999995,
          "durationTicks": 192,
          "midi": 55,
          "name": "G3",
          "ticks": 5760,
          "time": 18.196892447916667,
          "velocity": 0.6220472440944882
        },
        {
          "duration": 0.4958659999999995,
          "durationTicks": 192,
          "midi": 58,
          "name": "A#3",
          "ticks": 5760,
          "time": 18.196892447916667,
          "velocity": 0.6220472440944882
        },
        {
          "duration": 0.4958659999999995,
          "durationTicks": 192,
          "midi": 62,
          "name": "D4",
          "ticks": 5760,
          "time": 18.196892447916667,
          "velocity": 0.6220472440944882
        },
        {
          "duration": 0.991731999999999,
          "durationTicks": 384,
          "midi": 79,
          "name": "G5",
          "ticks": 5952,
          "time": 18.692758447916667,
          "velocity": 0.6692913385826772
        },
        {
          "duration": 0.4958659999999995,
          "durationTicks": 192,
          "midi": 36,
          "name": "C2",
          "ticks": 5952,
          "time": 18.692758447916667,
          "velocity": 0.5196850393700787
        },
        {
          "duration": 0.4958659999999995,
          "durationTicks": 192,
          "midi": 55,
          "name": "G3",
          "ticks": 6144,
          "time": 19.188624447916666,
          "velocity": 0.7401574803149606
        },
        {
          "duration": 0.4958659999999995,
          "durationTicks": 192,
          "midi": 58,
          "name": "A#3",
          "ticks": 6144,
          "time": 19.188624447916666,
          "velocity": 0.7401574803149606
        },
        {
          "duration": 0.4958659999999995,
          "durationTicks": 192,
          "midi": 63,
          "name": "D#4",
          "ticks": 6144,
          "time": 19.188624447916666,
          "velocity": 0.7401574803149606
        },
        {
          "duration": 0.4958659999999995,
          "durationTicks": 192,
          "midi": 79,
          "name": "G5",
          "ticks": 6336,
          "time": 19.684490447916666,
          "velocity": 0.6141732283464567
        },
        {
          "duration": 0.4958659999999995,
          "durationTicks": 192,
          "midi": 55,
          "name": "G3",
          "ticks": 6336,
          "time": 19.684490447916666,
          "velocity": 0.6299212598425197
        },
        {
          "duration": 0.4958659999999995,
          "durationTicks": 192,
          "midi": 58,
          "name": "A#3",
          "ticks": 6336,
          "time": 19.684490447916666,
          "velocity": 0.6299212598425197
        },
        {
          "duration": 0.4958659999999995,
          "durationTicks": 192,
          "midi": 63,
          "name": "D#4",
          "ticks": 6336,
          "time": 19.684490447916666,
          "velocity": 0.6299212598425197
        },
        {
          "duration": 0.4958659999999995,
          "durationTicks": 192,
          "midi": 79,
          "name": "G5",
          "ticks": 6528,
          "time": 20.180356447916665,
          "velocity": 0.6062992125984252
        },
        {
          "duration": 0.4958659999999995,
          "durationTicks": 192,
          "midi": 41,
          "name": "F2",
          "ticks": 6528,
          "time": 20.180356447916665,
          "velocity": 0.5275590551181102
        },
        {
          "duration": 0.4958659999999995,
          "durationTicks": 192,
          "midi": 77,
          "name": "F5",
          "ticks": 6720,
          "time": 20.676222447916665,
          "velocity": 0.6062992125984252
        },
        {
          "duration": 0.4958659999999995,
          "durationTicks": 192,
          "midi": 57,
          "name": "A3",
          "ticks": 6720,
          "time": 20.676222447916665,
          "velocity": 0.7559055118110236
        },
        {
          "duration": 0.4958659999999995,
          "durationTicks": 192,
          "midi": 60,
          "name": "C4",
          "ticks": 6720,
          "time": 20.676222447916665,
          "velocity": 0.7559055118110236
        },
        {
          "duration": 0.4958659999999995,
          "durationTicks": 192,
          "midi": 63,
          "name": "D#4",
          "ticks": 6720,
          "time": 20.676222447916665,
          "velocity": 0.7559055118110236
        },
        {
          "duration": 0.495866000000003,
          "durationTicks": 192,
          "midi": 75,
          "name": "D#5",
          "ticks": 6912,
          "time": 21.172088447916664,
          "velocity": 0.5511811023622047
        },
        {
          "duration": 0.495866000000003,
          "durationTicks": 192,
          "midi": 57,
          "name": "A3",
          "ticks": 6912,
          "time": 21.172088447916664,
          "velocity": 0.6299212598425197
        },
        {
          "duration": 0.495866000000003,
          "durationTicks": 192,
          "midi": 60,
          "name": "C4",
          "ticks": 6912,
          "time": 21.172088447916664,
          "velocity": 0.6299212598425197
        },
        {
          "duration": 0.495866000000003,
          "durationTicks": 192,
          "midi": 63,
          "name": "D#4",
          "ticks": 6912,
          "time": 21.172088447916664,
          "velocity": 0.6299212598425197
        },
        {
          "duration": 1.487598000000002,
          "durationTicks": 576,
          "midi": 77,
          "name": "F5",
          "ticks": 7104,
          "time": 21.667954447916667,
          "velocity": 0.6062992125984252
        },
        {
          "duration": 0.4958659999999995,
          "durationTicks": 192,
          "midi": 46,
          "name": "A#2",
          "ticks": 7104,
          "time": 21.667954447916667,
          "velocity": 0.5433070866141733
        },
        {
          "duration": 0.4958659999999995,
          "durationTicks": 192,
          "midi": 53,
          "name": "F3",
          "ticks": 7296,
          "time": 22.163820447916667,
          "velocity": 0.7559055118110236
        },
        {
          "duration": 0.4958659999999995,
          "durationTicks": 192,
          "midi": 57,
          "name": "A3",
          "ticks": 7296,
          "time": 22.163820447916667,
          "velocity": 0.7559055118110236
        },
        {
          "duration": 0.4958659999999995,
          "durationTicks": 192,
          "midi": 62,
          "name": "D4",
          "ticks": 7296,
          "time": 22.163820447916667,
          "velocity": 0.7559055118110236
        },
        {
          "duration": 0.495866000000003,
          "durationTicks": 192,
          "midi": 53,
          "name": "F3",
          "ticks": 7488,
          "time": 22.659686447916666,
          "velocity": 0.6377952755905512
        },
        {
          "duration": 0.495866000000003,
          "durationTicks": 192,
          "midi": 57,
          "name": "A3",
          "ticks": 7488,
          "time": 22.659686447916666,
          "velocity": 0.6377952755905512
        },
        {
          "duration": 0.495866000000003,
          "durationTicks": 192,
          "midi": 62,
          "name": "D4",
          "ticks": 7488,
          "time": 22.659686447916666,
          "velocity": 0.6377952755905512
        },
        {
          "duration": 0.4958659999999995,
          "durationTicks": 192,
          "midi": 69,
          "name": "A4",
          "ticks": 7680,
          "time": 23.15555244791667,
          "velocity": 0.5039370078740157
        },
        {
          "duration": 0.4958659999999995,
          "durationTicks": 192,
          "midi": 41,
          "name": "F2",
          "ticks": 7680,
          "time": 23.15555244791667,
          "velocity": 0.5039370078740157
        },
        {
          "duration": 0.4958659999999995,
          "durationTicks": 192,
          "midi": 74,
          "name": "D5",
          "ticks": 7872,
          "time": 23.65141844791667,
          "velocity": 0.6377952755905512
        },
        {
          "duration": 0.4958659999999995,
          "durationTicks": 192,
          "midi": 53,
          "name": "F3",
          "ticks": 7872,
          "time": 23.65141844791667,
          "velocity": 0.7322834645669292
        },
        {
          "duration": 0.4958659999999995,
          "durationTicks": 192,
          "midi": 57,
          "name": "A3",
          "ticks": 7872,
          "time": 23.65141844791667,
          "velocity": 0.7322834645669292
        },
        {
          "duration": 0.4958659999999995,
          "durationTicks": 192,
          "midi": 62,
          "name": "D4",
          "ticks": 7872,
          "time": 23.65141844791667,
          "velocity": 0.7322834645669292
        },
        {
          "duration": 0.4958659999999995,
          "durationTicks": 192,
          "midi": 77,
          "name": "F5",
          "ticks": 8064,
          "time": 24.147284447916668,
          "velocity": 0.6614173228346457
        },
        {
          "duration": 0.4958659999999995,
          "durationTicks": 192,
          "midi": 53,
          "name": "F3",
          "ticks": 8064,
          "time": 24.147284447916668,
          "velocity": 0.5905511811023622
        },
        {
          "duration": 0.4958659999999995,
          "durationTicks": 192,
          "midi": 57,
          "name": "A3",
          "ticks": 8064,
          "time": 24.147284447916668,
          "velocity": 0.5905511811023622
        },
        {
          "duration": 0.4958659999999995,
          "durationTicks": 192,
          "midi": 62,
          "name": "D4",
          "ticks": 8064,
          "time": 24.147284447916668,
          "velocity": 0.5905511811023622
        },
        {
          "duration": 0.991731999999999,
          "durationTicks": 384,
          "midi": 81,
          "name": "A5",
          "ticks": 8256,
          "time": 24.643150447916668,
          "velocity": 0.6299212598425197
        },
        {
          "duration": 0.4958659999999995,
          "durationTicks": 192,
          "midi": 40,
          "name": "E2",
          "ticks": 8256,
          "time": 24.643150447916668,
          "velocity": 0.5275590551181102
        },
        {
          "duration": 0.4958659999999995,
          "durationTicks": 192,
          "midi": 55,
          "name": "G3",
          "ticks": 8448,
          "time": 25.139016447916667,
          "velocity": 0.7637795275590551
        },
        {
          "duration": 0.4958659999999995,
          "durationTicks": 192,
          "midi": 58,
          "name": "A#3",
          "ticks": 8448,
          "time": 25.139016447916667,
          "velocity": 0.7637795275590551
        },
        {
          "duration": 0.4958659999999995,
          "durationTicks": 192,
          "midi": 62,
          "name": "D4",
          "ticks": 8448,
          "time": 25.139016447916667,
          "velocity": 0.7637795275590551
        },
        {
          "duration": 0.4958659999999995,
          "durationTicks": 192,
          "midi": 79,
          "name": "G5",
          "ticks": 8640,
          "time": 25.634882447916667,
          "velocity": 0.5984251968503937
        },
        {
          "duration": 0.4958659999999995,
          "durationTicks": 192,
          "midi": 55,
          "name": "G3",
          "ticks": 8640,
          "time": 25.634882447916667,
          "velocity": 0.6141732283464567
        },
        {
          "duration": 0.4958659999999995,
          "durationTicks": 192,
          "midi": 58,
          "name": "A#3",
          "ticks": 8640,
          "time": 25.634882447916667,
          "velocity": 0.6141732283464567
        },
        {
          "duration": 0.4958659999999995,
          "durationTicks": 192,
          "midi": 62,
          "name": "D4",
          "ticks": 8640,
          "time": 25.634882447916667,
          "velocity": 0.6141732283464567
        },
        {
          "duration": 0.4958659999999995,
          "durationTicks": 192,
          "midi": 77,
          "name": "F5",
          "ticks": 8832,
          "time": 26.130748447916666,
          "velocity": 0.5748031496062992
        },
        {
          "duration": 0.4958659999999995,
          "durationTicks": 192,
          "midi": 45,
          "name": "A2",
          "ticks": 8832,
          "time": 26.130748447916666,
          "velocity": 0.5511811023622047
        },
        {
          "duration": 0.4958659999999995,
          "durationTicks": 192,
          "midi": 76,
          "name": "E5",
          "ticks": 9024,
          "time": 26.626614447916666,
          "velocity": 0.5511811023622047
        },
        {
          "duration": 0.4958659999999995,
          "durationTicks": 192,
          "midi": 55,
          "name": "G3",
          "ticks": 9024,
          "time": 26.626614447916666,
          "velocity": 0.7322834645669292
        },
        {
          "duration": 0.4958659999999995,
          "durationTicks": 192,
          "midi": 57,
          "name": "A3",
          "ticks": 9024,
          "time": 26.626614447916666,
          "velocity": 0.7322834645669292
        },
        {
          "duration": 0.4958659999999995,
          "durationTicks": 192,
          "midi": 61,
          "name": "C#4",
          "ticks": 9024,
          "time": 26.626614447916666,
          "velocity": 0.7322834645669292
        },
        {
          "duration": 0.4958659999999995,
          "durationTicks": 192,
          "midi": 64,
          "name": "E4",
          "ticks": 9024,
          "time": 26.626614447916666,
          "velocity": 0.7322834645669292
        },
        {
          "duration": 0.4958659999999995,
          "durationTicks": 192,
          "midi": 77,
          "name": "F5",
          "ticks": 9216,
          "time": 27.122480447916665,
          "velocity": 0.6141732283464567
        },
        {
          "duration": 0.4958659999999995,
          "durationTicks": 192,
          "midi": 55,
          "name": "G3",
          "ticks": 9216,
          "time": 27.122480447916665,
          "velocity": 0.5905511811023622
        },
        {
          "duration": 0.4958659999999995,
          "durationTicks": 192,
          "midi": 57,
          "name": "A3",
          "ticks": 9216,
          "time": 27.122480447916665,
          "velocity": 0.5905511811023622
        },
        {
          "duration": 0.4958659999999995,
          "durationTicks": 192,
          "midi": 61,
          "name": "C#4",
          "ticks": 9216,
          "time": 27.122480447916665,
          "velocity": 0.5905511811023622
        },
        {
          "duration": 0.4958659999999995,
          "durationTicks": 192,
          "midi": 64,
          "name": "E4",
          "ticks": 9216,
          "time": 27.122480447916665,
          "velocity": 0.5905511811023622
        },
        {
          "duration": 0.991731999999999,
          "durationTicks": 384,
          "midi": 79,
          "name": "G5",
          "ticks": 9408,
          "time": 27.618346447916664,
          "velocity": 0.6456692913385826
        },
        {
          "duration": 0.4958659999999995,
          "durationTicks": 192,
          "midi": 38,
          "name": "D2",
          "ticks": 9408,
          "time": 27.618346447916664,
          "velocity": 0.5118110236220472
        },
        {
          "duration": 0.4958659999999995,
          "durationTicks": 192,
          "midi": 53,
          "name": "F3",
          "ticks": 9600,
          "time": 28.114212447916664,
          "velocity": 0.7480314960629921
        },
        {
          "duration": 0.4958659999999995,
          "durationTicks": 192,
          "midi": 57,
          "name": "A3",
          "ticks": 9600,
          "time": 28.114212447916664,
          "velocity": 0.7480314960629921
        },
        {
          "duration": 0.4958659999999995,
          "durationTicks": 192,
          "midi": 62,
          "name": "D4",
          "ticks": 9600,
          "time": 28.114212447916664,
          "velocity": 0.7480314960629921
        },
        {
          "duration": 0.4958660000000066,
          "durationTicks": 192,
          "midi": 77,
          "name": "F5",
          "ticks": 9792,
          "time": 28.610078447916663,
          "velocity": 0.5590551181102362
        },
        {
          "duration": 0.4958660000000066,
          "durationTicks": 192,
          "midi": 53,
          "name": "F3",
          "ticks": 9792,
          "time": 28.610078447916663,
          "velocity": 0.6141732283464567
        },
        {
          "duration": 0.4958660000000066,
          "durationTicks": 192,
          "midi": 57,
          "name": "A3",
          "ticks": 9792,
          "time": 28.610078447916663,
          "velocity": 0.6141732283464567
        },
        {
          "duration": 0.4958660000000066,
          "durationTicks": 192,
          "midi": 62,
          "name": "D4",
          "ticks": 9792,
          "time": 28.610078447916663,
          "velocity": 0.6141732283464567
        },
        {
          "duration": 0.991731999999999,
          "durationTicks": 384,
          "midi": 76,
          "name": "E5",
          "ticks": 9984,
          "time": 29.10594444791667,
          "velocity": 0.5748031496062992
        },
        {
          "duration": 0.4958659999999995,
          "durationTicks": 192,
          "midi": 36,
          "name": "C2",
          "ticks": 9984,
          "time": 29.10594444791667,
          "velocity": 0.5275590551181102
        },
        {
          "duration": 0.4958659999999995,
          "durationTicks": 192,
          "midi": 53,
          "name": "F3",
          "ticks": 10176,
          "time": 29.60181044791667,
          "velocity": 0.7480314960629921
        },
        {
          "duration": 0.4958659999999995,
          "durationTicks": 192,
          "midi": 57,
          "name": "A3",
          "ticks": 10176,
          "time": 29.60181044791667,
          "velocity": 0.7480314960629921
        },
        {
          "duration": 0.4958659999999995,
          "durationTicks": 192,
          "midi": 62,
          "name": "D4",
          "ticks": 10176,
          "time": 29.60181044791667,
          "velocity": 0.7480314960629921
        },
        {
          "duration": 0.4958659999999995,
          "durationTicks": 192,
          "midi": 74,
          "name": "D5",
          "ticks": 10368,
          "time": 30.09767644791667,
          "velocity": 0.5511811023622047
        },
        {
          "duration": 0.4958659999999995,
          "durationTicks": 192,
          "midi": 53,
          "name": "F3",
          "ticks": 10368,
          "time": 30.09767644791667,
          "velocity": 0.6535433070866141
        },
        {
          "duration": 0.4958659999999995,
          "durationTicks": 192,
          "midi": 57,
          "name": "A3",
          "ticks": 10368,
          "time": 30.09767644791667,
          "velocity": 0.6535433070866141
        },
        {
          "duration": 0.4958659999999995,
          "durationTicks": 192,
          "midi": 62,
          "name": "D4",
          "ticks": 10368,
          "time": 30.09767644791667,
          "velocity": 0.6535433070866141
        },
        {
          "duration": 0.4958659999999995,
          "durationTicks": 192,
          "midi": 72,
          "name": "C5",
          "ticks": 10560,
          "time": 30.59354244791667,
          "velocity": 0.5433070866141733
        },
        {
          "duration": 0.4958659999999995,
          "durationTicks": 192,
          "midi": 34,
          "name": "A#1",
          "ticks": 10560,
          "time": 30.59354244791667,
          "velocity": 0.5039370078740157
        },
        {
          "duration": 0.4958659999999995,
          "durationTicks": 192,
          "midi": 70,
          "name": "A#4",
          "ticks": 10752,
          "time": 31.089408447916668,
          "velocity": 0.5905511811023622
        },
        {
          "duration": 0.4958659999999995,
          "durationTicks": 192,
          "midi": 53,
          "name": "F3",
          "ticks": 10752,
          "time": 31.089408447916668,
          "velocity": 0.7559055118110236
        },
        {
          "duration": 0.4958659999999995,
          "durationTicks": 192,
          "midi": 58,
          "name": "A#3",
          "ticks": 10752,
          "time": 31.089408447916668,
          "velocity": 0.7559055118110236
        },
        {
          "duration": 0.4958659999999995,
          "durationTicks": 192,
          "midi": 62,
          "name": "D4",
          "ticks": 10752,
          "time": 31.089408447916668,
          "velocity": 0.7559055118110236
        },
        {
          "duration": 0.4958659999999995,
          "durationTicks": 192,
          "midi": 72,
          "name": "C5",
          "ticks": 10944,
          "time": 31.585274447916667,
          "velocity": 0.6299212598425197
        },
        {
          "duration": 0.4958659999999995,
          "durationTicks": 192,
          "midi": 53,
          "name": "F3",
          "ticks": 10944,
          "time": 31.585274447916667,
          "velocity": 0.6535433070866141
        },
        {
          "duration": 0.4958659999999995,
          "durationTicks": 192,
          "midi": 58,
          "name": "A#3",
          "ticks": 10944,
          "time": 31.585274447916667,
          "velocity": 0.6535433070866141
        },
        {
          "duration": 0.4958659999999995,
          "durationTicks": 192,
          "midi": 62,
          "name": "D4",
          "ticks": 10944,
          "time": 31.585274447916667,
          "velocity": 0.6535433070866141
        },
        {
          "duration": 0.4958659999999995,
          "durationTicks": 192,
          "midi": 74,
          "name": "D5",
          "ticks": 11136,
          "time": 32.08114044791667,
          "velocity": 0.6535433070866141
        },
        {
          "duration": 0.4958659999999995,
          "durationTicks": 192,
          "midi": 33,
          "name": "A1",
          "ticks": 11136,
          "time": 32.08114044791667,
          "velocity": 0.5354330708661418
        },
        {
          "duration": 0.4958659999999995,
          "durationTicks": 192,
          "midi": 72,
          "name": "C5",
          "ticks": 11328,
          "time": 32.577006447916666,
          "velocity": 0.5590551181102362
        },
        {
          "duration": 0.4958659999999995,
          "durationTicks": 192,
          "midi": 52,
          "name": "E3",
          "ticks": 11328,
          "time": 32.577006447916666,
          "velocity": 0.7401574803149606
        },
        {
          "duration": 0.4958659999999995,
          "durationTicks": 192,
          "midi": 55,
          "name": "G3",
          "ticks": 11328,
          "time": 32.577006447916666,
          "velocity": 0.7401574803149606
        },
        {
          "duration": 0.4958659999999995,
          "durationTicks": 192,
          "midi": 62,
          "name": "D4",
          "ticks": 11328,
          "time": 32.577006447916666,
          "velocity": 0.7401574803149606
        },
        {
          "duration": 0.4958659999999995,
          "durationTicks": 192,
          "midi": 67,
          "name": "G4",
          "ticks": 11520,
          "time": 33.072872447916666,
          "velocity": 0.5039370078740157
        },
        {
          "duration": 0.4958659999999995,
          "durationTicks": 192,
          "midi": 52,
          "name": "E3",
          "ticks": 11520,
          "time": 33.072872447916666,
          "velocity": 0.6535433070866141
        },
        {
          "duration": 0.4958659999999995,
          "durationTicks": 192,
          "midi": 55,
          "name": "G3",
          "ticks": 11520,
          "time": 33.072872447916666,
          "velocity": 0.6535433070866141
        },
        {
          "duration": 0.4958659999999995,
          "durationTicks": 192,
          "midi": 62,
          "name": "D4",
          "ticks": 11520,
          "time": 33.072872447916666,
          "velocity": 0.6535433070866141
        },
        {
          "duration": 0.991731999999999,
          "durationTicks": 384,
          "midi": 69,
          "name": "A4",
          "ticks": 11712,
          "time": 33.568738447916665,
          "velocity": 0.6535433070866141
        },
        {
          "duration": 0.4958659999999995,
          "durationTicks": 192,
          "midi": 38,
          "name": "D2",
          "ticks": 11712,
          "time": 33.568738447916665,
          "velocity": 0.5354330708661418
        },
        {
          "duration": 0.4958659999999995,
          "durationTicks": 192,
          "midi": 54,
          "name": "F#3",
          "ticks": 11904,
          "time": 34.064604447916665,
          "velocity": 0.7244094488188977
        },
        {
          "duration": 0.4958659999999995,
          "durationTicks": 192,
          "midi": 57,
          "name": "A3",
          "ticks": 11904,
          "time": 34.064604447916665,
          "velocity": 0.7244094488188977
        },
        {
          "duration": 0.4958659999999995,
          "durationTicks": 192,
          "midi": 60,
          "name": "C4",
          "ticks": 11904,
          "time": 34.064604447916665,
          "velocity": 0.7244094488188977
        },
        {
          "duration": 0.4958659999999995,
          "durationTicks": 192,
          "midi": 63,
          "name": "D#4",
          "ticks": 11904,
          "time": 34.064604447916665,
          "velocity": 0.7244094488188977
        },
        {
          "duration": 0.4958660000000066,
          "durationTicks": 192,
          "midi": 54,
          "name": "F#3",
          "ticks": 12096,
          "time": 34.560470447916664,
          "velocity": 0.6299212598425197
        },
        {
          "duration": 0.4958660000000066,
          "durationTicks": 192,
          "midi": 57,
          "name": "A3",
          "ticks": 12096,
          "time": 34.560470447916664,
          "velocity": 0.6299212598425197
        },
        {
          "duration": 0.4958660000000066,
          "durationTicks": 192,
          "midi": 60,
          "name": "C4",
          "ticks": 12096,
          "time": 34.560470447916664,
          "velocity": 0.6299212598425197
        },
        {
          "duration": 0.4958660000000066,
          "durationTicks": 192,
          "midi": 63,
          "name": "D#4",
          "ticks": 12096,
          "time": 34.560470447916664,
          "velocity": 0.6299212598425197
        },
        {
          "duration": 0.2479330000000033,
          "durationTicks": 96,
          "midi": 71,
          "name": "B4",
          "ticks": 12192,
          "time": 34.80840344791667,
          "velocity": 0.5433070866141733
        },
        {
          "duration": 0.2727270000000033,
          "durationTicks": 96,
          "midi": 79,
          "name": "G5",
          "ticks": 12288,
          "time": 35.05633644791667,
          "velocity": 0.7007874015748031
        },
        {
          "duration": 0.13636350000000164,
          "durationTicks": 48,
          "midi": 52,
          "name": "E3",
          "ticks": 12288,
          "time": 35.05633644791667,
          "velocity": 0.5196850393700787
        },
        {
          "duration": 0.13636349999999453,
          "durationTicks": 48,
          "midi": 59,
          "name": "B3",
          "ticks": 12384,
          "time": 35.329063447916674,
          "velocity": 0.6299212598425197
        },
        {
          "duration": 0.13636350000000164,
          "durationTicks": 48,
          "midi": 67,
          "name": "G4",
          "ticks": 12480,
          "time": 35.60179044791667,
          "velocity": 0.7244094488188977
        },
        {
          "duration": 0.13636349999999453,
          "durationTicks": 48,
          "midi": 71,
          "name": "B4",
          "ticks": 12576,
          "time": 35.87451744791667,
          "velocity": 0.5196850393700787
        },
        {
          "duration": 0.2727270000000033,
          "durationTicks": 96,
          "midi": 78,
          "name": "F#5",
          "ticks": 12672,
          "time": 36.14724444791667,
          "velocity": 0.6850393700787402
        },
        {
          "duration": 0.13636350000000164,
          "durationTicks": 48,
          "midi": 50,
          "name": "D3",
          "ticks": 12672,
          "time": 36.14724444791667,
          "velocity": 0.5590551181102362
        },
        {
          "duration": 0.13636349999999453,
          "durationTicks": 48,
          "midi": 59,
          "name": "B3",
          "ticks": 12768,
          "time": 36.41997144791667,
          "velocity": 0.6614173228346457
        },
        {
          "duration": 0.13636350000000164,
          "durationTicks": 48,
          "midi": 66,
          "name": "F#4",
          "ticks": 12864,
          "time": 36.69269844791667,
          "velocity": 0.6929133858267716
        },
        {
          "duration": 0.13636350000000164,
          "durationTicks": 48,
          "midi": 71,
          "name": "B4",
          "ticks": 12960,
          "time": 36.96542544791667,
          "velocity": 0.5354330708661418
        },
        {
          "duration": 0.2727270000000033,
          "durationTicks": 96,
          "midi": 76,
          "name": "E5",
          "ticks": 13056,
          "time": 37.23815244791667,
          "velocity": 0.7086614173228346
        },
        {
          "duration": 0.13636350000000164,
          "durationTicks": 48,
          "midi": 48,
          "name": "C3",
          "ticks": 13056,
          "time": 37.23815244791667,
          "velocity": 0.5039370078740157
        },
        {
          "duration": 0.13636350000000164,
          "durationTicks": 48,
          "midi": 55,
          "name": "G3",
          "ticks": 13152,
          "time": 37.51087944791667,
          "velocity": 0.6456692913385826
        },
        {
          "duration": 0.13636350000000164,
          "durationTicks": 48,
          "midi": 74,
          "name": "D5",
          "ticks": 13248,
          "time": 37.78360644791667,
          "velocity": 0.5984251968503937
        },
        {
          "duration": 0.13636350000000164,
          "durationTicks": 48,
          "midi": 64,
          "name": "E4",
          "ticks": 13248,
          "time": 37.78360644791667,
          "velocity": 0.7086614173228346
        },
        {
          "duration": 0.13636350000000164,
          "durationTicks": 48,
          "midi": 72,
          "name": "C5",
          "ticks": 13344,
          "time": 38.05633344791667,
          "velocity": 0.5433070866141733
        },
        {
          "duration": 0.27272699999999617,
          "durationTicks": 96,
          "midi": 74,
          "name": "D5",
          "ticks": 13440,
          "time": 38.329060447916675,
          "velocity": 0.6456692913385826
        },
        {
          "duration": 0.13636349999999453,
          "durationTicks": 48,
          "midi": 47,
          "name": "B2",
          "ticks": 13440,
          "time": 38.329060447916675,
          "velocity": 0.5590551181102362
        },
        {
          "duration": 0.13636350000000164,
          "durationTicks": 48,
          "midi": 55,
          "name": "G3",
          "ticks": 13536,
          "time": 38.60178744791667,
          "velocity": 0.6141732283464567
        },
        {
          "duration": 0.13636349999999453,
          "durationTicks": 48,
          "midi": 62,
          "name": "D4",
          "ticks": 13632,
          "time": 38.874514447916674,
          "velocity": 0.7559055118110236
        },
        {
          "duration": 0.13636350000000164,
          "durationTicks": 48,
          "midi": 67,
          "name": "G4",
          "ticks": 13728,
          "time": 39.14724144791667,
          "velocity": 0.5275590551181102
        },
        {
          "duration": 0.13636349999999453,
          "durationTicks": 48,
          "midi": 69,
          "name": "A4",
          "ticks": 13824,
          "time": 39.41996844791667,
          "velocity": 0.6141732283464567
        },
        {
          "duration": 0.27272699999999617,
          "durationTicks": 96,
          "midi": 45,
          "name": "A2",
          "ticks": 13824,
          "time": 39.41996844791667,
          "velocity": 0.5511811023622047
        },
        {
          "duration": 0.13636350000000164,
          "durationTicks": 48,
          "midi": 72,
          "name": "C5",
          "ticks": 13920,
          "time": 39.69269544791667,
          "velocity": 0.6614173228346457
        },
        {
          "duration": 0.2727270000000033,
          "durationTicks": 96,
          "midi": 57,
          "name": "A3",
          "ticks": 13920,
          "time": 39.69269544791667,
          "velocity": 0.6377952755905512
        },
        {
          "duration": 0.13636349999999453,
          "durationTicks": 48,
          "midi": 76,
          "name": "E5",
          "ticks": 14016,
          "time": 39.96542244791667,
          "velocity": 0.6850393700787402
        },
        {
          "duration": 0.27272699999999617,
          "durationTicks": 96,
          "midi": 64,
          "name": "E4",
          "ticks": 14016,
          "time": 39.96542244791667,
          "velocity": 0.7401574803149606
        },
        {
          "duration": 0.13636350000000164,
          "durationTicks": 48,
          "midi": 79,
          "name": "G5",
          "ticks": 14112,
          "time": 40.23814944791667,
          "velocity": 0.6771653543307087
        },
        {
          "duration": 0.2727270000000033,
          "durationTicks": 96,
          "midi": 45,
          "name": "A2",
          "ticks": 14112,
          "time": 40.23814944791667,
          "velocity": 0.5590551181102362
        },
        {
          "duration": 0.13636350000000164,
          "durationTicks": 48,
          "midi": 78,
          "name": "F#5",
          "ticks": 14208,
          "time": 40.51087644791667,
          "velocity": 0.5748031496062992
        },
        {
          "duration": 0.27272699999999617,
          "durationTicks": 96,
          "midi": 50,
          "name": "D3",
          "ticks": 14208,
          "time": 40.51087644791667,
          "velocity": 0.6220472440944882
        },
        {
          "duration": 0.13636350000000164,
          "durationTicks": 48,
          "midi": 74,
          "name": "D5",
          "ticks": 14304,
          "time": 40.78360344791667,
          "velocity": 0.5511811023622047
        },
        {
          "duration": 0.2727270000000033,
          "durationTicks": 96,
          "midi": 57,
          "name": "A3",
          "ticks": 14304,
          "time": 40.78360344791667,
          "velocity": 0.6771653543307087
        },
        {
          "duration": 0.13636350000000164,
          "durationTicks": 48,
          "midi": 71,
          "name": "B4",
          "ticks": 14400,
          "time": 41.05633044791667,
          "velocity": 0.5354330708661418
        },
        {
          "duration": 0.27272699999999617,
          "durationTicks": 96,
          "midi": 62,
          "name": "D4",
          "ticks": 14400,
          "time": 41.05633044791667,
          "velocity": 0.6614173228346457
        },
        {
          "duration": 0.13636350000000164,
          "durationTicks": 48,
          "midi": 69,
          "name": "A4",
          "ticks": 14496,
          "time": 41.32905744791667,
          "velocity": 0.5511811023622047
        },
        {
          "duration": 0.2727270000000033,
          "durationTicks": 96,
          "midi": 50,
          "name": "D3",
          "ticks": 14496,
          "time": 41.32905744791667,
          "velocity": 0.5511811023622047
        },
        {
          "duration": 0.2727270000000033,
          "durationTicks": 96,
          "midi": 71,
          "name": "B4",
          "ticks": 14592,
          "time": 41.60178444791667,
          "velocity": 0.6456692913385826
        },
        {
          "duration": 0.13636350000000164,
          "durationTicks": 48,
          "midi": 43,
          "name": "G2",
          "ticks": 14592,
          "time": 41.60178444791667,
          "velocity": 0.5354330708661418
        },
        {
          "duration": 0.13636349999999453,
          "durationTicks": 48,
          "midi": 50,
          "name": "D3",
          "ticks": 14688,
          "time": 41.874511447916674,
          "velocity": 0.6377952755905512
        },
        {
          "duration": 0.13636350000000164,
          "durationTicks": 48,
          "midi": 57,
          "name": "A3",
          "ticks": 14784,
          "time": 42.14723844791667,
          "velocity": 0.6692913385826772
        },
        {
          "duration": 0.13636350000000164,
          "durationTicks": 48,
          "midi": 55,
          "name": "G3",
          "ticks": 14880,
          "time": 42.41996544791667,
          "velocity": 0.5984251968503937
        },
        {
          "duration": 0.13636350000000164,
          "durationTicks": 48,
          "midi": 54,
          "name": "F#3",
          "ticks": 14976,
          "time": 42.69269244791667,
          "velocity": 0.5984251968503937
        },
        {
          "duration": 0.13636350000000164,
          "durationTicks": 48,
          "midi": 55,
          "name": "G3",
          "ticks": 15072,
          "time": 42.96541944791667,
          "velocity": 0.5905511811023622
        },
        {
          "duration": 0.13636350000000164,
          "durationTicks": 48,
          "midi": 57,
          "name": "A3",
          "ticks": 15168,
          "time": 43.23814644791667,
          "velocity": 0.6062992125984252
        },
        {
          "duration": 0.13636349999999453,
          "durationTicks": 48,
          "midi": 71,
          "name": "B4",
          "ticks": 15264,
          "time": 43.51087344791667,
          "velocity": 0.5511811023622047
        },
        {
          "duration": 0.13636349999999453,
          "durationTicks": 48,
          "midi": 59,
          "name": "B3",
          "ticks": 15264,
          "time": 43.51087344791667,
          "velocity": 0.5748031496062992
        },
        {
          "duration": 0.2727270000000033,
          "durationTicks": 96,
          "midi": 79,
          "name": "G5",
          "ticks": 15360,
          "time": 43.78360044791667,
          "velocity": 0.7086614173228346
        },
        {
          "duration": 0.13636350000000164,
          "durationTicks": 48,
          "midi": 52,
          "name": "E3",
          "ticks": 15360,
          "time": 43.78360044791667,
          "velocity": 0.5669291338582677
        },
        {
          "duration": 0.13636350000000164,
          "durationTicks": 48,
          "midi": 59,
          "name": "B3",
          "ticks": 15456,
          "time": 44.05632744791667,
          "velocity": 0.6299212598425197
        },
        {
          "duration": 0.13636350000000164,
          "durationTicks": 48,
          "midi": 67,
          "name": "G4",
          "ticks": 15552,
          "time": 44.32905444791667,
          "velocity": 0.6850393700787402
        },
        {
          "duration": 0.13636350000000164,
          "durationTicks": 48,
          "midi": 71,
          "name": "B4",
          "ticks": 15648,
          "time": 44.60178144791667,
          "velocity": 0.5748031496062992
        },
        {
          "duration": 0.2727270000000033,
          "durationTicks": 96,
          "midi": 78,
          "name": "F#5",
          "ticks": 15744,
          "time": 44.87450844791667,
          "velocity": 0.6929133858267716
        },
        {
          "duration": 0.13636350000000164,
          "durationTicks": 48,
          "midi": 50,
          "name": "D3",
          "ticks": 15744,
          "time": 44.87450844791667,
          "velocity": 0.49606299212598426
        },
        {
          "duration": 0.13636350000000164,
          "durationTicks": 48,
          "midi": 59,
          "name": "B3",
          "ticks": 15840,
          "time": 45.14723544791667,
          "velocity": 0.6850393700787402
        },
        {
          "duration": 0.13636349999999453,
          "durationTicks": 48,
          "midi": 66,
          "name": "F#4",
          "ticks": 15936,
          "time": 45.419962447916674,
          "velocity": 0.7086614173228346
        },
        {
          "duration": 0.13636350000000164,
          "durationTicks": 48,
          "midi": 71,
          "name": "B4",
          "ticks": 16032,
          "time": 45.69268944791667,
          "velocity": 0.5590551181102362
        },
        {
          "duration": 0.2727270000000033,
          "durationTicks": 96,
          "midi": 76,
          "name": "E5",
          "ticks": 16128,
          "time": 45.96541644791667,
          "velocity": 0.6771653543307087
        },
        {
          "duration": 0.13636350000000164,
          "durationTicks": 48,
          "midi": 55,
          "name": "G3",
          "ticks": 16128,
          "time": 45.96541644791667,
          "velocity": 0.5511811023622047
        },
        {
          "duration": 0.13636350000000164,
          "durationTicks": 48,
          "midi": 62,
          "name": "D4",
          "ticks": 16224,
          "time": 46.23814344791667,
          "velocity": 0.6771653543307087
        },
        {
          "duration": 0.13636350000000164,
          "durationTicks": 48,
          "midi": 74,
          "name": "D5",
          "ticks": 16320,
          "time": 46.51087044791667,
          "velocity": 0.5748031496062992
        },
        {
          "duration": 0.13636350000000164,
          "durationTicks": 48,
          "midi": 71,
          "name": "B4",
          "ticks": 16320,
          "time": 46.51087044791667,
          "velocity": 0.7244094488188977
        },
        {
          "duration": 0.13636350000000164,
          "durationTicks": 48,
          "midi": 72,
          "name": "C5",
          "ticks": 16416,
          "time": 46.78359744791667,
          "velocity": 0.5748031496062992
        },
        {
          "duration": 0.27272699999999617,
          "durationTicks": 96,
          "midi": 74,
          "name": "D5",
          "ticks": 16512,
          "time": 47.05632444791667,
          "velocity": 0.6377952755905512
        },
        {
          "duration": 0.13636349999999453,
          "durationTicks": 48,
          "midi": 56,
          "name": "G#3",
          "ticks": 16512,
          "time": 47.05632444791667,
          "velocity": 0.5433070866141733
        },
        {
          "duration": 0.13636350000000164,
          "durationTicks": 48,
          "midi": 64,
          "name": "E4",
          "ticks": 16608,
          "time": 47.32905144791667,
          "velocity": 0.7401574803149606
        },
        {
          "duration": 0.13636350000000164,
          "durationTicks": 48,
          "midi": 71,
          "name": "B4",
          "ticks": 16704,
          "time": 47.60177844791667,
          "velocity": 0.7322834645669292
        },
        {
          "duration": 0.13636350000000164,
          "durationTicks": 48,
          "midi": 71,
          "name": "B4",
          "ticks": 16800,
          "time": 47.87450544791667,
          "velocity": 0.5511811023622047
        },
        {
          "duration": 0.13636350000000164,
          "durationTicks": 48,
          "midi": 64,
          "name": "E4",
          "ticks": 16800,
          "time": 47.87450544791667,
          "velocity": 0.48031496062992124
        },
        {
          "duration": 0.13636350000000164,
          "durationTicks": 48,
          "midi": 69,
          "name": "A4",
          "ticks": 16896,
          "time": 48.14723244791667,
          "velocity": 0.5590551181102362
        },
        {
          "duration": 0.13636350000000164,
          "durationTicks": 48,
          "midi": 57,
          "name": "A3",
          "ticks": 16896,
          "time": 48.14723244791667,
          "velocity": 0.5433070866141733
        },
        {
          "duration": 0.13636350000000164,
          "durationTicks": 48,
          "midi": 72,
          "name": "C5",
          "ticks": 16992,
          "time": 48.41995944791667,
          "velocity": 0.6220472440944882
        },
        {
          "duration": 0.13636350000000164,
          "durationTicks": 48,
          "midi": 52,
          "name": "E3",
          "ticks": 16992,
          "time": 48.41995944791667,
          "velocity": 0.5196850393700787
        },
        {
          "duration": 0.13636350000000164,
          "durationTicks": 48,
          "midi": 76,
          "name": "E5",
          "ticks": 17088,
          "time": 48.69268644791667,
          "velocity": 0.6771653543307087
        },
        {
          "duration": 0.13636350000000164,
          "durationTicks": 48,
          "midi": 48,
          "name": "C3",
          "ticks": 17088,
          "time": 48.69268644791667,
          "velocity": 0.5275590551181102
        },
        {
          "duration": 0.13636349999999453,
          "durationTicks": 48,
          "midi": 79,
          "name": "G5",
          "ticks": 17184,
          "time": 48.965413447916674,
          "velocity": 0.6692913385826772
        },
        {
          "duration": 0.13636349999999453,
          "durationTicks": 48,
          "midi": 45,
          "name": "A2",
          "ticks": 17184,
          "time": 48.965413447916674,
          "velocity": 0.5511811023622047
        },
        {
          "duration": 0.13636350000000164,
          "durationTicks": 48,
          "midi": 81,
          "name": "A5",
          "ticks": 17280,
          "time": 49.23814044791667,
          "velocity": 0.6614173228346457
        },
        {
          "duration": 0.13636350000000164,
          "durationTicks": 48,
          "midi": 47,
          "name": "B2",
          "ticks": 17280,
          "time": 49.23814044791667,
          "velocity": 0.5984251968503937
        },
        {
          "duration": 0.13636350000000164,
          "durationTicks": 48,
          "midi": 83,
          "name": "B5",
          "ticks": 17376,
          "time": 49.51086744791667,
          "velocity": 0.6614173228346457
        },
        {
          "duration": 0.13636350000000164,
          "durationTicks": 48,
          "midi": 54,
          "name": "F#3",
          "ticks": 17376,
          "time": 49.51086744791667,
          "velocity": 0.6456692913385826
        },
        {
          "duration": 0.13636350000000164,
          "durationTicks": 48,
          "midi": 78,
          "name": "F#5",
          "ticks": 17472,
          "time": 49.78359444791667,
          "velocity": 0.5354330708661418
        },
        {
          "duration": 0.13636350000000164,
          "durationTicks": 48,
          "midi": 59,
          "name": "B3",
          "ticks": 17472,
          "time": 49.78359444791667,
          "velocity": 0.6456692913385826
        },
        {
          "duration": 0.13636350000000164,
          "durationTicks": 48,
          "midi": 74,
          "name": "D5",
          "ticks": 17568,
          "time": 50.05632144791667,
          "velocity": 0.49606299212598426
        },
        {
          "duration": 0.13636350000000164,
          "durationTicks": 48,
          "midi": 47,
          "name": "B2",
          "ticks": 17568,
          "time": 50.05632144791667,
          "velocity": 0.5275590551181102
        },
        {
          "duration": 0.2727270000000033,
          "durationTicks": 96,
          "midi": 76,
          "name": "E5",
          "ticks": 17664,
          "time": 50.32904844791667,
          "velocity": 0.6220472440944882
        },
        {
          "duration": 0.13636350000000164,
          "durationTicks": 48,
          "midi": 52,
          "name": "E3",
          "ticks": 17664,
          "time": 50.32904844791667,
          "velocity": 0.6299212598425197
        },
        {
          "duration": 0.13636349999999453,
          "durationTicks": 48,
          "midi": 59,
          "name": "B3",
          "ticks": 17760,
          "time": 50.60177544791667,
          "velocity": 0.6929133858267716
        },
        {
          "duration": 0.13636350000000164,
          "durationTicks": 48,
          "midi": 67,
          "name": "G4",
          "ticks": 17856,
          "time": 50.87450244791667,
          "velocity": 0.7244094488188977
        },
        {
          "duration": 0.13636350000000164,
          "durationTicks": 48,
          "midi": 59,
          "name": "B3",
          "ticks": 17952,
          "time": 51.14722944791667,
          "velocity": 0.5748031496062992
        },
        {
          "duration": 0.13636349999999453,
          "durationTicks": 48,
          "midi": 52,
          "name": "E3",
          "ticks": 18048,
          "time": 51.419956447916675,
          "velocity": 0.4881889763779528
        },
        {
          "duration": 0.2727270000000033,
          "durationTicks": 96,
          "midi": 71,
          "name": "B4",
          "ticks": 18336,
          "time": 52.23813744791667,
          "velocity": 0.5275590551181102
        },
        {
          "duration": 0.5454539999999923,
          "durationTicks": 192,
          "midi": 79,
          "name": "G5",
          "ticks": 18432,
          "time": 52.510864447916674,
          "velocity": 0.7007874015748031
        },
        {
          "duration": 0.27272699999999617,
          "durationTicks": 96,
          "midi": 52,
          "name": "E3",
          "ticks": 18432,
          "time": 52.510864447916674,
          "velocity": 0.5354330708661418
        },
        {
          "duration": 0.27272699999999617,
          "durationTicks": 96,
          "midi": 59,
          "name": "B3",
          "ticks": 18528,
          "time": 52.78359144791667,
          "velocity": 0.6692913385826772
        },
        {
          "duration": 0.2727270000000033,
          "durationTicks": 96,
          "midi": 67,
          "name": "G4",
          "ticks": 18624,
          "time": 53.05631844791667,
          "velocity": 0.6771653543307087
        },
        {
          "duration": 0.2727270000000033,
          "durationTicks": 96,
          "midi": 71,
          "name": "B4",
          "ticks": 18720,
          "time": 53.32904544791667,
          "velocity": 0.5118110236220472
        },
        {
          "duration": 0.2727270000000033,
          "durationTicks": 96,
          "midi": 52,
          "name": "E3",
          "ticks": 18720,
          "time": 53.32904544791667,
          "velocity": 0.5354330708661418
        },
        {
          "duration": 0.5454539999999923,
          "durationTicks": 192,
          "midi": 78,
          "name": "F#5",
          "ticks": 18816,
          "time": 53.60177244791667,
          "velocity": 0.7165354330708661
        },
        {
          "duration": 0.27272699999999617,
          "durationTicks": 96,
          "midi": 50,
          "name": "D3",
          "ticks": 18816,
          "time": 53.60177244791667,
          "velocity": 0.5433070866141733
        },
        {
          "duration": 0.27272699999999617,
          "durationTicks": 96,
          "midi": 59,
          "name": "B3",
          "ticks": 18912,
          "time": 53.87449944791667,
          "velocity": 0.6220472440944882
        },
        {
          "duration": 0.2727270000000033,
          "durationTicks": 96,
          "midi": 66,
          "name": "F#4",
          "ticks": 19008,
          "time": 54.147226447916665,
          "velocity": 0.7244094488188977
        },
        {
          "duration": 0.2727270000000033,
          "durationTicks": 96,
          "midi": 71,
          "name": "B4",
          "ticks": 19104,
          "time": 54.41995344791667,
          "velocity": 0.5196850393700787
        },
        {
          "duration": 0.2727270000000033,
          "durationTicks": 96,
          "midi": 50,
          "name": "D3",
          "ticks": 19104,
          "time": 54.41995344791667,
          "velocity": 0.5196850393700787
        },
        {
          "duration": 0.5454539999999994,
          "durationTicks": 192,
          "midi": 76,
          "name": "E5",
          "ticks": 19200,
          "time": 54.69268044791667,
          "velocity": 0.6771653543307087
        },
        {
          "duration": 0.2727270000000033,
          "durationTicks": 96,
          "midi": 48,
          "name": "C3",
          "ticks": 19200,
          "time": 54.69268044791667,
          "velocity": 0.6062992125984252
        },
        {
          "duration": 0.27272699999999617,
          "durationTicks": 96,
          "midi": 55,
          "name": "G3",
          "ticks": 19296,
          "time": 54.965407447916675,
          "velocity": 0.6062992125984252
        },
        {
          "duration": 0.27272699999999617,
          "durationTicks": 96,
          "midi": 74,
          "name": "D5",
          "ticks": 19392,
          "time": 55.23813444791667,
          "velocity": 0.5590551181102362
        },
        {
          "duration": 0.27272699999999617,
          "durationTicks": 96,
          "midi": 64,
          "name": "E4",
          "ticks": 19392,
          "time": 55.23813444791667,
          "velocity": 0.7401574803149606
        },
        {
          "duration": 0.2727270000000033,
          "durationTicks": 96,
          "midi": 72,
          "name": "C5",
          "ticks": 19488,
          "time": 55.51086144791667,
          "velocity": 0.5354330708661418
        },
        {
          "duration": 0.2727270000000033,
          "durationTicks": 96,
          "midi": 48,
          "name": "C3",
          "ticks": 19488,
          "time": 55.51086144791667,
          "velocity": 0.5511811023622047
        },
        {
          "duration": 0.5454539999999994,
          "durationTicks": 192,
          "midi": 74,
          "name": "D5",
          "ticks": 19584,
          "time": 55.78358844791667,
          "velocity": 0.6062992125984252
        },
        {
          "duration": 0.2727270000000033,
          "durationTicks": 96,
          "midi": 47,
          "name": "B2",
          "ticks": 19584,
          "time": 55.78358844791667,
          "velocity": 0.5669291338582677
        },
        {
          "duration": 0.27272699999999617,
          "durationTicks": 96,
          "midi": 55,
          "name": "G3",
          "ticks": 19680,
          "time": 56.056315447916674,
          "velocity": 0.6614173228346457
        },
        {
          "duration": 0.27272699999999617,
          "durationTicks": 96,
          "midi": 62,
          "name": "D4",
          "ticks": 19776,
          "time": 56.32904244791667,
          "velocity": 0.7165354330708661
        },
        {
          "duration": 0.2727270000000033,
          "durationTicks": 96,
          "midi": 67,
          "name": "G4",
          "ticks": 19872,
          "time": 56.601769447916666,
          "velocity": 0.5118110236220472
        },
        {
          "duration": 0.2727270000000033,
          "durationTicks": 96,
          "midi": 47,
          "name": "B2",
          "ticks": 19872,
          "time": 56.601769447916666,
          "velocity": 0.5196850393700787
        },
        {
          "duration": 0.2727270000000033,
          "durationTicks": 96,
          "midi": 69,
          "name": "A4",
          "ticks": 19968,
          "time": 56.87449644791667,
          "velocity": 0.6456692913385826
        },
        {
          "duration": 0.2727270000000033,
          "durationTicks": 96,
          "midi": 45,
          "name": "A2",
          "ticks": 19968,
          "time": 56.87449644791667,
          "velocity": 0.5433070866141733
        },
        {
          "duration": 0.27272699999999617,
          "durationTicks": 96,
          "midi": 72,
          "name": "C5",
          "ticks": 20064,
          "time": 57.14722344791667,
          "velocity": 0.6850393700787402
        },
        {
          "duration": 0.27272699999999617,
          "durationTicks": 96,
          "midi": 52,
          "name": "E3",
          "ticks": 20064,
          "time": 57.14722344791667,
          "velocity": 0.6456692913385826
        },
        {
          "duration": 0.27272699999999617,
          "durationTicks": 96,
          "midi": 76,
          "name": "E5",
          "ticks": 20160,
          "time": 57.41995044791667,
          "velocity": 0.6850393700787402
        },
        {
          "duration": 0.27272699999999617,
          "durationTicks": 96,
          "midi": 60,
          "name": "C4",
          "ticks": 20160,
          "time": 57.41995044791667,
          "velocity": 0.7244094488188977
        },
        {
          "duration": 0.2727270000000033,
          "durationTicks": 96,
          "midi": 79,
          "name": "G5",
          "ticks": 20256,
          "time": 57.692677447916665,
          "velocity": 0.6614173228346457
        },
        {
          "duration": 0.2727270000000033,
          "durationTicks": 96,
          "midi": 45,
          "name": "A2",
          "ticks": 20256,
          "time": 57.692677447916665,
          "velocity": 0.5118110236220472
        },
        {
          "duration": 0.5454540000000065,
          "durationTicks": 192,
          "midi": 78,
          "name": "F#5",
          "ticks": 20352,
          "time": 57.96540444791667,
          "velocity": 0.5984251968503937
        },
        {
          "duration": 0.2727270000000033,
          "durationTicks": 96,
          "midi": 50,
          "name": "D3",
          "ticks": 20352,
          "time": 57.96540444791667,
          "velocity": 0.5826771653543307
        },
        {
          "duration": 0.2727270000000033,
          "durationTicks": 96,
          "midi": 57,
          "name": "A3",
          "ticks": 20448,
          "time": 58.23813144791667,
          "velocity": 0.6535433070866141
        },
        {
          "duration": 0.27272699999999617,
          "durationTicks": 96,
          "midi": 71,
          "name": "B4",
          "ticks": 20544,
          "time": 58.510858447916675,
          "velocity": 0.49606299212598426
        },
        {
          "duration": 0.27272699999999617,
          "durationTicks": 96,
          "midi": 66,
          "name": "F#4",
          "ticks": 20544,
          "time": 58.510858447916675,
          "velocity": 0.7322834645669292
        },
        {
          "duration": 0.27272699999999617,
          "durationTicks": 96,
          "midi": 69,
          "name": "A4",
          "ticks": 20640,
          "time": 58.78358544791667,
          "velocity": 0.5590551181102362
        },
        {
          "duration": 0.27272699999999617,
          "durationTicks": 96,
          "midi": 50,
          "name": "D3",
          "ticks": 20640,
          "time": 58.78358544791667,
          "velocity": 0.5354330708661418
        },
        {
          "duration": 0.5714269999999999,
          "durationTicks": 192,
          "midi": 67,
          "name": "G4",
          "ticks": 20736,
          "time": 59.05631244791667,
          "velocity": 0.5669291338582677
        },
        {
          "duration": 0.28571349999999995,
          "durationTicks": 96,
          "midi": 43,
          "name": "G2",
          "ticks": 20736,
          "time": 59.05631244791667,
          "velocity": 0.5354330708661418
        },
        {
          "duration": 0.28571349999999995,
          "durationTicks": 96,
          "midi": 50,
          "name": "D3",
          "ticks": 20832,
          "time": 59.34202594791667,
          "velocity": 0.6456692913385826
        },
        {
          "duration": 0.8571404999999999,
          "durationTicks": 288,
          "midi": 74,
          "name": "D5",
          "ticks": 20928,
          "time": 59.62773944791667,
          "velocity": 0.6771653543307087
        },
        {
          "duration": 0.28571349999999995,
          "durationTicks": 96,
          "midi": 55,
          "name": "G3",
          "ticks": 20928,
          "time": 59.62773944791667,
          "velocity": 0.6456692913385826
        },
        {
          "duration": 0.28571349999999995,
          "durationTicks": 96,
          "midi": 59,
          "name": "B3",
          "ticks": 21024,
          "time": 59.91345294791667,
          "velocity": 0.6456692913385826
        },
        {
          "duration": 0.28571349999999995,
          "durationTicks": 96,
          "midi": 55,
          "name": "G3",
          "ticks": 21120,
          "time": 60.19916644791667,
          "velocity": 0.5511811023622047
        },
        {
          "duration": 0.28571349999999995,
          "durationTicks": 96,
          "midi": 67,
          "name": "G4",
          "ticks": 21216,
          "time": 60.48487994791667,
          "velocity": 0.5118110236220472
        },
        {
          "duration": 0.28571349999999995,
          "durationTicks": 96,
          "midi": 50,
          "name": "D3",
          "ticks": 21216,
          "time": 60.48487994791667,
          "velocity": 0.5511811023622047
        },
        {
          "duration": 0.5714269999999999,
          "durationTicks": 192,
          "midi": 66,
          "name": "F#4",
          "ticks": 21312,
          "time": 60.77059344791667,
          "velocity": 0.5826771653543307
        },
        {
          "duration": 0.28571349999999995,
          "durationTicks": 96,
          "midi": 47,
          "name": "B2",
          "ticks": 21312,
          "time": 60.77059344791667,
          "velocity": 0.5748031496062992
        },
        {
          "duration": 0.28571349999999995,
          "durationTicks": 96,
          "midi": 54,
          "name": "F#3",
          "ticks": 21408,
          "time": 61.05630694791667,
          "velocity": 0.6062992125984252
        },
        {
          "duration": 0.8571404999999999,
          "durationTicks": 288,
          "midi": 74,
          "name": "D5",
          "ticks": 21504,
          "time": 61.34202044791667,
          "velocity": 0.7086614173228346
        },
        {
          "duration": 0.28571349999999995,
          "durationTicks": 96,
          "midi": 59,
          "name": "B3",
          "ticks": 21504,
          "time": 61.34202044791667,
          "velocity": 0.6614173228346457
        },
        {
          "duration": 0.28571349999999995,
          "durationTicks": 96,
          "midi": 62,
          "name": "D4",
          "ticks": 21600,
          "time": 61.62773394791667,
          "velocity": 0.6220472440944882
        },
        {
          "duration": 0.28571349999999995,
          "durationTicks": 96,
          "midi": 59,
          "name": "B3",
          "ticks": 21696,
          "time": 61.91344744791667,
          "velocity": 0.5590551181102362
        },
        {
          "duration": 0.28571349999999995,
          "durationTicks": 96,
          "midi": 74,
          "name": "D5",
          "ticks": 21792,
          "time": 62.19916094791667,
          "velocity": 0.6299212598425197
        },
        {
          "duration": 0.28571349999999995,
          "durationTicks": 96,
          "midi": 54,
          "name": "F#3",
          "ticks": 21792,
          "time": 62.19916094791667,
          "velocity": 0.5826771653543307
        },
        {
          "duration": 0.5714269999999999,
          "durationTicks": 192,
          "midi": 76,
          "name": "E5",
          "ticks": 21888,
          "time": 62.48487444791667,
          "velocity": 0.6456692913385826
        },
        {
          "duration": 0.28571349999999995,
          "durationTicks": 96,
          "midi": 48,
          "name": "C3",
          "ticks": 21888,
          "time": 62.48487444791667,
          "velocity": 0.5275590551181102
        },
        {
          "duration": 0.28571349999999995,
          "durationTicks": 96,
          "midi": 55,
          "name": "G3",
          "ticks": 21984,
          "time": 62.77058794791667,
          "velocity": 0.6692913385826772
        },
        {
          "duration": 0.5714269999999999,
          "durationTicks": 192,
          "midi": 74,
          "name": "D5",
          "ticks": 22080,
          "time": 63.05630144791667,
          "velocity": 0.5433070866141733
        },
        {
          "duration": 0.28571349999999995,
          "durationTicks": 96,
          "midi": 60,
          "name": "C4",
          "ticks": 22080,
          "time": 63.05630144791667,
          "velocity": 0.6771653543307087
        },
        {
          "duration": 0.28571349999999995,
          "durationTicks": 96,
          "midi": 64,
          "name": "E4",
          "ticks": 22176,
          "time": 63.34201494791667,
          "velocity": 0.7401574803149606
        },
        {
          "duration": 0.5714269999999999,
          "durationTicks": 192,
          "midi": 72,
          "name": "C5",
          "ticks": 22272,
          "time": 63.62772844791667,
          "velocity": 0.5669291338582677
        },
        {
          "duration": 0.28571349999999995,
          "durationTicks": 96,
          "midi": 60,
          "name": "C4",
          "ticks": 22272,
          "time": 63.62772844791667,
          "velocity": 0.5511811023622047
        },
        {
          "duration": 0.28571349999999995,
          "durationTicks": 96,
          "midi": 55,
          "name": "G3",
          "ticks": 22368,
          "time": 63.91344194791667,
          "velocity": 0.5511811023622047
        },
        {
          "duration": 1.1428539999999998,
          "durationTicks": 384,
          "midi": 74,
          "name": "D5",
          "ticks": 22464,
          "time": 64.19915544791667,
          "velocity": 0.6299212598425197
        },
        {
          "duration": 0.28571349999999995,
          "durationTicks": 96,
          "midi": 47,
          "name": "B2",
          "ticks": 22464,
          "time": 64.19915544791667,
          "velocity": 0.5354330708661418
        },
        {
          "duration": 0.28571349999999995,
          "durationTicks": 96,
          "midi": 55,
          "name": "G3",
          "ticks": 22560,
          "time": 64.48486894791667,
          "velocity": 0.6692913385826772
        },
        {
          "duration": 0.28571349999999995,
          "durationTicks": 96,
          "midi": 62,
          "name": "D4",
          "ticks": 22656,
          "time": 64.77058244791667,
          "velocity": 0.7086614173228346
        },
        {
          "duration": 0.28571349999999995,
          "durationTicks": 96,
          "midi": 55,
          "name": "G3",
          "ticks": 22752,
          "time": 65.05629594791667,
          "velocity": 0.5511811023622047
        },
        {
          "duration": 0.28571349999999995,
          "durationTicks": 96,
          "midi": 76,
          "name": "E5",
          "ticks": 22848,
          "time": 65.34200944791667,
          "velocity": 0.6771653543307087
        },
        {
          "duration": 0.28571349999999995,
          "durationTicks": 96,
          "midi": 64,
          "name": "E4",
          "ticks": 22848,
          "time": 65.34200944791667,
          "velocity": 0.7322834645669292
        },
        {
          "duration": 0.28571349999999995,
          "durationTicks": 96,
          "midi": 78,
          "name": "F#5",
          "ticks": 22944,
          "time": 65.62772294791667,
          "velocity": 0.6299212598425197
        },
        {
          "duration": 0.28571349999999995,
          "durationTicks": 96,
          "midi": 55,
          "name": "G3",
          "ticks": 22944,
          "time": 65.62772294791667,
          "velocity": 0.5590551181102362
        },
        {
          "duration": 0.5714269999999999,
          "durationTicks": 192,
          "midi": 79,
          "name": "G5",
          "ticks": 23040,
          "time": 65.91343644791667,
          "velocity": 0.6377952755905512
        },
        {
          "duration": 0.28571349999999995,
          "durationTicks": 96,
          "midi": 48,
          "name": "C3",
          "ticks": 23040,
          "time": 65.91343644791667,
          "velocity": 0.5511811023622047
        },
        {
          "duration": 0.28571349999999995,
          "durationTicks": 96,
          "midi": 55,
          "name": "G3",
          "ticks": 23136,
          "time": 66.19914994791667,
          "velocity": 0.6614173228346457
        },
        {
          "duration": 0.5714269999999999,
          "durationTicks": 192,
          "midi": 78,
          "name": "F#5",
          "ticks": 23232,
          "time": 66.48486344791667,
          "velocity": 0.5511811023622047
        },
        {
          "duration": 0.28571349999999995,
          "durationTicks": 96,
          "midi": 62,
          "name": "D4",
          "ticks": 23232,
          "time": 66.48486344791667,
          "velocity": 0.7322834645669292
        },
        {
          "duration": 0.28571349999999995,
          "durationTicks": 96,
          "midi": 55,
          "name": "G3",
          "ticks": 23328,
          "time": 66.77057694791667,
          "velocity": 0.5748031496062992
        },
        {
          "duration": 0.5714269999999999,
          "durationTicks": 192,
          "midi": 76,
          "name": "E5",
          "ticks": 23424,
          "time": 67.05629044791667,
          "velocity": 0.5669291338582677
        },
        {
          "duration": 0.28571349999999995,
          "durationTicks": 96,
          "midi": 60,
          "name": "C4",
          "ticks": 23424,
          "time": 67.05629044791667,
          "velocity": 0.6929133858267716
        },
        {
          "duration": 0.28571349999999995,
          "durationTicks": 96,
          "midi": 55,
          "name": "G3",
          "ticks": 23520,
          "time": 67.34200394791667,
          "velocity": 0.5511811023622047
        },
        {
          "duration": 0.5714269999999999,
          "durationTicks": 192,
          "midi": 74,
          "name": "D5",
          "ticks": 23616,
          "time": 67.62771744791667,
          "velocity": 0.5354330708661418
        },
        {
          "duration": 0.28571349999999995,
          "durationTicks": 96,
          "midi": 47,
          "name": "B2",
          "ticks": 23616,
          "time": 67.62771744791667,
          "velocity": 0.5590551181102362
        },
        {
          "duration": 0.28571349999999995,
          "durationTicks": 96,
          "midi": 55,
          "name": "G3",
          "ticks": 23712,
          "time": 67.91343094791667,
          "velocity": 0.6535433070866141
        },
        {
          "duration": 0.5714269999999999,
          "durationTicks": 192,
          "midi": 79,
          "name": "G5",
          "ticks": 23808,
          "time": 68.19914444791667,
          "velocity": 0.6771653543307087
        },
        {
          "duration": 0.28571349999999995,
          "durationTicks": 96,
          "midi": 62,
          "name": "D4",
          "ticks": 23808,
          "time": 68.19914444791667,
          "velocity": 0.7165354330708661
        },
        {
          "duration": 0.28571349999999995,
          "durationTicks": 96,
          "midi": 55,
          "name": "G3",
          "ticks": 23904,
          "time": 68.48485794791667,
          "velocity": 0.5905511811023622
        },
        {
          "duration": 0.28571349999999995,
          "durationTicks": 96,
          "midi": 67,
          "name": "G4",
          "ticks": 24000,
          "time": 68.77057144791667,
          "velocity": 0.5275590551181102
        },
        {
          "duration": 0.28571349999999995,
          "durationTicks": 96,
          "midi": 62,
          "name": "D4",
          "ticks": 24000,
          "time": 68.77057144791667,
          "velocity": 0.7007874015748031
        },
        {
          "duration": 0.28571349999999995,
          "durationTicks": 96,
          "midi": 69,
          "name": "A4",
          "ticks": 24096,
          "time": 69.05628494791667,
          "velocity": 0.6220472440944882
        },
        {
          "duration": 0.28571349999999995,
          "durationTicks": 96,
          "midi": 54,
          "name": "F#3",
          "ticks": 24096,
          "time": 69.05628494791667,
          "velocity": 0.5669291338582677
        },
        {
          "duration": 0.8571404999999999,
          "durationTicks": 288,
          "midi": 71,
          "name": "B4",
          "ticks": 24192,
          "time": 69.34199844791667,
          "velocity": 0.6299212598425197
        },
        {
          "duration": 0.28571349999999995,
          "durationTicks": 96,
          "midi": 52,
          "name": "E3",
          "ticks": 24192,
          "time": 69.34199844791667,
          "velocity": 0.5433070866141733
        },
        {
          "duration": 0.28571349999999995,
          "durationTicks": 96,
          "midi": 55,
          "name": "G3",
          "ticks": 24288,
          "time": 69.62771194791667,
          "velocity": 0.5984251968503937
        },
        {
          "duration": 0.28571349999999995,
          "durationTicks": 96,
          "midi": 64,
          "name": "E4",
          "ticks": 24384,
          "time": 69.91342544791667,
          "velocity": 0.7401574803149606
        },
        {
          "duration": 0.28571349999999995,
          "durationTicks": 96,
          "midi": 67,
          "name": "G4",
          "ticks": 24384,
          "time": 69.91342544791667,
          "velocity": 0.7401574803149606
        },
        {
          "duration": 0.28571349999999995,
          "durationTicks": 96,
          "midi": 76,
          "name": "E5",
          "ticks": 24480,
          "time": 70.19913894791667,
          "velocity": 0.6850393700787402
        },
        {
          "duration": 0.28571349999999995,
          "durationTicks": 96,
          "midi": 55,
          "name": "G3",
          "ticks": 24480,
          "time": 70.19913894791667,
          "velocity": 0.5354330708661418
        },
        {
          "duration": 0.28571349999999995,
          "durationTicks": 96,
          "midi": 71,
          "name": "B4",
          "ticks": 24576,
          "time": 70.48485244791667,
          "velocity": 0.5669291338582677
        },
        {
          "duration": 0.28571349999999995,
          "durationTicks": 96,
          "midi": 64,
          "name": "E4",
          "ticks": 24576,
          "time": 70.48485244791667,
          "velocity": 0.7244094488188977
        },
        {
          "duration": 0.28571349999999995,
          "durationTicks": 96,
          "midi": 67,
          "name": "G4",
          "ticks": 24576,
          "time": 70.48485244791667,
          "velocity": 0.7244094488188977
        },
        {
          "duration": 0.28571349999999995,
          "durationTicks": 96,
          "midi": 67,
          "name": "G4",
          "ticks": 24672,
          "time": 70.77056594791667,
          "velocity": 0.5275590551181102
        },
        {
          "duration": 0.28571349999999995,
          "durationTicks": 96,
          "midi": 55,
          "name": "G3",
          "ticks": 24672,
          "time": 70.77056594791667,
          "velocity": 0.5590551181102362
        },
        {
          "duration": 1.7142809999999997,
          "durationTicks": 576,
          "midi": 69,
          "name": "A4",
          "ticks": 24768,
          "time": 71.05627944791667,
          "velocity": 0.6456692913385826
        },
        {
          "duration": 0.28571349999999995,
          "durationTicks": 96,
          "midi": 50,
          "name": "D3",
          "ticks": 24768,
          "time": 71.05627944791667,
          "velocity": 0.5669291338582677
        },
        {
          "duration": 0.28571349999999995,
          "durationTicks": 96,
          "midi": 57,
          "name": "A3",
          "ticks": 24864,
          "time": 71.34199294791667,
          "velocity": 0.6614173228346457
        },
        {
          "duration": 0.5714269999999999,
          "durationTicks": 192,
          "midi": 62,
          "name": "D4",
          "ticks": 24960,
          "time": 71.62770644791667,
          "velocity": 0.7559055118110236
        },
        {
          "duration": 0.5714269999999999,
          "durationTicks": 192,
          "midi": 67,
          "name": "G4",
          "ticks": 24960,
          "time": 71.62770644791667,
          "velocity": 0.7559055118110236
        },
        {
          "duration": 0.28571349999999995,
          "durationTicks": 96,
          "midi": 57,
          "name": "A3",
          "ticks": 25056,
          "time": 71.91341994791667,
          "velocity": 0.7637795275590551
        },
        {
          "duration": 0.5714269999999999,
          "durationTicks": 192,
          "midi": 62,
          "name": "D4",
          "ticks": 25152,
          "time": 72.19913344791667,
          "velocity": 0.5984251968503937
        },
        {
          "duration": 0.5714269999999999,
          "durationTicks": 192,
          "midi": 66,
          "name": "F#4",
          "ticks": 25152,
          "time": 72.19913344791667,
          "velocity": 0.5984251968503937
        },
        {
          "duration": 0.5714269999999999,
          "durationTicks": 192,
          "midi": 67,
          "name": "G4",
          "ticks": 25344,
          "time": 72.77056044791667,
          "velocity": 0.5669291338582677
        },
        {
          "duration": 0.28571349999999995,
          "durationTicks": 96,
          "midi": 43,
          "name": "G2",
          "ticks": 25344,
          "time": 72.77056044791667,
          "velocity": 0.5275590551181102
        },
        {
          "duration": 0.28571349999999995,
          "durationTicks": 96,
          "midi": 50,
          "name": "D3",
          "ticks": 25440,
          "time": 73.05627394791667,
          "velocity": 0.6535433070866141
        },
        {
          "duration": 0.8571404999999999,
          "durationTicks": 288,
          "midi": 74,
          "name": "D5",
          "ticks": 25536,
          "time": 73.34198744791667,
          "velocity": 0.6771653543307087
        },
        {
          "duration": 0.28571349999999995,
          "durationTicks": 96,
          "midi": 55,
          "name": "G3",
          "ticks": 25536,
          "time": 73.34198744791667,
          "velocity": 0.5984251968503937
        },
        {
          "duration": 0.28571349999999995,
          "durationTicks": 96,
          "midi": 59,
          "name": "B3",
          "ticks": 25632,
          "time": 73.62770094791667,
          "velocity": 0.6299212598425197
        },
        {
          "duration": 0.28571349999999995,
          "durationTicks": 96,
          "midi": 55,
          "name": "G3",
          "ticks": 25728,
          "time": 73.91341444791667,
          "velocity": 0.5905511811023622
        },
        {
          "duration": 0.28571349999999995,
          "durationTicks": 96,
          "midi": 67,
          "name": "G4",
          "ticks": 25824,
          "time": 74.19912794791666,
          "velocity": 0.49606299212598426
        },
        {
          "duration": 0.28571349999999995,
          "durationTicks": 96,
          "midi": 50,
          "name": "D3",
          "ticks": 25824,
          "time": 74.19912794791666,
          "velocity": 0.5511811023622047
        },
        {
          "duration": 0.5714269999999999,
          "durationTicks": 192,
          "midi": 66,
          "name": "F#4",
          "ticks": 25920,
          "time": 74.48484144791666,
          "velocity": 0.5905511811023622
        },
        {
          "duration": 0.28571349999999995,
          "durationTicks": 96,
          "midi": 47,
          "name": "B2",
          "ticks": 25920,
          "time": 74.48484144791666,
          "velocity": 0.5669291338582677
        },
        {
          "duration": 0.28571349999999995,
          "durationTicks": 96,
          "midi": 54,
          "name": "F#3",
          "ticks": 26016,
          "time": 74.77055494791666,
          "velocity": 0.6456692913385826
        },
        {
          "duration": 0.8571404999999999,
          "durationTicks": 288,
          "midi": 74,
          "name": "D5",
          "ticks": 26112,
          "time": 75.05626844791666,
          "velocity": 0.7007874015748031
        },
        {
          "duration": 0.28571349999999995,
          "durationTicks": 96,
          "midi": 59,
          "name": "B3",
          "ticks": 26112,
          "time": 75.05626844791666,
          "velocity": 0.6141732283464567
        },
        {
          "duration": 0.28571349999999995,
          "durationTicks": 96,
          "midi": 62,
          "name": "D4",
          "ticks": 26208,
          "time": 75.34198194791666,
          "velocity": 0.6377952755905512
        },
        {
          "duration": 0.28571349999999995,
          "durationTicks": 96,
          "midi": 59,
          "name": "B3",
          "ticks": 26304,
          "time": 75.62769544791666,
          "velocity": 0.5905511811023622
        },
        {
          "duration": 0.28571349999999995,
          "durationTicks": 96,
          "midi": 74,
          "name": "D5",
          "ticks": 26400,
          "time": 75.91340894791666,
          "velocity": 0.5826771653543307
        },
        {
          "duration": 0.28571349999999995,
          "durationTicks": 96,
          "midi": 54,
          "name": "F#3",
          "ticks": 26400,
          "time": 75.91340894791666,
          "velocity": 0.5275590551181102
        },
        {
          "duration": 0.5714269999999999,
          "durationTicks": 192,
          "midi": 76,
          "name": "E5",
          "ticks": 26496,
          "time": 76.19912244791666,
          "velocity": 0.6456692913385826
        },
        {
          "duration": 0.28571349999999995,
          "durationTicks": 96,
          "midi": 48,
          "name": "C3",
          "ticks": 26496,
          "time": 76.19912244791666,
          "velocity": 0.5354330708661418
        },
        {
          "duration": 0.28571349999999995,
          "durationTicks": 96,
          "midi": 55,
          "name": "G3",
          "ticks": 26592,
          "time": 76.48483594791666,
          "velocity": 0.6456692913385826
        },
        {
          "duration": 0.5714269999999999,
          "durationTicks": 192,
          "midi": 74,
          "name": "D5",
          "ticks": 26688,
          "time": 76.77054944791666,
          "velocity": 0.5669291338582677
        },
        {
          "duration": 0.28571349999999995,
          "durationTicks": 96,
          "midi": 60,
          "name": "C4",
          "ticks": 26688,
          "time": 76.77054944791666,
          "velocity": 0.7322834645669292
        },
        {
          "duration": 0.28571349999999995,
          "durationTicks": 96,
          "midi": 64,
          "name": "E4",
          "ticks": 26784,
          "time": 77.05626294791666,
          "velocity": 0.6850393700787402
        },
        {
          "duration": 0.5714269999999999,
          "durationTicks": 192,
          "midi": 72,
          "name": "C5",
          "ticks": 26880,
          "time": 77.34197644791666,
          "velocity": 0.5511811023622047
        },
        {
          "duration": 0.28571349999999995,
          "durationTicks": 96,
          "midi": 60,
          "name": "C4",
          "ticks": 26880,
          "time": 77.34197644791666,
          "velocity": 0.5590551181102362
        },
        {
          "duration": 0.28571349999999995,
          "durationTicks": 96,
          "midi": 55,
          "name": "G3",
          "ticks": 26976,
          "time": 77.62768994791666,
          "velocity": 0.5433070866141733
        },
        {
          "duration": 1.1428539999999998,
          "durationTicks": 384,
          "midi": 74,
          "name": "D5",
          "ticks": 27072,
          "time": 77.91340344791666,
          "velocity": 0.6299212598425197
        },
        {
          "duration": 0.28571349999999995,
          "durationTicks": 96,
          "midi": 47,
          "name": "B2",
          "ticks": 27072,
          "time": 77.91340344791666,
          "velocity": 0.5511811023622047
        },
        {
          "duration": 0.28571349999999995,
          "durationTicks": 96,
          "midi": 55,
          "name": "G3",
          "ticks": 27168,
          "time": 78.19911694791666,
          "velocity": 0.6535433070866141
        },
        {
          "duration": 0.28571349999999995,
          "durationTicks": 96,
          "midi": 62,
          "name": "D4",
          "ticks": 27264,
          "time": 78.48483044791666,
          "velocity": 0.6850393700787402
        },
        {
          "duration": 0.28571349999999995,
          "durationTicks": 96,
          "midi": 55,
          "name": "G3",
          "ticks": 27360,
          "time": 78.77054394791666,
          "velocity": 0.5669291338582677
        },
        {
          "duration": 0.28571349999999995,
          "durationTicks": 96,
          "midi": 76,
          "name": "E5",
          "ticks": 27456,
          "time": 79.05625744791666,
          "velocity": 0.6692913385826772
        },
        {
          "duration": 0.28571349999999995,
          "durationTicks": 96,
          "midi": 64,
          "name": "E4",
          "ticks": 27456,
          "time": 79.05625744791666,
          "velocity": 0.7480314960629921
        },
        {
          "duration": 0.28571349999999995,
          "durationTicks": 96,
          "midi": 78,
          "name": "F#5",
          "ticks": 27552,
          "time": 79.34197094791666,
          "velocity": 0.6456692913385826
        },
        {
          "duration": 0.28571349999999995,
          "durationTicks": 96,
          "midi": 55,
          "name": "G3",
          "ticks": 27552,
          "time": 79.34197094791666,
          "velocity": 0.5826771653543307
        },
        {
          "duration": 0.5714269999999999,
          "durationTicks": 192,
          "midi": 79,
          "name": "G5",
          "ticks": 27648,
          "time": 79.62768444791666,
          "velocity": 0.6220472440944882
        },
        {
          "duration": 0.28571349999999995,
          "durationTicks": 96,
          "midi": 48,
          "name": "C3",
          "ticks": 27648,
          "time": 79.62768444791666,
          "velocity": 0.5433070866141733
        },
        {
          "duration": 0.28571349999999995,
          "durationTicks": 96,
          "midi": 55,
          "name": "G3",
          "ticks": 27744,
          "time": 79.91339794791666,
          "velocity": 0.6535433070866141
        },
        {
          "duration": 0.5714269999999999,
          "durationTicks": 192,
          "midi": 78,
          "name": "F#5",
          "ticks": 27840,
          "time": 80.19911144791666,
          "velocity": 0.5984251968503937
        },
        {
          "duration": 0.28571349999999995,
          "durationTicks": 96,
          "midi": 62,
          "name": "D4",
          "ticks": 27840,
          "time": 80.19911144791666,
          "velocity": 0.7165354330708661
        },
        {
          "duration": 0.28571349999999995,
          "durationTicks": 96,
          "midi": 55,
          "name": "G3",
          "ticks": 27936,
          "time": 80.48482494791666,
          "velocity": 0.5511811023622047
        },
        {
          "duration": 0.5714269999999999,
          "durationTicks": 192,
          "midi": 76,
          "name": "E5",
          "ticks": 28032,
          "time": 80.77053844791666,
          "velocity": 0.5984251968503937
        },
        {
          "duration": 0.28571349999999995,
          "durationTicks": 96,
          "midi": 60,
          "name": "C4",
          "ticks": 28032,
          "time": 80.77053844791666,
          "velocity": 0.6535433070866141
        },
        {
          "duration": 0.28571349999999995,
          "durationTicks": 96,
          "midi": 55,
          "name": "G3",
          "ticks": 28128,
          "time": 81.05625194791666,
          "velocity": 0.5826771653543307
        },
        {
          "duration": 0.5714269999999999,
          "durationTicks": 192,
          "midi": 74,
          "name": "D5",
          "ticks": 28224,
          "time": 81.34196544791666,
          "velocity": 0.5511811023622047
        },
        {
          "duration": 0.28571349999999995,
          "durationTicks": 96,
          "midi": 47,
          "name": "B2",
          "ticks": 28224,
          "time": 81.34196544791666,
          "velocity": 0.5511811023622047
        },
        {
          "duration": 0.28571349999999995,
          "durationTicks": 96,
          "midi": 55,
          "name": "G3",
          "ticks": 28320,
          "time": 81.62767894791666,
          "velocity": 0.6377952755905512
        },
        {
          "duration": 0.5714269999999999,
          "durationTicks": 192,
          "midi": 79,
          "name": "G5",
          "ticks": 28416,
          "time": 81.91339244791666,
          "velocity": 0.6692913385826772
        },
        {
          "duration": 0.28571349999999995,
          "durationTicks": 96,
          "midi": 62,
          "name": "D4",
          "ticks": 28416,
          "time": 81.91339244791666,
          "velocity": 0.7244094488188977
        },
        {
          "duration": 0.28571349999999995,
          "durationTicks": 96,
          "midi": 55,
          "name": "G3",
          "ticks": 28512,
          "time": 82.19910594791666,
          "velocity": 0.5748031496062992
        },
        {
          "duration": 0.5714269999999999,
          "durationTicks": 192,
          "midi": 83,
          "name": "B5",
          "ticks": 28608,
          "time": 82.48481944791666,
          "velocity": 0.6929133858267716
        },
        {
          "duration": 0.28571349999999995,
          "durationTicks": 96,
          "midi": 59,
          "name": "B3",
          "ticks": 28608,
          "time": 82.48481944791666,
          "velocity": 0.6614173228346457
        },
        {
          "duration": 0.28571349999999995,
          "durationTicks": 96,
          "midi": 55,
          "name": "G3",
          "ticks": 28704,
          "time": 82.77053294791666,
          "velocity": 0.5433070866141733
        },
        {
          "duration": 0.5714269999999999,
          "durationTicks": 192,
          "midi": 84,
          "name": "C6",
          "ticks": 28800,
          "time": 83.05624644791666,
          "velocity": 0.6141732283464567
        },
        {
          "duration": 0.28571349999999995,
          "durationTicks": 96,
          "midi": 52,
          "name": "E3",
          "ticks": 28800,
          "time": 83.05624644791666,
          "velocity": 0.5905511811023622
        },
        {
          "duration": 0.28571349999999995,
          "durationTicks": 96,
          "midi": 55,
          "name": "G3",
          "ticks": 28896,
          "time": 83.34195994791666,
          "velocity": 0.6062992125984252
        },
        {
          "duration": 0.28571349999999995,
          "durationTicks": 96,
          "midi": 76,
          "name": "E5",
          "ticks": 28992,
          "time": 83.62767344791666,
          "velocity": 0.5196850393700787
        },
        {
          "duration": 0.28571349999999995,
          "durationTicks": 96,
          "midi": 64,
          "name": "E4",
          "ticks": 28992,
          "time": 83.62767344791666,
          "velocity": 0.7007874015748031
        },
        {
          "duration": 0.28571349999999995,
          "durationTicks": 96,
          "midi": 78,
          "name": "F#5",
          "ticks": 29088,
          "time": 83.91338694791666,
          "velocity": 0.6456692913385826
        },
        {
          "duration": 0.28571349999999995,
          "durationTicks": 96,
          "midi": 62,
          "name": "D4",
          "ticks": 29088,
          "time": 83.91338694791666,
          "velocity": 0.5748031496062992
        },
        {
          "duration": 0.28571349999999995,
          "durationTicks": 96,
          "midi": 83,
          "name": "B5",
          "ticks": 29184,
          "time": 84.19910044791666,
          "velocity": 0.6771653543307087
        },
        {
          "duration": 0.28571349999999995,
          "durationTicks": 96,
          "midi": 60,
          "name": "C4",
          "ticks": 29184,
          "time": 84.19910044791666,
          "velocity": 0.5590551181102362
        },
        {
          "duration": 0.28571349999999995,
          "durationTicks": 96,
          "midi": 81,
          "name": "A5",
          "ticks": 29280,
          "time": 84.48481394791666,
          "velocity": 0.5590551181102362
        },
        {
          "duration": 0.28571349999999995,
          "durationTicks": 96,
          "midi": 57,
          "name": "A3",
          "ticks": 29280,
          "time": 84.48481394791666,
          "velocity": 0.5669291338582677
        },
        {
          "duration": 0.8571390000000036,
          "durationTicks": 288,
          "midi": 79,
          "name": "G5",
          "ticks": 29376,
          "time": 84.77052744791666,
          "velocity": 0.5433070866141733
        },
        {
          "duration": 0.2857130000000012,
          "durationTicks": 96,
          "midi": 43,
          "name": "G2",
          "ticks": 29376,
          "time": 84.77052744791666,
          "velocity": 0.5433070866141733
        },
        {
          "duration": 0.2857130000000012,
          "durationTicks": 96,
          "midi": 50,
          "name": "D3",
          "ticks": 29472,
          "time": 85.05624044791666,
          "velocity": 0.6299212598425197
        },
        {
          "duration": 0.2857130000000012,
          "durationTicks": 96,
          "midi": 55,
          "name": "G3",
          "ticks": 29568,
          "time": 85.34195344791667,
          "velocity": 0.6299212598425197
        },
        {
          "duration": 0.25,
          "durationTicks": 96,
          "midi": 59,
          "name": "B3",
          "ticks": 29664,
          "time": 85.62766644791667,
          "velocity": 0.6141732283464567
        },
        {
          "duration": 0.25,
          "durationTicks": 96,
          "midi": 76,
          "name": "E5",
          "ticks": 29760,
          "time": 85.87766644791667,
          "velocity": 0.5433070866141733
        },
        {
          "duration": 2.2499944999999997,
          "durationTicks": 768,
          "midi": 71,
          "name": "B4",
          "ticks": 29760,
          "time": 85.87766644791667,
          "velocity": 0.5354330708661418
        },
        {
          "duration": 0.8214269999999999,
          "durationTicks": 288,
          "midi": 48,
          "name": "C3",
          "ticks": 29760,
          "time": 85.87766644791667,
          "velocity": 0.5118110236220472
        },
        {
          "duration": 0.28571349999999995,
          "durationTicks": 96,
          "midi": 79,
          "name": "G5",
          "ticks": 29856,
          "time": 86.12766644791667,
          "velocity": 0.6299212598425197
        },
        {
          "duration": 0.14285675000000708,
          "durationTicks": 48,
          "midi": 78,
          "name": "F#5",
          "ticks": 29952,
          "time": 86.41337994791667,
          "velocity": 0.5984251968503937
        },
        {
          "duration": 0.14285674999999287,
          "durationTicks": 48,
          "midi": 79,
          "name": "G5",
          "ticks": 30000,
          "time": 86.55623669791667,
          "velocity": 0.6141732283464567
        },
        {
          "duration": 0.28571349999999995,
          "durationTicks": 96,
          "midi": 76,
          "name": "E5",
          "ticks": 30048,
          "time": 86.69909344791667,
          "velocity": 0.5433070866141733
        },
        {
          "duration": 0.28571349999999995,
          "durationTicks": 96,
          "midi": 48,
          "name": "C3",
          "ticks": 30048,
          "time": 86.69909344791667,
          "velocity": 0.5905511811023622
        },
        {
          "duration": 0.28571349999999995,
          "durationTicks": 96,
          "midi": 76,
          "name": "E5",
          "ticks": 30144,
          "time": 86.98480694791667,
          "velocity": 0.5905511811023622
        },
        {
          "duration": 0.8571404999999999,
          "durationTicks": 288,
          "midi": 48,
          "name": "C3",
          "ticks": 30144,
          "time": 86.98480694791667,
          "velocity": 0.6141732283464567
        },
        {
          "duration": 0.28571349999999995,
          "durationTicks": 96,
          "midi": 79,
          "name": "G5",
          "ticks": 30240,
          "time": 87.27052044791667,
          "velocity": 0.6535433070866141
        },
        {
          "duration": 0.28571349999999995,
          "durationTicks": 96,
          "midi": 79,
          "name": "G5",
          "ticks": 30432,
          "time": 87.84194744791667,
          "velocity": 0.5433070866141733
        },
        {
          "duration": 0.28571349999999995,
          "durationTicks": 96,
          "midi": 48,
          "name": "C3",
          "ticks": 30432,
          "time": 87.84194744791667,
          "velocity": 0.6062992125984252
        },
        {
          "duration": 0.28571349999999995,
          "durationTicks": 96,
          "midi": 76,
          "name": "E5",
          "ticks": 30528,
          "time": 88.12766094791667,
          "velocity": 0.5275590551181102
        },
        {
          "duration": 2.2857079999999996,
          "durationTicks": 768,
          "midi": 71,
          "name": "B4",
          "ticks": 30528,
          "time": 88.12766094791667,
          "velocity": 0.5905511811023622
        },
        {
          "duration": 0.8571404999999999,
          "durationTicks": 288,
          "midi": 47,
          "name": "B2",
          "ticks": 30528,
          "time": 88.12766094791667,
          "velocity": 0.5826771653543307
        },
        {
          "duration": 0.28571349999999995,
          "durationTicks": 96,
          "midi": 79,
          "name": "G5",
          "ticks": 30624,
          "time": 88.41337444791667,
          "velocity": 0.6299212598425197
        },
        {
          "duration": 0.14285675000000708,
          "durationTicks": 48,
          "midi": 81,
          "name": "A5",
          "ticks": 30720,
          "time": 88.69908794791667,
          "velocity": 0.6377952755905512
        },
        {
          "duration": 0.14285674999999287,
          "durationTicks": 48,
          "midi": 79,
          "name": "G5",
          "ticks": 30768,
          "time": 88.84194469791667,
          "velocity": 0.5196850393700787
        },
        {
          "duration": 0.28571349999999995,
          "durationTicks": 96,
          "midi": 76,
          "name": "E5",
          "ticks": 30816,
          "time": 88.98480144791667,
          "velocity": 0.5669291338582677
        },
        {
          "duration": 0.28571349999999995,
          "durationTicks": 96,
          "midi": 47,
          "name": "B2",
          "ticks": 30816,
          "time": 88.98480144791667,
          "velocity": 0.5984251968503937
        },
        {
          "duration": 0.28571349999999995,
          "durationTicks": 96,
          "midi": 76,
          "name": "E5",
          "ticks": 30912,
          "time": 89.27051494791667,
          "velocity": 0.5905511811023622
        },
        {
          "duration": 0.8571404999999999,
          "durationTicks": 288,
          "midi": 47,
          "name": "B2",
          "ticks": 30912,
          "time": 89.27051494791667,
          "velocity": 0.5669291338582677
        },
        {
          "duration": 0.28571349999999995,
          "durationTicks": 96,
          "midi": 79,
          "name": "G5",
          "ticks": 31008,
          "time": 89.55622844791667,
          "velocity": 0.6692913385826772
        },
        {
          "duration": 0.28571349999999995,
          "durationTicks": 96,
          "midi": 79,
          "name": "G5",
          "ticks": 31200,
          "time": 90.12765544791667,
          "velocity": 0.5354330708661418
        },
        {
          "duration": 0.28571349999999995,
          "durationTicks": 96,
          "midi": 47,
          "name": "B2",
          "ticks": 31200,
          "time": 90.12765544791667,
          "velocity": 0.6062992125984252
        },
        {
          "duration": 0.28571349999999995,
          "durationTicks": 96,
          "midi": 76,
          "name": "E5",
          "ticks": 31296,
          "time": 90.41336894791667,
          "velocity": 0.5433070866141733
        },
        {
          "duration": 2.2857079999999996,
          "durationTicks": 768,
          "midi": 71,
          "name": "B4",
          "ticks": 31296,
          "time": 90.41336894791667,
          "velocity": 0.5905511811023622
        },
        {
          "duration": 0.8571404999999999,
          "durationTicks": 288,
          "midi": 48,
          "name": "C3",
          "ticks": 31296,
          "time": 90.41336894791667,
          "velocity": 0.5826771653543307
        },
        {
          "duration": 0.28571349999999995,
          "durationTicks": 96,
          "midi": 79,
          "name": "G5",
          "ticks": 31392,
          "time": 90.69908244791667,
          "velocity": 0.6456692913385826
        },
        {
          "duration": 0.14285675000000708,
          "durationTicks": 48,
          "midi": 78,
          "name": "F#5",
          "ticks": 31488,
          "time": 90.98479594791667,
          "velocity": 0.6141732283464567
        },
        {
          "duration": 0.14285674999999287,
          "durationTicks": 48,
          "midi": 79,
          "name": "G5",
          "ticks": 31536,
          "time": 91.12765269791667,
          "velocity": 0.6141732283464567
        },
        {
          "duration": 0.28571349999999995,
          "durationTicks": 96,
          "midi": 76,
          "name": "E5",
          "ticks": 31584,
          "time": 91.27050944791667,
          "velocity": 0.5354330708661418
        },
        {
          "duration": 0.28571349999999995,
          "durationTicks": 96,
          "midi": 48,
          "name": "C3",
          "ticks": 31584,
          "time": 91.27050944791667,
          "velocity": 0.5905511811023622
        },
        {
          "duration": 0.28571349999999995,
          "durationTicks": 96,
          "midi": 76,
          "name": "E5",
          "ticks": 31680,
          "time": 91.55622294791667,
          "velocity": 0.5826771653543307
        },
        {
          "duration": 0.8571404999999999,
          "durationTicks": 288,
          "midi": 48,
          "name": "C3",
          "ticks": 31680,
          "time": 91.55622294791667,
          "velocity": 0.5669291338582677
        },
        {
          "duration": 0.28571349999999995,
          "durationTicks": 96,
          "midi": 79,
          "name": "G5",
          "ticks": 31776,
          "time": 91.84193644791667,
          "velocity": 0.6456692913385826
        },
        {
          "duration": 0.28571349999999995,
          "durationTicks": 96,
          "midi": 79,
          "name": "G5",
          "ticks": 31968,
          "time": 92.41336344791667,
          "velocity": 0.5590551181102362
        },
        {
          "duration": 0.28571349999999995,
          "durationTicks": 96,
          "midi": 48,
          "name": "C3",
          "ticks": 31968,
          "time": 92.41336344791667,
          "velocity": 0.5984251968503937
        },
        {
          "duration": 0.28571349999999995,
          "durationTicks": 96,
          "midi": 76,
          "name": "E5",
          "ticks": 32064,
          "time": 92.69907694791667,
          "velocity": 0.5354330708661418
        },
        {
          "duration": 2.2857079999999996,
          "durationTicks": 768,
          "midi": 71,
          "name": "B4",
          "ticks": 32064,
          "time": 92.69907694791667,
          "velocity": 0.6141732283464567
        },
        {
          "duration": 0.8571404999999999,
          "durationTicks": 288,
          "midi": 50,
          "name": "D3",
          "ticks": 32064,
          "time": 92.69907694791667,
          "velocity": 0.6062992125984252
        },
        {
          "duration": 0.28571349999999995,
          "durationTicks": 96,
          "midi": 79,
          "name": "G5",
          "ticks": 32160,
          "time": 92.98479044791667,
          "velocity": 0.6614173228346457
        },
        {
          "duration": 0.14285675000000708,
          "durationTicks": 48,
          "midi": 81,
          "name": "A5",
          "ticks": 32256,
          "time": 93.27050394791667,
          "velocity": 0.6377952755905512
        },
        {
          "duration": 0.14285674999999287,
          "durationTicks": 48,
          "midi": 79,
          "name": "G5",
          "ticks": 32304,
          "time": 93.41336069791667,
          "velocity": 0.5748031496062992
        },
        {
          "duration": 0.28571349999999995,
          "durationTicks": 96,
          "midi": 74,
          "name": "D5",
          "ticks": 32352,
          "time": 93.55621744791667,
          "velocity": 0.5196850393700787
        },
        {
          "duration": 0.28571349999999995,
          "durationTicks": 96,
          "midi": 50,
          "name": "D3",
          "ticks": 32352,
          "time": 93.55621744791667,
          "velocity": 0.6456692913385826
        },
        {
          "duration": 0.28571349999999995,
          "durationTicks": 96,
          "midi": 74,
          "name": "D5",
          "ticks": 32448,
          "time": 93.84193094791667,
          "velocity": 0.5669291338582677
        },
        {
          "duration": 0.8571404999999999,
          "durationTicks": 288,
          "midi": 50,
          "name": "D3",
          "ticks": 32448,
          "time": 93.84193094791667,
          "velocity": 0.5984251968503937
        },
        {
          "duration": 0.28571349999999995,
          "durationTicks": 96,
          "midi": 78,
          "name": "F#5",
          "ticks": 32544,
          "time": 94.12764444791667,
          "velocity": 0.6850393700787402
        },
        {
          "duration": 0.28571349999999995,
          "durationTicks": 96,
          "midi": 81,
          "name": "A5",
          "ticks": 32544,
          "time": 94.12764444791667,
          "velocity": 0.6850393700787402
        },
        {
          "duration": 0.28571349999999995,
          "durationTicks": 96,
          "midi": 78,
          "name": "F#5",
          "ticks": 32736,
          "time": 94.69907144791667,
          "velocity": 0.5354330708661418
        },
        {
          "duration": 0.28571349999999995,
          "durationTicks": 96,
          "midi": 81,
          "name": "A5",
          "ticks": 32736,
          "time": 94.69907144791667,
          "velocity": 0.5354330708661418
        },
        {
          "duration": 0.28571349999999995,
          "durationTicks": 96,
          "midi": 50,
          "name": "D3",
          "ticks": 32736,
          "time": 94.69907144791667,
          "velocity": 0.6141732283464567
        },
        {
          "duration": 0.3448273333333276,
          "durationTicks": 128,
          "midi": 78,
          "name": "F#5",
          "ticks": 32832,
          "time": 94.98478494791667,
          "velocity": 0.5118110236220472
        },
        {
          "duration": 2.068963999999994,
          "durationTicks": 768,
          "midi": 52,
          "name": "E3",
          "ticks": 32832,
          "time": 94.98478494791667,
          "velocity": 0.6141732283464567
        },
        {
          "duration": 0.3448273333333418,
          "durationTicks": 128,
          "midi": 78,
          "name": "F#5",
          "ticks": 32960,
          "time": 95.32961228125,
          "velocity": 0.6062992125984252
        },
        {
          "duration": 0.3448273333333276,
          "durationTicks": 128,
          "midi": 76,
          "name": "E5",
          "ticks": 33088,
          "time": 95.67443961458333,
          "velocity": 0.5748031496062992
        },
        {
          "duration": 0.3448273333333418,
          "durationTicks": 128,
          "midi": 78,
          "name": "F#5",
          "ticks": 33216,
          "time": 96.01926694791666,
          "velocity": 0.6062992125984252
        },
        {
          "duration": 0.3448273333333276,
          "durationTicks": 128,
          "midi": 78,
          "name": "F#5",
          "ticks": 33344,
          "time": 96.36409428125,
          "velocity": 0.6377952755905512
        },
        {
          "duration": 0.3448273333333276,
          "durationTicks": 128,
          "midi": 76,
          "name": "E5",
          "ticks": 33472,
          "time": 96.70892161458333,
          "velocity": 0.5275590551181102
        },
        {
          "duration": 0.3448273333333418,
          "durationTicks": 128,
          "midi": 78,
          "name": "F#5",
          "ticks": 33600,
          "time": 97.05374894791666,
          "velocity": 0.6377952755905512
        },
        {
          "duration": 2.0689640000000082,
          "durationTicks": 768,
          "midi": 52,
          "name": "E3",
          "ticks": 33600,
          "time": 97.05374894791666,
          "velocity": 0.5984251968503937
        },
        {
          "duration": 0.3448273333333276,
          "durationTicks": 128,
          "midi": 78,
          "name": "F#5",
          "ticks": 33728,
          "time": 97.39857628125,
          "velocity": 0.5905511811023622
        },
        {
          "duration": 0.3448273333333418,
          "durationTicks": 128,
          "midi": 76,
          "name": "E5",
          "ticks": 33856,
          "time": 97.74340361458333,
          "velocity": 0.5590551181102362
        },
        {
          "duration": 0.5172409999999985,
          "durationTicks": 192,
          "midi": 78,
          "name": "F#5",
          "ticks": 33984,
          "time": 98.08823094791667,
          "velocity": 0.6299212598425197
        },
        {
          "duration": 0.25862049999999215,
          "durationTicks": 96,
          "midi": 64,
          "name": "E4",
          "ticks": 34176,
          "time": 98.60547194791667,
          "velocity": 0.44881889763779526
        },
        {
          "duration": 0.25862050000000636,
          "durationTicks": 96,
          "midi": 66,
          "name": "F#4",
          "ticks": 34272,
          "time": 98.86409244791666,
          "velocity": 0.5984251968503937
        },
        {
          "duration": 0.7758615000000049,
          "durationTicks": 288,
          "midi": 67,
          "name": "G4",
          "ticks": 34368,
          "time": 99.12271294791667,
          "velocity": 0.6614173228346457
        },
        {
          "duration": 2.068963999999994,
          "durationTicks": 768,
          "midi": 64,
          "name": "E4",
          "ticks": 34368,
          "time": 99.12271294791667,
          "velocity": 0.4566929133858268
        },
        {
          "duration": 2.068963999999994,
          "durationTicks": 768,
          "midi": 52,
          "name": "E3",
          "ticks": 34368,
          "time": 99.12271294791667,
          "velocity": 0.5826771653543307
        },
        {
          "duration": 0.25862049999999215,
          "durationTicks": 96,
          "midi": 66,
          "name": "F#4",
          "ticks": 34656,
          "time": 99.89857444791667,
          "velocity": 0.6141732283464567
        },
        {
          "duration": 0.5172409999999985,
          "durationTicks": 192,
          "midi": 67,
          "name": "G4",
          "ticks": 34752,
          "time": 100.15719494791666,
          "velocity": 0.6377952755905512
        },
        {
          "duration": 0.5172409999999985,
          "durationTicks": 192,
          "midi": 71,
          "name": "B4",
          "ticks": 34944,
          "time": 100.67443594791666,
          "velocity": 0.6692913385826772
        },
        {
          "duration": 1.0344820000000112,
          "durationTicks": 384,
          "midi": 66,
          "name": "F#4",
          "ticks": 35136,
          "time": 101.19167694791666,
          "velocity": 0.5118110236220472
        },
        {
          "duration": 2.0689640000000082,
          "durationTicks": 768,
          "midi": 62,
          "name": "D4",
          "ticks": 35136,
          "time": 101.19167694791666,
          "velocity": 0.5748031496062992
        },
        {
          "duration": 0.7758615000000049,
          "durationTicks": 288,
          "midi": 50,
          "name": "D3",
          "ticks": 35136,
          "time": 101.19167694791666,
          "velocity": 0.5748031496062992
        },
        {
          "duration": 0.25862050000000636,
          "durationTicks": 96,
          "midi": 50,
          "name": "D3",
          "ticks": 35424,
          "time": 101.96753844791667,
          "velocity": 0.5826771653543307
        },
        {
          "duration": 0.983296692708322,
          "durationTicks": 365,
          "midi": 50,
          "name": "D3",
          "ticks": 35520,
          "time": 102.22615894791667,
          "velocity": 0.6220472440944882
        },
        {
          "duration": 0.5172409999999985,
          "durationTicks": 192,
          "midi": 59,
          "name": "B3",
          "ticks": 35712,
          "time": 102.74339994791667,
          "velocity": 0.5196850393700787
        },
        {
          "duration": 0.7758614999999907,
          "durationTicks": 288,
          "midi": 64,
          "name": "E4",
          "ticks": 35904,
          "time": 103.26064094791667,
          "velocity": 0.6535433070866141
        },
        {
          "duration": 2.068963999999994,
          "durationTicks": 768,
          "midi": 60,
          "name": "C4",
          "ticks": 35904,
          "time": 103.26064094791667,
          "velocity": 0.5669291338582677
        },
        {
          "duration": 2.068963999999994,
          "durationTicks": 768,
          "midi": 48,
          "name": "C3",
          "ticks": 35904,
          "time": 103.26064094791667,
          "velocity": 0.6062992125984252
        },
        {
          "duration": 0.25862050000000636,
          "durationTicks": 96,
          "midi": 62,
          "name": "D4",
          "ticks": 36192,
          "time": 104.03650244791666,
          "velocity": 0.5826771653543307
        },
        {
          "duration": 0.5172409999999985,
          "durationTicks": 192,
          "midi": 64,
          "name": "E4",
          "ticks": 36288,
          "time": 104.29512294791667,
          "velocity": 0.6614173228346457
        },
        {
          "duration": 0.5172409999999985,
          "durationTicks": 192,
          "midi": 67,
          "name": "G4",
          "ticks": 36480,
          "time": 104.81236394791667,
          "velocity": 0.6614173228346457
        },
        {
          "duration": 1.034481999999997,
          "durationTicks": 384,
          "midi": 62,
          "name": "D4",
          "ticks": 36672,
          "time": 105.32960494791666,
          "velocity": 0.5118110236220472
        },
        {
          "duration": 1.8103435000000019,
          "durationTicks": 672,
          "midi": 59,
          "name": "B3",
          "ticks": 36672,
          "time": 105.32960494791666,
          "velocity": 0.5826771653543307
        },
        {
          "duration": 0.7758615000000049,
          "durationTicks": 288,
          "midi": 47,
          "name": "B2",
          "ticks": 36672,
          "time": 105.32960494791666,
          "velocity": 0.5905511811023622
        },
        {
          "duration": 0.25862049999999215,
          "durationTicks": 96,
          "midi": 47,
          "name": "B2",
          "ticks": 36960,
          "time": 106.10546644791667,
          "velocity": 0.5669291338582677
        },
        {
          "duration": 0.9832966927083362,
          "durationTicks": 365,
          "midi": 47,
          "name": "B2",
          "ticks": 37056,
          "time": 106.36408694791666,
          "velocity": 0.6299212598425197
        },
        {
          "duration": 0.5172409999999985,
          "durationTicks": 192,
          "midi": 59,
          "name": "B3",
          "ticks": 37248,
          "time": 106.88132794791667,
          "velocity": 0.5433070866141733
        },
        {
          "duration": 0.25862050000000636,
          "durationTicks": 96,
          "midi": 59,
          "name": "B3",
          "ticks": 37344,
          "time": 107.13994844791667,
          "velocity": 0.6062992125984252
        },
        {
          "duration": 0.7758614999999907,
          "durationTicks": 288,
          "midi": 60,
          "name": "C4",
          "ticks": 37440,
          "time": 107.39856894791667,
          "velocity": 0.6771653543307087
        },
        {
          "duration": 2.068963999999994,
          "durationTicks": 768,
          "midi": 45,
          "name": "A2",
          "ticks": 37440,
          "time": 107.39856894791667,
          "velocity": 0.6220472440944882
        },
        {
          "duration": 2.068963999999994,
          "durationTicks": 768,
          "midi": 52,
          "name": "E3",
          "ticks": 37440,
          "time": 107.39856894791667,
          "velocity": 0.6220472440944882
        },
        {
          "duration": 0.25862050000000636,
          "durationTicks": 96,
          "midi": 59,
          "name": "B3",
          "ticks": 37728,
          "time": 108.17443044791666,
          "velocity": 0.5669291338582677
        },
        {
          "duration": 0.25862049999999215,
          "durationTicks": 96,
          "midi": 60,
          "name": "C4",
          "ticks": 37824,
          "time": 108.43305094791667,
          "velocity": 0.6692913385826772
        },
        {
          "duration": 0.7758615000000049,
          "durationTicks": 288,
          "midi": 67,
          "name": "G4",
          "ticks": 37920,
          "time": 108.69167144791666,
          "velocity": 0.7165354330708661
        },
        {
          "duration": 1.034481999999997,
          "durationTicks": 384,
          "midi": 59,
          "name": "B3",
          "ticks": 38208,
          "time": 109.46753294791667,
          "velocity": 0.5433070866141733
        },
        {
          "duration": 0.7758615000000049,
          "durationTicks": 288,
          "midi": 43,
          "name": "G2",
          "ticks": 38208,
          "time": 109.46753294791667,
          "velocity": 0.5905511811023622
        },
        {
          "duration": 0.7758615000000049,
          "durationTicks": 288,
          "midi": 52,
          "name": "E3",
          "ticks": 38208,
          "time": 109.46753294791667,
          "velocity": 0.5905511811023622
        },
        {
          "duration": 0.25862049999999215,
          "durationTicks": 96,
          "midi": 43,
          "name": "G2",
          "ticks": 38496,
          "time": 110.24339444791667,
          "velocity": 0.6220472440944882
        },
        {
          "duration": 0.25862049999999215,
          "durationTicks": 96,
          "midi": 52,
          "name": "E3",
          "ticks": 38496,
          "time": 110.24339444791667,
          "velocity": 0.6220472440944882
        },
        {
          "duration": 0.9832966927083362,
          "durationTicks": 365,
          "midi": 43,
          "name": "G2",
          "ticks": 38592,
          "time": 110.50201494791666,
          "velocity": 0.5984251968503937
        },
        {
          "duration": 0.9832966927083362,
          "durationTicks": 365,
          "midi": 52,
          "name": "E3",
          "ticks": 38592,
          "time": 110.50201494791666,
          "velocity": 0.5984251968503937
        },
        {
          "duration": 0.25862049999999215,
          "durationTicks": 96,
          "midi": 67,
          "name": "G4",
          "ticks": 38688,
          "time": 110.76063544791667,
          "velocity": 0.5118110236220472
        },
        {
          "duration": 0.25862050000000636,
          "durationTicks": 96,
          "midi": 67,
          "name": "G4",
          "ticks": 38784,
          "time": 111.01925594791666,
          "velocity": 0.5984251968503937
        },
        {
          "duration": 0.25862050000000636,
          "durationTicks": 96,
          "midi": 67,
          "name": "G4",
          "ticks": 38880,
          "time": 111.27787644791667,
          "velocity": 0.5590551181102362
        },
        {
          "duration": 0.7758614999999907,
          "durationTicks": 288,
          "midi": 66,
          "name": "F#4",
          "ticks": 38976,
          "time": 111.53649694791667,
          "velocity": 0.6299212598425197
        },
        {
          "duration": 1.5517229999999955,
          "durationTicks": 576,
          "midi": 42,
          "name": "F#2",
          "ticks": 38976,
          "time": 111.53649694791667,
          "velocity": 0.5669291338582677
        },
        {
          "duration": 1.5517229999999955,
          "durationTicks": 576,
          "midi": 52,
          "name": "E3",
          "ticks": 38976,
          "time": 111.53649694791667,
          "velocity": 0.5669291338582677
        },
        {
          "duration": 0.5172410000000127,
          "durationTicks": 192,
          "midi": 58,
          "name": "A#3",
          "ticks": 39168,
          "time": 112.05373794791666,
          "velocity": 0.5354330708661418
        },
        {
          "duration": 0.25862050000000636,
          "durationTicks": 96,
          "midi": 61,
          "name": "C#4",
          "ticks": 39264,
          "time": 112.31235844791667,
          "velocity": 0.4881889763779528
        },
        {
          "duration": 0.5172409999999985,
          "durationTicks": 192,
          "midi": 61,
          "name": "C#4",
          "ticks": 39360,
          "time": 112.57097894791667,
          "velocity": 0.5748031496062992
        },
        {
          "duration": 0.5172409999999985,
          "durationTicks": 192,
          "midi": 59,
          "name": "B3",
          "ticks": 39360,
          "time": 112.57097894791667,
          "velocity": 0.5905511811023622
        },
        {
          "duration": 0.5172409999999985,
          "durationTicks": 192,
          "midi": 66,
          "name": "F#4",
          "ticks": 39552,
          "time": 113.08821994791667,
          "velocity": 0.6456692913385826
        },
        {
          "duration": 0.5172409999999985,
          "durationTicks": 192,
          "midi": 61,
          "name": "C#4",
          "ticks": 39552,
          "time": 113.08821994791667,
          "velocity": 0.6456692913385826
        },
        {
          "duration": 0.25862049999999215,
          "durationTicks": 96,
          "midi": 45,
          "name": "A2",
          "ticks": 39552,
          "time": 113.08821994791667,
          "velocity": 0.5433070866141733
        },
        {
          "duration": 0.25862050000000636,
          "durationTicks": 96,
          "midi": 46,
          "name": "A#2",
          "ticks": 39648,
          "time": 113.34684044791666,
          "velocity": 0.6062992125984252
        },
        {
          "duration": 1.5517229999999955,
          "durationTicks": 576,
          "midi": 63,
          "name": "D#4",
          "ticks": 39744,
          "time": 113.60546094791667,
          "velocity": 0.6220472440944882
        },
        {
          "duration": 1.5517229999999955,
          "durationTicks": 576,
          "midi": 66,
          "name": "F#4",
          "ticks": 39744,
          "time": 113.60546094791667,
          "velocity": 0.6220472440944882
        },
        {
          "duration": 0.7758614999999907,
          "durationTicks": 288,
          "midi": 47,
          "name": "B2",
          "ticks": 39744,
          "time": 113.60546094791667,
          "velocity": 0.6299212598425197
        },
        {
          "duration": 0.25862050000000636,
          "durationTicks": 96,
          "midi": 47,
          "name": "B2",
          "ticks": 40032,
          "time": 114.38132244791666,
          "velocity": 0.6062992125984252
        },
        {
          "duration": 0.9832966927083362,
          "durationTicks": 365,
          "midi": 47,
          "name": "B2",
          "ticks": 40128,
          "time": 114.63994294791667,
          "velocity": 0.5748031496062992
        },
        {
          "duration": 0.25862050000000636,
          "durationTicks": 96,
          "midi": 64,
          "name": "E4",
          "ticks": 40320,
          "time": 115.15718394791666,
          "velocity": 0.5590551181102362
        },
        {
          "duration": 0.25862049999999215,
          "durationTicks": 96,
          "midi": 66,
          "name": "F#4",
          "ticks": 40416,
          "time": 115.41580444791667,
          "velocity": 0.6220472440944882
        },
        {
          "duration": 0.7758615000000049,
          "durationTicks": 288,
          "midi": 67,
          "name": "G4",
          "ticks": 40512,
          "time": 115.67442494791666,
          "velocity": 0.6614173228346457
        },
        {
          "duration": 2.0689640000000082,
          "durationTicks": 768,
          "midi": 64,
          "name": "E4",
          "ticks": 40512,
          "time": 115.67442494791666,
          "velocity": 0.6535433070866141
        },
        {
          "duration": 2.0689640000000082,
          "durationTicks": 768,
          "midi": 52,
          "name": "E3",
          "ticks": 40512,
          "time": 115.67442494791666,
          "velocity": 0.6141732283464567
        },
        {
          "duration": 0.25862049999999215,
          "durationTicks": 96,
          "midi": 66,
          "name": "F#4",
          "ticks": 40800,
          "time": 116.45028644791667,
          "velocity": 0.5590551181102362
        },
        {
          "duration": 0.5172410000000127,
          "durationTicks": 192,
          "midi": 67,
          "name": "G4",
          "ticks": 40896,
          "time": 116.70890694791666,
          "velocity": 0.6377952755905512
        },
        {
          "duration": 0.5172409999999985,
          "durationTicks": 192,
          "midi": 71,
          "name": "B4",
          "ticks": 41088,
          "time": 117.22614794791667,
          "velocity": 0.6614173228346457
        },
        {
          "duration": 1.034481999999997,
          "durationTicks": 384,
          "midi": 66,
          "name": "F#4",
          "ticks": 41280,
          "time": 117.74338894791667,
          "velocity": 0.5118110236220472
        },
        {
          "duration": 1.8103435000000019,
          "durationTicks": 672,
          "midi": 59,
          "name": "B3",
          "ticks": 41280,
          "time": 117.74338894791667,
          "velocity": 0.5748031496062992
        },
        {
          "duration": 0.7758615000000049,
          "durationTicks": 288,
          "midi": 50,
          "name": "D3",
          "ticks": 41280,
          "time": 117.74338894791667,
          "velocity": 0.5669291338582677
        },
        {
          "duration": 0.25862049999999215,
          "durationTicks": 96,
          "midi": 50,
          "name": "D3",
          "ticks": 41568,
          "time": 118.51925044791668,
          "velocity": 0.5984251968503937
        },
        {
          "duration": 0.9832966927083362,
          "durationTicks": 365,
          "midi": 50,
          "name": "D3",
          "ticks": 41664,
          "time": 118.77787094791667,
          "velocity": 0.5669291338582677
        },
        {
          "duration": 0.5172409999999985,
          "durationTicks": 192,
          "midi": 59,
          "name": "B3",
          "ticks": 41856,
          "time": 119.29511194791667,
          "velocity": 0.5275590551181102
        },
        {
          "duration": 0.25862049999999215,
          "durationTicks": 96,
          "midi": 59,
          "name": "B3",
          "ticks": 41952,
          "time": 119.55373244791667,
          "velocity": 0.5984251968503937
        },
        {
          "duration": 0.7758615000000049,
          "durationTicks": 288,
          "midi": 64,
          "name": "E4",
          "ticks": 42048,
          "time": 119.81235294791666,
          "velocity": 0.6535433070866141
        },
        {
          "duration": 2.0689640000000082,
          "durationTicks": 768,
          "midi": 55,
          "name": "G3",
          "ticks": 42048,
          "time": 119.81235294791666,
          "velocity": 0.5590551181102362
        },
        {
          "duration": 2.0689640000000082,
          "durationTicks": 768,
          "midi": 48,
          "name": "C3",
          "ticks": 42048,
          "time": 119.81235294791666,
          "velocity": 0.5748031496062992
        },
        {
          "duration": 0.25862050000000636,
          "durationTicks": 96,
          "midi": 62,
          "name": "D4",
          "ticks": 42336,
          "time": 120.58821444791667,
          "velocity": 0.5669291338582677
        },
        {
          "duration": 0.5172409999999843,
          "durationTicks": 192,
          "midi": 64,
          "name": "E4",
          "ticks": 42432,
          "time": 120.84683494791668,
          "velocity": 0.6456692913385826
        },
        {
          "duration": 0.5172410000000127,
          "durationTicks": 192,
          "midi": 67,
          "name": "G4",
          "ticks": 42624,
          "time": 121.36407594791666,
          "velocity": 0.6535433070866141
        },
        {
          "duration": 1.034481999999997,
          "durationTicks": 384,
          "midi": 62,
          "name": "D4",
          "ticks": 42816,
          "time": 121.88131694791667,
          "velocity": 0.5433070866141733
        },
        {
          "duration": 0.7758614999999907,
          "durationTicks": 288,
          "midi": 47,
          "name": "B2",
          "ticks": 42816,
          "time": 121.88131694791667,
          "velocity": 0.5905511811023622
        },
        {
          "duration": 0.5172409999999985,
          "durationTicks": 192,
          "midi": 55,
          "name": "G3",
          "ticks": 43008,
          "time": 122.39855794791667,
          "velocity": 0.5196850393700787
        },
        {
          "duration": 0.25862050000000636,
          "durationTicks": 96,
          "midi": 47,
          "name": "B2",
          "ticks": 43104,
          "time": 122.65717844791666,
          "velocity": 0.5826771653543307
        },
        {
          "duration": 0.5172409999999985,
          "durationTicks": 192,
          "midi": 57,
          "name": "A3",
          "ticks": 43200,
          "time": 122.91579894791667,
          "velocity": 0.6141732283464567
        },
        {
          "duration": 0.9832966927083362,
          "durationTicks": 365,
          "midi": 47,
          "name": "B2",
          "ticks": 43200,
          "time": 122.91579894791667,
          "velocity": 0.5905511811023622
        },
        {
          "duration": 0.5172409999999985,
          "durationTicks": 192,
          "midi": 59,
          "name": "B3",
          "ticks": 43392,
          "time": 123.43303994791667,
          "velocity": 0.6062992125984252
        },
        {
          "duration": 0.25862050000000636,
          "durationTicks": 96,
          "midi": 59,
          "name": "B3",
          "ticks": 43488,
          "time": 123.69166044791666,
          "velocity": 0.5275590551181102
        },
        {
          "duration": 0.5172409999999985,
          "durationTicks": 192,
          "midi": 60,
          "name": "C4",
          "ticks": 43584,
          "time": 123.95028094791667,
          "velocity": 0.6141732283464567
        },
        {
          "duration": 1.034481999999997,
          "durationTicks": 384,
          "midi": 57,
          "name": "A3",
          "ticks": 43584,
          "time": 123.95028094791667,
          "velocity": 0.5905511811023622
        },
        {
          "duration": 2.068963999999994,
          "durationTicks": 768,
          "midi": 45,
          "name": "A2",
          "ticks": 43584,
          "time": 123.95028094791667,
          "velocity": 0.5905511811023622
        },
        {
          "duration": 0.25862050000000636,
          "durationTicks": 96,
          "midi": 67,
          "name": "G4",
          "ticks": 43776,
          "time": 124.46752194791667,
          "velocity": 0.7007874015748031
        },
        {
          "duration": 0.25862049999999215,
          "durationTicks": 96,
          "midi": 66,
          "name": "F#4",
          "ticks": 43872,
          "time": 124.72614244791667,
          "velocity": 0.6299212598425197
        },
        {
          "duration": 0.5172410000000127,
          "durationTicks": 192,
          "midi": 66,
          "name": "F#4",
          "ticks": 43968,
          "time": 124.98476294791666,
          "velocity": 0.6377952755905512
        },
        {
          "duration": 1.034481999999997,
          "durationTicks": 384,
          "midi": 60,
          "name": "C4",
          "ticks": 43968,
          "time": 124.98476294791666,
          "velocity": 0.6614173228346457
        },
        {
          "duration": 0.5172409999999843,
          "durationTicks": 192,
          "midi": 67,
          "name": "G4",
          "ticks": 44160,
          "time": 125.50200394791668,
          "velocity": 0.5984251968503937
        },
        {
          "duration": 0.25862050000000636,
          "durationTicks": 96,
          "midi": 69,
          "name": "A4",
          "ticks": 44352,
          "time": 126.01924494791666,
          "velocity": 0.6299212598425197
        },
        {
          "duration": 1.0344820000000112,
          "durationTicks": 384,
          "midi": 59,
          "name": "B3",
          "ticks": 44352,
          "time": 126.01924494791666,
          "velocity": 0.6141732283464567
        },
        {
          "duration": 1.2931025000000034,
          "durationTicks": 480,
          "midi": 40,
          "name": "E2",
          "ticks": 44352,
          "time": 126.01924494791666,
          "velocity": 0.5590551181102362
        },
        {
          "duration": 0.5172409999999985,
          "durationTicks": 192,
          "midi": 69,
          "name": "A4",
          "ticks": 44448,
          "time": 126.27786544791667,
          "velocity": 0.6299212598425197
        },
        {
          "duration": 0.25862050000000636,
          "durationTicks": 96,
          "midi": 71,
          "name": "B4",
          "ticks": 44640,
          "time": 126.79510644791667,
          "velocity": 0.5905511811023622
        },
        {
          "duration": 1.0344819999999828,
          "durationTicks": 384,
          "midi": 67,
          "name": "G4",
          "ticks": 44736,
          "time": 127.05372694791667,
          "velocity": 0.5433070866141733
        },
        {
          "duration": 0.25862050000000636,
          "durationTicks": 96,
          "midi": 47,
          "name": "B2",
          "ticks": 44832,
          "time": 127.31234744791666,
          "velocity": 0.6535433070866141
        },
        {
          "duration": 0.25862050000000636,
          "durationTicks": 96,
          "midi": 52,
          "name": "E3",
          "ticks": 44928,
          "time": 127.57096794791667,
          "velocity": 0.6299212598425197
        },
        {
          "duration": 0.25862049999997794,
          "durationTicks": 96,
          "midi": 47,
          "name": "B2",
          "ticks": 45024,
          "time": 127.82958844791668,
          "velocity": 0.5590551181102362
        },
        {
          "duration": 0.25862050000000636,
          "durationTicks": 96,
          "midi": 59,
          "name": "B3",
          "ticks": 45120,
          "time": 128.08820894791666,
          "velocity": 0.6141732283464567
        },
        {
          "duration": 0.25862050000000636,
          "durationTicks": 96,
          "midi": 64,
          "name": "E4",
          "ticks": 45120,
          "time": 128.08820894791666,
          "velocity": 0.6141732283464567
        },
        {
          "duration": 0.25862050000000636,
          "durationTicks": 96,
          "midi": 67,
          "name": "G4",
          "ticks": 45120,
          "time": 128.08820894791666,
          "velocity": 0.6141732283464567
        },
        {
          "duration": 1.0344820000000254,
          "durationTicks": 384,
          "midi": 45,
          "name": "A2",
          "ticks": 45120,
          "time": 128.08820894791666,
          "velocity": 0.5354330708661418
        },
        {
          "duration": 0.25862050000000636,
          "durationTicks": 96,
          "midi": 57,
          "name": "A3",
          "ticks": 45216,
          "time": 128.34682944791666,
          "velocity": 0.5196850393700787
        },
        {
          "duration": 0.25862050000000636,
          "durationTicks": 96,
          "midi": 62,
          "name": "D4",
          "ticks": 45216,
          "time": 128.34682944791666,
          "velocity": 0.5196850393700787
        },
        {
          "duration": 0.25862050000000636,
          "durationTicks": 96,
          "midi": 66,
          "name": "F#4",
          "ticks": 45216,
          "time": 128.34682944791666,
          "velocity": 0.5196850393700787
        },
        {
          "duration": 0.25862050000000636,
          "durationTicks": 96,
          "midi": 55,
          "name": "G3",
          "ticks": 45312,
          "time": 128.60544994791667,
          "velocity": 0.5511811023622047
        },
        {
          "duration": 0.25862050000000636,
          "durationTicks": 96,
          "midi": 60,
          "name": "C4",
          "ticks": 45312,
          "time": 128.60544994791667,
          "velocity": 0.5511811023622047
        },
        {
          "duration": 0.25862050000000636,
          "durationTicks": 96,
          "midi": 64,
          "name": "E4",
          "ticks": 45312,
          "time": 128.60544994791667,
          "velocity": 0.5511811023622047
        },
        {
          "duration": 0.25862050000000636,
          "durationTicks": 96,
          "midi": 55,
          "name": "G3",
          "ticks": 45408,
          "time": 128.86407044791667,
          "velocity": 0.6062992125984252
        },
        {
          "duration": 0.25862050000000636,
          "durationTicks": 96,
          "midi": 60,
          "name": "C4",
          "ticks": 45408,
          "time": 128.86407044791667,
          "velocity": 0.6062992125984252
        },
        {
          "duration": 0.25862050000000636,
          "durationTicks": 96,
          "midi": 64,
          "name": "E4",
          "ticks": 45408,
          "time": 128.86407044791667,
          "velocity": 0.6062992125984252
        },
        {
          "duration": 0.5172409999999843,
          "durationTicks": 192,
          "midi": 57,
          "name": "A3",
          "ticks": 45504,
          "time": 129.12269094791668,
          "velocity": 0.6141732283464567
        },
        {
          "duration": 0.5172409999999843,
          "durationTicks": 192,
          "midi": 63,
          "name": "D#4",
          "ticks": 45504,
          "time": 129.12269094791668,
          "velocity": 0.6141732283464567
        },
        {
          "duration": 0.5172409999999843,
          "durationTicks": 192,
          "midi": 66,
          "name": "F#4",
          "ticks": 45504,
          "time": 129.12269094791668,
          "velocity": 0.6141732283464567
        },
        {
          "duration": 1.034481999999997,
          "durationTicks": 384,
          "midi": 47,
          "name": "B2",
          "ticks": 45504,
          "time": 129.12269094791668,
          "velocity": 0.5905511811023622
        },
        {
          "duration": 0.5172410000000127,
          "durationTicks": 192,
          "midi": 54,
          "name": "F#3",
          "ticks": 45696,
          "time": 129.63993194791666,
          "velocity": 0.5669291338582677
        },
        {
          "duration": 0.5172410000000127,
          "durationTicks": 192,
          "midi": 59,
          "name": "B3",
          "ticks": 45696,
          "time": 129.63993194791666,
          "velocity": 0.5669291338582677
        },
        {
          "duration": 0.5172410000000127,
          "durationTicks": 192,
          "midi": 63,
          "name": "D#4",
          "ticks": 45696,
          "time": 129.63993194791666,
          "velocity": 0.5669291338582677
        },
        {
          "duration": 2.3684159999999963,
          "durationTicks": 576,
          "midi": 36,
          "name": "C2",
          "ticks": 45888,
          "time": 130.15717294791668,
          "velocity": 0.6299212598425197
        },
        {
          "duration": 2.3684159999999963,
          "durationTicks": 576,
          "midi": 43,
          "name": "G2",
          "ticks": 45888,
          "time": 130.15717294791668,
          "velocity": 0.6299212598425197
        },
        {
          "duration": 2.3684159999999963,
          "durationTicks": 576,
          "midi": 48,
          "name": "C3",
          "ticks": 45888,
          "time": 130.15717294791668,
          "velocity": 0.6299212598425197
        },
        {
          "duration": 0.7894719999999893,
          "durationTicks": 192,
          "midi": 37,
          "name": "C#2",
          "ticks": 46464,
          "time": 132.52558894791667,
          "velocity": 0.6377952755905512
        },
        {
          "duration": 0.7894719999999893,
          "durationTicks": 192,
          "midi": 44,
          "name": "G#2",
          "ticks": 46464,
          "time": 132.52558894791667,
          "velocity": 0.6377952755905512
        },
        {
          "duration": 0.7894719999999893,
          "durationTicks": 192,
          "midi": 51,
          "name": "D#3",
          "ticks": 46464,
          "time": 132.52558894791667,
          "velocity": 0.6377952755905512
        },
        {
          "duration": 1.6118386666666709,
          "durationTicks": 392,
          "midi": 36,
          "name": "C2",
          "ticks": 47424,
          "time": 136.47294894791668,
          "velocity": 0.5354330708661418
        },
        {
          "duration": 1.6118386666666709,
          "durationTicks": 392,
          "midi": 43,
          "name": "G2",
          "ticks": 47424,
          "time": 136.47294894791668,
          "velocity": 0.5354330708661418
        },
        {
          "duration": 1.578944000000007,
          "durationTicks": 384,
          "midi": 48,
          "name": "C3",
          "ticks": 47424,
          "time": 136.47294894791668,
          "velocity": 0.5354330708661418
        },
        {
          "duration": 1.6118386666666709,
          "durationTicks": 392,
          "midi": 41,
          "name": "F2",
          "ticks": 47808,
          "time": 138.05189294791668,
          "velocity": 0.5748031496062992
        },
        {
          "duration": 1.6118386666666709,
          "durationTicks": 392,
          "midi": 48,
          "name": "C3",
          "ticks": 47808,
          "time": 138.05189294791668,
          "velocity": 0.5748031496062992
        },
        {
          "duration": 1.578944000000007,
          "durationTicks": 384,
          "midi": 55,
          "name": "G3",
          "ticks": 47808,
          "time": 138.05189294791668,
          "velocity": 0.5748031496062992
        },
        {
          "duration": 1.6118386666666424,
          "durationTicks": 392,
          "midi": 55,
          "name": "G3",
          "ticks": 48192,
          "time": 139.6308369479167,
          "velocity": 0.6220472440944882
        },
        {
          "duration": 1.6118386666666424,
          "durationTicks": 392,
          "midi": 38,
          "name": "D2",
          "ticks": 48192,
          "time": 139.6308369479167,
          "velocity": 0.5590551181102362
        },
        {
          "duration": 1.6118386666666424,
          "durationTicks": 392,
          "midi": 45,
          "name": "A2",
          "ticks": 48192,
          "time": 139.6308369479167,
          "velocity": 0.5590551181102362
        },
        {
          "duration": 0.8059193333333496,
          "durationTicks": 196,
          "midi": 53,
          "name": "F3",
          "ticks": 48576,
          "time": 141.20978094791667,
          "velocity": 0.6141732283464567
        },
        {
          "duration": 0.8059193333333212,
          "durationTicks": 196,
          "midi": 60,
          "name": "C4",
          "ticks": 48768,
          "time": 141.9992529479167,
          "velocity": 0.6850393700787402
        },
        {
          "duration": 1.578944000000007,
          "durationTicks": 384,
          "midi": 58,
          "name": "A#3",
          "ticks": 48960,
          "time": 142.78872494791668,
          "velocity": 0.5433070866141733
        },
        {
          "duration": 2.249172833333347,
          "durationTicks": 547,
          "midi": 42,
          "name": "F#2",
          "ticks": 48960,
          "time": 142.78872494791668,
          "velocity": 0.6062992125984252
        },
        {
          "duration": 2.249172833333347,
          "durationTicks": 547,
          "midi": 49,
          "name": "C#3",
          "ticks": 48960,
          "time": 142.78872494791668,
          "velocity": 0.6062992125984252
        },
        {
          "duration": 0.39473599999999465,
          "durationTicks": 96,
          "midi": 60,
          "name": "C4",
          "ticks": 49440,
          "time": 144.76240494791668,
          "velocity": 0.5354330708661418
        },
        {
          "duration": 0.39473599999999465,
          "durationTicks": 96,
          "midi": 65,
          "name": "F4",
          "ticks": 49536,
          "time": 145.15714094791667,
          "velocity": 0.6771653543307087
        },
        {
          "duration": 0.39473599999999465,
          "durationTicks": 96,
          "midi": 72,
          "name": "C5",
          "ticks": 49632,
          "time": 145.55187694791667,
          "velocity": 0.7165354330708661
        },
        {
          "duration": 0.7894720000000177,
          "durationTicks": 192,
          "midi": 72,
          "name": "C5",
          "ticks": 49728,
          "time": 145.94661294791666,
          "velocity": 0.6062992125984252
        },
        {
          "duration": 1.578944000000007,
          "durationTicks": 384,
          "midi": 37,
          "name": "C#2",
          "ticks": 49728,
          "time": 145.94661294791666,
          "velocity": 0.5590551181102362
        },
        {
          "duration": 1.578944000000007,
          "durationTicks": 384,
          "midi": 44,
          "name": "G#2",
          "ticks": 49728,
          "time": 145.94661294791666,
          "velocity": 0.5590551181102362
        },
        {
          "duration": 1.578944000000007,
          "durationTicks": 384,
          "midi": 70,
          "name": "A#4",
          "ticks": 49920,
          "time": 146.73608494791668,
          "velocity": 0.5196850393700787
        },
        {
          "duration": 1.578944000000007,
          "durationTicks": 384,
          "midi": 39,
          "name": "D#2",
          "ticks": 50112,
          "time": 147.52555694791667,
          "velocity": 0.6141732283464567
        },
        {
          "duration": 1.578944000000007,
          "durationTicks": 384,
          "midi": 46,
          "name": "A#2",
          "ticks": 50112,
          "time": 147.52555694791667,
          "velocity": 0.6141732283464567
        },
        {
          "duration": 0.39473599999999465,
          "durationTicks": 96,
          "midi": 68,
          "name": "G#4",
          "ticks": 50304,
          "time": 148.3150289479167,
          "velocity": 0.5669291338582677
        },
        {
          "duration": 0.39473599999999465,
          "durationTicks": 96,
          "midi": 67,
          "name": "G4",
          "ticks": 50400,
          "time": 148.70976494791668,
          "velocity": 0.5118110236220472
        },
        {
          "duration": 0.39473599999999465,
          "durationTicks": 96,
          "midi": 60,
          "name": "C4",
          "ticks": 50496,
          "time": 149.10450094791668,
          "velocity": 0.5433070866141733
        },
        {
          "duration": 1.578944000000007,
          "durationTicks": 384,
          "midi": 58,
          "name": "A#3",
          "ticks": 50496,
          "time": 149.10450094791668,
          "velocity": 0.5590551181102362
        },
        {
          "duration": 3.157888000000014,
          "durationTicks": 768,
          "midi": 41,
          "name": "F2",
          "ticks": 50496,
          "time": 149.10450094791668,
          "velocity": 0.6220472440944882
        },
        {
          "duration": 3.157888000000014,
          "durationTicks": 768,
          "midi": 48,
          "name": "C3",
          "ticks": 50496,
          "time": 149.10450094791668,
          "velocity": 0.6220472440944882
        },
        {
          "duration": 0.39473599999999465,
          "durationTicks": 96,
          "midi": 63,
          "name": "D#4",
          "ticks": 50592,
          "time": 149.49923694791667,
          "velocity": 0.6692913385826772
        },
        {
          "duration": 1.1842080000000124,
          "durationTicks": 288,
          "midi": 65,
          "name": "F4",
          "ticks": 50688,
          "time": 149.89397294791667,
          "velocity": 0.6535433070866141
        },
        {
          "duration": 1.578944000000007,
          "durationTicks": 384,
          "midi": 56,
          "name": "G#3",
          "ticks": 50880,
          "time": 150.68344494791668,
          "velocity": 0.5905511811023622
        },
        {
          "duration": 0.39473599999999465,
          "durationTicks": 96,
          "midi": 65,
          "name": "F4",
          "ticks": 50976,
          "time": 151.07818094791668,
          "velocity": 0.6141732283464567
        },
        {
          "duration": 0.39473599999999465,
          "durationTicks": 96,
          "midi": 68,
          "name": "G#4",
          "ticks": 51072,
          "time": 151.47291694791667,
          "velocity": 0.6377952755905512
        },
        {
          "duration": 0.39473600000002307,
          "durationTicks": 96,
          "midi": 72,
          "name": "C5",
          "ticks": 51168,
          "time": 151.86765294791667,
          "velocity": 0.6614173228346457
        },
        {
          "duration": 1.5789439999999786,
          "durationTicks": 384,
          "midi": 68,
          "name": "G#4",
          "ticks": 51264,
          "time": 152.2623889479167,
          "velocity": 0.6377952755905512
        },
        {
          "duration": 1.5789439999999786,
          "durationTicks": 384,
          "midi": 75,
          "name": "D#5",
          "ticks": 51264,
          "time": 152.2623889479167,
          "velocity": 0.6377952755905512
        },
        {
          "duration": 1.5789439999999786,
          "durationTicks": 384,
          "midi": 48,
          "name": "C3",
          "ticks": 51264,
          "time": 152.2623889479167,
          "velocity": 0.6614173228346457
        },
        {
          "duration": 1.5789439999999786,
          "durationTicks": 384,
          "midi": 58,
          "name": "A#3",
          "ticks": 51264,
          "time": 152.2623889479167,
          "velocity": 0.6614173228346457
        },
        {
          "duration": 0.39473600000002307,
          "durationTicks": 96,
          "midi": 61,
          "name": "C#4",
          "ticks": 51648,
          "time": 153.84133294791667,
          "velocity": 0.5275590551181102
        },
        {
          "duration": 0.39473600000002307,
          "durationTicks": 96,
          "midi": 65,
          "name": "F4",
          "ticks": 51648,
          "time": 153.84133294791667,
          "velocity": 0.5275590551181102
        },
        {
          "duration": 0.39473600000002307,
          "durationTicks": 96,
          "midi": 70,
          "name": "A#4",
          "ticks": 51648,
          "time": 153.84133294791667,
          "velocity": 0.5275590551181102
        },
        {
          "duration": 0.39473600000002307,
          "durationTicks": 96,
          "midi": 46,
          "name": "A#2",
          "ticks": 51648,
          "time": 153.84133294791667,
          "velocity": 0.6141732283464567
        },
        {
          "duration": 0.39473600000002307,
          "durationTicks": 96,
          "midi": 56,
          "name": "G#3",
          "ticks": 51648,
          "time": 153.84133294791667,
          "velocity": 0.6141732283464567
        },
        {
          "duration": 0.39473599999999465,
          "durationTicks": 96,
          "midi": 63,
          "name": "D#4",
          "ticks": 51840,
          "time": 154.6308049479167,
          "velocity": 0.4881889763779528
        },
        {
          "duration": 0.39473599999999465,
          "durationTicks": 96,
          "midi": 68,
          "name": "G#4",
          "ticks": 51840,
          "time": 154.6308049479167,
          "velocity": 0.4881889763779528
        },
        {
          "duration": 0.39473599999999465,
          "durationTicks": 96,
          "midi": 72,
          "name": "C5",
          "ticks": 51840,
          "time": 154.6308049479167,
          "velocity": 0.4881889763779528
        },
        {
          "duration": 0.7894719999999893,
          "durationTicks": 192,
          "midi": 44,
          "name": "G#2",
          "ticks": 51840,
          "time": 154.6308049479167,
          "velocity": 0.5039370078740157
        },
        {
          "duration": 0.7894719999999893,
          "durationTicks": 192,
          "midi": 56,
          "name": "G#3",
          "ticks": 51840,
          "time": 154.6308049479167,
          "velocity": 0.5039370078740157
        },
        {
          "duration": 0.39473599999999465,
          "durationTicks": 96,
          "midi": 75,
          "name": "D#5",
          "ticks": 51936,
          "time": 155.02554094791668,
          "velocity": 0.6299212598425197
        },
        {
          "duration": 0.39473599999999465,
          "durationTicks": 96,
          "midi": 61,
          "name": "C#4",
          "ticks": 52032,
          "time": 155.42027694791668,
          "velocity": 0.5511811023622047
        },
        {
          "duration": 0.39473599999999465,
          "durationTicks": 96,
          "midi": 65,
          "name": "F4",
          "ticks": 52032,
          "time": 155.42027694791668,
          "velocity": 0.5511811023622047
        },
        {
          "duration": 0.39473599999999465,
          "durationTicks": 96,
          "midi": 70,
          "name": "A#4",
          "ticks": 52032,
          "time": 155.42027694791668,
          "velocity": 0.5511811023622047
        },
        {
          "duration": 0.39473599999999465,
          "durationTicks": 96,
          "midi": 46,
          "name": "A#2",
          "ticks": 52032,
          "time": 155.42027694791668,
          "velocity": 0.5826771653543307
        },
        {
          "duration": 0.39473599999999465,
          "durationTicks": 96,
          "midi": 56,
          "name": "G#3",
          "ticks": 52032,
          "time": 155.42027694791668,
          "velocity": 0.5826771653543307
        },
        {
          "duration": 0.39473599999999465,
          "durationTicks": 96,
          "midi": 63,
          "name": "D#4",
          "ticks": 52224,
          "time": 156.20974894791667,
          "velocity": 0.5275590551181102
        },
        {
          "duration": 0.39473599999999465,
          "durationTicks": 96,
          "midi": 67,
          "name": "G4",
          "ticks": 52224,
          "time": 156.20974894791667,
          "velocity": 0.5275590551181102
        },
        {
          "duration": 0.39473599999999465,
          "durationTicks": 96,
          "midi": 72,
          "name": "C5",
          "ticks": 52224,
          "time": 156.20974894791667,
          "velocity": 0.5275590551181102
        },
        {
          "duration": 0.7894720000000177,
          "durationTicks": 192,
          "midi": 48,
          "name": "C3",
          "ticks": 52224,
          "time": 156.20974894791667,
          "velocity": 0.5196850393700787
        },
        {
          "duration": 0.7894720000000177,
          "durationTicks": 192,
          "midi": 55,
          "name": "G3",
          "ticks": 52224,
          "time": 156.20974894791667,
          "velocity": 0.5196850393700787
        },
        {
          "duration": 0.39473600000002307,
          "durationTicks": 96,
          "midi": 75,
          "name": "D#5",
          "ticks": 52320,
          "time": 156.60448494791666,
          "velocity": 0.6771653543307087
        },
        {
          "duration": 0.39473599999999465,
          "durationTicks": 96,
          "midi": 68,
          "name": "G#4",
          "ticks": 52416,
          "time": 156.99922094791668,
          "velocity": 0.5118110236220472
        },
        {
          "duration": 0.7894719999999893,
          "durationTicks": 192,
          "midi": 51,
          "name": "D#3",
          "ticks": 52416,
          "time": 156.99922094791668,
          "velocity": 0.6062992125984252
        },
        {
          "duration": 0.7894719999999893,
          "durationTicks": 192,
          "midi": 58,
          "name": "A#3",
          "ticks": 52416,
          "time": 156.99922094791668,
          "velocity": 0.6062992125984252
        },
        {
          "duration": 0.39473599999999465,
          "durationTicks": 96,
          "midi": 67,
          "name": "G4",
          "ticks": 52512,
          "time": 157.39395694791668,
          "velocity": 0.5669291338582677
        },
        {
          "duration": 0.39473599999999465,
          "durationTicks": 96,
          "midi": 60,
          "name": "C4",
          "ticks": 52608,
          "time": 157.78869294791667,
          "velocity": 0.5039370078740157
        },
        {
          "duration": 0.7894719999999893,
          "durationTicks": 192,
          "midi": 48,
          "name": "C3",
          "ticks": 52608,
          "time": 157.78869294791667,
          "velocity": 0.5905511811023622
        },
        {
          "duration": 0.7894719999999893,
          "durationTicks": 192,
          "midi": 55,
          "name": "G3",
          "ticks": 52608,
          "time": 157.78869294791667,
          "velocity": 0.5905511811023622
        },
        {
          "duration": 0.7894719999999893,
          "durationTicks": 192,
          "midi": 58,
          "name": "A#3",
          "ticks": 52608,
          "time": 157.78869294791667,
          "velocity": 0.5905511811023622
        },
        {
          "duration": 0.39473599999999465,
          "durationTicks": 96,
          "midi": 63,
          "name": "D#4",
          "ticks": 52704,
          "time": 158.18342894791667,
          "velocity": 0.6220472440944882
        },
        {
          "duration": 1.578944000000007,
          "durationTicks": 384,
          "midi": 65,
          "name": "F4",
          "ticks": 52800,
          "time": 158.57816494791666,
          "velocity": 0.6535433070866141
        },
        {
          "duration": 0.7894720000000177,
          "durationTicks": 192,
          "midi": 58,
          "name": "A#3",
          "ticks": 52800,
          "time": 158.57816494791666,
          "velocity": 0.6220472440944882
        },
        {
          "duration": 1.578944000000007,
          "durationTicks": 384,
          "midi": 41,
          "name": "F2",
          "ticks": 52800,
          "time": 158.57816494791666,
          "velocity": 0.5590551181102362
        },
        {
          "duration": 1.578944000000007,
          "durationTicks": 384,
          "midi": 48,
          "name": "C3",
          "ticks": 52800,
          "time": 158.57816494791666,
          "velocity": 0.5590551181102362
        },
        {
          "duration": 0.39473599999999465,
          "durationTicks": 96,
          "midi": 56,
          "name": "G#3",
          "ticks": 52992,
          "time": 159.36763694791668,
          "velocity": 0.5984251968503937
        },
        {
          "duration": 0.39473599999999465,
          "durationTicks": 96,
          "midi": 55,
          "name": "G3",
          "ticks": 53088,
          "time": 159.76237294791667,
          "velocity": 0.5669291338582677
        },
        {
          "duration": 1.578944000000007,
          "durationTicks": 384,
          "midi": 56,
          "name": "G#3",
          "ticks": 53184,
          "time": 160.15710894791667,
          "velocity": 0.6377952755905512
        },
        {
          "duration": 0.39473600000002307,
          "durationTicks": 96,
          "midi": 72,
          "name": "C5",
          "ticks": 53280,
          "time": 160.55184494791666,
          "velocity": 0.5275590551181102
        },
        {
          "duration": 0.39473599999999465,
          "durationTicks": 96,
          "midi": 77,
          "name": "F5",
          "ticks": 53376,
          "time": 160.9465809479167,
          "velocity": 0.6771653543307087
        },
        {
          "duration": 0.39473599999999465,
          "durationTicks": 96,
          "midi": 84,
          "name": "C6",
          "ticks": 53472,
          "time": 161.34131694791668,
          "velocity": 0.7244094488188977
        },
        {
          "duration": 0.7894719999999893,
          "durationTicks": 192,
          "midi": 72,
          "name": "C5",
          "ticks": 53568,
          "time": 161.73605294791668,
          "velocity": 0.6535433070866141
        },
        {
          "duration": 0.7894719999999893,
          "durationTicks": 192,
          "midi": 84,
          "name": "C6",
          "ticks": 53568,
          "time": 161.73605294791668,
          "velocity": 0.6535433070866141
        },
        {
          "duration": 1.578944000000007,
          "durationTicks": 384,
          "midi": 37,
          "name": "C#2",
          "ticks": 53568,
          "time": 161.73605294791668,
          "velocity": 0.5433070866141733
        },
        {
          "duration": 1.578944000000007,
          "durationTicks": 384,
          "midi": 44,
          "name": "G#2",
          "ticks": 53568,
          "time": 161.73605294791668,
          "velocity": 0.5433070866141733
        },
        {
          "duration": 1.578944000000007,
          "durationTicks": 384,
          "midi": 70,
          "name": "A#4",
          "ticks": 53760,
          "time": 162.52552494791667,
          "velocity": 0.5590551181102362
        },
        {
          "duration": 1.578944000000007,
          "durationTicks": 384,
          "midi": 82,
          "name": "A#5",
          "ticks": 53760,
          "time": 162.52552494791667,
          "velocity": 0.5590551181102362
        },
        {
          "duration": 1.578944000000007,
          "durationTicks": 384,
          "midi": 39,
          "name": "D#2",
          "ticks": 53952,
          "time": 163.31499694791668,
          "velocity": 0.6377952755905512
        },
        {
          "duration": 1.578944000000007,
          "durationTicks": 384,
          "midi": 46,
          "name": "A#2",
          "ticks": 53952,
          "time": 163.31499694791668,
          "velocity": 0.6377952755905512
        },
        {
          "duration": 0.39473599999999465,
          "durationTicks": 96,
          "midi": 68,
          "name": "G#4",
          "ticks": 54144,
          "time": 164.10446894791667,
          "velocity": 0.5354330708661418
        },
        {
          "duration": 0.39473599999999465,
          "durationTicks": 96,
          "midi": 80,
          "name": "G#5",
          "ticks": 54144,
          "time": 164.10446894791667,
          "velocity": 0.5354330708661418
        },
        {
          "duration": 0.39473600000002307,
          "durationTicks": 96,
          "midi": 67,
          "name": "G4",
          "ticks": 54240,
          "time": 164.49920494791667,
          "velocity": 0.5669291338582677
        },
        {
          "duration": 0.39473600000002307,
          "durationTicks": 96,
          "midi": 79,
          "name": "G5",
          "ticks": 54240,
          "time": 164.49920494791667,
          "velocity": 0.5669291338582677
        },
        {
          "duration": 0.39473599999999465,
          "durationTicks": 96,
          "midi": 60,
          "name": "C4",
          "ticks": 54336,
          "time": 164.8939409479167,
          "velocity": 0.47244094488188976
        },
        {
          "duration": 0.39473599999999465,
          "durationTicks": 96,
          "midi": 72,
          "name": "C5",
          "ticks": 54336,
          "time": 164.8939409479167,
          "velocity": 0.47244094488188976
        },
        {
          "duration": 1.5789439999999786,
          "durationTicks": 384,
          "midi": 46,
          "name": "A#2",
          "ticks": 54336,
          "time": 164.8939409479167,
          "velocity": 0.6141732283464567
        },
        {
          "duration": 3.1578879999999856,
          "durationTicks": 768,
          "midi": 41,
          "name": "F2",
          "ticks": 54336,
          "time": 164.8939409479167,
          "velocity": 0.5275590551181102
        },
        {
          "duration": 0.39473599999999465,
          "durationTicks": 96,
          "midi": 63,
          "name": "D#4",
          "ticks": 54432,
          "time": 165.28867694791668,
          "velocity": 0.6535433070866141
        },
        {
          "duration": 0.39473599999999465,
          "durationTicks": 96,
          "midi": 75,
          "name": "D#5",
          "ticks": 54432,
          "time": 165.28867694791668,
          "velocity": 0.6535433070866141
        },
        {
          "duration": 1.1842080000000124,
          "durationTicks": 288,
          "midi": 65,
          "name": "F4",
          "ticks": 54528,
          "time": 165.68341294791668,
          "velocity": 0.6614173228346457
        },
        {
          "duration": 1.1842080000000124,
          "durationTicks": 288,
          "midi": 77,
          "name": "F5",
          "ticks": 54528,
          "time": 165.68341294791668,
          "velocity": 0.6614173228346457
        },
        {
          "duration": 1.578944000000007,
          "durationTicks": 384,
          "midi": 44,
          "name": "G#2",
          "ticks": 54720,
          "time": 166.47288494791667,
          "velocity": 0.5669291338582677
        },
        {
          "duration": 0.3947359999999662,
          "durationTicks": 96,
          "midi": 65,
          "name": "F4",
          "ticks": 54816,
          "time": 166.8676209479167,
          "velocity": 0.6377952755905512
        },
        {
          "duration": 0.3947359999999662,
          "durationTicks": 96,
          "midi": 77,
          "name": "F5",
          "ticks": 54816,
          "time": 166.8676209479167,
          "velocity": 0.6377952755905512
        },
        {
          "duration": 0.39473600000002307,
          "durationTicks": 96,
          "midi": 68,
          "name": "G#4",
          "ticks": 54912,
          "time": 167.26235694791666,
          "velocity": 0.6535433070866141
        },
        {
          "duration": 0.39473600000002307,
          "durationTicks": 96,
          "midi": 80,
          "name": "G#5",
          "ticks": 54912,
          "time": 167.26235694791666,
          "velocity": 0.6535433070866141
        },
        {
          "duration": 0.39473599999999465,
          "durationTicks": 96,
          "midi": 72,
          "name": "C5",
          "ticks": 55008,
          "time": 167.65709294791668,
          "velocity": 0.6850393700787402
        },
        {
          "duration": 0.39473599999999465,
          "durationTicks": 96,
          "midi": 84,
          "name": "C6",
          "ticks": 55008,
          "time": 167.65709294791668,
          "velocity": 0.6850393700787402
        },
        {
          "duration": 1.184207999999984,
          "durationTicks": 288,
          "midi": 75,
          "name": "D#5",
          "ticks": 55104,
          "time": 168.05182894791668,
          "velocity": 0.7007874015748031
        },
        {
          "duration": 1.184207999999984,
          "durationTicks": 288,
          "midi": 87,
          "name": "D#6",
          "ticks": 55104,
          "time": 168.05182894791668,
          "velocity": 0.7007874015748031
        },
        {
          "duration": 1.578944000000007,
          "durationTicks": 384,
          "midi": 48,
          "name": "C3",
          "ticks": 55104,
          "time": 168.05182894791668,
          "velocity": 0.6850393700787402
        },
        {
          "duration": 1.578944000000007,
          "durationTicks": 384,
          "midi": 55,
          "name": "G3",
          "ticks": 55104,
          "time": 168.05182894791668,
          "velocity": 0.6850393700787402
        },
        {
          "duration": 0.39473600000002307,
          "durationTicks": 96,
          "midi": 72,
          "name": "C5",
          "ticks": 55392,
          "time": 169.23603694791666,
          "velocity": 0.5748031496062992
        },
        {
          "duration": 0.39473600000002307,
          "durationTicks": 96,
          "midi": 84,
          "name": "C6",
          "ticks": 55392,
          "time": 169.23603694791666,
          "velocity": 0.5748031496062992
        },
        {
          "duration": 1.184207999999984,
          "durationTicks": 288,
          "midi": 70,
          "name": "A#4",
          "ticks": 55488,
          "time": 169.63077294791668,
          "velocity": 0.6377952755905512
        },
        {
          "duration": 1.184207999999984,
          "durationTicks": 288,
          "midi": 73,
          "name": "C#5",
          "ticks": 55488,
          "time": 169.63077294791668,
          "velocity": 0.6377952755905512
        },
        {
          "duration": 1.184207999999984,
          "durationTicks": 288,
          "midi": 79,
          "name": "G5",
          "ticks": 55488,
          "time": 169.63077294791668,
          "velocity": 0.6377952755905512
        },
        {
          "duration": 1.184207999999984,
          "durationTicks": 288,
          "midi": 85,
          "name": "C#6",
          "ticks": 55488,
          "time": 169.63077294791668,
          "velocity": 0.6377952755905512
        },
        {
          "duration": 1.5789439999999786,
          "durationTicks": 384,
          "midi": 55,
          "name": "G3",
          "ticks": 55488,
          "time": 169.63077294791668,
          "velocity": 0.6062992125984252
        },
        {
          "duration": 0.39473599999999465,
          "durationTicks": 96,
          "midi": 70,
          "name": "A#4",
          "ticks": 55776,
          "time": 170.81498094791667,
          "velocity": 0.5354330708661418
        },
        {
          "duration": 0.39473599999999465,
          "durationTicks": 96,
          "midi": 82,
          "name": "A#5",
          "ticks": 55776,
          "time": 170.81498094791667,
          "velocity": 0.5354330708661418
        },
        {
          "duration": 1.578944000000007,
          "durationTicks": 384,
          "midi": 72,
          "name": "C5",
          "ticks": 55872,
          "time": 171.20971694791666,
          "velocity": 0.5905511811023622
        },
        {
          "duration": 1.578944000000007,
          "durationTicks": 384,
          "midi": 75,
          "name": "D#5",
          "ticks": 55872,
          "time": 171.20971694791666,
          "velocity": 0.5905511811023622
        },
        {
          "duration": 1.578944000000007,
          "durationTicks": 384,
          "midi": 79,
          "name": "G5",
          "ticks": 55872,
          "time": 171.20971694791666,
          "velocity": 0.5905511811023622
        },
        {
          "duration": 1.578944000000007,
          "durationTicks": 384,
          "midi": 84,
          "name": "C6",
          "ticks": 55872,
          "time": 171.20971694791666,
          "velocity": 0.5905511811023622
        },
        {
          "duration": 1.578944000000007,
          "durationTicks": 384,
          "midi": 48,
          "name": "C3",
          "ticks": 55872,
          "time": 171.20971694791666,
          "velocity": 0.5511811023622047
        },
        {
          "duration": 1.578944000000007,
          "durationTicks": 384,
          "midi": 55,
          "name": "G3",
          "ticks": 55872,
          "time": 171.20971694791666,
          "velocity": 0.5511811023622047
        },
        {
          "duration": 0.39473600000002307,
          "durationTicks": 96,
          "midi": 70,
          "name": "A#4",
          "ticks": 56064,
          "time": 171.99918894791665,
          "velocity": 0.5826771653543307
        },
        {
          "duration": 0.39473599999999465,
          "durationTicks": 96,
          "midi": 68,
          "name": "G#4",
          "ticks": 56160,
          "time": 172.39392494791667,
          "velocity": 0.5590551181102362
        },
        {
          "duration": 0.48386899999999855,
          "durationTicks": 192,
          "midi": 60,
          "name": "C4",
          "ticks": 56256,
          "time": 172.78866094791667,
          "velocity": 0.44881889763779526
        },
        {
          "duration": 0.48386899999999855,
          "durationTicks": 192,
          "midi": 72,
          "name": "C5",
          "ticks": 56256,
          "time": 172.78866094791667,
          "velocity": 0.44881889763779526
        },
        {
          "duration": 0.24193450000001349,
          "durationTicks": 96,
          "midi": 41,
          "name": "F2",
          "ticks": 56256,
          "time": 172.78866094791667,
          "velocity": 0.5275590551181102
        },
        {
          "duration": 0.24193449999998506,
          "durationTicks": 96,
          "midi": 48,
          "name": "C3",
          "ticks": 56352,
          "time": 173.03059544791668,
          "velocity": 0.6456692913385826
        },
        {
          "duration": 0.24193450000001349,
          "durationTicks": 96,
          "midi": 60,
          "name": "C4",
          "ticks": 56448,
          "time": 173.27252994791667,
          "velocity": 0.5039370078740157
        },
        {
          "duration": 0.24193450000001349,
          "durationTicks": 96,
          "midi": 69,
          "name": "A4",
          "ticks": 56448,
          "time": 173.27252994791667,
          "velocity": 0.5039370078740157
        },
        {
          "duration": 0.24193450000001349,
          "durationTicks": 96,
          "midi": 40,
          "name": "E2",
          "ticks": 56448,
          "time": 173.27252994791667,
          "velocity": 0.5669291338582677
        },
        {
          "duration": 0.48386899999999855,
          "durationTicks": 192,
          "midi": 60,
          "name": "C4",
          "ticks": 56544,
          "time": 173.51446444791668,
          "velocity": 0.5118110236220472
        },
        {
          "duration": 0.48386899999999855,
          "durationTicks": 192,
          "midi": 65,
          "name": "F4",
          "ticks": 56544,
          "time": 173.51446444791668,
          "velocity": 0.5118110236220472
        },
        {
          "duration": 0.24193449999998506,
          "durationTicks": 96,
          "midi": 48,
          "name": "C3",
          "ticks": 56544,
          "time": 173.51446444791668,
          "velocity": 0.6535433070866141
        },
        {
          "duration": 0.24193450000001349,
          "durationTicks": 96,
          "midi": 38,
          "name": "D2",
          "ticks": 56640,
          "time": 173.75639894791667,
          "velocity": 0.5196850393700787
        },
        {
          "duration": 0.24193449999998506,
          "durationTicks": 96,
          "midi": 60,
          "name": "C4",
          "ticks": 56736,
          "time": 173.99833344791668,
          "velocity": 0.48031496062992124
        },
        {
          "duration": 0.24193449999998506,
          "durationTicks": 96,
          "midi": 48,
          "name": "C3",
          "ticks": 56736,
          "time": 173.99833344791668,
          "velocity": 0.6614173228346457
        },
        {
          "duration": 0.24193450000001349,
          "durationTicks": 96,
          "midi": 60,
          "name": "C4",
          "ticks": 56832,
          "time": 174.24026794791666,
          "velocity": 0.5748031496062992
        },
        {
          "duration": 0.24193450000001349,
          "durationTicks": 96,
          "midi": 36,
          "name": "C2",
          "ticks": 56832,
          "time": 174.24026794791666,
          "velocity": 0.5118110236220472
        },
        {
          "duration": 0.24193449999998506,
          "durationTicks": 96,
          "midi": 60,
          "name": "C4",
          "ticks": 56928,
          "time": 174.48220244791668,
          "velocity": 0.5905511811023622
        },
        {
          "duration": 0.24193449999998506,
          "durationTicks": 96,
          "midi": 48,
          "name": "C3",
          "ticks": 56928,
          "time": 174.48220244791668,
          "velocity": 0.6929133858267716
        },
        {
          "duration": 0.24193450000001349,
          "durationTicks": 96,
          "midi": 62,
          "name": "D4",
          "ticks": 57024,
          "time": 174.72413694791666,
          "velocity": 0.6299212598425197
        },
        {
          "duration": 0.24193450000001349,
          "durationTicks": 96,
          "midi": 46,
          "name": "A#2",
          "ticks": 57024,
          "time": 174.72413694791666,
          "velocity": 0.5748031496062992
        },
        {
          "duration": 0.24193449999998506,
          "durationTicks": 96,
          "midi": 65,
          "name": "F4",
          "ticks": 57120,
          "time": 174.96607144791668,
          "velocity": 0.6614173228346457
        },
        {
          "duration": 0.24193449999998506,
          "durationTicks": 96,
          "midi": 53,
          "name": "F3",
          "ticks": 57120,
          "time": 174.96607144791668,
          "velocity": 0.6535433070866141
        },
        {
          "duration": 0.24193450000001349,
          "durationTicks": 96,
          "midi": 62,
          "name": "D4",
          "ticks": 57216,
          "time": 175.20800594791666,
          "velocity": 0.6850393700787402
        },
        {
          "duration": 0.24193450000001349,
          "durationTicks": 96,
          "midi": 70,
          "name": "A#4",
          "ticks": 57216,
          "time": 175.20800594791666,
          "velocity": 0.6850393700787402
        },
        {
          "duration": 0.24193450000001349,
          "durationTicks": 96,
          "midi": 58,
          "name": "A#3",
          "ticks": 57216,
          "time": 175.20800594791666,
          "velocity": 0.6614173228346457
        },
        {
          "duration": 0.24193449999998506,
          "durationTicks": 96,
          "midi": 62,
          "name": "D4",
          "ticks": 57312,
          "time": 175.44994044791667,
          "velocity": 0.6929133858267716
        },
        {
          "duration": 0.24193449999998506,
          "durationTicks": 96,
          "midi": 74,
          "name": "D5",
          "ticks": 57312,
          "time": 175.44994044791667,
          "velocity": 0.6929133858267716
        },
        {
          "duration": 0.24193449999998506,
          "durationTicks": 96,
          "midi": 53,
          "name": "F3",
          "ticks": 57312,
          "time": 175.44994044791667,
          "velocity": 0.5669291338582677
        },
        {
          "duration": 0.725803500000012,
          "durationTicks": 288,
          "midi": 60,
          "name": "C4",
          "ticks": 57408,
          "time": 175.69187494791666,
          "velocity": 0.5669291338582677
        },
        {
          "duration": 0.725803500000012,
          "durationTicks": 288,
          "midi": 72,
          "name": "C5",
          "ticks": 57408,
          "time": 175.69187494791666,
          "velocity": 0.5669291338582677
        },
        {
          "duration": 0.24193450000001349,
          "durationTicks": 96,
          "midi": 45,
          "name": "A2",
          "ticks": 57408,
          "time": 175.69187494791666,
          "velocity": 0.5354330708661418
        },
        {
          "duration": 0.24193449999998506,
          "durationTicks": 96,
          "midi": 53,
          "name": "F3",
          "ticks": 57504,
          "time": 175.93380944791667,
          "velocity": 0.6692913385826772
        },
        {
          "duration": 0.24193450000001349,
          "durationTicks": 96,
          "midi": 57,
          "name": "A3",
          "ticks": 57600,
          "time": 176.17574394791666,
          "velocity": 0.6456692913385826
        },
        {
          "duration": 0.24193449999998506,
          "durationTicks": 96,
          "midi": 69,
          "name": "A4",
          "ticks": 57696,
          "time": 176.41767844791667,
          "velocity": 0.5196850393700787
        },
        {
          "duration": 0.24193449999998506,
          "durationTicks": 96,
          "midi": 53,
          "name": "F3",
          "ticks": 57696,
          "time": 176.41767844791667,
          "velocity": 0.5669291338582677
        },
        {
          "duration": 0.24193450000001349,
          "durationTicks": 96,
          "midi": 70,
          "name": "A#4",
          "ticks": 57792,
          "time": 176.65961294791666,
          "velocity": 0.5905511811023622
        },
        {
          "duration": 0.24193450000001349,
          "durationTicks": 96,
          "midi": 48,
          "name": "C3",
          "ticks": 57792,
          "time": 176.65961294791666,
          "velocity": 0.6850393700787402
        },
        {
          "duration": 0.24193450000001349,
          "durationTicks": 96,
          "midi": 60,
          "name": "C4",
          "ticks": 57792,
          "time": 176.65961294791666,
          "velocity": 0.6850393700787402
        },
        {
          "duration": 0.24193449999998506,
          "durationTicks": 96,
          "midi": 67,
          "name": "G4",
          "ticks": 57888,
          "time": 176.90154744791667,
          "velocity": 0.5433070866141733
        },
        {
          "duration": 0.24193449999998506,
          "durationTicks": 96,
          "midi": 55,
          "name": "G3",
          "ticks": 57888,
          "time": 176.90154744791667,
          "velocity": 0.5590551181102362
        },
        {
          "duration": 0.24193450000001349,
          "durationTicks": 96,
          "midi": 67,
          "name": "G4",
          "ticks": 57984,
          "time": 177.14348194791665,
          "velocity": 0.5984251968503937
        },
        {
          "duration": 0.24193450000001349,
          "durationTicks": 96,
          "midi": 49,
          "name": "C#3",
          "ticks": 57984,
          "time": 177.14348194791665,
          "velocity": 0.6929133858267716
        },
        {
          "duration": 0.24193450000001349,
          "durationTicks": 96,
          "midi": 61,
          "name": "C#4",
          "ticks": 57984,
          "time": 177.14348194791665,
          "velocity": 0.6929133858267716
        },
        {
          "duration": 0.24193450000001349,
          "durationTicks": 96,
          "midi": 70,
          "name": "A#4",
          "ticks": 58080,
          "time": 177.38541644791667,
          "velocity": 0.6299212598425197
        },
        {
          "duration": 0.24193450000001349,
          "durationTicks": 96,
          "midi": 55,
          "name": "G3",
          "ticks": 58080,
          "time": 177.38541644791667,
          "velocity": 0.5826771653543307
        },
        {
          "duration": 0.24193449999998506,
          "durationTicks": 96,
          "midi": 62,
          "name": "D4",
          "ticks": 58176,
          "time": 177.62735094791668,
          "velocity": 0.5433070866141733
        },
        {
          "duration": 0.24193449999998506,
          "durationTicks": 96,
          "midi": 69,
          "name": "A4",
          "ticks": 58176,
          "time": 177.62735094791668,
          "velocity": 0.5433070866141733
        },
        {
          "duration": 0.24193449999998506,
          "durationTicks": 96,
          "midi": 53,
          "name": "F3",
          "ticks": 58176,
          "time": 177.62735094791668,
          "velocity": 0.5905511811023622
        },
        {
          "duration": 0.48386899999999855,
          "durationTicks": 192,
          "midi": 65,
          "name": "F4",
          "ticks": 58272,
          "time": 177.86928544791667,
          "velocity": 0.5826771653543307
        },
        {
          "duration": 0.24193450000001349,
          "durationTicks": 96,
          "midi": 57,
          "name": "A3",
          "ticks": 58272,
          "time": 177.86928544791667,
          "velocity": 0.6299212598425197
        },
        {
          "duration": 0.24193449999998506,
          "durationTicks": 96,
          "midi": 48,
          "name": "C3",
          "ticks": 58368,
          "time": 178.11121994791668,
          "velocity": 0.5354330708661418
        },
        {
          "duration": 0.24193450000001349,
          "durationTicks": 96,
          "midi": 69,
          "name": "A4",
          "ticks": 58464,
          "time": 178.35315444791667,
          "velocity": 0.7007874015748031
        },
        {
          "duration": 0.24193450000001349,
          "durationTicks": 96,
          "midi": 57,
          "name": "A3",
          "ticks": 58464,
          "time": 178.35315444791667,
          "velocity": 0.6220472440944882
        },
        {
          "duration": 0.24193449999998506,
          "durationTicks": 96,
          "midi": 58,
          "name": "A#3",
          "ticks": 58560,
          "time": 178.59508894791668,
          "velocity": 0.5669291338582677
        },
        {
          "duration": 0.24193449999998506,
          "durationTicks": 96,
          "midi": 67,
          "name": "G4",
          "ticks": 58560,
          "time": 178.59508894791668,
          "velocity": 0.5669291338582677
        },
        {
          "duration": 0.24193449999998506,
          "durationTicks": 96,
          "midi": 46,
          "name": "A#2",
          "ticks": 58560,
          "time": 178.59508894791668,
          "velocity": 0.5511811023622047
        },
        {
          "duration": 0.24193450000001349,
          "durationTicks": 96,
          "midi": 62,
          "name": "D4",
          "ticks": 58656,
          "time": 178.83702344791666,
          "velocity": 0.5433070866141733
        },
        {
          "duration": 0.24193450000001349,
          "durationTicks": 96,
          "midi": 55,
          "name": "G3",
          "ticks": 58656,
          "time": 178.83702344791666,
          "velocity": 0.6692913385826772
        },
        {
          "duration": 0.24193449999998506,
          "durationTicks": 96,
          "midi": 58,
          "name": "A#3",
          "ticks": 58752,
          "time": 179.07895794791668,
          "velocity": 0.6535433070866141
        },
        {
          "duration": 0.24193449999998506,
          "durationTicks": 96,
          "midi": 64,
          "name": "E4",
          "ticks": 58752,
          "time": 179.07895794791668,
          "velocity": 0.6535433070866141
        },
        {
          "duration": 0.24193449999998506,
          "durationTicks": 96,
          "midi": 43,
          "name": "G2",
          "ticks": 58752,
          "time": 179.07895794791668,
          "velocity": 0.5118110236220472
        },
        {
          "duration": 0.24193450000001349,
          "durationTicks": 96,
          "midi": 58,
          "name": "A#3",
          "ticks": 58848,
          "time": 179.32089244791666,
          "velocity": 0.6062992125984252
        },
        {
          "duration": 0.24193450000001349,
          "durationTicks": 96,
          "midi": 65,
          "name": "F4",
          "ticks": 58848,
          "time": 179.32089244791666,
          "velocity": 0.6062992125984252
        },
        {
          "duration": 0.24193450000001349,
          "durationTicks": 96,
          "midi": 46,
          "name": "A#2",
          "ticks": 58848,
          "time": 179.32089244791666,
          "velocity": 0.6377952755905512
        },
        {
          "duration": 0.9677379999999971,
          "durationTicks": 384,
          "midi": 60,
          "name": "C4",
          "ticks": 58944,
          "time": 179.56282694791668,
          "velocity": 0.6062992125984252
        },
        {
          "duration": 0.9677379999999971,
          "durationTicks": 384,
          "midi": 67,
          "name": "G4",
          "ticks": 58944,
          "time": 179.56282694791668,
          "velocity": 0.6062992125984252
        },
        {
          "duration": 0.24193449999998506,
          "durationTicks": 96,
          "midi": 36,
          "name": "C2",
          "ticks": 58944,
          "time": 179.56282694791668,
          "velocity": 0.6062992125984252
        },
        {
          "duration": 0.24193449999998506,
          "durationTicks": 96,
          "midi": 48,
          "name": "C3",
          "ticks": 58944,
          "time": 179.56282694791668,
          "velocity": 0.6062992125984252
        },
        {
          "duration": 0.24193450000001349,
          "durationTicks": 96,
          "midi": 38,
          "name": "D2",
          "ticks": 59040,
          "time": 179.80476144791666,
          "velocity": 0.5196850393700787
        },
        {
          "duration": 0.24193449999998506,
          "durationTicks": 96,
          "midi": 40,
          "name": "E2",
          "ticks": 59136,
          "time": 180.04669594791667,
          "velocity": 0.6377952755905512
        },
        {
          "duration": 0.24193450000001349,
          "durationTicks": 96,
          "midi": 36,
          "name": "C2",
          "ticks": 59232,
          "time": 180.28863044791666,
          "velocity": 0.5590551181102362
        },
        {
          "duration": 0.48386899999999855,
          "durationTicks": 192,
          "midi": 60,
          "name": "C4",
          "ticks": 59328,
          "time": 180.53056494791667,
          "velocity": 0.6771653543307087
        },
        {
          "duration": 0.48386899999999855,
          "durationTicks": 192,
          "midi": 72,
          "name": "C5",
          "ticks": 59328,
          "time": 180.53056494791667,
          "velocity": 0.6771653543307087
        },
        {
          "duration": 0.24193449999998506,
          "durationTicks": 96,
          "midi": 41,
          "name": "F2",
          "ticks": 59328,
          "time": 180.53056494791667,
          "velocity": 0.5984251968503937
        },
        {
          "duration": 0.24193450000001349,
          "durationTicks": 96,
          "midi": 48,
          "name": "C3",
          "ticks": 59424,
          "time": 180.77249944791666,
          "velocity": 0.6535433070866141
        },
        {
          "duration": 0.24193449999998506,
          "durationTicks": 96,
          "midi": 60,
          "name": "C4",
          "ticks": 59520,
          "time": 181.01443394791667,
          "velocity": 0.5669291338582677
        },
        {
          "duration": 0.24193449999998506,
          "durationTicks": 96,
          "midi": 69,
          "name": "A4",
          "ticks": 59520,
          "time": 181.01443394791667,
          "velocity": 0.5669291338582677
        },
        {
          "duration": 0.24193449999998506,
          "durationTicks": 96,
          "midi": 40,
          "name": "E2",
          "ticks": 59520,
          "time": 181.01443394791667,
          "velocity": 0.5590551181102362
        },
        {
          "duration": 0.48386899999999855,
          "durationTicks": 192,
          "midi": 60,
          "name": "C4",
          "ticks": 59616,
          "time": 181.25636844791666,
          "velocity": 0.5433070866141733
        },
        {
          "duration": 0.48386899999999855,
          "durationTicks": 192,
          "midi": 65,
          "name": "F4",
          "ticks": 59616,
          "time": 181.25636844791666,
          "velocity": 0.5433070866141733
        },
        {
          "duration": 0.24193450000001349,
          "durationTicks": 96,
          "midi": 48,
          "name": "C3",
          "ticks": 59616,
          "time": 181.25636844791666,
          "velocity": 0.6456692913385826
        },
        {
          "duration": 0.24193449999998506,
          "durationTicks": 96,
          "midi": 38,
          "name": "D2",
          "ticks": 59712,
          "time": 181.49830294791667,
          "velocity": 0.5905511811023622
        },
        {
          "duration": 0.24193450000001349,
          "durationTicks": 96,
          "midi": 60,
          "name": "C4",
          "ticks": 59808,
          "time": 181.74023744791666,
          "velocity": 0.49606299212598426
        },
        {
          "duration": 0.24193450000001349,
          "durationTicks": 96,
          "midi": 48,
          "name": "C3",
          "ticks": 59808,
          "time": 181.74023744791666,
          "velocity": 0.6850393700787402
        },
        {
          "duration": 0.24193449999998506,
          "durationTicks": 96,
          "midi": 60,
          "name": "C4",
          "ticks": 59904,
          "time": 181.98217194791667,
          "velocity": 0.5984251968503937
        },
        {
          "duration": 0.24193449999998506,
          "durationTicks": 96,
          "midi": 36,
          "name": "C2",
          "ticks": 59904,
          "time": 181.98217194791667,
          "velocity": 0.5433070866141733
        },
        {
          "duration": 0.24193450000001349,
          "durationTicks": 96,
          "midi": 60,
          "name": "C4",
          "ticks": 60000,
          "time": 182.22410644791665,
          "velocity": 0.5748031496062992
        },
        {
          "duration": 0.24193450000001349,
          "durationTicks": 96,
          "midi": 48,
          "name": "C3",
          "ticks": 60000,
          "time": 182.22410644791665,
          "velocity": 0.6299212598425197
        },
        {
          "duration": 0.24193450000001349,
          "durationTicks": 96,
          "midi": 62,
          "name": "D4",
          "ticks": 60096,
          "time": 182.46604094791667,
          "velocity": 0.6299212598425197
        },
        {
          "duration": 0.24193450000001349,
          "durationTicks": 96,
          "midi": 46,
          "name": "A#2",
          "ticks": 60096,
          "time": 182.46604094791667,
          "velocity": 0.5984251968503937
        },
        {
          "duration": 0.24193449999998506,
          "durationTicks": 96,
          "midi": 65,
          "name": "F4",
          "ticks": 60192,
          "time": 182.70797544791668,
          "velocity": 0.6535433070866141
        },
        {
          "duration": 0.24193449999998506,
          "durationTicks": 96,
          "midi": 53,
          "name": "F3",
          "ticks": 60192,
          "time": 182.70797544791668,
          "velocity": 0.6299212598425197
        },
        {
          "duration": 0.24193450000001349,
          "durationTicks": 96,
          "midi": 62,
          "name": "D4",
          "ticks": 60288,
          "time": 182.94990994791667,
          "velocity": 0.6850393700787402
        },
        {
          "duration": 0.24193450000001349,
          "durationTicks": 96,
          "midi": 70,
          "name": "A#4",
          "ticks": 60288,
          "time": 182.94990994791667,
          "velocity": 0.6850393700787402
        },
        {
          "duration": 0.24193450000001349,
          "durationTicks": 96,
          "midi": 58,
          "name": "A#3",
          "ticks": 60288,
          "time": 182.94990994791667,
          "velocity": 0.6614173228346457
        },
        {
          "duration": 0.24193449999998506,
          "durationTicks": 96,
          "midi": 62,
          "name": "D4",
          "ticks": 60384,
          "time": 183.19184444791668,
          "velocity": 0.6771653543307087
        },
        {
          "duration": 0.24193449999998506,
          "durationTicks": 96,
          "midi": 74,
          "name": "D5",
          "ticks": 60384,
          "time": 183.19184444791668,
          "velocity": 0.6771653543307087
        },
        {
          "duration": 0.24193449999998506,
          "durationTicks": 96,
          "midi": 53,
          "name": "F3",
          "ticks": 60384,
          "time": 183.19184444791668,
          "velocity": 0.5354330708661418
        },
        {
          "duration": 0.725803500000012,
          "durationTicks": 288,
          "midi": 60,
          "name": "C4",
          "ticks": 60480,
          "time": 183.43377894791666,
          "velocity": 0.5511811023622047
        },
        {
          "duration": 0.725803500000012,
          "durationTicks": 288,
          "midi": 72,
          "name": "C5",
          "ticks": 60480,
          "time": 183.43377894791666,
          "velocity": 0.5511811023622047
        },
        {
          "duration": 0.24193450000001349,
          "durationTicks": 96,
          "midi": 45,
          "name": "A2",
          "ticks": 60480,
          "time": 183.43377894791666,
          "velocity": 0.5196850393700787
        },
        {
          "duration": 0.24193449999998506,
          "durationTicks": 96,
          "midi": 53,
          "name": "F3",
          "ticks": 60576,
          "time": 183.67571344791668,
          "velocity": 0.6456692913385826
        },
        {
          "duration": 0.24193450000001349,
          "durationTicks": 96,
          "midi": 57,
          "name": "A3",
          "ticks": 60672,
          "time": 183.91764794791666,
          "velocity": 0.6456692913385826
        },
        {
          "duration": 0.24193449999998506,
          "durationTicks": 96,
          "midi": 69,
          "name": "A4",
          "ticks": 60768,
          "time": 184.15958244791668,
          "velocity": 0.5118110236220472
        },
        {
          "duration": 0.24193449999998506,
          "durationTicks": 96,
          "midi": 53,
          "name": "F3",
          "ticks": 60768,
          "time": 184.15958244791668,
          "velocity": 0.5669291338582677
        },
        {
          "duration": 0.24193450000001349,
          "durationTicks": 96,
          "midi": 70,
          "name": "A#4",
          "ticks": 60864,
          "time": 184.40151694791666,
          "velocity": 0.6220472440944882
        },
        {
          "duration": 0.24193450000001349,
          "durationTicks": 96,
          "midi": 43,
          "name": "G2",
          "ticks": 60864,
          "time": 184.40151694791666,
          "velocity": 0.6062992125984252
        },
        {
          "duration": 0.24193450000001349,
          "durationTicks": 96,
          "midi": 50,
          "name": "D3",
          "ticks": 60864,
          "time": 184.40151694791666,
          "velocity": 0.6062992125984252
        },
        {
          "duration": 0.24193450000001349,
          "durationTicks": 96,
          "midi": 55,
          "name": "G3",
          "ticks": 60864,
          "time": 184.40151694791666,
          "velocity": 0.6062992125984252
        },
        {
          "duration": 0.24193449999998506,
          "durationTicks": 96,
          "midi": 67,
          "name": "G4",
          "ticks": 60960,
          "time": 184.64345144791668,
          "velocity": 0.5984251968503937
        },
        {
          "duration": 0.24193450000001349,
          "durationTicks": 96,
          "midi": 67,
          "name": "G4",
          "ticks": 61056,
          "time": 184.88538594791666,
          "velocity": 0.5826771653543307
        },
        {
          "duration": 0.24193449999998506,
          "durationTicks": 96,
          "midi": 70,
          "name": "A#4",
          "ticks": 61152,
          "time": 185.12732044791667,
          "velocity": 0.6456692913385826
        },
        {
          "duration": 0.24193449999998506,
          "durationTicks": 96,
          "midi": 43,
          "name": "G2",
          "ticks": 61152,
          "time": 185.12732044791667,
          "velocity": 0.5196850393700787
        },
        {
          "duration": 0.24193449999998506,
          "durationTicks": 96,
          "midi": 50,
          "name": "D3",
          "ticks": 61152,
          "time": 185.12732044791667,
          "velocity": 0.5196850393700787
        },
        {
          "duration": 0.24193449999998506,
          "durationTicks": 96,
          "midi": 55,
          "name": "G3",
          "ticks": 61152,
          "time": 185.12732044791667,
          "velocity": 0.5196850393700787
        },
        {
          "duration": 0.24193450000001349,
          "durationTicks": 96,
          "midi": 69,
          "name": "A4",
          "ticks": 61248,
          "time": 185.36925494791666,
          "velocity": 0.6062992125984252
        },
        {
          "duration": 0.24193450000001349,
          "durationTicks": 96,
          "midi": 48,
          "name": "C3",
          "ticks": 61248,
          "time": 185.36925494791666,
          "velocity": 0.5826771653543307
        },
        {
          "duration": 0.24193450000001349,
          "durationTicks": 96,
          "midi": 53,
          "name": "F3",
          "ticks": 61248,
          "time": 185.36925494791666,
          "velocity": 0.5826771653543307
        },
        {
          "duration": 0.24193450000001349,
          "durationTicks": 96,
          "midi": 57,
          "name": "A3",
          "ticks": 61248,
          "time": 185.36925494791666,
          "velocity": 0.5826771653543307
        },
        {
          "duration": 0.24193449999998506,
          "durationTicks": 96,
          "midi": 65,
          "name": "F4",
          "ticks": 61344,
          "time": 185.61118944791667,
          "velocity": 0.5433070866141733
        },
        {
          "duration": 0.24193449999998506,
          "durationTicks": 96,
          "midi": 48,
          "name": "C3",
          "ticks": 61344,
          "time": 185.61118944791667,
          "velocity": 0.5905511811023622
        },
        {
          "duration": 0.24193449999998506,
          "durationTicks": 96,
          "midi": 53,
          "name": "F3",
          "ticks": 61344,
          "time": 185.61118944791667,
          "velocity": 0.5905511811023622
        },
        {
          "duration": 0.24193449999998506,
          "durationTicks": 96,
          "midi": 57,
          "name": "A3",
          "ticks": 61344,
          "time": 185.61118944791667,
          "velocity": 0.5905511811023622
        },
        {
          "duration": 0.24193449999998506,
          "durationTicks": 96,
          "midi": 69,
          "name": "A4",
          "ticks": 61536,
          "time": 186.09505844791667,
          "velocity": 0.5433070866141733
        },
        {
          "duration": 0.24193450000001349,
          "durationTicks": 96,
          "midi": 67,
          "name": "G4",
          "ticks": 61632,
          "time": 186.33699294791666,
          "velocity": 0.5669291338582677
        },
        {
          "duration": 0.24193450000001349,
          "durationTicks": 96,
          "midi": 48,
          "name": "C3",
          "ticks": 61632,
          "time": 186.33699294791666,
          "velocity": 0.5511811023622047
        },
        {
          "duration": 0.24193450000001349,
          "durationTicks": 96,
          "midi": 55,
          "name": "G3",
          "ticks": 61632,
          "time": 186.33699294791666,
          "velocity": 0.5511811023622047
        },
        {
          "duration": 0.24193450000001349,
          "durationTicks": 96,
          "midi": 58,
          "name": "A#3",
          "ticks": 61632,
          "time": 186.33699294791666,
          "velocity": 0.5511811023622047
        },
        {
          "duration": 0.24193450000001349,
          "durationTicks": 96,
          "midi": 64,
          "name": "E4",
          "ticks": 61728,
          "time": 186.57892744791667,
          "velocity": 0.5275590551181102
        },
        {
          "duration": 0.24193450000001349,
          "durationTicks": 96,
          "midi": 48,
          "name": "C3",
          "ticks": 61728,
          "time": 186.57892744791667,
          "velocity": 0.5669291338582677
        },
        {
          "duration": 0.24193450000001349,
          "durationTicks": 96,
          "midi": 55,
          "name": "G3",
          "ticks": 61728,
          "time": 186.57892744791667,
          "velocity": 0.5669291338582677
        },
        {
          "duration": 0.24193450000001349,
          "durationTicks": 96,
          "midi": 58,
          "name": "A#3",
          "ticks": 61728,
          "time": 186.57892744791667,
          "velocity": 0.5669291338582677
        },
        {
          "duration": 0.2400000000000091,
          "durationTicks": 96,
          "midi": 65,
          "name": "F4",
          "ticks": 61920,
          "time": 187.06279644791667,
          "velocity": 0.5590551181102362
        },
        {
          "duration": 0.2400000000000091,
          "durationTicks": 96,
          "midi": 69,
          "name": "A4",
          "ticks": 61920,
          "time": 187.06279644791667,
          "velocity": 0.5590551181102362
        },
        {
          "duration": 0.2400000000000091,
          "durationTicks": 96,
          "midi": 72,
          "name": "C5",
          "ticks": 61920,
          "time": 187.06279644791667,
          "velocity": 0.5590551181102362
        },
        {
          "duration": 0.960000000000008,
          "durationTicks": 384,
          "midi": 41,
          "name": "F2",
          "ticks": 61920,
          "time": 187.06279644791667,
          "velocity": 0.5354330708661418
        },
        {
          "duration": 0.960000000000008,
          "durationTicks": 384,
          "midi": 53,
          "name": "F3",
          "ticks": 61920,
          "time": 187.06279644791667,
          "velocity": 0.5354330708661418
        },
        {
          "duration": 0.2400000000000091,
          "durationTicks": 96,
          "midi": 65,
          "name": "F4",
          "ticks": 62112,
          "time": 187.54279644791666,
          "velocity": 0.49606299212598426
        },
        {
          "duration": 0.2400000000000091,
          "durationTicks": 96,
          "midi": 69,
          "name": "A4",
          "ticks": 62112,
          "time": 187.54279644791666,
          "velocity": 0.49606299212598426
        },
        {
          "duration": 0.2400000000000091,
          "durationTicks": 96,
          "midi": 60,
          "name": "C4",
          "ticks": 62208,
          "time": 187.78279644791667,
          "velocity": 0.5354330708661418
        },
        {
          "duration": 0.2400000000000091,
          "durationTicks": 96,
          "midi": 65,
          "name": "F4",
          "ticks": 62208,
          "time": 187.78279644791667,
          "velocity": 0.5354330708661418
        },
        {
          "duration": 0.2400000000000091,
          "durationTicks": 96,
          "midi": 69,
          "name": "A4",
          "ticks": 62400,
          "time": 188.26279644791666,
          "velocity": 0.5511811023622047
        },
        {
          "duration": 0.2400000000000091,
          "durationTicks": 96,
          "midi": 72,
          "name": "C5",
          "ticks": 62400,
          "time": 188.26279644791666,
          "velocity": 0.5511811023622047
        },
        {
          "duration": 1.920000000000016,
          "durationTicks": 768,
          "midi": 48,
          "name": "C3",
          "ticks": 62400,
          "time": 188.26279644791666,
          "velocity": 0.5196850393700787
        },
        {
          "duration": 0.2400000000000091,
          "durationTicks": 96,
          "midi": 67,
          "name": "G4",
          "ticks": 62496,
          "time": 188.50279644791667,
          "velocity": 0.5433070866141733
        },
        {
          "duration": 0.2400000000000091,
          "durationTicks": 96,
          "midi": 70,
          "name": "A#4",
          "ticks": 62496,
          "time": 188.50279644791667,
          "velocity": 0.5433070866141733
        },
        {
          "duration": 0.23999999999998067,
          "durationTicks": 96,
          "midi": 67,
          "name": "G4",
          "ticks": 62592,
          "time": 188.74279644791667,
          "velocity": 0.5905511811023622
        },
        {
          "duration": 0.23999999999998067,
          "durationTicks": 96,
          "midi": 70,
          "name": "A#4",
          "ticks": 62592,
          "time": 188.74279644791667,
          "velocity": 0.5905511811023622
        },
        {
          "duration": 0.2400000000000091,
          "durationTicks": 96,
          "midi": 64,
          "name": "E4",
          "ticks": 62688,
          "time": 188.98279644791666,
          "velocity": 0.5433070866141733
        },
        {
          "duration": 0.2400000000000091,
          "durationTicks": 96,
          "midi": 67,
          "name": "G4",
          "ticks": 62688,
          "time": 188.98279644791666,
          "velocity": 0.5433070866141733
        },
        {
          "duration": 0.2400000000000091,
          "durationTicks": 96,
          "midi": 67,
          "name": "G4",
          "ticks": 63168,
          "time": 190.18279644791667,
          "velocity": 0.49606299212598426
        },
        {
          "duration": 0.2400000000000091,
          "durationTicks": 96,
          "midi": 70,
          "name": "A#4",
          "ticks": 63168,
          "time": 190.18279644791667,
          "velocity": 0.49606299212598426
        },
        {
          "duration": 0.960000000000008,
          "durationTicks": 384,
          "midi": 48,
          "name": "C3",
          "ticks": 63168,
          "time": 190.18279644791667,
          "velocity": 0.5826771653543307
        },
        {
          "duration": 0.2400000000000091,
          "durationTicks": 96,
          "midi": 64,
          "name": "E4",
          "ticks": 63360,
          "time": 190.66279644791666,
          "velocity": 0.5118110236220472
        },
        {
          "duration": 0.2400000000000091,
          "durationTicks": 96,
          "midi": 67,
          "name": "G4",
          "ticks": 63360,
          "time": 190.66279644791666,
          "velocity": 0.5118110236220472
        },
        {
          "duration": 0.2400000000000091,
          "durationTicks": 96,
          "midi": 60,
          "name": "C4",
          "ticks": 63456,
          "time": 190.90279644791667,
          "velocity": 0.5354330708661418
        },
        {
          "duration": 0.2400000000000091,
          "durationTicks": 96,
          "midi": 64,
          "name": "E4",
          "ticks": 63456,
          "time": 190.90279644791667,
          "velocity": 0.5354330708661418
        },
        {
          "duration": 0.9599999999999795,
          "durationTicks": 384,
          "midi": 49,
          "name": "C#3",
          "ticks": 63552,
          "time": 191.14279644791668,
          "velocity": 0.5669291338582677
        },
        {
          "duration": 0.2400000000000091,
          "durationTicks": 96,
          "midi": 67,
          "name": "G4",
          "ticks": 63648,
          "time": 191.38279644791666,
          "velocity": 0.5433070866141733
        },
        {
          "duration": 0.2400000000000091,
          "durationTicks": 96,
          "midi": 70,
          "name": "A#4",
          "ticks": 63648,
          "time": 191.38279644791666,
          "velocity": 0.5433070866141733
        },
        {
          "duration": 0.47999999999998977,
          "durationTicks": 192,
          "midi": 65,
          "name": "F4",
          "ticks": 63840,
          "time": 191.86279644791668,
          "velocity": 0.5433070866141733
        },
        {
          "duration": 0.47999999999998977,
          "durationTicks": 192,
          "midi": 69,
          "name": "A4",
          "ticks": 63840,
          "time": 191.86279644791668,
          "velocity": 0.5433070866141733
        },
        {
          "duration": 1.920000000000016,
          "durationTicks": 768,
          "midi": 50,
          "name": "D3",
          "ticks": 63936,
          "time": 192.10279644791666,
          "velocity": 0.6299212598425197
        },
        {
          "duration": 0.2400000000000091,
          "durationTicks": 96,
          "midi": 62,
          "name": "D4",
          "ticks": 64032,
          "time": 192.34279644791667,
          "velocity": 0.5275590551181102
        },
        {
          "duration": 0.2400000000000091,
          "durationTicks": 96,
          "midi": 65,
          "name": "F4",
          "ticks": 64032,
          "time": 192.34279644791667,
          "velocity": 0.5275590551181102
        },
        {
          "duration": 1.1999999999999886,
          "durationTicks": 480,
          "midi": 70,
          "name": "A#4",
          "ticks": 64704,
          "time": 194.02279644791668,
          "velocity": 0.5590551181102362
        },
        {
          "duration": 1.1999999999999886,
          "durationTicks": 480,
          "midi": 74,
          "name": "D5",
          "ticks": 64704,
          "time": 194.02279644791668,
          "velocity": 0.5590551181102362
        },
        {
          "duration": 0.9599999999999795,
          "durationTicks": 384,
          "midi": 65,
          "name": "F4",
          "ticks": 64704,
          "time": 194.02279644791668,
          "velocity": 0.5275590551181102
        },
        {
          "duration": 0.23999999999998067,
          "durationTicks": 96,
          "midi": 46,
          "name": "A#2",
          "ticks": 64704,
          "time": 194.02279644791668,
          "velocity": 0.5669291338582677
        },
        {
          "duration": 0.2400000000000091,
          "durationTicks": 96,
          "midi": 58,
          "name": "A#3",
          "ticks": 64800,
          "time": 194.26279644791666,
          "velocity": 0.7007874015748031
        },
        {
          "duration": 0.2400000000000091,
          "durationTicks": 96,
          "midi": 46,
          "name": "A#2",
          "ticks": 64896,
          "time": 194.50279644791667,
          "velocity": 0.5511811023622047
        },
        {
          "duration": 0.23999999999998067,
          "durationTicks": 96,
          "midi": 58,
          "name": "A#3",
          "ticks": 64992,
          "time": 194.74279644791667,
          "velocity": 0.6456692913385826
        },
        {
          "duration": 0.960000000000008,
          "durationTicks": 384,
          "midi": 67,
          "name": "G4",
          "ticks": 65088,
          "time": 194.98279644791666,
          "velocity": 0.6535433070866141
        },
        {
          "duration": 0.2400000000000091,
          "durationTicks": 96,
          "midi": 46,
          "name": "A#2",
          "ticks": 65088,
          "time": 194.98279644791666,
          "velocity": 0.48031496062992124
        },
        {
          "duration": 0.2400000000000091,
          "durationTicks": 96,
          "midi": 76,
          "name": "E5",
          "ticks": 65184,
          "time": 195.22279644791666,
          "velocity": 0.6141732283464567
        },
        {
          "duration": 0.2400000000000091,
          "durationTicks": 96,
          "midi": 58,
          "name": "A#3",
          "ticks": 65184,
          "time": 195.22279644791666,
          "velocity": 0.6692913385826772
        },
        {
          "duration": 0.2400000000000091,
          "durationTicks": 96,
          "midi": 72,
          "name": "C5",
          "ticks": 65280,
          "time": 195.46279644791667,
          "velocity": 0.5039370078740157
        },
        {
          "duration": 0.2400000000000091,
          "durationTicks": 96,
          "midi": 46,
          "name": "A#2",
          "ticks": 65280,
          "time": 195.46279644791667,
          "velocity": 0.5118110236220472
        },
        {
          "duration": 0.23999999999998067,
          "durationTicks": 96,
          "midi": 70,
          "name": "A#4",
          "ticks": 65376,
          "time": 195.70279644791668,
          "velocity": 0.5590551181102362
        },
        {
          "duration": 0.23999999999998067,
          "durationTicks": 96,
          "midi": 58,
          "name": "A#3",
          "ticks": 65376,
          "time": 195.70279644791668,
          "velocity": 0.6771653543307087
        },
        {
          "duration": 1.920000000000016,
          "durationTicks": 768,
          "midi": 72,
          "name": "C5",
          "ticks": 65472,
          "time": 195.94279644791666,
          "velocity": 0.6377952755905512
        },
        {
          "duration": 0.960000000000008,
          "durationTicks": 384,
          "midi": 64,
          "name": "E4",
          "ticks": 65472,
          "time": 195.94279644791666,
          "velocity": 0.6299212598425197
        },
        {
          "duration": 0.960000000000008,
          "durationTicks": 384,
          "midi": 67,
          "name": "G4",
          "ticks": 65472,
          "time": 195.94279644791666,
          "velocity": 0.6299212598425197
        },
        {
          "duration": 0.2400000000000091,
          "durationTicks": 96,
          "midi": 45,
          "name": "A2",
          "ticks": 65472,
          "time": 195.94279644791666,
          "velocity": 0.5118110236220472
        },
        {
          "duration": 0.23999999999998067,
          "durationTicks": 96,
          "midi": 57,
          "name": "A3",
          "ticks": 65568,
          "time": 196.18279644791667,
          "velocity": 0.7007874015748031
        },
        {
          "duration": 0.2400000000000091,
          "durationTicks": 96,
          "midi": 45,
          "name": "A2",
          "ticks": 65664,
          "time": 196.42279644791665,
          "velocity": 0.5511811023622047
        },
        {
          "duration": 0.2400000000000091,
          "durationTicks": 96,
          "midi": 57,
          "name": "A3",
          "ticks": 65760,
          "time": 196.66279644791666,
          "velocity": 0.7007874015748031
        },
        {
          "duration": 0.960000000000008,
          "durationTicks": 384,
          "midi": 65,
          "name": "F4",
          "ticks": 65856,
          "time": 196.90279644791667,
          "velocity": 0.6535433070866141
        },
        {
          "duration": 0.960000000000008,
          "durationTicks": 384,
          "midi": 69,
          "name": "A4",
          "ticks": 65856,
          "time": 196.90279644791667,
          "velocity": 0.6535433070866141
        },
        {
          "duration": 0.2400000000000091,
          "durationTicks": 96,
          "midi": 50,
          "name": "D3",
          "ticks": 65856,
          "time": 196.90279644791667,
          "velocity": 0.5826771653543307
        },
        {
          "duration": 0.23999999999998067,
          "durationTicks": 96,
          "midi": 62,
          "name": "D4",
          "ticks": 65952,
          "time": 197.14279644791668,
          "velocity": 0.7716535433070866
        },
        {
          "duration": 0.2400000000000091,
          "durationTicks": 96,
          "midi": 50,
          "name": "D3",
          "ticks": 66048,
          "time": 197.38279644791666,
          "velocity": 0.5354330708661418
        },
        {
          "duration": 0.2400000000000091,
          "durationTicks": 96,
          "midi": 62,
          "name": "D4",
          "ticks": 66144,
          "time": 197.62279644791667,
          "velocity": 0.7637795275590551
        },
        {
          "duration": 1.9199999999999875,
          "durationTicks": 768,
          "midi": 62,
          "name": "D4",
          "ticks": 66240,
          "time": 197.86279644791668,
          "velocity": 0.5905511811023622
        },
        {
          "duration": 1.9199999999999875,
          "durationTicks": 768,
          "midi": 65,
          "name": "F4",
          "ticks": 66240,
          "time": 197.86279644791668,
          "velocity": 0.5905511811023622
        },
        {
          "duration": 1.9199999999999875,
          "durationTicks": 768,
          "midi": 70,
          "name": "A#4",
          "ticks": 66240,
          "time": 197.86279644791668,
          "velocity": 0.5905511811023622
        },
        {
          "duration": 0.23999999999998067,
          "durationTicks": 96,
          "midi": 43,
          "name": "G2",
          "ticks": 66240,
          "time": 197.86279644791668,
          "velocity": 0.5354330708661418
        },
        {
          "duration": 0.2400000000000091,
          "durationTicks": 96,
          "midi": 55,
          "name": "G3",
          "ticks": 66336,
          "time": 198.10279644791666,
          "velocity": 0.6456692913385826
        },
        {
          "duration": 0.2400000000000091,
          "durationTicks": 96,
          "midi": 43,
          "name": "G2",
          "ticks": 66432,
          "time": 198.34279644791667,
          "velocity": 0.5433070866141733
        },
        {
          "duration": 0.23999999999998067,
          "durationTicks": 96,
          "midi": 55,
          "name": "G3",
          "ticks": 66528,
          "time": 198.58279644791668,
          "velocity": 0.6377952755905512
        },
        {
          "duration": 0.2400000000000091,
          "durationTicks": 96,
          "midi": 43,
          "name": "G2",
          "ticks": 66624,
          "time": 198.82279644791666,
          "velocity": 0.5511811023622047
        },
        {
          "duration": 0.2400000000000091,
          "durationTicks": 96,
          "midi": 55,
          "name": "G3",
          "ticks": 66720,
          "time": 199.06279644791667,
          "velocity": 0.6692913385826772
        },
        {
          "duration": 0.23999999999998067,
          "durationTicks": 96,
          "midi": 43,
          "name": "G2",
          "ticks": 66816,
          "time": 199.30279644791668,
          "velocity": 0.5354330708661418
        },
        {
          "duration": 0.2400000000000091,
          "durationTicks": 96,
          "midi": 55,
          "name": "G3",
          "ticks": 66912,
          "time": 199.54279644791666,
          "velocity": 0.6929133858267716
        },
        {
          "duration": 0.2400000000000091,
          "durationTicks": 96,
          "midi": 41,
          "name": "F2",
          "ticks": 67008,
          "time": 199.78279644791667,
          "velocity": 0.49606299212598426
        },
        {
          "duration": 0.23999999999998067,
          "durationTicks": 96,
          "midi": 53,
          "name": "F3",
          "ticks": 67104,
          "time": 200.02279644791668,
          "velocity": 0.6929133858267716
        },
        {
          "duration": 0.4800000000000182,
          "durationTicks": 192,
          "midi": 57,
          "name": "A3",
          "ticks": 67200,
          "time": 200.26279644791666,
          "velocity": 0.5511811023622047
        },
        {
          "duration": 0.4800000000000182,
          "durationTicks": 192,
          "midi": 65,
          "name": "F4",
          "ticks": 67200,
          "time": 200.26279644791666,
          "velocity": 0.5511811023622047
        },
        {
          "duration": 0.2400000000000091,
          "durationTicks": 96,
          "midi": 41,
          "name": "F2",
          "ticks": 67200,
          "time": 200.26279644791666,
          "velocity": 0.5196850393700787
        },
        {
          "duration": 0.2400000000000091,
          "durationTicks": 96,
          "midi": 53,
          "name": "F3",
          "ticks": 67296,
          "time": 200.50279644791667,
          "velocity": 0.6771653543307087
        },
        {
          "duration": 0.47999999999998977,
          "durationTicks": 192,
          "midi": 57,
          "name": "A3",
          "ticks": 67392,
          "time": 200.74279644791667,
          "velocity": 0.5590551181102362
        },
        {
          "duration": 0.47999999999998977,
          "durationTicks": 192,
          "midi": 64,
          "name": "E4",
          "ticks": 67392,
          "time": 200.74279644791667,
          "velocity": 0.5590551181102362
        },
        {
          "duration": 0.23999999999998067,
          "durationTicks": 96,
          "midi": 41,
          "name": "F2",
          "ticks": 67392,
          "time": 200.74279644791667,
          "velocity": 0.5275590551181102
        },
        {
          "duration": 0.2400000000000091,
          "durationTicks": 96,
          "midi": 53,
          "name": "F3",
          "ticks": 67488,
          "time": 200.98279644791666,
          "velocity": 0.6771653543307087
        },
        {
          "duration": 0.2400000000000091,
          "durationTicks": 96,
          "midi": 57,
          "name": "A3",
          "ticks": 67584,
          "time": 201.22279644791666,
          "velocity": 0.6299212598425197
        },
        {
          "duration": 0.2400000000000091,
          "durationTicks": 96,
          "midi": 65,
          "name": "F4",
          "ticks": 67584,
          "time": 201.22279644791666,
          "velocity": 0.6299212598425197
        },
        {
          "duration": 0.2400000000000091,
          "durationTicks": 96,
          "midi": 41,
          "name": "F2",
          "ticks": 67584,
          "time": 201.22279644791666,
          "velocity": 0.5511811023622047
        },
        {
          "duration": 1.1999999999999886,
          "durationTicks": 480,
          "midi": 55,
          "name": "G3",
          "ticks": 67680,
          "time": 201.46279644791667,
          "velocity": 0.5433070866141733
        },
        {
          "duration": 1.1999999999999886,
          "durationTicks": 480,
          "midi": 60,
          "name": "C4",
          "ticks": 67680,
          "time": 201.46279644791667,
          "velocity": 0.5433070866141733
        },
        {
          "duration": 0.23999999999998067,
          "durationTicks": 96,
          "midi": 53,
          "name": "F3",
          "ticks": 67680,
          "time": 201.46279644791667,
          "velocity": 0.6614173228346457
        },
        {
          "duration": 0.2400000000000091,
          "durationTicks": 96,
          "midi": 40,
          "name": "E2",
          "ticks": 67776,
          "time": 201.70279644791665,
          "velocity": 0.5196850393700787
        },
        {
          "duration": 0.2400000000000091,
          "durationTicks": 96,
          "midi": 52,
          "name": "E3",
          "ticks": 67872,
          "time": 201.94279644791666,
          "velocity": 0.6535433070866141
        },
        {
          "duration": 0.23999999999998067,
          "durationTicks": 96,
          "midi": 40,
          "name": "E2",
          "ticks": 67968,
          "time": 202.18279644791667,
          "velocity": 0.49606299212598426
        },
        {
          "duration": 0.2400000000000091,
          "durationTicks": 96,
          "midi": 52,
          "name": "E3",
          "ticks": 68064,
          "time": 202.42279644791665,
          "velocity": 0.6614173228346457
        },
        {
          "duration": 0.2400000000000091,
          "durationTicks": 96,
          "midi": 40,
          "name": "E2",
          "ticks": 68160,
          "time": 202.66279644791666,
          "velocity": 0.5354330708661418
        },
        {
          "duration": 0.2400000000000091,
          "durationTicks": 96,
          "midi": 52,
          "name": "E3",
          "ticks": 68256,
          "time": 202.90279644791667,
          "velocity": 0.7007874015748031
        },
        {
          "duration": 0.23999999999998067,
          "durationTicks": 96,
          "midi": 40,
          "name": "E2",
          "ticks": 68352,
          "time": 203.14279644791668,
          "velocity": 0.5275590551181102
        },
        {
          "duration": 0.2400000000000091,
          "durationTicks": 96,
          "midi": 52,
          "name": "E3",
          "ticks": 68448,
          "time": 203.38279644791666,
          "velocity": 0.6692913385826772
        },
        {
          "duration": 0.2400000000000091,
          "durationTicks": 96,
          "midi": 38,
          "name": "D2",
          "ticks": 68544,
          "time": 203.62279644791667,
          "velocity": 0.5196850393700787
        },
        {
          "duration": 0.23999999999998067,
          "durationTicks": 96,
          "midi": 50,
          "name": "D3",
          "ticks": 68640,
          "time": 203.86279644791668,
          "velocity": 0.6850393700787402
        },
        {
          "duration": 0.4800000000000182,
          "durationTicks": 192,
          "midi": 57,
          "name": "A3",
          "ticks": 68736,
          "time": 204.10279644791666,
          "velocity": 0.5039370078740157
        },
        {
          "duration": 0.4800000000000182,
          "durationTicks": 192,
          "midi": 65,
          "name": "F4",
          "ticks": 68736,
          "time": 204.10279644791666,
          "velocity": 0.5039370078740157
        },
        {
          "duration": 0.2400000000000091,
          "durationTicks": 96,
          "midi": 38,
          "name": "D2",
          "ticks": 68736,
          "time": 204.10279644791666,
          "velocity": 0.5275590551181102
        },
        {
          "duration": 0.2400000000000091,
          "durationTicks": 96,
          "midi": 50,
          "name": "D3",
          "ticks": 68832,
          "time": 204.34279644791667,
          "velocity": 0.6850393700787402
        },
        {
          "duration": 0.47999999999998977,
          "durationTicks": 192,
          "midi": 57,
          "name": "A3",
          "ticks": 68928,
          "time": 204.58279644791668,
          "velocity": 0.5669291338582677
        },
        {
          "duration": 0.47999999999998977,
          "durationTicks": 192,
          "midi": 64,
          "name": "E4",
          "ticks": 68928,
          "time": 204.58279644791668,
          "velocity": 0.5669291338582677
        },
        {
          "duration": 0.23999999999998067,
          "durationTicks": 96,
          "midi": 38,
          "name": "D2",
          "ticks": 68928,
          "time": 204.58279644791668,
          "velocity": 0.5118110236220472
        },
        {
          "duration": 0.2400000000000091,
          "durationTicks": 96,
          "midi": 50,
          "name": "D3",
          "ticks": 69024,
          "time": 204.82279644791666,
          "velocity": 0.6692913385826772
        },
        {
          "duration": 0.2400000000000091,
          "durationTicks": 96,
          "midi": 57,
          "name": "A3",
          "ticks": 69120,
          "time": 205.06279644791667,
          "velocity": 0.6614173228346457
        },
        {
          "duration": 0.2400000000000091,
          "durationTicks": 96,
          "midi": 65,
          "name": "F4",
          "ticks": 69120,
          "time": 205.06279644791667,
          "velocity": 0.6614173228346457
        },
        {
          "duration": 0.2400000000000091,
          "durationTicks": 96,
          "midi": 38,
          "name": "D2",
          "ticks": 69120,
          "time": 205.06279644791667,
          "velocity": 0.5275590551181102
        },
        {
          "duration": 1.1999999999999886,
          "durationTicks": 480,
          "midi": 60,
          "name": "C4",
          "ticks": 69216,
          "time": 205.30279644791668,
          "velocity": 0.7007874015748031
        },
        {
          "duration": 1.1999999999999886,
          "durationTicks": 480,
          "midi": 64,
          "name": "E4",
          "ticks": 69216,
          "time": 205.30279644791668,
          "velocity": 0.7007874015748031
        },
        {
          "duration": 1.1999999999999886,
          "durationTicks": 480,
          "midi": 69,
          "name": "A4",
          "ticks": 69216,
          "time": 205.30279644791668,
          "velocity": 0.7007874015748031
        },
        {
          "duration": 0.23999999999998067,
          "durationTicks": 96,
          "midi": 50,
          "name": "D3",
          "ticks": 69216,
          "time": 205.30279644791668,
          "velocity": 0.6692913385826772
        },
        {
          "duration": 0.2400000000000091,
          "durationTicks": 96,
          "midi": 36,
          "name": "C2",
          "ticks": 69312,
          "time": 205.54279644791666,
          "velocity": 0.5669291338582677
        },
        {
          "duration": 0.2400000000000091,
          "durationTicks": 96,
          "midi": 48,
          "name": "C3",
          "ticks": 69408,
          "time": 205.78279644791667,
          "velocity": 0.6771653543307087
        },
        {
          "duration": 0.23999999999998067,
          "durationTicks": 96,
          "midi": 36,
          "name": "C2",
          "ticks": 69504,
          "time": 206.02279644791668,
          "velocity": 0.5354330708661418
        },
        {
          "duration": 0.2400000000000091,
          "durationTicks": 96,
          "midi": 48,
          "name": "C3",
          "ticks": 69600,
          "time": 206.26279644791666,
          "velocity": 0.6929133858267716
        },
        {
          "duration": 0.2400000000000091,
          "durationTicks": 96,
          "midi": 36,
          "name": "C2",
          "ticks": 69696,
          "time": 206.50279644791667,
          "velocity": 0.5511811023622047
        },
        {
          "duration": 0.23999999999998067,
          "durationTicks": 96,
          "midi": 48,
          "name": "C3",
          "ticks": 69792,
          "time": 206.74279644791667,
          "velocity": 0.7007874015748031
        },
        {
          "duration": 0.2400000000000091,
          "durationTicks": 96,
          "midi": 36,
          "name": "C2",
          "ticks": 69888,
          "time": 206.98279644791666,
          "velocity": 0.5275590551181102
        },
        {
          "duration": 0.2400000000000091,
          "durationTicks": 96,
          "midi": 48,
          "name": "C3",
          "ticks": 69984,
          "time": 207.22279644791666,
          "velocity": 0.7007874015748031
        },
        {
          "duration": 0.47999999999998977,
          "durationTicks": 192,
          "midi": 62,
          "name": "D4",
          "ticks": 70080,
          "time": 207.46279644791667,
          "velocity": 0.5275590551181102
        },
        {
          "duration": 0.47999999999998977,
          "durationTicks": 192,
          "midi": 65,
          "name": "F4",
          "ticks": 70080,
          "time": 207.46279644791667,
          "velocity": 0.5275590551181102
        },
        {
          "duration": 0.47999999999998977,
          "durationTicks": 192,
          "midi": 70,
          "name": "A#4",
          "ticks": 70080,
          "time": 207.46279644791667,
          "velocity": 0.5275590551181102
        },
        {
          "duration": 0.2400000000000091,
          "durationTicks": 96,
          "midi": 34,
          "name": "A#1",
          "ticks": 70080,
          "time": 207.46279644791667,
          "velocity": 0.5433070866141733
        },
        {
          "duration": 0.23999999999998067,
          "durationTicks": 96,
          "midi": 46,
          "name": "A#2",
          "ticks": 70176,
          "time": 207.70279644791668,
          "velocity": 0.6929133858267716
        },
        {
          "duration": 0.47999999999998977,
          "durationTicks": 192,
          "midi": 69,
          "name": "A4",
          "ticks": 70272,
          "time": 207.94279644791666,
          "velocity": 0.5669291338582677
        },
        {
          "duration": 0.2400000000000091,
          "durationTicks": 96,
          "midi": 34,
          "name": "A#1",
          "ticks": 70272,
          "time": 207.94279644791666,
          "velocity": 0.5118110236220472
        },
        {
          "duration": 0.23999999999998067,
          "durationTicks": 96,
          "midi": 46,
          "name": "A#2",
          "ticks": 70368,
          "time": 208.18279644791667,
          "velocity": 0.6850393700787402
        },
        {
          "duration": 0.4800000000000182,
          "durationTicks": 192,
          "midi": 67,
          "name": "G4",
          "ticks": 70464,
          "time": 208.42279644791665,
          "velocity": 0.5748031496062992
        },
        {
          "duration": 0.2400000000000091,
          "durationTicks": 96,
          "midi": 34,
          "name": "A#1",
          "ticks": 70464,
          "time": 208.42279644791665,
          "velocity": 0.5275590551181102
        },
        {
          "duration": 0.2400000000000091,
          "durationTicks": 96,
          "midi": 46,
          "name": "A#2",
          "ticks": 70560,
          "time": 208.66279644791666,
          "velocity": 0.6535433070866141
        },
        {
          "duration": 0.2400000000000091,
          "durationTicks": 96,
          "midi": 65,
          "name": "F4",
          "ticks": 70656,
          "time": 208.90279644791667,
          "velocity": 0.5590551181102362
        },
        {
          "duration": 0.2400000000000091,
          "durationTicks": 96,
          "midi": 34,
          "name": "A#1",
          "ticks": 70656,
          "time": 208.90279644791667,
          "velocity": 0.5511811023622047
        },
        {
          "duration": 0.23999999999998067,
          "durationTicks": 96,
          "midi": 61,
          "name": "C#4",
          "ticks": 70752,
          "time": 209.14279644791668,
          "velocity": 0.6535433070866141
        },
        {
          "duration": 0.23999999999998067,
          "durationTicks": 96,
          "midi": 65,
          "name": "F4",
          "ticks": 70752,
          "time": 209.14279644791668,
          "velocity": 0.6535433070866141
        },
        {
          "duration": 0.23999999999998067,
          "durationTicks": 96,
          "midi": 70,
          "name": "A#4",
          "ticks": 70752,
          "time": 209.14279644791668,
          "velocity": 0.6535433070866141
        },
        {
          "duration": 0.23999999999998067,
          "durationTicks": 96,
          "midi": 46,
          "name": "A#2",
          "ticks": 70752,
          "time": 209.14279644791668,
          "velocity": 0.6377952755905512
        },
        {
          "duration": 0.4800000000000182,
          "durationTicks": 192,
          "midi": 70,
          "name": "A#4",
          "ticks": 70848,
          "time": 209.38279644791666,
          "velocity": 0.6141732283464567
        },
        {
          "duration": 0.2400000000000091,
          "durationTicks": 96,
          "midi": 34,
          "name": "A#1",
          "ticks": 70848,
          "time": 209.38279644791666,
          "velocity": 0.5433070866141733
        },
        {
          "duration": 0.2400000000000091,
          "durationTicks": 96,
          "midi": 46,
          "name": "A#2",
          "ticks": 70944,
          "time": 209.62279644791667,
          "velocity": 0.6850393700787402
        },
        {
          "duration": 0.47999999999998977,
          "durationTicks": 192,
          "midi": 69,
          "name": "A4",
          "ticks": 71040,
          "time": 209.86279644791668,
          "velocity": 0.6062992125984252
        },
        {
          "duration": 0.23999999999998067,
          "durationTicks": 96,
          "midi": 34,
          "name": "A#1",
          "ticks": 71040,
          "time": 209.86279644791668,
          "velocity": 0.5196850393700787
        },
        {
          "duration": 0.2400000000000091,
          "durationTicks": 96,
          "midi": 46,
          "name": "A#2",
          "ticks": 71136,
          "time": 210.10279644791666,
          "velocity": 0.6850393700787402
        },
        {
          "duration": 0.47999999999998977,
          "durationTicks": 192,
          "midi": 67,
          "name": "G4",
          "ticks": 71232,
          "time": 210.34279644791667,
          "velocity": 0.5826771653543307
        },
        {
          "duration": 0.2400000000000091,
          "durationTicks": 96,
          "midi": 34,
          "name": "A#1",
          "ticks": 71232,
          "time": 210.34279644791667,
          "velocity": 0.5590551181102362
        },
        {
          "duration": 0.23999999999998067,
          "durationTicks": 96,
          "midi": 46,
          "name": "A#2",
          "ticks": 71328,
          "time": 210.58279644791668,
          "velocity": 0.6692913385826772
        },
        {
          "duration": 0.4800000000000182,
          "durationTicks": 192,
          "midi": 65,
          "name": "F4",
          "ticks": 71424,
          "time": 210.82279644791666,
          "velocity": 0.5590551181102362
        },
        {
          "duration": 0.2400000000000091,
          "durationTicks": 96,
          "midi": 34,
          "name": "A#1",
          "ticks": 71424,
          "time": 210.82279644791666,
          "velocity": 0.5275590551181102
        },
        {
          "duration": 0.2400000000000091,
          "durationTicks": 96,
          "midi": 46,
          "name": "A#2",
          "ticks": 71520,
          "time": 211.06279644791667,
          "velocity": 0.6692913385826772
        },
        {
          "duration": 0.7199999999999989,
          "durationTicks": 288,
          "midi": 58,
          "name": "A#3",
          "ticks": 71616,
          "time": 211.30279644791668,
          "velocity": 0.5984251968503937
        },
        {
          "duration": 0.7199999999999989,
          "durationTicks": 288,
          "midi": 62,
          "name": "D4",
          "ticks": 71616,
          "time": 211.30279644791668,
          "velocity": 0.5984251968503937
        },
        {
          "duration": 0.7199999999999989,
          "durationTicks": 288,
          "midi": 65,
          "name": "F4",
          "ticks": 71616,
          "time": 211.30279644791668,
          "velocity": 0.5984251968503937
        },
        {
          "duration": 0.23999999999998067,
          "durationTicks": 96,
          "midi": 36,
          "name": "C2",
          "ticks": 71616,
          "time": 211.30279644791668,
          "velocity": 0.5433070866141733
        },
        {
          "duration": 0.2400000000000091,
          "durationTicks": 96,
          "midi": 48,
          "name": "C3",
          "ticks": 71712,
          "time": 211.54279644791666,
          "velocity": 0.7007874015748031
        },
        {
          "duration": 0.2400000000000091,
          "durationTicks": 96,
          "midi": 36,
          "name": "C2",
          "ticks": 71808,
          "time": 211.78279644791667,
          "velocity": 0.5511811023622047
        },
        {
          "duration": 0.23999999999998067,
          "durationTicks": 96,
          "midi": 58,
          "name": "A#3",
          "ticks": 71904,
          "time": 212.02279644791668,
          "velocity": 0.6377952755905512
        },
        {
          "duration": 0.23999999999998067,
          "durationTicks": 96,
          "midi": 62,
          "name": "D4",
          "ticks": 71904,
          "time": 212.02279644791668,
          "velocity": 0.6377952755905512
        },
        {
          "duration": 0.23999999999998067,
          "durationTicks": 96,
          "midi": 67,
          "name": "G4",
          "ticks": 71904,
          "time": 212.02279644791668,
          "velocity": 0.6377952755905512
        },
        {
          "duration": 0.23999999999998067,
          "durationTicks": 96,
          "midi": 48,
          "name": "C3",
          "ticks": 71904,
          "time": 212.02279644791668,
          "velocity": 0.6929133858267716
        },
        {
          "duration": 0.960000000000008,
          "durationTicks": 384,
          "midi": 58,
          "name": "A#3",
          "ticks": 72000,
          "time": 212.26279644791666,
          "velocity": 0.5826771653543307
        },
        {
          "duration": 0.960000000000008,
          "durationTicks": 384,
          "midi": 62,
          "name": "D4",
          "ticks": 72000,
          "time": 212.26279644791666,
          "velocity": 0.5826771653543307
        },
        {
          "duration": 0.960000000000008,
          "durationTicks": 384,
          "midi": 67,
          "name": "G4",
          "ticks": 72000,
          "time": 212.26279644791666,
          "velocity": 0.5826771653543307
        },
        {
          "duration": 0.2400000000000091,
          "durationTicks": 96,
          "midi": 36,
          "name": "C2",
          "ticks": 72000,
          "time": 212.26279644791666,
          "velocity": 0.5433070866141733
        },
        {
          "duration": 0.2400000000000091,
          "durationTicks": 96,
          "midi": 48,
          "name": "C3",
          "ticks": 72096,
          "time": 212.50279644791667,
          "velocity": 0.6929133858267716
        },
        {
          "duration": 0.23999999999998067,
          "durationTicks": 96,
          "midi": 36,
          "name": "C2",
          "ticks": 72192,
          "time": 212.74279644791667,
          "velocity": 0.5275590551181102
        },
        {
          "duration": 0.2400000000000091,
          "durationTicks": 96,
          "midi": 48,
          "name": "C3",
          "ticks": 72288,
          "time": 212.98279644791666,
          "velocity": 0.6929133858267716
        },
        {
          "duration": 0.7199999999999989,
          "durationTicks": 288,
          "midi": 70,
          "name": "A#4",
          "ticks": 72384,
          "time": 213.22279644791666,
          "velocity": 0.7401574803149606
        },
        {
          "duration": 0.7199999999999989,
          "durationTicks": 288,
          "midi": 74,
          "name": "D5",
          "ticks": 72384,
          "time": 213.22279644791666,
          "velocity": 0.7401574803149606
        },
        {
          "duration": 0.7199999999999989,
          "durationTicks": 288,
          "midi": 77,
          "name": "F5",
          "ticks": 72384,
          "time": 213.22279644791666,
          "velocity": 0.7401574803149606
        },
        {
          "duration": 0.2400000000000091,
          "durationTicks": 96,
          "midi": 36,
          "name": "C2",
          "ticks": 72384,
          "time": 213.22279644791666,
          "velocity": 0.5433070866141733
        },
        {
          "duration": 0.2400000000000091,
          "durationTicks": 96,
          "midi": 48,
          "name": "C3",
          "ticks": 72480,
          "time": 213.46279644791667,
          "velocity": 0.6535433070866141
        },
        {
          "duration": 0.23999999999998067,
          "durationTicks": 96,
          "midi": 36,
          "name": "C2",
          "ticks": 72576,
          "time": 213.70279644791668,
          "velocity": 0.49606299212598426
        },
        {
          "duration": 0.2400000000000091,
          "durationTicks": 96,
          "midi": 72,
          "name": "C5",
          "ticks": 72672,
          "time": 213.94279644791666,
          "velocity": 0.6377952755905512
        },
        {
          "duration": 0.2400000000000091,
          "durationTicks": 96,
          "midi": 76,
          "name": "E5",
          "ticks": 72672,
          "time": 213.94279644791666,
          "velocity": 0.6377952755905512
        },
        {
          "duration": 0.2400000000000091,
          "durationTicks": 96,
          "midi": 79,
          "name": "G5",
          "ticks": 72672,
          "time": 213.94279644791666,
          "velocity": 0.6377952755905512
        },
        {
          "duration": 0.2400000000000091,
          "durationTicks": 96,
          "midi": 48,
          "name": "C3",
          "ticks": 72672,
          "time": 213.94279644791666,
          "velocity": 0.7086614173228346
        },
        {
          "duration": 0.960000000000008,
          "durationTicks": 384,
          "midi": 72,
          "name": "C5",
          "ticks": 72768,
          "time": 214.18279644791667,
          "velocity": 0.5826771653543307
        },
        {
          "duration": 0.960000000000008,
          "durationTicks": 384,
          "midi": 76,
          "name": "E5",
          "ticks": 72768,
          "time": 214.18279644791667,
          "velocity": 0.5826771653543307
        },
        {
          "duration": 0.960000000000008,
          "durationTicks": 384,
          "midi": 79,
          "name": "G5",
          "ticks": 72768,
          "time": 214.18279644791667,
          "velocity": 0.5826771653543307
        },
        {
          "duration": 0.23999999999998067,
          "durationTicks": 96,
          "midi": 36,
          "name": "C2",
          "ticks": 72768,
          "time": 214.18279644791667,
          "velocity": 0.5196850393700787
        },
        {
          "duration": 0.2400000000000091,
          "durationTicks": 96,
          "midi": 48,
          "name": "C3",
          "ticks": 72864,
          "time": 214.42279644791665,
          "velocity": 0.6771653543307087
        },
        {
          "duration": 0.2400000000000091,
          "durationTicks": 96,
          "midi": 36,
          "name": "C2",
          "ticks": 72960,
          "time": 214.66279644791666,
          "velocity": 0.5748031496062992
        },
        {
          "duration": 0.2400000000000091,
          "durationTicks": 96,
          "midi": 48,
          "name": "C3",
          "ticks": 73056,
          "time": 214.90279644791667,
          "velocity": 0.6535433070866141
        },
        {
          "duration": 0.23999999999998067,
          "durationTicks": 96,
          "midi": 41,
          "name": "F2",
          "ticks": 73152,
          "time": 215.14279644791668,
          "velocity": 0.5748031496062992
        },
        {
          "duration": 0.2400000000000091,
          "durationTicks": 96,
          "midi": 53,
          "name": "F3",
          "ticks": 73248,
          "time": 215.38279644791666,
          "velocity": 0.6299212598425197
        },
        {
          "duration": 0.47999999999998977,
          "durationTicks": 192,
          "midi": 57,
          "name": "A3",
          "ticks": 73344,
          "time": 215.62279644791667,
          "velocity": 0.5354330708661418
        },
        {
          "duration": 0.47999999999998977,
          "durationTicks": 192,
          "midi": 65,
          "name": "F4",
          "ticks": 73344,
          "time": 215.62279644791667,
          "velocity": 0.5354330708661418
        },
        {
          "duration": 0.23999999999998067,
          "durationTicks": 96,
          "midi": 41,
          "name": "F2",
          "ticks": 73344,
          "time": 215.62279644791667,
          "velocity": 0.5275590551181102
        },
        {
          "duration": 0.2400000000000091,
          "durationTicks": 96,
          "midi": 53,
          "name": "F3",
          "ticks": 73440,
          "time": 215.86279644791665,
          "velocity": 0.6771653543307087
        },
        {
          "duration": 0.4800000000000182,
          "durationTicks": 192,
          "midi": 57,
          "name": "A3",
          "ticks": 73536,
          "time": 216.10279644791666,
          "velocity": 0.5669291338582677
        },
        {
          "duration": 0.4800000000000182,
          "durationTicks": 192,
          "midi": 64,
          "name": "E4",
          "ticks": 73536,
          "time": 216.10279644791666,
          "velocity": 0.5669291338582677
        },
        {
          "duration": 0.2400000000000091,
          "durationTicks": 96,
          "midi": 41,
          "name": "F2",
          "ticks": 73536,
          "time": 216.10279644791666,
          "velocity": 0.5196850393700787
        },
        {
          "duration": 0.2400000000000091,
          "durationTicks": 96,
          "midi": 53,
          "name": "F3",
          "ticks": 73632,
          "time": 216.34279644791667,
          "velocity": 0.6456692913385826
        },
        {
          "duration": 0.23999999999998067,
          "durationTicks": 96,
          "midi": 57,
          "name": "A3",
          "ticks": 73728,
          "time": 216.58279644791668,
          "velocity": 0.6062992125984252
        },
        {
          "duration": 0.23999999999998067,
          "durationTicks": 96,
          "midi": 65,
          "name": "F4",
          "ticks": 73728,
          "time": 216.58279644791668,
          "velocity": 0.6062992125984252
        },
        {
          "duration": 0.23999999999998067,
          "durationTicks": 96,
          "midi": 41,
          "name": "F2",
          "ticks": 73728,
          "time": 216.58279644791668,
          "velocity": 0.5039370078740157
        },
        {
          "duration": 0.2400000000000091,
          "durationTicks": 96,
          "midi": 55,
          "name": "G3",
          "ticks": 73824,
          "time": 216.82279644791666,
          "velocity": 0.5275590551181102
        },
        {
          "duration": 0.2400000000000091,
          "durationTicks": 96,
          "midi": 60,
          "name": "C4",
          "ticks": 73824,
          "time": 216.82279644791666,
          "velocity": 0.5275590551181102
        },
        {
          "duration": 0.2400000000000091,
          "durationTicks": 96,
          "midi": 53,
          "name": "F3",
          "ticks": 73824,
          "time": 216.82279644791666,
          "velocity": 0.6614173228346457
        },
        {
          "duration": 0.960000000000008,
          "durationTicks": 384,
          "midi": 55,
          "name": "G3",
          "ticks": 73920,
          "time": 217.06279644791667,
          "velocity": 0.6141732283464567
        },
        {
          "duration": 0.960000000000008,
          "durationTicks": 384,
          "midi": 60,
          "name": "C4",
          "ticks": 73920,
          "time": 217.06279644791667,
          "velocity": 0.6141732283464567
        },
        {
          "duration": 0.2400000000000091,
          "durationTicks": 96,
          "midi": 40,
          "name": "E2",
          "ticks": 73920,
          "time": 217.06279644791667,
          "velocity": 0.5511811023622047
        },
        {
          "duration": 0.23999999999998067,
          "durationTicks": 96,
          "midi": 52,
          "name": "E3",
          "ticks": 74016,
          "time": 217.30279644791668,
          "velocity": 0.6692913385826772
        },
        {
          "duration": 0.2400000000000091,
          "durationTicks": 96,
          "midi": 40,
          "name": "E2",
          "ticks": 74112,
          "time": 217.54279644791666,
          "velocity": 0.4881889763779528
        },
        {
          "duration": 0.2400000000000091,
          "durationTicks": 96,
          "midi": 52,
          "name": "E3",
          "ticks": 74208,
          "time": 217.78279644791667,
          "velocity": 0.6850393700787402
        },
        {
          "duration": 0.23999999999998067,
          "durationTicks": 96,
          "midi": 40,
          "name": "E2",
          "ticks": 74304,
          "time": 218.02279644791668,
          "velocity": 0.5354330708661418
        },
        {
          "duration": 0.2400000000000091,
          "durationTicks": 96,
          "midi": 52,
          "name": "E3",
          "ticks": 74400,
          "time": 218.26279644791666,
          "velocity": 0.6456692913385826
        },
        {
          "duration": 0.2400000000000091,
          "durationTicks": 96,
          "midi": 40,
          "name": "E2",
          "ticks": 74496,
          "time": 218.50279644791667,
          "velocity": 0.5039370078740157
        },
        {
          "duration": 0.23999999999998067,
          "durationTicks": 96,
          "midi": 52,
          "name": "E3",
          "ticks": 74592,
          "time": 218.74279644791667,
          "velocity": 0.7244094488188977
        },
        {
          "duration": 0.2400000000000091,
          "durationTicks": 96,
          "midi": 38,
          "name": "D2",
          "ticks": 74688,
          "time": 218.98279644791666,
          "velocity": 0.5354330708661418
        },
        {
          "duration": 0.2400000000000091,
          "durationTicks": 96,
          "midi": 50,
          "name": "D3",
          "ticks": 74784,
          "time": 219.22279644791666,
          "velocity": 0.6377952755905512
        },
        {
          "duration": 0.47999999999998977,
          "durationTicks": 192,
          "midi": 57,
          "name": "A3",
          "ticks": 74880,
          "time": 219.46279644791667,
          "velocity": 0.5433070866141733
        },
        {
          "duration": 0.47999999999998977,
          "durationTicks": 192,
          "midi": 65,
          "name": "F4",
          "ticks": 74880,
          "time": 219.46279644791667,
          "velocity": 0.5433070866141733
        },
        {
          "duration": 0.2400000000000091,
          "durationTicks": 96,
          "midi": 38,
          "name": "D2",
          "ticks": 74880,
          "time": 219.46279644791667,
          "velocity": 0.5275590551181102
        },
        {
          "duration": 0.23999999999998067,
          "durationTicks": 96,
          "midi": 50,
          "name": "D3",
          "ticks": 74976,
          "time": 219.70279644791668,
          "velocity": 0.6771653543307087
        },
        {
          "duration": 0.47999999999998977,
          "durationTicks": 192,
          "midi": 57,
          "name": "A3",
          "ticks": 75072,
          "time": 219.94279644791666,
          "velocity": 0.5669291338582677
        },
        {
          "duration": 0.47999999999998977,
          "durationTicks": 192,
          "midi": 64,
          "name": "E4",
          "ticks": 75072,
          "time": 219.94279644791666,
          "velocity": 0.5669291338582677
        },
        {
          "duration": 0.2400000000000091,
          "durationTicks": 96,
          "midi": 38,
          "name": "D2",
          "ticks": 75072,
          "time": 219.94279644791666,
          "velocity": 0.5354330708661418
        },
        {
          "duration": 0.23999999999998067,
          "durationTicks": 96,
          "midi": 50,
          "name": "D3",
          "ticks": 75168,
          "time": 220.18279644791667,
          "velocity": 0.7007874015748031
        },
        {
          "duration": 0.2400000000000091,
          "durationTicks": 96,
          "midi": 57,
          "name": "A3",
          "ticks": 75264,
          "time": 220.42279644791665,
          "velocity": 0.6377952755905512
        },
        {
          "duration": 0.2400000000000091,
          "durationTicks": 96,
          "midi": 65,
          "name": "F4",
          "ticks": 75264,
          "time": 220.42279644791665,
          "velocity": 0.6377952755905512
        },
        {
          "duration": 0.2400000000000091,
          "durationTicks": 96,
          "midi": 38,
          "name": "D2",
          "ticks": 75264,
          "time": 220.42279644791665,
          "velocity": 0.5196850393700787
        },
        {
          "duration": 1.1999999999999886,
          "durationTicks": 480,
          "midi": 63,
          "name": "D#4",
          "ticks": 75360,
          "time": 220.66279644791666,
          "velocity": 0.7007874015748031
        },
        {
          "duration": 1.1999999999999886,
          "durationTicks": 480,
          "midi": 67,
          "name": "G4",
          "ticks": 75360,
          "time": 220.66279644791666,
          "velocity": 0.7007874015748031
        },
        {
          "duration": 1.1999999999999886,
          "durationTicks": 480,
          "midi": 72,
          "name": "C5",
          "ticks": 75360,
          "time": 220.66279644791666,
          "velocity": 0.7007874015748031
        },
        {
          "duration": 0.2400000000000091,
          "durationTicks": 96,
          "midi": 50,
          "name": "D3",
          "ticks": 75360,
          "time": 220.66279644791666,
          "velocity": 0.6692913385826772
        },
        {
          "duration": 0.2400000000000091,
          "durationTicks": 96,
          "midi": 36,
          "name": "C2",
          "ticks": 75456,
          "time": 220.90279644791667,
          "velocity": 0.5275590551181102
        },
        {
          "duration": 0.23999999999998067,
          "durationTicks": 96,
          "midi": 48,
          "name": "C3",
          "ticks": 75552,
          "time": 221.14279644791668,
          "velocity": 0.6614173228346457
        },
        {
          "duration": 0.2400000000000091,
          "durationTicks": 96,
          "midi": 36,
          "name": "C2",
          "ticks": 75648,
          "time": 221.38279644791666,
          "velocity": 0.5196850393700787
        },
        {
          "duration": 0.23999999999998067,
          "durationTicks": 96,
          "midi": 48,
          "name": "C3",
          "ticks": 75744,
          "time": 221.62279644791667,
          "velocity": 0.7007874015748031
        },
        {
          "duration": 0.960000000000008,
          "durationTicks": 384,
          "midi": 62,
          "name": "D4",
          "ticks": 75840,
          "time": 221.86279644791665,
          "velocity": 0.4881889763779528
        },
        {
          "duration": 0.960000000000008,
          "durationTicks": 384,
          "midi": 66,
          "name": "F#4",
          "ticks": 75840,
          "time": 221.86279644791665,
          "velocity": 0.4881889763779528
        },
        {
          "duration": 0.2400000000000091,
          "durationTicks": 96,
          "midi": 38,
          "name": "D2",
          "ticks": 75840,
          "time": 221.86279644791665,
          "velocity": 0.5118110236220472
        },
        {
          "duration": 0.2400000000000091,
          "durationTicks": 96,
          "midi": 50,
          "name": "D3",
          "ticks": 75936,
          "time": 222.10279644791666,
          "velocity": 0.6692913385826772
        },
        {
          "duration": 0.2400000000000091,
          "durationTicks": 96,
          "midi": 38,
          "name": "D2",
          "ticks": 76032,
          "time": 222.34279644791667,
          "velocity": 0.5275590551181102
        },
        {
          "duration": 0.23999999999998067,
          "durationTicks": 96,
          "midi": 50,
          "name": "D3",
          "ticks": 76128,
          "time": 222.58279644791668,
          "velocity": 0.6456692913385826
        },
        {
          "duration": 0.2400000000000091,
          "durationTicks": 96,
          "midi": 70,
          "name": "A#4",
          "ticks": 76224,
          "time": 222.82279644791666,
          "velocity": 0.6377952755905512
        },
        {
          "duration": 1.6800000000000068,
          "durationTicks": 672,
          "midi": 62,
          "name": "D4",
          "ticks": 76224,
          "time": 222.82279644791666,
          "velocity": 0.5433070866141733
        },
        {
          "duration": 1.6800000000000068,
          "durationTicks": 672,
          "midi": 65,
          "name": "F4",
          "ticks": 76224,
          "time": 222.82279644791666,
          "velocity": 0.5433070866141733
        },
        {
          "duration": 0.2400000000000091,
          "durationTicks": 96,
          "midi": 43,
          "name": "G2",
          "ticks": 76224,
          "time": 222.82279644791666,
          "velocity": 0.5354330708661418
        },
        {
          "duration": 0.2400000000000091,
          "durationTicks": 96,
          "midi": 70,
          "name": "A#4",
          "ticks": 76320,
          "time": 223.06279644791667,
          "velocity": 0.6062992125984252
        },
        {
          "duration": 0.2400000000000091,
          "durationTicks": 96,
          "midi": 55,
          "name": "G3",
          "ticks": 76320,
          "time": 223.06279644791667,
          "velocity": 0.6692913385826772
        },
        {
          "duration": 0.23999999999998067,
          "durationTicks": 96,
          "midi": 70,
          "name": "A#4",
          "ticks": 76416,
          "time": 223.30279644791668,
          "velocity": 0.5826771653543307
        },
        {
          "duration": 0.23999999999998067,
          "durationTicks": 96,
          "midi": 43,
          "name": "G2",
          "ticks": 76416,
          "time": 223.30279644791668,
          "velocity": 0.5590551181102362
        },
        {
          "duration": 0.2400000000000091,
          "durationTicks": 96,
          "midi": 70,
          "name": "A#4",
          "ticks": 76512,
          "time": 223.54279644791666,
          "velocity": 0.6062992125984252
        },
        {
          "duration": 0.2400000000000091,
          "durationTicks": 96,
          "midi": 55,
          "name": "G3",
          "ticks": 76512,
          "time": 223.54279644791666,
          "velocity": 0.6614173228346457
        },
        {
          "duration": 0.2400000000000091,
          "durationTicks": 96,
          "midi": 70,
          "name": "A#4",
          "ticks": 76608,
          "time": 223.78279644791667,
          "velocity": 0.5905511811023622
        },
        {
          "duration": 0.2400000000000091,
          "durationTicks": 96,
          "midi": 43,
          "name": "G2",
          "ticks": 76608,
          "time": 223.78279644791667,
          "velocity": 0.5196850393700787
        },
        {
          "duration": 0.23999999999998067,
          "durationTicks": 96,
          "midi": 69,
          "name": "A4",
          "ticks": 76704,
          "time": 224.02279644791668,
          "velocity": 0.6220472440944882
        },
        {
          "duration": 0.23999999999998067,
          "durationTicks": 96,
          "midi": 55,
          "name": "G3",
          "ticks": 76704,
          "time": 224.02279644791668,
          "velocity": 0.6299212598425197
        },
        {
          "duration": 0.2400000000000091,
          "durationTicks": 96,
          "midi": 67,
          "name": "G4",
          "ticks": 76800,
          "time": 224.26279644791666,
          "velocity": 0.5590551181102362
        },
        {
          "duration": 0.2400000000000091,
          "durationTicks": 96,
          "midi": 43,
          "name": "G2",
          "ticks": 76800,
          "time": 224.26279644791666,
          "velocity": 0.5669291338582677
        },
        {
          "duration": 0.2400000000000091,
          "durationTicks": 96,
          "midi": 70,
          "name": "A#4",
          "ticks": 76896,
          "time": 224.50279644791667,
          "velocity": 0.6377952755905512
        },
        {
          "duration": 1.200000000000017,
          "durationTicks": 480,
          "midi": 61,
          "name": "C#4",
          "ticks": 76896,
          "time": 224.50279644791667,
          "velocity": 0.5905511811023622
        },
        {
          "duration": 1.200000000000017,
          "durationTicks": 480,
          "midi": 65,
          "name": "F4",
          "ticks": 76896,
          "time": 224.50279644791667,
          "velocity": 0.5905511811023622
        },
        {
          "duration": 0.2400000000000091,
          "durationTicks": 96,
          "midi": 55,
          "name": "G3",
          "ticks": 76896,
          "time": 224.50279644791667,
          "velocity": 0.6692913385826772
        },
        {
          "duration": 0.960000000000008,
          "durationTicks": 384,
          "midi": 70,
          "name": "A#4",
          "ticks": 76992,
          "time": 224.74279644791667,
          "velocity": 0.6141732283464567
        },
        {
          "duration": 0.23999999999998067,
          "durationTicks": 96,
          "midi": 46,
          "name": "A#2",
          "ticks": 76992,
          "time": 224.74279644791667,
          "velocity": 0.5590551181102362
        },
        {
          "duration": 0.2400000000000091,
          "durationTicks": 96,
          "midi": 58,
          "name": "A#3",
          "ticks": 77088,
          "time": 224.98279644791666,
          "velocity": 0.6771653543307087
        },
        {
          "duration": 0.2400000000000091,
          "durationTicks": 96,
          "midi": 46,
          "name": "A#2",
          "ticks": 77184,
          "time": 225.22279644791666,
          "velocity": 0.5275590551181102
        },
        {
          "duration": 0.2400000000000091,
          "durationTicks": 96,
          "midi": 58,
          "name": "A#3",
          "ticks": 77280,
          "time": 225.46279644791667,
          "velocity": 0.6377952755905512
        },
        {
          "duration": 0.23999999999998067,
          "durationTicks": 96,
          "midi": 46,
          "name": "A#2",
          "ticks": 77376,
          "time": 225.70279644791668,
          "velocity": 0.5118110236220472
        },
        {
          "duration": 0.2400000000000091,
          "durationTicks": 96,
          "midi": 67,
          "name": "G4",
          "ticks": 77472,
          "time": 225.94279644791666,
          "velocity": 0.5590551181102362
        },
        {
          "duration": 0.2400000000000091,
          "durationTicks": 96,
          "midi": 58,
          "name": "A#3",
          "ticks": 77472,
          "time": 225.94279644791666,
          "velocity": 0.6614173228346457
        },
        {
          "duration": 0.23999999999998067,
          "durationTicks": 96,
          "midi": 69,
          "name": "A4",
          "ticks": 77568,
          "time": 226.18279644791667,
          "velocity": 0.6535433070866141
        },
        {
          "duration": 0.23999999999998067,
          "durationTicks": 96,
          "midi": 46,
          "name": "A#2",
          "ticks": 77568,
          "time": 226.18279644791667,
          "velocity": 0.5354330708661418
        },
        {
          "duration": 0.2400000000000091,
          "durationTicks": 96,
          "midi": 70,
          "name": "A#4",
          "ticks": 77664,
          "time": 226.42279644791665,
          "velocity": 0.6456692913385826
        },
        {
          "duration": 0.2400000000000091,
          "durationTicks": 96,
          "midi": 58,
          "name": "A#3",
          "ticks": 77664,
          "time": 226.42279644791665,
          "velocity": 0.7007874015748031
        },
        {
          "duration": 0.4800000000000182,
          "durationTicks": 192,
          "midi": 60,
          "name": "C4",
          "ticks": 77760,
          "time": 226.66279644791666,
          "velocity": 0.5905511811023622
        },
        {
          "duration": 0.4800000000000182,
          "durationTicks": 192,
          "midi": 65,
          "name": "F4",
          "ticks": 77760,
          "time": 226.66279644791666,
          "velocity": 0.5905511811023622
        },
        {
          "duration": 0.4800000000000182,
          "durationTicks": 192,
          "midi": 69,
          "name": "A4",
          "ticks": 77760,
          "time": 226.66279644791666,
          "velocity": 0.5905511811023622
        },
        {
          "duration": 0.2400000000000091,
          "durationTicks": 96,
          "midi": 41,
          "name": "F2",
          "ticks": 77760,
          "time": 226.66279644791666,
          "velocity": 0.5275590551181102
        },
        {
          "duration": 0.2400000000000091,
          "durationTicks": 96,
          "midi": 53,
          "name": "F3",
          "ticks": 77856,
          "time": 226.90279644791667,
          "velocity": 0.6220472440944882
        },
        {
          "duration": 0.47999999999998977,
          "durationTicks": 192,
          "midi": 69,
          "name": "A4",
          "ticks": 77952,
          "time": 227.14279644791668,
          "velocity": 0.5826771653543307
        },
        {
          "duration": 0.23999999999998067,
          "durationTicks": 96,
          "midi": 41,
          "name": "F2",
          "ticks": 77952,
          "time": 227.14279644791668,
          "velocity": 0.5433070866141733
        },
        {
          "duration": 0.2400000000000091,
          "durationTicks": 96,
          "midi": 53,
          "name": "F3",
          "ticks": 78048,
          "time": 227.38279644791666,
          "velocity": 0.6771653543307087
        },
        {
          "duration": 0.23999999999998067,
          "durationTicks": 96,
          "midi": 69,
          "name": "A4",
          "ticks": 78144,
          "time": 227.62279644791667,
          "velocity": 0.5669291338582677
        },
        {
          "duration": 0.23999999999998067,
          "durationTicks": 96,
          "midi": 41,
          "name": "F2",
          "ticks": 78144,
          "time": 227.62279644791667,
          "velocity": 0.5590551181102362
        },
        {
          "duration": 0.2400000000000091,
          "durationTicks": 96,
          "midi": 67,
          "name": "G4",
          "ticks": 78240,
          "time": 227.86279644791665,
          "velocity": 0.6062992125984252
        },
        {
          "duration": 0.2400000000000091,
          "durationTicks": 96,
          "midi": 53,
          "name": "F3",
          "ticks": 78240,
          "time": 227.86279644791665,
          "velocity": 0.6771653543307087
        },
        {
          "duration": 0.2400000000000091,
          "durationTicks": 96,
          "midi": 65,
          "name": "F4",
          "ticks": 78336,
          "time": 228.10279644791666,
          "velocity": 0.5433070866141733
        },
        {
          "duration": 0.2400000000000091,
          "durationTicks": 96,
          "midi": 41,
          "name": "F2",
          "ticks": 78336,
          "time": 228.10279644791666,
          "velocity": 0.5354330708661418
        },
        {
          "duration": 1.1999999999999886,
          "durationTicks": 480,
          "midi": 60,
          "name": "C4",
          "ticks": 78432,
          "time": 228.34279644791667,
          "velocity": 0.6299212598425197
        },
        {
          "duration": 1.1999999999999886,
          "durationTicks": 480,
          "midi": 66,
          "name": "F#4",
          "ticks": 78432,
          "time": 228.34279644791667,
          "velocity": 0.6299212598425197
        },
        {
          "duration": 1.1999999999999886,
          "durationTicks": 480,
          "midi": 69,
          "name": "A4",
          "ticks": 78432,
          "time": 228.34279644791667,
          "velocity": 0.6299212598425197
        },
        {
          "duration": 0.2400000000000091,
          "durationTicks": 96,
          "midi": 53,
          "name": "F3",
          "ticks": 78432,
          "time": 228.34279644791667,
          "velocity": 0.6692913385826772
        },
        {
          "duration": 0.23999999999998067,
          "durationTicks": 96,
          "midi": 38,
          "name": "D2",
          "ticks": 78528,
          "time": 228.58279644791668,
          "velocity": 0.5196850393700787
        },
        {
          "duration": 0.2400000000000091,
          "durationTicks": 96,
          "midi": 50,
          "name": "D3",
          "ticks": 78624,
          "time": 228.82279644791666,
          "velocity": 0.6614173228346457
        },
        {
          "duration": 0.23999999999998067,
          "durationTicks": 96,
          "midi": 38,
          "name": "D2",
          "ticks": 78720,
          "time": 229.06279644791667,
          "velocity": 0.5275590551181102
        },
        {
          "duration": 0.2400000000000091,
          "durationTicks": 96,
          "midi": 50,
          "name": "D3",
          "ticks": 78816,
          "time": 229.30279644791665,
          "velocity": 0.6614173228346457
        },
        {
          "duration": 0.2400000000000091,
          "durationTicks": 96,
          "midi": 38,
          "name": "D2",
          "ticks": 78912,
          "time": 229.54279644791666,
          "velocity": 0.49606299212598426
        },
        {
          "duration": 0.2400000000000091,
          "durationTicks": 96,
          "midi": 50,
          "name": "D3",
          "ticks": 79008,
          "time": 229.78279644791667,
          "velocity": 0.6535433070866141
        },
        {
          "duration": 0.23999999999998067,
          "durationTicks": 96,
          "midi": 38,
          "name": "D2",
          "ticks": 79104,
          "time": 230.02279644791668,
          "velocity": 0.4881889763779528
        },
        {
          "duration": 0.2400000000000091,
          "durationTicks": 96,
          "midi": 50,
          "name": "D3",
          "ticks": 79200,
          "time": 230.26279644791666,
          "velocity": 0.6929133858267716
        },
        {
          "duration": 0.47999999999998977,
          "durationTicks": 192,
          "midi": 53,
          "name": "F3",
          "ticks": 79296,
          "time": 230.50279644791667,
          "velocity": 0.5275590551181102
        },
        {
          "duration": 0.47999999999998977,
          "durationTicks": 192,
          "midi": 58,
          "name": "A#3",
          "ticks": 79296,
          "time": 230.50279644791667,
          "velocity": 0.5275590551181102
        },
        {
          "duration": 0.47999999999998977,
          "durationTicks": 192,
          "midi": 62,
          "name": "D4",
          "ticks": 79296,
          "time": 230.50279644791667,
          "velocity": 0.5275590551181102
        },
        {
          "duration": 0.2400000000000091,
          "durationTicks": 96,
          "midi": 34,
          "name": "A#1",
          "ticks": 79296,
          "time": 230.50279644791667,
          "velocity": 0.5511811023622047
        },
        {
          "duration": 0.23999999999998067,
          "durationTicks": 96,
          "midi": 46,
          "name": "A#2",
          "ticks": 79392,
          "time": 230.74279644791667,
          "velocity": 0.6929133858267716
        },
        {
          "duration": 0.4800000000000182,
          "durationTicks": 192,
          "midi": 64,
          "name": "E4",
          "ticks": 79488,
          "time": 230.98279644791666,
          "velocity": 0.6535433070866141
        },
        {
          "duration": 0.2400000000000091,
          "durationTicks": 96,
          "midi": 34,
          "name": "A#1",
          "ticks": 79488,
          "time": 230.98279644791666,
          "velocity": 0.5511811023622047
        },
        {
          "duration": 0.2400000000000091,
          "durationTicks": 96,
          "midi": 46,
          "name": "A#2",
          "ticks": 79584,
          "time": 231.22279644791666,
          "velocity": 0.6771653543307087
        },
        {
          "duration": 0.47999999999998977,
          "durationTicks": 192,
          "midi": 65,
          "name": "F4",
          "ticks": 79680,
          "time": 231.46279644791667,
          "velocity": 0.6535433070866141
        },
        {
          "duration": 0.2400000000000091,
          "durationTicks": 96,
          "midi": 34,
          "name": "A#1",
          "ticks": 79680,
          "time": 231.46279644791667,
          "velocity": 0.5511811023622047
        },
        {
          "duration": 0.23999999999998067,
          "durationTicks": 96,
          "midi": 46,
          "name": "A#2",
          "ticks": 79776,
          "time": 231.70279644791668,
          "velocity": 0.6771653543307087
        },
        {
          "duration": 0.2400000000000091,
          "durationTicks": 96,
          "midi": 67,
          "name": "G4",
          "ticks": 79872,
          "time": 231.94279644791666,
          "velocity": 0.6692913385826772
        },
        {
          "duration": 0.2400000000000091,
          "durationTicks": 96,
          "midi": 34,
          "name": "A#1",
          "ticks": 79872,
          "time": 231.94279644791666,
          "velocity": 0.5196850393700787
        },
        {
          "duration": 0.47999999999998977,
          "durationTicks": 192,
          "midi": 53,
          "name": "F3",
          "ticks": 79968,
          "time": 232.18279644791667,
          "velocity": 0.5275590551181102
        },
        {
          "duration": 0.47999999999998977,
          "durationTicks": 192,
          "midi": 58,
          "name": "A#3",
          "ticks": 79968,
          "time": 232.18279644791667,
          "velocity": 0.5275590551181102
        },
        {
          "duration": 0.47999999999998977,
          "durationTicks": 192,
          "midi": 62,
          "name": "D4",
          "ticks": 79968,
          "time": 232.18279644791667,
          "velocity": 0.5275590551181102
        },
        {
          "duration": 0.23999999999998067,
          "durationTicks": 96,
          "midi": 46,
          "name": "A#2",
          "ticks": 79968,
          "time": 232.18279644791667,
          "velocity": 0.6929133858267716
        },
        {
          "duration": 0.2400000000000091,
          "durationTicks": 96,
          "midi": 34,
          "name": "A#1",
          "ticks": 80064,
          "time": 232.42279644791665,
          "velocity": 0.48031496062992124
        },
        {
          "duration": 0.2400000000000091,
          "durationTicks": 96,
          "midi": 62,
          "name": "D4",
          "ticks": 80160,
          "time": 232.66279644791666,
          "velocity": 0.5905511811023622
        },
        {
          "duration": 0.2400000000000091,
          "durationTicks": 96,
          "midi": 46,
          "name": "A#2",
          "ticks": 80160,
          "time": 232.66279644791666,
          "velocity": 0.6771653543307087
        },
        {
          "duration": 0.47999999999998977,
          "durationTicks": 192,
          "midi": 64,
          "name": "E4",
          "ticks": 80256,
          "time": 232.90279644791667,
          "velocity": 0.6456692913385826
        },
        {
          "duration": 0.2400000000000091,
          "durationTicks": 96,
          "midi": 34,
          "name": "A#1",
          "ticks": 80256,
          "time": 232.90279644791667,
          "velocity": 0.5748031496062992
        },
        {
          "duration": 0.23999999999998067,
          "durationTicks": 96,
          "midi": 46,
          "name": "A#2",
          "ticks": 80352,
          "time": 233.14279644791668,
          "velocity": 0.6377952755905512
        },
        {
          "duration": 0.2400000000000091,
          "durationTicks": 96,
          "midi": 65,
          "name": "F4",
          "ticks": 80448,
          "time": 233.38279644791666,
          "velocity": 0.6062992125984252
        },
        {
          "duration": 0.2400000000000091,
          "durationTicks": 96,
          "midi": 34,
          "name": "A#1",
          "ticks": 80448,
          "time": 233.38279644791666,
          "velocity": 0.5118110236220472
        },
        {
          "duration": 0.23999999999998067,
          "durationTicks": 96,
          "midi": 67,
          "name": "G4",
          "ticks": 80544,
          "time": 233.62279644791667,
          "velocity": 0.6614173228346457
        },
        {
          "duration": 0.23999999999998067,
          "durationTicks": 96,
          "midi": 46,
          "name": "A#2",
          "ticks": 80544,
          "time": 233.62279644791667,
          "velocity": 0.6850393700787402
        },
        {
          "duration": 0.2400000000000091,
          "durationTicks": 96,
          "midi": 65,
          "name": "F4",
          "ticks": 80640,
          "time": 233.86279644791665,
          "velocity": 0.5826771653543307
        },
        {
          "duration": 0.2400000000000091,
          "durationTicks": 96,
          "midi": 34,
          "name": "A#1",
          "ticks": 80640,
          "time": 233.86279644791665,
          "velocity": 0.5196850393700787
        },
        {
          "duration": 0.2400000000000091,
          "durationTicks": 96,
          "midi": 62,
          "name": "D4",
          "ticks": 80736,
          "time": 234.10279644791666,
          "velocity": 0.7244094488188977
        },
        {
          "duration": 0.2400000000000091,
          "durationTicks": 96,
          "midi": 65,
          "name": "F4",
          "ticks": 80736,
          "time": 234.10279644791666,
          "velocity": 0.7244094488188977
        },
        {
          "duration": 0.2400000000000091,
          "durationTicks": 96,
          "midi": 70,
          "name": "A#4",
          "ticks": 80736,
          "time": 234.10279644791666,
          "velocity": 0.7244094488188977
        },
        {
          "duration": 0.2400000000000091,
          "durationTicks": 96,
          "midi": 72,
          "name": "C5",
          "ticks": 80736,
          "time": 234.10279644791666,
          "velocity": 0.7244094488188977
        },
        {
          "duration": 0.2400000000000091,
          "durationTicks": 96,
          "midi": 46,
          "name": "A#2",
          "ticks": 80736,
          "time": 234.10279644791666,
          "velocity": 0.7007874015748031
        },
        {
          "duration": 1.9199999999999875,
          "durationTicks": 768,
          "midi": 72,
          "name": "C5",
          "ticks": 80832,
          "time": 234.34279644791667,
          "velocity": 0.5984251968503937
        },
        {
          "duration": 0.12000000000000455,
          "durationTicks": 48,
          "midi": 62,
          "name": "D4",
          "ticks": 80832,
          "time": 234.34279644791667,
          "velocity": 0.6771653543307087
        },
        {
          "duration": 0.12000000000000455,
          "durationTicks": 48,
          "midi": 65,
          "name": "F4",
          "ticks": 80832,
          "time": 234.34279644791667,
          "velocity": 0.6771653543307087
        },
        {
          "duration": 0.12000000000000455,
          "durationTicks": 48,
          "midi": 70,
          "name": "A#4",
          "ticks": 80832,
          "time": 234.34279644791667,
          "velocity": 0.6771653543307087
        },
        {
          "duration": 0.12000000000000455,
          "durationTicks": 48,
          "midi": 36,
          "name": "C2",
          "ticks": 80832,
          "time": 234.34279644791667,
          "velocity": 0.6062992125984252
        },
        {
          "duration": 0.12000000000000455,
          "durationTicks": 48,
          "midi": 48,
          "name": "C3",
          "ticks": 80832,
          "time": 234.34279644791667,
          "velocity": 0.6062992125984252
        },
        {
          "duration": 0.12000000000000455,
          "durationTicks": 48,
          "midi": 62,
          "name": "D4",
          "ticks": 80880,
          "time": 234.46279644791667,
          "velocity": 0.6299212598425197
        },
        {
          "duration": 0.12000000000000455,
          "durationTicks": 48,
          "midi": 65,
          "name": "F4",
          "ticks": 80880,
          "time": 234.46279644791667,
          "velocity": 0.6299212598425197
        },
        {
          "duration": 0.12000000000000455,
          "durationTicks": 48,
          "midi": 70,
          "name": "A#4",
          "ticks": 80880,
          "time": 234.46279644791667,
          "velocity": 0.6299212598425197
        },
        {
          "duration": 0.12000000000000455,
          "durationTicks": 48,
          "midi": 36,
          "name": "C2",
          "ticks": 80880,
          "time": 234.46279644791667,
          "velocity": 0.6062992125984252
        },
        {
          "duration": 0.12000000000000455,
          "durationTicks": 48,
          "midi": 48,
          "name": "C3",
          "ticks": 80880,
          "time": 234.46279644791667,
          "velocity": 0.6062992125984252
        },
        {
          "duration": 0.12000000000000455,
          "durationTicks": 48,
          "midi": 62,
          "name": "D4",
          "ticks": 81120,
          "time": 235.06279644791667,
          "velocity": 0.5275590551181102
        },
        {
          "duration": 0.12000000000000455,
          "durationTicks": 48,
          "midi": 65,
          "name": "F4",
          "ticks": 81120,
          "time": 235.06279644791667,
          "velocity": 0.5275590551181102
        },
        {
          "duration": 0.12000000000000455,
          "durationTicks": 48,
          "midi": 70,
          "name": "A#4",
          "ticks": 81120,
          "time": 235.06279644791667,
          "velocity": 0.5275590551181102
        },
        {
          "duration": 0.12000000000000455,
          "durationTicks": 48,
          "midi": 36,
          "name": "C2",
          "ticks": 81120,
          "time": 235.06279644791667,
          "velocity": 0.5275590551181102
        },
        {
          "duration": 0.12000000000000455,
          "durationTicks": 48,
          "midi": 48,
          "name": "C3",
          "ticks": 81120,
          "time": 235.06279644791667,
          "velocity": 0.5275590551181102
        },
        {
          "duration": 0.11999999999997613,
          "durationTicks": 48,
          "midi": 62,
          "name": "D4",
          "ticks": 81168,
          "time": 235.18279644791667,
          "velocity": 0.5984251968503937
        },
        {
          "duration": 0.11999999999997613,
          "durationTicks": 48,
          "midi": 65,
          "name": "F4",
          "ticks": 81168,
          "time": 235.18279644791667,
          "velocity": 0.5984251968503937
        },
        {
          "duration": 0.11999999999997613,
          "durationTicks": 48,
          "midi": 70,
          "name": "A#4",
          "ticks": 81168,
          "time": 235.18279644791667,
          "velocity": 0.5984251968503937
        },
        {
          "duration": 0.11999999999997613,
          "durationTicks": 48,
          "midi": 36,
          "name": "C2",
          "ticks": 81168,
          "time": 235.18279644791667,
          "velocity": 0.5826771653543307
        },
        {
          "duration": 0.11999999999997613,
          "durationTicks": 48,
          "midi": 48,
          "name": "C3",
          "ticks": 81168,
          "time": 235.18279644791667,
          "velocity": 0.5826771653543307
        },
        {
          "duration": 0.12000000000000455,
          "durationTicks": 48,
          "midi": 62,
          "name": "D4",
          "ticks": 81408,
          "time": 235.78279644791667,
          "velocity": 0.5669291338582677
        },
        {
          "duration": 0.12000000000000455,
          "durationTicks": 48,
          "midi": 65,
          "name": "F4",
          "ticks": 81408,
          "time": 235.78279644791667,
          "velocity": 0.5669291338582677
        },
        {
          "duration": 0.12000000000000455,
          "durationTicks": 48,
          "midi": 70,
          "name": "A#4",
          "ticks": 81408,
          "time": 235.78279644791667,
          "velocity": 0.5669291338582677
        },
        {
          "duration": 0.12000000000000455,
          "durationTicks": 48,
          "midi": 36,
          "name": "C2",
          "ticks": 81408,
          "time": 235.78279644791667,
          "velocity": 0.5354330708661418
        },
        {
          "duration": 0.12000000000000455,
          "durationTicks": 48,
          "midi": 48,
          "name": "C3",
          "ticks": 81408,
          "time": 235.78279644791667,
          "velocity": 0.5354330708661418
        },
        {
          "duration": 0.12000000000000455,
          "durationTicks": 48,
          "midi": 62,
          "name": "D4",
          "ticks": 81456,
          "time": 235.90279644791667,
          "velocity": 0.5590551181102362
        },
        {
          "duration": 0.12000000000000455,
          "durationTicks": 48,
          "midi": 65,
          "name": "F4",
          "ticks": 81456,
          "time": 235.90279644791667,
          "velocity": 0.5590551181102362
        },
        {
          "duration": 0.12000000000000455,
          "durationTicks": 48,
          "midi": 70,
          "name": "A#4",
          "ticks": 81456,
          "time": 235.90279644791667,
          "velocity": 0.5590551181102362
        },
        {
          "duration": 0.12000000000000455,
          "durationTicks": 48,
          "midi": 36,
          "name": "C2",
          "ticks": 81456,
          "time": 235.90279644791667,
          "velocity": 0.5905511811023622
        },
        {
          "duration": 0.12000000000000455,
          "durationTicks": 48,
          "midi": 48,
          "name": "C3",
          "ticks": 81456,
          "time": 235.90279644791667,
          "velocity": 0.5905511811023622
        },
        {
          "duration": 0.2400000000000091,
          "durationTicks": 96,
          "midi": 62,
          "name": "D4",
          "ticks": 81696,
          "time": 236.50279644791667,
          "velocity": 0.5433070866141733
        },
        {
          "duration": 0.2400000000000091,
          "durationTicks": 96,
          "midi": 65,
          "name": "F4",
          "ticks": 81696,
          "time": 236.50279644791667,
          "velocity": 0.5433070866141733
        },
        {
          "duration": 0.2400000000000091,
          "durationTicks": 96,
          "midi": 70,
          "name": "A#4",
          "ticks": 81696,
          "time": 236.50279644791667,
          "velocity": 0.5433070866141733
        },
        {
          "duration": 0.2400000000000091,
          "durationTicks": 96,
          "midi": 72,
          "name": "C5",
          "ticks": 81696,
          "time": 236.50279644791667,
          "velocity": 0.5433070866141733
        },
        {
          "duration": 0.2400000000000091,
          "durationTicks": 96,
          "midi": 36,
          "name": "C2",
          "ticks": 81696,
          "time": 236.50279644791667,
          "velocity": 0.5590551181102362
        },
        {
          "duration": 0.2400000000000091,
          "durationTicks": 96,
          "midi": 48,
          "name": "C3",
          "ticks": 81696,
          "time": 236.50279644791667,
          "velocity": 0.5590551181102362
        },
        {
          "duration": 0.47999999999998977,
          "durationTicks": 192,
          "midi": 62,
          "name": "D4",
          "ticks": 81792,
          "time": 236.74279644791667,
          "velocity": 0.5905511811023622
        },
        {
          "duration": 0.47999999999998977,
          "durationTicks": 192,
          "midi": 65,
          "name": "F4",
          "ticks": 81792,
          "time": 236.74279644791667,
          "velocity": 0.5905511811023622
        },
        {
          "duration": 0.47999999999998977,
          "durationTicks": 192,
          "midi": 70,
          "name": "A#4",
          "ticks": 81792,
          "time": 236.74279644791667,
          "velocity": 0.5905511811023622
        },
        {
          "duration": 0.47999999999998977,
          "durationTicks": 192,
          "midi": 72,
          "name": "C5",
          "ticks": 81792,
          "time": 236.74279644791667,
          "velocity": 0.5905511811023622
        },
        {
          "duration": 1.4399999999999977,
          "durationTicks": 576,
          "midi": 36,
          "name": "C2",
          "ticks": 81792,
          "time": 236.74279644791667,
          "velocity": 0.5905511811023622
        },
        {
          "duration": 1.4399999999999977,
          "durationTicks": 576,
          "midi": 48,
          "name": "C3",
          "ticks": 81792,
          "time": 236.74279644791667,
          "velocity": 0.5905511811023622
        },
        {
          "duration": 0.2400000000000091,
          "durationTicks": 96,
          "midi": 65,
          "name": "F4",
          "ticks": 81984,
          "time": 237.22279644791666,
          "velocity": 0.49606299212598426
        },
        {
          "duration": 0.2400000000000091,
          "durationTicks": 96,
          "midi": 67,
          "name": "G4",
          "ticks": 82080,
          "time": 237.46279644791667,
          "velocity": 0.6141732283464567
        },
        {
          "duration": 0.23999999999998067,
          "durationTicks": 96,
          "midi": 69,
          "name": "A4",
          "ticks": 82176,
          "time": 237.70279644791668,
          "velocity": 0.6692913385826772
        },
        {
          "duration": 0.2400000000000091,
          "durationTicks": 96,
          "midi": 70,
          "name": "A#4",
          "ticks": 82272,
          "time": 237.94279644791666,
          "velocity": 0.6377952755905512
        },
        {
          "duration": 0.7142849999999896,
          "durationTicks": 192,
          "midi": 71,
          "name": "B4",
          "ticks": 82368,
          "time": 238.18279644791667,
          "velocity": 0.6062992125984252
        },
        {
          "duration": 0.7142849999999896,
          "durationTicks": 192,
          "midi": 59,
          "name": "B3",
          "ticks": 82368,
          "time": 238.18279644791667,
          "velocity": 0.7480314960629921
        },
        {
          "duration": 0.7142849999999896,
          "durationTicks": 192,
          "midi": 62,
          "name": "D4",
          "ticks": 82368,
          "time": 238.18279644791667,
          "velocity": 0.7480314960629921
        },
        {
          "duration": 0.7142849999999896,
          "durationTicks": 192,
          "midi": 66,
          "name": "F#4",
          "ticks": 82368,
          "time": 238.18279644791667,
          "velocity": 0.7480314960629921
        },
        {
          "duration": 0.357142500000009,
          "durationTicks": 96,
          "midi": 74,
          "name": "D5",
          "ticks": 82560,
          "time": 238.89708144791666,
          "velocity": 0.6299212598425197
        },
        {
          "duration": 0.714285000000018,
          "durationTicks": 192,
          "midi": 59,
          "name": "B3",
          "ticks": 82560,
          "time": 238.89708144791666,
          "velocity": 0.6692913385826772
        },
        {
          "duration": 0.714285000000018,
          "durationTicks": 192,
          "midi": 62,
          "name": "D4",
          "ticks": 82560,
          "time": 238.89708144791666,
          "velocity": 0.6692913385826772
        },
        {
          "duration": 0.714285000000018,
          "durationTicks": 192,
          "midi": 66,
          "name": "F#4",
          "ticks": 82560,
          "time": 238.89708144791666,
          "velocity": 0.6692913385826772
        },
        {
          "duration": 0.1785712500000045,
          "durationTicks": 48,
          "midi": 73,
          "name": "C#5",
          "ticks": 82656,
          "time": 239.25422394791667,
          "velocity": 0.5826771653543307
        },
        {
          "duration": 0.1785712500000045,
          "durationTicks": 48,
          "midi": 71,
          "name": "B4",
          "ticks": 82704,
          "time": 239.43279519791668,
          "velocity": 0.5590551181102362
        },
        {
          "duration": 0.3571424999999806,
          "durationTicks": 96,
          "midi": 73,
          "name": "C#5",
          "ticks": 82752,
          "time": 239.61136644791668,
          "velocity": 0.6220472440944882
        },
        {
          "duration": 0.7142849999999896,
          "durationTicks": 192,
          "midi": 58,
          "name": "A#3",
          "ticks": 82752,
          "time": 239.61136644791668,
          "velocity": 0.6062992125984252
        },
        {
          "duration": 0.7142849999999896,
          "durationTicks": 192,
          "midi": 61,
          "name": "C#4",
          "ticks": 82752,
          "time": 239.61136644791668,
          "velocity": 0.6062992125984252
        },
        {
          "duration": 0.7142849999999896,
          "durationTicks": 192,
          "midi": 66,
          "name": "F#4",
          "ticks": 82752,
          "time": 239.61136644791668,
          "velocity": 0.6062992125984252
        },
        {
          "duration": 0.357142500000009,
          "durationTicks": 96,
          "midi": 78,
          "name": "F#5",
          "ticks": 82848,
          "time": 239.96850894791666,
          "velocity": 0.6850393700787402
        },
        {
          "duration": 0.7142849999999896,
          "durationTicks": 192,
          "midi": 66,
          "name": "F#4",
          "ticks": 82944,
          "time": 240.32565144791667,
          "velocity": 0.4330708661417323
        },
        {
          "duration": 0.7142849999999896,
          "durationTicks": 192,
          "midi": 58,
          "name": "A#3",
          "ticks": 82944,
          "time": 240.32565144791667,
          "velocity": 0.5039370078740157
        },
        {
          "duration": 0.7142849999999896,
          "durationTicks": 192,
          "midi": 61,
          "name": "C#4",
          "ticks": 82944,
          "time": 240.32565144791667,
          "velocity": 0.5039370078740157
        },
        {
          "duration": 0.714285000000018,
          "durationTicks": 192,
          "midi": 71,
          "name": "B4",
          "ticks": 83136,
          "time": 241.03993644791666,
          "velocity": 0.6299212598425197
        },
        {
          "duration": 0.714285000000018,
          "durationTicks": 192,
          "midi": 59,
          "name": "B3",
          "ticks": 83136,
          "time": 241.03993644791666,
          "velocity": 0.6771653543307087
        },
        {
          "duration": 0.714285000000018,
          "durationTicks": 192,
          "midi": 62,
          "name": "D4",
          "ticks": 83136,
          "time": 241.03993644791666,
          "velocity": 0.6771653543307087
        },
        {
          "duration": 0.714285000000018,
          "durationTicks": 192,
          "midi": 66,
          "name": "F#4",
          "ticks": 83136,
          "time": 241.03993644791666,
          "velocity": 0.6771653543307087
        },
        {
          "duration": 0.357142500000009,
          "durationTicks": 96,
          "midi": 74,
          "name": "D5",
          "ticks": 83328,
          "time": 241.75422144791668,
          "velocity": 0.6771653543307087
        },
        {
          "duration": 0.7142849999999896,
          "durationTicks": 192,
          "midi": 59,
          "name": "B3",
          "ticks": 83328,
          "time": 241.75422144791668,
          "velocity": 0.6220472440944882
        },
        {
          "duration": 0.7142849999999896,
          "durationTicks": 192,
          "midi": 62,
          "name": "D4",
          "ticks": 83328,
          "time": 241.75422144791668,
          "velocity": 0.6220472440944882
        },
        {
          "duration": 0.7142849999999896,
          "durationTicks": 192,
          "midi": 66,
          "name": "F#4",
          "ticks": 83328,
          "time": 241.75422144791668,
          "velocity": 0.6220472440944882
        },
        {
          "duration": 0.1785712499999761,
          "durationTicks": 48,
          "midi": 73,
          "name": "C#5",
          "ticks": 83424,
          "time": 242.1113639479167,
          "velocity": 0.5826771653543307
        },
        {
          "duration": 0.1785712500000045,
          "durationTicks": 48,
          "midi": 71,
          "name": "B4",
          "ticks": 83472,
          "time": 242.28993519791666,
          "velocity": 0.5826771653543307
        },
        {
          "duration": 0.714285000000018,
          "durationTicks": 192,
          "midi": 70,
          "name": "A#4",
          "ticks": 83520,
          "time": 242.46850644791667,
          "velocity": 0.5748031496062992
        },
        {
          "duration": 0.714285000000018,
          "durationTicks": 192,
          "midi": 58,
          "name": "A#3",
          "ticks": 83520,
          "time": 242.46850644791667,
          "velocity": 0.6141732283464567
        },
        {
          "duration": 0.714285000000018,
          "durationTicks": 192,
          "midi": 61,
          "name": "C#4",
          "ticks": 83520,
          "time": 242.46850644791667,
          "velocity": 0.6141732283464567
        },
        {
          "duration": 0.714285000000018,
          "durationTicks": 192,
          "midi": 64,
          "name": "E4",
          "ticks": 83520,
          "time": 242.46850644791667,
          "velocity": 0.6141732283464567
        },
        {
          "duration": 0.714285000000018,
          "durationTicks": 192,
          "midi": 66,
          "name": "F#4",
          "ticks": 83520,
          "time": 242.46850644791667,
          "velocity": 0.6141732283464567
        },
        {
          "duration": 0.7142849999999896,
          "durationTicks": 192,
          "midi": 58,
          "name": "A#3",
          "ticks": 83712,
          "time": 243.18279144791669,
          "velocity": 0.5905511811023622
        },
        {
          "duration": 0.7142849999999896,
          "durationTicks": 192,
          "midi": 61,
          "name": "C#4",
          "ticks": 83712,
          "time": 243.18279144791669,
          "velocity": 0.5905511811023622
        },
        {
          "duration": 0.7142849999999896,
          "durationTicks": 192,
          "midi": 64,
          "name": "E4",
          "ticks": 83712,
          "time": 243.18279144791669,
          "velocity": 0.5905511811023622
        },
        {
          "duration": 0.7142849999999896,
          "durationTicks": 192,
          "midi": 66,
          "name": "F#4",
          "ticks": 83712,
          "time": 243.18279144791669,
          "velocity": 0.5905511811023622
        },
        {
          "duration": 0.357142500000009,
          "durationTicks": 96,
          "midi": 66,
          "name": "F#4",
          "ticks": 83808,
          "time": 243.53993394791667,
          "velocity": 0.5118110236220472
        },
        {
          "duration": 0.7142849999999896,
          "durationTicks": 192,
          "midi": 71,
          "name": "B4",
          "ticks": 83904,
          "time": 243.89707644791667,
          "velocity": 0.6614173228346457
        },
        {
          "duration": 0.7142849999999896,
          "durationTicks": 192,
          "midi": 59,
          "name": "B3",
          "ticks": 83904,
          "time": 243.89707644791667,
          "velocity": 0.5669291338582677
        },
        {
          "duration": 0.7142849999999896,
          "durationTicks": 192,
          "midi": 62,
          "name": "D4",
          "ticks": 83904,
          "time": 243.89707644791667,
          "velocity": 0.5669291338582677
        },
        {
          "duration": 0.7142849999999896,
          "durationTicks": 192,
          "midi": 66,
          "name": "F#4",
          "ticks": 83904,
          "time": 243.89707644791667,
          "velocity": 0.5669291338582677
        },
        {
          "duration": 0.357142500000009,
          "durationTicks": 96,
          "midi": 74,
          "name": "D5",
          "ticks": 84096,
          "time": 244.61136144791666,
          "velocity": 0.6614173228346457
        },
        {
          "duration": 0.714285000000018,
          "durationTicks": 192,
          "midi": 59,
          "name": "B3",
          "ticks": 84096,
          "time": 244.61136144791666,
          "velocity": 0.6220472440944882
        },
        {
          "duration": 0.714285000000018,
          "durationTicks": 192,
          "midi": 62,
          "name": "D4",
          "ticks": 84096,
          "time": 244.61136144791666,
          "velocity": 0.6220472440944882
        },
        {
          "duration": 0.714285000000018,
          "durationTicks": 192,
          "midi": 66,
          "name": "F#4",
          "ticks": 84096,
          "time": 244.61136144791666,
          "velocity": 0.6220472440944882
        },
        {
          "duration": 0.1785712500000045,
          "durationTicks": 48,
          "midi": 73,
          "name": "C#5",
          "ticks": 84192,
          "time": 244.96850394791667,
          "velocity": 0.5826771653543307
        },
        {
          "duration": 0.1785712500000045,
          "durationTicks": 48,
          "midi": 71,
          "name": "B4",
          "ticks": 84240,
          "time": 245.14707519791668,
          "velocity": 0.5669291338582677
        },
        {
          "duration": 0.3571424999999806,
          "durationTicks": 96,
          "midi": 73,
          "name": "C#5",
          "ticks": 84288,
          "time": 245.32564644791668,
          "velocity": 0.6377952755905512
        },
        {
          "duration": 0.7142849999999896,
          "durationTicks": 192,
          "midi": 58,
          "name": "A#3",
          "ticks": 84288,
          "time": 245.32564644791668,
          "velocity": 0.6062992125984252
        },
        {
          "duration": 0.7142849999999896,
          "durationTicks": 192,
          "midi": 61,
          "name": "C#4",
          "ticks": 84288,
          "time": 245.32564644791668,
          "velocity": 0.6062992125984252
        },
        {
          "duration": 0.7142849999999896,
          "durationTicks": 192,
          "midi": 66,
          "name": "F#4",
          "ticks": 84288,
          "time": 245.32564644791668,
          "velocity": 0.6062992125984252
        },
        {
          "duration": 0.357142500000009,
          "durationTicks": 96,
          "midi": 78,
          "name": "F#5",
          "ticks": 84384,
          "time": 245.68278894791666,
          "velocity": 0.7165354330708661
        },
        {
          "duration": 0.357142500000009,
          "durationTicks": 96,
          "midi": 66,
          "name": "F#4",
          "ticks": 84480,
          "time": 246.03993144791667,
          "velocity": 0.4330708661417323
        },
        {
          "duration": 0.7142849999999896,
          "durationTicks": 192,
          "midi": 58,
          "name": "A#3",
          "ticks": 84480,
          "time": 246.03993144791667,
          "velocity": 0.5196850393700787
        },
        {
          "duration": 0.7142849999999896,
          "durationTicks": 192,
          "midi": 61,
          "name": "C#4",
          "ticks": 84480,
          "time": 246.03993144791667,
          "velocity": 0.5196850393700787
        },
        {
          "duration": 0.3571424999999806,
          "durationTicks": 96,
          "midi": 66,
          "name": "F#4",
          "ticks": 84576,
          "time": 246.39707394791668,
          "velocity": 0.5905511811023622
        },
        {
          "duration": 0.1785712500000045,
          "durationTicks": 48,
          "midi": 67,
          "name": "G4",
          "ticks": 84672,
          "time": 246.75421644791666,
          "velocity": 0.6377952755905512
        },
        {
          "duration": 0.714285000000018,
          "durationTicks": 192,
          "midi": 55,
          "name": "G3",
          "ticks": 84672,
          "time": 246.75421644791666,
          "velocity": 0.6220472440944882
        },
        {
          "duration": 0.714285000000018,
          "durationTicks": 192,
          "midi": 59,
          "name": "B3",
          "ticks": 84672,
          "time": 246.75421644791666,
          "velocity": 0.6220472440944882
        },
        {
          "duration": 0.714285000000018,
          "durationTicks": 192,
          "midi": 62,
          "name": "D4",
          "ticks": 84672,
          "time": 246.75421644791666,
          "velocity": 0.6220472440944882
        },
        {
          "duration": 0.1785712500000045,
          "durationTicks": 48,
          "midi": 69,
          "name": "A4",
          "ticks": 84720,
          "time": 246.93278769791667,
          "velocity": 0.6377952755905512
        },
        {
          "duration": 0.1785712500000045,
          "durationTicks": 48,
          "midi": 71,
          "name": "B4",
          "ticks": 84768,
          "time": 247.11135894791667,
          "velocity": 0.6062992125984252
        },
        {
          "duration": 0.1785712500000045,
          "durationTicks": 48,
          "midi": 73,
          "name": "C#5",
          "ticks": 84816,
          "time": 247.28993019791668,
          "velocity": 0.6456692913385826
        },
        {
          "duration": 0.3571424999999806,
          "durationTicks": 96,
          "midi": 74,
          "name": "D5",
          "ticks": 84864,
          "time": 247.46850144791668,
          "velocity": 0.6771653543307087
        },
        {
          "duration": 0.3571424999999806,
          "durationTicks": 96,
          "midi": 55,
          "name": "G3",
          "ticks": 84864,
          "time": 247.46850144791668,
          "velocity": 0.5748031496062992
        },
        {
          "duration": 0.3571424999999806,
          "durationTicks": 96,
          "midi": 59,
          "name": "B3",
          "ticks": 84864,
          "time": 247.46850144791668,
          "velocity": 0.5748031496062992
        },
        {
          "duration": 0.3571424999999806,
          "durationTicks": 96,
          "midi": 62,
          "name": "D4",
          "ticks": 84864,
          "time": 247.46850144791668,
          "velocity": 0.5748031496062992
        },
        {
          "duration": 0.357142500000009,
          "durationTicks": 96,
          "midi": 73,
          "name": "C#5",
          "ticks": 84960,
          "time": 247.82564394791666,
          "velocity": 0.6062992125984252
        },
        {
          "duration": 0.357142500000009,
          "durationTicks": 96,
          "midi": 57,
          "name": "A3",
          "ticks": 84960,
          "time": 247.82564394791666,
          "velocity": 0.6299212598425197
        },
        {
          "duration": 0.357142500000009,
          "durationTicks": 96,
          "midi": 61,
          "name": "C#4",
          "ticks": 84960,
          "time": 247.82564394791666,
          "velocity": 0.6299212598425197
        },
        {
          "duration": 0.357142500000009,
          "durationTicks": 96,
          "midi": 64,
          "name": "E4",
          "ticks": 84960,
          "time": 247.82564394791666,
          "velocity": 0.6299212598425197
        },
        {
          "duration": 1.4285700000000077,
          "durationTicks": 384,
          "midi": 71,
          "name": "B4",
          "ticks": 85056,
          "time": 248.18278644791667,
          "velocity": 0.5669291338582677
        },
        {
          "duration": 1.4285700000000077,
          "durationTicks": 384,
          "midi": 59,
          "name": "B3",
          "ticks": 85056,
          "time": 248.18278644791667,
          "velocity": 0.6456692913385826
        },
        {
          "duration": 1.4285700000000077,
          "durationTicks": 384,
          "midi": 62,
          "name": "D4",
          "ticks": 85056,
          "time": 248.18278644791667,
          "velocity": 0.6456692913385826
        },
        {
          "duration": 1.4285700000000077,
          "durationTicks": 384,
          "midi": 66,
          "name": "F#4",
          "ticks": 85056,
          "time": 248.18278644791667,
          "velocity": 0.6456692913385826
        },
        {
          "duration": 0.3571424999999806,
          "durationTicks": 96,
          "midi": 78,
          "name": "F#5",
          "ticks": 85440,
          "time": 249.61135644791668,
          "velocity": 0.6929133858267716
        },
        {
          "duration": 0.7142849999999896,
          "durationTicks": 192,
          "midi": 62,
          "name": "D4",
          "ticks": 85440,
          "time": 249.61135644791668,
          "velocity": 0.6377952755905512
        },
        {
          "duration": 0.7142849999999896,
          "durationTicks": 192,
          "midi": 69,
          "name": "A4",
          "ticks": 85440,
          "time": 249.61135644791668,
          "velocity": 0.6377952755905512
        },
        {
          "duration": 0.357142500000009,
          "durationTicks": 96,
          "midi": 78,
          "name": "F#5",
          "ticks": 85536,
          "time": 249.96849894791666,
          "velocity": 0.6062992125984252
        },
        {
          "duration": 0.357142500000009,
          "durationTicks": 96,
          "midi": 78,
          "name": "F#5",
          "ticks": 85632,
          "time": 250.32564144791667,
          "velocity": 0.6141732283464567
        },
        {
          "duration": 0.714285000000018,
          "durationTicks": 192,
          "midi": 62,
          "name": "D4",
          "ticks": 85632,
          "time": 250.32564144791667,
          "velocity": 0.5905511811023622
        },
        {
          "duration": 0.714285000000018,
          "durationTicks": 192,
          "midi": 69,
          "name": "A4",
          "ticks": 85632,
          "time": 250.32564144791667,
          "velocity": 0.5905511811023622
        },
        {
          "duration": 0.357142500000009,
          "durationTicks": 96,
          "midi": 78,
          "name": "F#5",
          "ticks": 85728,
          "time": 250.68278394791668,
          "velocity": 0.6062992125984252
        },
        {
          "duration": 0.1785712499999761,
          "durationTicks": 48,
          "midi": 79,
          "name": "G5",
          "ticks": 85824,
          "time": 251.03992644791668,
          "velocity": 0.6299212598425197
        },
        {
          "duration": 0.7142849999999896,
          "durationTicks": 192,
          "midi": 57,
          "name": "A3",
          "ticks": 85824,
          "time": 251.03992644791668,
          "velocity": 0.5433070866141733
        },
        {
          "duration": 0.7142849999999896,
          "durationTicks": 192,
          "midi": 64,
          "name": "E4",
          "ticks": 85824,
          "time": 251.03992644791668,
          "velocity": 0.5433070866141733
        },
        {
          "duration": 0.1785712500000045,
          "durationTicks": 48,
          "midi": 78,
          "name": "F#5",
          "ticks": 85872,
          "time": 251.21849769791666,
          "velocity": 0.5590551181102362
        },
        {
          "duration": 0.1785712500000045,
          "durationTicks": 48,
          "midi": 78,
          "name": "F#5",
          "ticks": 85920,
          "time": 251.39706894791667,
          "velocity": 0.6141732283464567
        },
        {
          "duration": 0.1785712500000045,
          "durationTicks": 48,
          "midi": 76,
          "name": "E5",
          "ticks": 85968,
          "time": 251.57564019791667,
          "velocity": 0.5590551181102362
        },
        {
          "duration": 0.7142849999999896,
          "durationTicks": 192,
          "midi": 76,
          "name": "E5",
          "ticks": 86016,
          "time": 251.75421144791667,
          "velocity": 0.5984251968503937
        },
        {
          "duration": 0.7142849999999896,
          "durationTicks": 192,
          "midi": 57,
          "name": "A3",
          "ticks": 86016,
          "time": 251.75421144791667,
          "velocity": 0.6299212598425197
        },
        {
          "duration": 0.7142849999999896,
          "durationTicks": 192,
          "midi": 64,
          "name": "E4",
          "ticks": 86016,
          "time": 251.75421144791667,
          "velocity": 0.6299212598425197
        },
        {
          "duration": 0.357142500000009,
          "durationTicks": 96,
          "midi": 76,
          "name": "E5",
          "ticks": 86208,
          "time": 252.46849644791666,
          "velocity": 0.6220472440944882
        },
        {
          "duration": 0.714285000000018,
          "durationTicks": 192,
          "midi": 57,
          "name": "A3",
          "ticks": 86208,
          "time": 252.46849644791666,
          "velocity": 0.5748031496062992
        },
        {
          "duration": 0.714285000000018,
          "durationTicks": 192,
          "midi": 61,
          "name": "C#4",
          "ticks": 86208,
          "time": 252.46849644791666,
          "velocity": 0.5748031496062992
        },
        {
          "duration": 0.357142500000009,
          "durationTicks": 96,
          "midi": 76,
          "name": "E5",
          "ticks": 86304,
          "time": 252.82563894791667,
          "velocity": 0.5826771653543307
        },
        {
          "duration": 0.3571424999999806,
          "durationTicks": 96,
          "midi": 76,
          "name": "E5",
          "ticks": 86400,
          "time": 253.18278144791668,
          "velocity": 0.6141732283464567
        },
        {
          "duration": 0.7142849999999896,
          "durationTicks": 192,
          "midi": 57,
          "name": "A3",
          "ticks": 86400,
          "time": 253.18278144791668,
          "velocity": 0.5984251968503937
        },
        {
          "duration": 0.7142849999999896,
          "durationTicks": 192,
          "midi": 61,
          "name": "C#4",
          "ticks": 86400,
          "time": 253.18278144791668,
          "velocity": 0.5984251968503937
        },
        {
          "duration": 0.357142500000009,
          "durationTicks": 96,
          "midi": 76,
          "name": "E5",
          "ticks": 86496,
          "time": 253.53992394791666,
          "velocity": 0.6062992125984252
        },
        {
          "duration": 0.1785712500000045,
          "durationTicks": 48,
          "midi": 78,
          "name": "F#5",
          "ticks": 86592,
          "time": 253.89706644791667,
          "velocity": 0.6377952755905512
        },
        {
          "duration": 0.7142849999999896,
          "durationTicks": 192,
          "midi": 62,
          "name": "D4",
          "ticks": 86592,
          "time": 253.89706644791667,
          "velocity": 0.6692913385826772
        },
        {
          "duration": 0.7142849999999896,
          "durationTicks": 192,
          "midi": 66,
          "name": "F#4",
          "ticks": 86592,
          "time": 253.89706644791667,
          "velocity": 0.6692913385826772
        },
        {
          "duration": 0.1785712500000045,
          "durationTicks": 48,
          "midi": 76,
          "name": "E5",
          "ticks": 86640,
          "time": 254.07563769791668,
          "velocity": 0.5590551181102362
        },
        {
          "duration": 0.1785712499999761,
          "durationTicks": 48,
          "midi": 76,
          "name": "E5",
          "ticks": 86688,
          "time": 254.25420894791668,
          "velocity": 0.5826771653543307
        },
        {
          "duration": 0.1785712500000045,
          "durationTicks": 48,
          "midi": 74,
          "name": "D5",
          "ticks": 86736,
          "time": 254.43278019791666,
          "velocity": 0.5669291338582677
        },
        {
          "duration": 0.714285000000018,
          "durationTicks": 192,
          "midi": 74,
          "name": "D5",
          "ticks": 86784,
          "time": 254.61135144791666,
          "velocity": 0.6141732283464567
        },
        {
          "duration": 0.714285000000018,
          "durationTicks": 192,
          "midi": 62,
          "name": "D4",
          "ticks": 86784,
          "time": 254.61135144791666,
          "velocity": 0.5905511811023622
        },
        {
          "duration": 0.714285000000018,
          "durationTicks": 192,
          "midi": 66,
          "name": "F#4",
          "ticks": 86784,
          "time": 254.61135144791666,
          "velocity": 0.5905511811023622
        },
        {
          "duration": 0.3571424999999806,
          "durationTicks": 96,
          "midi": 74,
          "name": "D5",
          "ticks": 86976,
          "time": 255.32563644791668,
          "velocity": 0.6062992125984252
        },
        {
          "duration": 0.714285000000018,
          "durationTicks": 192,
          "midi": 55,
          "name": "G3",
          "ticks": 86976,
          "time": 255.32563644791668,
          "velocity": 0.5433070866141733
        },
        {
          "duration": 0.714285000000018,
          "durationTicks": 192,
          "midi": 59,
          "name": "B3",
          "ticks": 86976,
          "time": 255.32563644791668,
          "velocity": 0.5433070866141733
        },
        {
          "duration": 0.714285000000018,
          "durationTicks": 192,
          "midi": 62,
          "name": "D4",
          "ticks": 86976,
          "time": 255.32563644791668,
          "velocity": 0.5433070866141733
        },
        {
          "duration": 0.35714250000003744,
          "durationTicks": 96,
          "midi": 74,
          "name": "D5",
          "ticks": 87072,
          "time": 255.68277894791666,
          "velocity": 0.6062992125984252
        },
        {
          "duration": 0.3571424999999522,
          "durationTicks": 96,
          "midi": 74,
          "name": "D5",
          "ticks": 87168,
          "time": 256.0399214479167,
          "velocity": 0.5433070866141733
        },
        {
          "duration": 0.7142849999999612,
          "durationTicks": 192,
          "midi": 55,
          "name": "G3",
          "ticks": 87168,
          "time": 256.0399214479167,
          "velocity": 0.5826771653543307
        },
        {
          "duration": 0.7142849999999612,
          "durationTicks": 192,
          "midi": 59,
          "name": "B3",
          "ticks": 87168,
          "time": 256.0399214479167,
          "velocity": 0.5826771653543307
        },
        {
          "duration": 0.7142849999999612,
          "durationTicks": 192,
          "midi": 62,
          "name": "D4",
          "ticks": 87168,
          "time": 256.0399214479167,
          "velocity": 0.5826771653543307
        },
        {
          "duration": 0.1785712500000045,
          "durationTicks": 48,
          "midi": 73,
          "name": "C#5",
          "ticks": 87264,
          "time": 256.39706394791665,
          "velocity": 0.5984251968503937
        },
        {
          "duration": 0.1785712500000045,
          "durationTicks": 48,
          "midi": 74,
          "name": "D5",
          "ticks": 87312,
          "time": 256.57563519791665,
          "velocity": 0.6535433070866141
        },
        {
          "duration": 0.357142500000009,
          "durationTicks": 96,
          "midi": 76,
          "name": "E5",
          "ticks": 87360,
          "time": 256.75420644791666,
          "velocity": 0.6377952755905512
        },
        {
          "duration": 0.714285000000018,
          "durationTicks": 192,
          "midi": 56,
          "name": "G#3",
          "ticks": 87360,
          "time": 256.75420644791666,
          "velocity": 0.6141732283464567
        },
        {
          "duration": 0.714285000000018,
          "durationTicks": 192,
          "midi": 59,
          "name": "B3",
          "ticks": 87360,
          "time": 256.75420644791666,
          "velocity": 0.6141732283464567
        },
        {
          "duration": 0.714285000000018,
          "durationTicks": 192,
          "midi": 64,
          "name": "E4",
          "ticks": 87360,
          "time": 256.75420644791666,
          "velocity": 0.6141732283464567
        },
        {
          "duration": 0.357142500000009,
          "durationTicks": 96,
          "midi": 71,
          "name": "B4",
          "ticks": 87456,
          "time": 257.11134894791667,
          "velocity": 0.5039370078740157
        },
        {
          "duration": 0.714285000000018,
          "durationTicks": 192,
          "midi": 76,
          "name": "E5",
          "ticks": 87552,
          "time": 257.4684914479167,
          "velocity": 0.6062992125984252
        },
        {
          "duration": 0.714285000000018,
          "durationTicks": 192,
          "midi": 56,
          "name": "G#3",
          "ticks": 87552,
          "time": 257.4684914479167,
          "velocity": 0.5748031496062992
        },
        {
          "duration": 0.714285000000018,
          "durationTicks": 192,
          "midi": 59,
          "name": "B3",
          "ticks": 87552,
          "time": 257.4684914479167,
          "velocity": 0.5748031496062992
        },
        {
          "duration": 0.714285000000018,
          "durationTicks": 192,
          "midi": 64,
          "name": "E4",
          "ticks": 87552,
          "time": 257.4684914479167,
          "velocity": 0.5748031496062992
        },
        {
          "duration": 0.3571424999999522,
          "durationTicks": 96,
          "midi": 74,
          "name": "D5",
          "ticks": 87744,
          "time": 258.1827764479167,
          "velocity": 0.5669291338582677
        },
        {
          "duration": 0.7142849999999612,
          "durationTicks": 192,
          "midi": 57,
          "name": "A3",
          "ticks": 87744,
          "time": 258.1827764479167,
          "velocity": 0.6299212598425197
        },
        {
          "duration": 0.7142849999999612,
          "durationTicks": 192,
          "midi": 62,
          "name": "D4",
          "ticks": 87744,
          "time": 258.1827764479167,
          "velocity": 0.6299212598425197
        },
        {
          "duration": 0.7142849999999612,
          "durationTicks": 192,
          "midi": 66,
          "name": "F#4",
          "ticks": 87744,
          "time": 258.1827764479167,
          "velocity": 0.6299212598425197
        },
        {
          "duration": 0.1785712500000045,
          "durationTicks": 48,
          "midi": 73,
          "name": "C#5",
          "ticks": 87840,
          "time": 258.53991894791665,
          "velocity": 0.5511811023622047
        },
        {
          "duration": 0.1785712500000045,
          "durationTicks": 48,
          "midi": 71,
          "name": "B4",
          "ticks": 87888,
          "time": 258.71849019791665,
          "velocity": 0.5433070866141733
        },
        {
          "duration": 1.428570000000036,
          "durationTicks": 384,
          "midi": 69,
          "name": "A4",
          "ticks": 87936,
          "time": 258.89706144791666,
          "velocity": 0.5826771653543307
        },
        {
          "duration": 0.714285000000018,
          "durationTicks": 192,
          "midi": 57,
          "name": "A3",
          "ticks": 87936,
          "time": 258.89706144791666,
          "velocity": 0.6141732283464567
        },
        {
          "duration": 0.714285000000018,
          "durationTicks": 192,
          "midi": 62,
          "name": "D4",
          "ticks": 87936,
          "time": 258.89706144791666,
          "velocity": 0.6141732283464567
        },
        {
          "duration": 0.714285000000018,
          "durationTicks": 192,
          "midi": 66,
          "name": "F#4",
          "ticks": 87936,
          "time": 258.89706144791666,
          "velocity": 0.6141732283464567
        },
        {
          "duration": 0.714285000000018,
          "durationTicks": 192,
          "midi": 57,
          "name": "A3",
          "ticks": 88128,
          "time": 259.6113464479167,
          "velocity": 0.6220472440944882
        },
        {
          "duration": 0.714285000000018,
          "durationTicks": 192,
          "midi": 62,
          "name": "D4",
          "ticks": 88128,
          "time": 259.6113464479167,
          "velocity": 0.6220472440944882
        },
        {
          "duration": 0.714285000000018,
          "durationTicks": 192,
          "midi": 66,
          "name": "F#4",
          "ticks": 88128,
          "time": 259.6113464479167,
          "velocity": 0.6220472440944882
        },
        {
          "duration": 0.7142849999999612,
          "durationTicks": 192,
          "midi": 66,
          "name": "F#4",
          "ticks": 88320,
          "time": 260.3256314479167,
          "velocity": 0.5433070866141733
        },
        {
          "duration": 0.7142849999999612,
          "durationTicks": 192,
          "midi": 57,
          "name": "A3",
          "ticks": 88320,
          "time": 260.3256314479167,
          "velocity": 0.49606299212598426
        },
        {
          "duration": 0.7142849999999612,
          "durationTicks": 192,
          "midi": 62,
          "name": "D4",
          "ticks": 88320,
          "time": 260.3256314479167,
          "velocity": 0.49606299212598426
        },
        {
          "duration": 2.8571400000000153,
          "durationTicks": 768,
          "midi": 73,
          "name": "C#5",
          "ticks": 88512,
          "time": 261.03991644791665,
          "velocity": 0.7322834645669292
        },
        {
          "duration": 0.714285000000018,
          "durationTicks": 192,
          "midi": 54,
          "name": "F#3",
          "ticks": 88512,
          "time": 261.03991644791665,
          "velocity": 0.5590551181102362
        },
        {
          "duration": 0.714285000000018,
          "durationTicks": 192,
          "midi": 58,
          "name": "A#3",
          "ticks": 88512,
          "time": 261.03991644791665,
          "velocity": 0.5590551181102362
        },
        {
          "duration": 0.714285000000018,
          "durationTicks": 192,
          "midi": 54,
          "name": "F#3",
          "ticks": 88704,
          "time": 261.75420144791667,
          "velocity": 0.5748031496062992
        },
        {
          "duration": 0.714285000000018,
          "durationTicks": 192,
          "midi": 58,
          "name": "A#3",
          "ticks": 88704,
          "time": 261.75420144791667,
          "velocity": 0.5748031496062992
        },
        {
          "duration": 0.7142849999999612,
          "durationTicks": 192,
          "midi": 54,
          "name": "F#3",
          "ticks": 88896,
          "time": 262.4684864479167,
          "velocity": 0.6456692913385826
        },
        {
          "duration": 0.7142849999999612,
          "durationTicks": 192,
          "midi": 58,
          "name": "A#3",
          "ticks": 88896,
          "time": 262.4684864479167,
          "velocity": 0.6456692913385826
        },
        {
          "duration": 0.714285000000018,
          "durationTicks": 192,
          "midi": 54,
          "name": "F#3",
          "ticks": 89088,
          "time": 263.18277144791665,
          "velocity": 0.6377952755905512
        },
        {
          "duration": 0.714285000000018,
          "durationTicks": 192,
          "midi": 58,
          "name": "A#3",
          "ticks": 89088,
          "time": 263.18277144791665,
          "velocity": 0.6377952755905512
        },
        {
          "duration": 0.714285000000018,
          "durationTicks": 192,
          "midi": 71,
          "name": "B4",
          "ticks": 89280,
          "time": 263.89705644791667,
          "velocity": 0.5590551181102362
        },
        {
          "duration": 0.714285000000018,
          "durationTicks": 192,
          "midi": 47,
          "name": "B2",
          "ticks": 89280,
          "time": 263.89705644791667,
          "velocity": 0.5669291338582677
        },
        {
          "duration": 0.357142500000009,
          "durationTicks": 96,
          "midi": 74,
          "name": "D5",
          "ticks": 89472,
          "time": 264.6113414479167,
          "velocity": 0.6299212598425197
        },
        {
          "duration": 0.357142500000009,
          "durationTicks": 96,
          "midi": 54,
          "name": "F#3",
          "ticks": 89472,
          "time": 264.6113414479167,
          "velocity": 0.6692913385826772
        },
        {
          "duration": 0.17857124999994767,
          "durationTicks": 48,
          "midi": 73,
          "name": "C#5",
          "ticks": 89568,
          "time": 264.9684839479167,
          "velocity": 0.5590551181102362
        },
        {
          "duration": 0.3571424999999522,
          "durationTicks": 96,
          "midi": 47,
          "name": "B2",
          "ticks": 89568,
          "time": 264.9684839479167,
          "velocity": 0.5748031496062992
        },
        {
          "duration": 0.1785712500000045,
          "durationTicks": 48,
          "midi": 71,
          "name": "B4",
          "ticks": 89616,
          "time": 265.14705519791664,
          "velocity": 0.5826771653543307
        },
        {
          "duration": 0.357142500000009,
          "durationTicks": 96,
          "midi": 73,
          "name": "C#5",
          "ticks": 89664,
          "time": 265.32562644791665,
          "velocity": 0.6220472440944882
        },
        {
          "duration": 0.714285000000018,
          "durationTicks": 192,
          "midi": 46,
          "name": "A#2",
          "ticks": 89664,
          "time": 265.32562644791665,
          "velocity": 0.5826771653543307
        },
        {
          "duration": 0.357142500000009,
          "durationTicks": 96,
          "midi": 78,
          "name": "F#5",
          "ticks": 89760,
          "time": 265.68276894791666,
          "velocity": 0.6692913385826772
        },
        {
          "duration": 0.714285000000018,
          "durationTicks": 192,
          "midi": 66,
          "name": "F#4",
          "ticks": 89856,
          "time": 266.03991144791667,
          "velocity": 0.4409448818897638
        },
        {
          "duration": 0.357142500000009,
          "durationTicks": 96,
          "midi": 54,
          "name": "F#3",
          "ticks": 89856,
          "time": 266.03991144791667,
          "velocity": 0.6692913385826772
        },
        {
          "duration": 0.357142500000009,
          "durationTicks": 96,
          "midi": 46,
          "name": "A#2",
          "ticks": 89952,
          "time": 266.3970539479167,
          "velocity": 0.5748031496062992
        },
        {
          "duration": 0.7142849999999612,
          "durationTicks": 192,
          "midi": 71,
          "name": "B4",
          "ticks": 90048,
          "time": 266.7541964479167,
          "velocity": 0.6377952755905512
        },
        {
          "duration": 0.7142849999999612,
          "durationTicks": 192,
          "midi": 47,
          "name": "B2",
          "ticks": 90048,
          "time": 266.7541964479167,
          "velocity": 0.6614173228346457
        },
        {
          "duration": 0.357142500000009,
          "durationTicks": 96,
          "midi": 74,
          "name": "D5",
          "ticks": 90240,
          "time": 267.46848144791664,
          "velocity": 0.6929133858267716
        },
        {
          "duration": 0.357142500000009,
          "durationTicks": 96,
          "midi": 54,
          "name": "F#3",
          "ticks": 90240,
          "time": 267.46848144791664,
          "velocity": 0.6299212598425197
        },
        {
          "duration": 0.1785712500000045,
          "durationTicks": 48,
          "midi": 73,
          "name": "C#5",
          "ticks": 90336,
          "time": 267.82562394791665,
          "velocity": 0.5590551181102362
        },
        {
          "duration": 0.357142500000009,
          "durationTicks": 96,
          "midi": 47,
          "name": "B2",
          "ticks": 90336,
          "time": 267.82562394791665,
          "velocity": 0.5590551181102362
        },
        {
          "duration": 0.1785712500000045,
          "durationTicks": 48,
          "midi": 71,
          "name": "B4",
          "ticks": 90384,
          "time": 268.00419519791666,
          "velocity": 0.5590551181102362
        },
        {
          "duration": 0.714285000000018,
          "durationTicks": 192,
          "midi": 70,
          "name": "A#4",
          "ticks": 90432,
          "time": 268.18276644791666,
          "velocity": 0.5669291338582677
        },
        {
          "duration": 0.714285000000018,
          "durationTicks": 192,
          "midi": 42,
          "name": "F#2",
          "ticks": 90432,
          "time": 268.18276644791666,
          "velocity": 0.5590551181102362
        },
        {
          "duration": 0.357142500000009,
          "durationTicks": 96,
          "midi": 49,
          "name": "C#3",
          "ticks": 90624,
          "time": 268.8970514479167,
          "velocity": 0.6692913385826772
        },
        {
          "duration": 0.3571424999999522,
          "durationTicks": 96,
          "midi": 66,
          "name": "F#4",
          "ticks": 90720,
          "time": 269.2541939479167,
          "velocity": 0.5196850393700787
        },
        {
          "duration": 0.3571424999999522,
          "durationTicks": 96,
          "midi": 42,
          "name": "F#2",
          "ticks": 90720,
          "time": 269.2541939479167,
          "velocity": 0.5275590551181102
        },
        {
          "duration": 0.714285000000018,
          "durationTicks": 192,
          "midi": 71,
          "name": "B4",
          "ticks": 90816,
          "time": 269.61133644791664,
          "velocity": 0.6377952755905512
        },
        {
          "duration": 0.714285000000018,
          "durationTicks": 192,
          "midi": 47,
          "name": "B2",
          "ticks": 90816,
          "time": 269.61133644791664,
          "velocity": 0.6377952755905512
        },
        {
          "duration": 0.357142500000009,
          "durationTicks": 96,
          "midi": 74,
          "name": "D5",
          "ticks": 91008,
          "time": 270.32562144791666,
          "velocity": 0.6850393700787402
        },
        {
          "duration": 0.357142500000009,
          "durationTicks": 96,
          "midi": 54,
          "name": "F#3",
          "ticks": 91008,
          "time": 270.32562144791666,
          "velocity": 0.6771653543307087
        },
        {
          "duration": 0.1785712500000045,
          "durationTicks": 48,
          "midi": 73,
          "name": "C#5",
          "ticks": 91104,
          "time": 270.68276394791667,
          "velocity": 0.5590551181102362
        },
        {
          "duration": 0.357142500000009,
          "durationTicks": 96,
          "midi": 47,
          "name": "B2",
          "ticks": 91104,
          "time": 270.68276394791667,
          "velocity": 0.5590551181102362
        },
        {
          "duration": 0.1785712500000045,
          "durationTicks": 48,
          "midi": 71,
          "name": "B4",
          "ticks": 91152,
          "time": 270.8613351979167,
          "velocity": 0.5511811023622047
        },
        {
          "duration": 0.357142500000009,
          "durationTicks": 96,
          "midi": 73,
          "name": "C#5",
          "ticks": 91200,
          "time": 271.0399064479167,
          "velocity": 0.6456692913385826
        },
        {
          "duration": 0.714285000000018,
          "durationTicks": 192,
          "midi": 46,
          "name": "A#2",
          "ticks": 91200,
          "time": 271.0399064479167,
          "velocity": 0.5590551181102362
        },
        {
          "duration": 0.357142500000009,
          "durationTicks": 96,
          "midi": 78,
          "name": "F#5",
          "ticks": 91296,
          "time": 271.3970489479167,
          "velocity": 0.6771653543307087
        },
        {
          "duration": 0.3571424999999522,
          "durationTicks": 96,
          "midi": 66,
          "name": "F#4",
          "ticks": 91392,
          "time": 271.7541914479167,
          "velocity": 0.4330708661417323
        },
        {
          "duration": 0.3571424999999522,
          "durationTicks": 96,
          "midi": 49,
          "name": "C#3",
          "ticks": 91392,
          "time": 271.7541914479167,
          "velocity": 0.6141732283464567
        },
        {
          "duration": 0.357142500000009,
          "durationTicks": 96,
          "midi": 66,
          "name": "F#4",
          "ticks": 91488,
          "time": 272.11133394791665,
          "velocity": 0.5511811023622047
        },
        {
          "duration": 0.357142500000009,
          "durationTicks": 96,
          "midi": 42,
          "name": "F#2",
          "ticks": 91488,
          "time": 272.11133394791665,
          "velocity": 0.5511811023622047
        },
        {
          "duration": 0.1785712500000045,
          "durationTicks": 48,
          "midi": 67,
          "name": "G4",
          "ticks": 91584,
          "time": 272.46847644791666,
          "velocity": 0.6220472440944882
        },
        {
          "duration": 0.714285000000018,
          "durationTicks": 192,
          "midi": 43,
          "name": "G2",
          "ticks": 91584,
          "time": 272.46847644791666,
          "velocity": 0.5905511811023622
        },
        {
          "duration": 0.1785712500000045,
          "durationTicks": 48,
          "midi": 69,
          "name": "A4",
          "ticks": 91632,
          "time": 272.64704769791666,
          "velocity": 0.6535433070866141
        },
        {
          "duration": 0.1785712500000045,
          "durationTicks": 48,
          "midi": 71,
          "name": "B4",
          "ticks": 91680,
          "time": 272.82561894791667,
          "velocity": 0.6377952755905512
        },
        {
          "duration": 0.1785712500000045,
          "durationTicks": 48,
          "midi": 73,
          "name": "C#5",
          "ticks": 91728,
          "time": 273.00419019791667,
          "velocity": 0.6220472440944882
        },
        {
          "duration": 0.357142500000009,
          "durationTicks": 96,
          "midi": 74,
          "name": "D5",
          "ticks": 91776,
          "time": 273.1827614479167,
          "velocity": 0.6141732283464567
        },
        {
          "duration": 0.357142500000009,
          "durationTicks": 96,
          "midi": 43,
          "name": "G2",
          "ticks": 91776,
          "time": 273.1827614479167,
          "velocity": 0.5905511811023622
        },
        {
          "duration": 0.357142500000009,
          "durationTicks": 96,
          "midi": 73,
          "name": "C#5",
          "ticks": 91872,
          "time": 273.5399039479167,
          "velocity": 0.5748031496062992
        },
        {
          "duration": 0.357142500000009,
          "durationTicks": 96,
          "midi": 45,
          "name": "A2",
          "ticks": 91872,
          "time": 273.5399039479167,
          "velocity": 0.6377952755905512
        },
        {
          "duration": 0.7142849999999612,
          "durationTicks": 192,
          "midi": 69,
          "name": "A4",
          "ticks": 91968,
          "time": 273.8970464479167,
          "velocity": 0.5511811023622047
        },
        {
          "duration": 0.357142500000009,
          "durationTicks": 96,
          "midi": 74,
          "name": "D5",
          "ticks": 92160,
          "time": 274.61133144791665,
          "velocity": 0.7244094488188977
        },
        {
          "duration": 0.357142500000009,
          "durationTicks": 96,
          "midi": 76,
          "name": "E5",
          "ticks": 92256,
          "time": 274.96847394791666,
          "velocity": 0.6614173228346457
        },
        {
          "duration": 1.071427500000027,
          "durationTicks": 288,
          "midi": 78,
          "name": "F#5",
          "ticks": 92352,
          "time": 275.3256164479167,
          "velocity": 0.6456692913385826
        },
        {
          "duration": 0.714285000000018,
          "durationTicks": 192,
          "midi": 43,
          "name": "G2",
          "ticks": 92352,
          "time": 275.3256164479167,
          "velocity": 0.5748031496062992
        },
        {
          "duration": 0.7142849999999612,
          "durationTicks": 192,
          "midi": 55,
          "name": "G3",
          "ticks": 92544,
          "time": 276.0399014479167,
          "velocity": 0.7480314960629921
        },
        {
          "duration": 0.7142849999999612,
          "durationTicks": 192,
          "midi": 59,
          "name": "B3",
          "ticks": 92544,
          "time": 276.0399014479167,
          "velocity": 0.7480314960629921
        },
        {
          "duration": 0.7142849999999612,
          "durationTicks": 192,
          "midi": 62,
          "name": "D4",
          "ticks": 92544,
          "time": 276.0399014479167,
          "velocity": 0.7480314960629921
        },
        {
          "duration": 0.7142849999999612,
          "durationTicks": 192,
          "midi": 66,
          "name": "F#4",
          "ticks": 92544,
          "time": 276.0399014479167,
          "velocity": 0.7480314960629921
        },
        {
          "duration": 0.3571424999999522,
          "durationTicks": 96,
          "midi": 78,
          "name": "F#5",
          "ticks": 92640,
          "time": 276.3970439479167,
          "velocity": 0.5905511811023622
        },
        {
          "duration": 0.357142500000009,
          "durationTicks": 96,
          "midi": 78,
          "name": "F#5",
          "ticks": 92736,
          "time": 276.75418644791665,
          "velocity": 0.5984251968503937
        },
        {
          "duration": 0.714285000000018,
          "durationTicks": 192,
          "midi": 55,
          "name": "G3",
          "ticks": 92736,
          "time": 276.75418644791665,
          "velocity": 0.6141732283464567
        },
        {
          "duration": 0.714285000000018,
          "durationTicks": 192,
          "midi": 59,
          "name": "B3",
          "ticks": 92736,
          "time": 276.75418644791665,
          "velocity": 0.6141732283464567
        },
        {
          "duration": 0.714285000000018,
          "durationTicks": 192,
          "midi": 62,
          "name": "D4",
          "ticks": 92736,
          "time": 276.75418644791665,
          "velocity": 0.6141732283464567
        },
        {
          "duration": 0.714285000000018,
          "durationTicks": 192,
          "midi": 66,
          "name": "F#4",
          "ticks": 92736,
          "time": 276.75418644791665,
          "velocity": 0.6141732283464567
        },
        {
          "duration": 0.357142500000009,
          "durationTicks": 96,
          "midi": 79,
          "name": "G5",
          "ticks": 92832,
          "time": 277.11132894791666,
          "velocity": 0.5984251968503937
        },
        {
          "duration": 0.357142500000009,
          "durationTicks": 96,
          "midi": 76,
          "name": "E5",
          "ticks": 92928,
          "time": 277.46847144791667,
          "velocity": 0.5354330708661418
        },
        {
          "duration": 0.714285000000018,
          "durationTicks": 192,
          "midi": 55,
          "name": "G3",
          "ticks": 92928,
          "time": 277.46847144791667,
          "velocity": 0.5826771653543307
        },
        {
          "duration": 0.714285000000018,
          "durationTicks": 192,
          "midi": 59,
          "name": "B3",
          "ticks": 92928,
          "time": 277.46847144791667,
          "velocity": 0.5826771653543307
        },
        {
          "duration": 0.714285000000018,
          "durationTicks": 192,
          "midi": 62,
          "name": "D4",
          "ticks": 92928,
          "time": 277.46847144791667,
          "velocity": 0.5826771653543307
        },
        {
          "duration": 0.714285000000018,
          "durationTicks": 192,
          "midi": 66,
          "name": "F#4",
          "ticks": 92928,
          "time": 277.46847144791667,
          "velocity": 0.5826771653543307
        },
        {
          "duration": 0.357142500000009,
          "durationTicks": 96,
          "midi": 74,
          "name": "D5",
          "ticks": 93024,
          "time": 277.8256139479167,
          "velocity": 0.5196850393700787
        },
        {
          "duration": 1.7857124999999883,
          "durationTicks": 480,
          "midi": 76,
          "name": "E5",
          "ticks": 93120,
          "time": 278.1827564479167,
          "velocity": 0.6299212598425197
        },
        {
          "duration": 0.7142849999999612,
          "durationTicks": 192,
          "midi": 43,
          "name": "G2",
          "ticks": 93120,
          "time": 278.1827564479167,
          "velocity": 0.5275590551181102
        },
        {
          "duration": 0.714285000000018,
          "durationTicks": 192,
          "midi": 55,
          "name": "G3",
          "ticks": 93312,
          "time": 278.89704144791665,
          "velocity": 0.6929133858267716
        },
        {
          "duration": 0.714285000000018,
          "durationTicks": 192,
          "midi": 57,
          "name": "A3",
          "ticks": 93312,
          "time": 278.89704144791665,
          "velocity": 0.6929133858267716
        },
        {
          "duration": 0.714285000000018,
          "durationTicks": 192,
          "midi": 61,
          "name": "C#4",
          "ticks": 93312,
          "time": 278.89704144791665,
          "velocity": 0.6929133858267716
        },
        {
          "duration": 0.714285000000018,
          "durationTicks": 192,
          "midi": 64,
          "name": "E4",
          "ticks": 93312,
          "time": 278.89704144791665,
          "velocity": 0.6929133858267716
        },
        {
          "duration": 0.714285000000018,
          "durationTicks": 192,
          "midi": 55,
          "name": "G3",
          "ticks": 93504,
          "time": 279.61132644791667,
          "velocity": 0.6614173228346457
        },
        {
          "duration": 0.714285000000018,
          "durationTicks": 192,
          "midi": 57,
          "name": "A3",
          "ticks": 93504,
          "time": 279.61132644791667,
          "velocity": 0.6614173228346457
        },
        {
          "duration": 0.714285000000018,
          "durationTicks": 192,
          "midi": 61,
          "name": "C#4",
          "ticks": 93504,
          "time": 279.61132644791667,
          "velocity": 0.6614173228346457
        },
        {
          "duration": 0.714285000000018,
          "durationTicks": 192,
          "midi": 64,
          "name": "E4",
          "ticks": 93504,
          "time": 279.61132644791667,
          "velocity": 0.6614173228346457
        },
        {
          "duration": 0.357142500000009,
          "durationTicks": 96,
          "midi": 69,
          "name": "A4",
          "ticks": 93600,
          "time": 279.9684689479167,
          "velocity": 0.4881889763779528
        },
        {
          "duration": 0.357142500000009,
          "durationTicks": 96,
          "midi": 73,
          "name": "C#5",
          "ticks": 93696,
          "time": 280.3256114479167,
          "velocity": 0.6299212598425197
        },
        {
          "duration": 0.7142849999999612,
          "durationTicks": 192,
          "midi": 55,
          "name": "G3",
          "ticks": 93696,
          "time": 280.3256114479167,
          "velocity": 0.6062992125984252
        },
        {
          "duration": 0.7142849999999612,
          "durationTicks": 192,
          "midi": 57,
          "name": "A3",
          "ticks": 93696,
          "time": 280.3256114479167,
          "velocity": 0.6062992125984252
        },
        {
          "duration": 0.7142849999999612,
          "durationTicks": 192,
          "midi": 61,
          "name": "C#4",
          "ticks": 93696,
          "time": 280.3256114479167,
          "velocity": 0.6062992125984252
        },
        {
          "duration": 0.7142849999999612,
          "durationTicks": 192,
          "midi": 64,
          "name": "E4",
          "ticks": 93696,
          "time": 280.3256114479167,
          "velocity": 0.6062992125984252
        },
        {
          "duration": 0.3571424999999522,
          "durationTicks": 96,
          "midi": 74,
          "name": "D5",
          "ticks": 93792,
          "time": 280.6827539479167,
          "velocity": 0.6299212598425197
        },
        {
          "duration": 1.071427500000027,
          "durationTicks": 288,
          "midi": 69,
          "name": "A4",
          "ticks": 93888,
          "time": 281.03989644791665,
          "velocity": 0.6535433070866141
        },
        {
          "duration": 0.714285000000018,
          "durationTicks": 192,
          "midi": 42,
          "name": "F#2",
          "ticks": 93888,
          "time": 281.03989644791665,
          "velocity": 0.5275590551181102
        },
        {
          "duration": 0.9933025781249967,
          "durationTicks": 267,
          "midi": 73,
          "name": "C#5",
          "ticks": 93909,
          "time": 281.1180213697917,
          "velocity": 0.6535433070866141
        },
        {
          "duration": 0.9151776562500231,
          "durationTicks": 246,
          "midi": 76,
          "name": "E5",
          "ticks": 93930,
          "time": 281.19614629166665,
          "velocity": 0.6535433070866141
        },
        {
          "duration": 0.714285000000018,
          "durationTicks": 192,
          "midi": 54,
          "name": "F#3",
          "ticks": 94080,
          "time": 281.75418144791666,
          "velocity": 0.7559055118110236
        },
        {
          "duration": 0.714285000000018,
          "durationTicks": 192,
          "midi": 57,
          "name": "A3",
          "ticks": 94080,
          "time": 281.75418144791666,
          "velocity": 0.7559055118110236
        },
        {
          "duration": 0.714285000000018,
          "durationTicks": 192,
          "midi": 61,
          "name": "C#4",
          "ticks": 94080,
          "time": 281.75418144791666,
          "velocity": 0.7559055118110236
        },
        {
          "duration": 0.714285000000018,
          "durationTicks": 192,
          "midi": 64,
          "name": "E4",
          "ticks": 94080,
          "time": 281.75418144791666,
          "velocity": 0.7559055118110236
        },
        {
          "duration": 0.357142500000009,
          "durationTicks": 96,
          "midi": 76,
          "name": "E5",
          "ticks": 94176,
          "time": 282.1113239479167,
          "velocity": 0.6299212598425197
        },
        {
          "duration": 0.357142500000009,
          "durationTicks": 96,
          "midi": 76,
          "name": "E5",
          "ticks": 94272,
          "time": 282.4684664479167,
          "velocity": 0.6220472440944882
        },
        {
          "duration": 0.7142849999999612,
          "durationTicks": 192,
          "midi": 54,
          "name": "F#3",
          "ticks": 94272,
          "time": 282.4684664479167,
          "velocity": 0.6062992125984252
        },
        {
          "duration": 0.7142849999999612,
          "durationTicks": 192,
          "midi": 57,
          "name": "A3",
          "ticks": 94272,
          "time": 282.4684664479167,
          "velocity": 0.6062992125984252
        },
        {
          "duration": 0.7142849999999612,
          "durationTicks": 192,
          "midi": 61,
          "name": "C#4",
          "ticks": 94272,
          "time": 282.4684664479167,
          "velocity": 0.6062992125984252
        },
        {
          "duration": 0.7142849999999612,
          "durationTicks": 192,
          "midi": 64,
          "name": "E4",
          "ticks": 94272,
          "time": 282.4684664479167,
          "velocity": 0.6062992125984252
        },
        {
          "duration": 0.3571424999999522,
          "durationTicks": 96,
          "midi": 78,
          "name": "F#5",
          "ticks": 94368,
          "time": 282.8256089479167,
          "velocity": 0.6377952755905512
        },
        {
          "duration": 0.357142500000009,
          "durationTicks": 96,
          "midi": 74,
          "name": "D5",
          "ticks": 94464,
          "time": 283.18275144791664,
          "velocity": 0.5196850393700787
        },
        {
          "duration": 0.714285000000018,
          "durationTicks": 192,
          "midi": 54,
          "name": "F#3",
          "ticks": 94464,
          "time": 283.18275144791664,
          "velocity": 0.5984251968503937
        },
        {
          "duration": 0.714285000000018,
          "durationTicks": 192,
          "midi": 57,
          "name": "A3",
          "ticks": 94464,
          "time": 283.18275144791664,
          "velocity": 0.5984251968503937
        },
        {
          "duration": 0.714285000000018,
          "durationTicks": 192,
          "midi": 61,
          "name": "C#4",
          "ticks": 94464,
          "time": 283.18275144791664,
          "velocity": 0.5984251968503937
        },
        {
          "duration": 0.714285000000018,
          "durationTicks": 192,
          "midi": 64,
          "name": "E4",
          "ticks": 94464,
          "time": 283.18275144791664,
          "velocity": 0.5984251968503937
        },
        {
          "duration": 0.357142500000009,
          "durationTicks": 96,
          "midi": 73,
          "name": "C#5",
          "ticks": 94560,
          "time": 283.53989394791665,
          "velocity": 0.5590551181102362
        },
        {
          "duration": 0.714285000000018,
          "durationTicks": 192,
          "midi": 71,
          "name": "B4",
          "ticks": 94656,
          "time": 283.89703644791666,
          "velocity": 0.5433070866141733
        },
        {
          "duration": 0.714285000000018,
          "durationTicks": 192,
          "midi": 47,
          "name": "B2",
          "ticks": 94656,
          "time": 283.89703644791666,
          "velocity": 0.5118110236220472
        },
        {
          "duration": 0.357142500000009,
          "durationTicks": 96,
          "midi": 73,
          "name": "C#5",
          "ticks": 94848,
          "time": 284.6113214479167,
          "velocity": 0.6377952755905512
        },
        {
          "duration": 0.714285000000018,
          "durationTicks": 192,
          "midi": 54,
          "name": "F#3",
          "ticks": 94848,
          "time": 284.6113214479167,
          "velocity": 0.7559055118110236
        },
        {
          "duration": 0.714285000000018,
          "durationTicks": 192,
          "midi": 59,
          "name": "B3",
          "ticks": 94848,
          "time": 284.6113214479167,
          "velocity": 0.7559055118110236
        },
        {
          "duration": 0.714285000000018,
          "durationTicks": 192,
          "midi": 62,
          "name": "D4",
          "ticks": 94848,
          "time": 284.6113214479167,
          "velocity": 0.7559055118110236
        },
        {
          "duration": 0.357142500000009,
          "durationTicks": 96,
          "midi": 74,
          "name": "D5",
          "ticks": 94944,
          "time": 284.9684639479167,
          "velocity": 0.6141732283464567
        },
        {
          "duration": 0.7142849999999612,
          "durationTicks": 192,
          "midi": 67,
          "name": "G4",
          "ticks": 95040,
          "time": 285.3256064479167,
          "velocity": 0.6299212598425197
        },
        {
          "duration": 0.7142849999999612,
          "durationTicks": 192,
          "midi": 71,
          "name": "B4",
          "ticks": 95040,
          "time": 285.3256064479167,
          "velocity": 0.6299212598425197
        },
        {
          "duration": 0.7142849999999612,
          "durationTicks": 192,
          "midi": 76,
          "name": "E5",
          "ticks": 95040,
          "time": 285.3256064479167,
          "velocity": 0.6299212598425197
        },
        {
          "duration": 0.7142849999999612,
          "durationTicks": 192,
          "midi": 40,
          "name": "E2",
          "ticks": 95040,
          "time": 285.3256064479167,
          "velocity": 0.5511811023622047
        },
        {
          "duration": 0.357142500000009,
          "durationTicks": 96,
          "midi": 67,
          "name": "G4",
          "ticks": 95232,
          "time": 286.03989144791666,
          "velocity": 0.5748031496062992
        },
        {
          "duration": 0.357142500000009,
          "durationTicks": 96,
          "midi": 73,
          "name": "C#5",
          "ticks": 95232,
          "time": 286.03989144791666,
          "velocity": 0.5748031496062992
        },
        {
          "duration": 0.714285000000018,
          "durationTicks": 192,
          "midi": 45,
          "name": "A2",
          "ticks": 95232,
          "time": 286.03989144791666,
          "velocity": 0.6299212598425197
        },
        {
          "duration": 0.357142500000009,
          "durationTicks": 96,
          "midi": 71,
          "name": "B4",
          "ticks": 95328,
          "time": 286.39703394791667,
          "velocity": 0.5905511811023622
        },
        {
          "duration": 1.7857124999999883,
          "durationTicks": 480,
          "midi": 66,
          "name": "F#4",
          "ticks": 95424,
          "time": 286.7541764479167,
          "velocity": 0.6220472440944882
        },
        {
          "duration": 0.7142849999999612,
          "durationTicks": 192,
          "midi": 38,
          "name": "D2",
          "ticks": 95424,
          "time": 286.7541764479167,
          "velocity": 0.5905511811023622
        },
        {
          "duration": 1.7075875781250147,
          "durationTicks": 459,
          "midi": 69,
          "name": "A4",
          "ticks": 95445,
          "time": 286.83230136979165,
          "velocity": 0.6220472440944882
        },
        {
          "duration": 1.6294626562499843,
          "durationTicks": 438,
          "midi": 73,
          "name": "C#5",
          "ticks": 95466,
          "time": 286.9104262916667,
          "velocity": 0.6220472440944882
        },
        {
          "duration": 0.714285000000018,
          "durationTicks": 192,
          "midi": 50,
          "name": "D3",
          "ticks": 95616,
          "time": 287.46846144791664,
          "velocity": 0.7244094488188977
        },
        {
          "duration": 0.714285000000018,
          "durationTicks": 192,
          "midi": 54,
          "name": "F#3",
          "ticks": 95616,
          "time": 287.46846144791664,
          "velocity": 0.7244094488188977
        },
        {
          "duration": 0.714285000000018,
          "durationTicks": 192,
          "midi": 57,
          "name": "A3",
          "ticks": 95616,
          "time": 287.46846144791664,
          "velocity": 0.7244094488188977
        },
        {
          "duration": 0.714285000000018,
          "durationTicks": 192,
          "midi": 61,
          "name": "C#4",
          "ticks": 95616,
          "time": 287.46846144791664,
          "velocity": 0.7244094488188977
        },
        {
          "duration": 0.714285000000018,
          "durationTicks": 192,
          "midi": 50,
          "name": "D3",
          "ticks": 95808,
          "time": 288.18274644791666,
          "velocity": 0.6535433070866141
        },
        {
          "duration": 0.714285000000018,
          "durationTicks": 192,
          "midi": 54,
          "name": "F#3",
          "ticks": 95808,
          "time": 288.18274644791666,
          "velocity": 0.6535433070866141
        },
        {
          "duration": 0.714285000000018,
          "durationTicks": 192,
          "midi": 57,
          "name": "A3",
          "ticks": 95808,
          "time": 288.18274644791666,
          "velocity": 0.6535433070866141
        },
        {
          "duration": 0.714285000000018,
          "durationTicks": 192,
          "midi": 61,
          "name": "C#4",
          "ticks": 95808,
          "time": 288.18274644791666,
          "velocity": 0.6535433070866141
        },
        {
          "duration": 0.357142500000009,
          "durationTicks": 96,
          "midi": 66,
          "name": "F#4",
          "ticks": 95904,
          "time": 288.53988894791667,
          "velocity": 0.47244094488188976
        },
        {
          "duration": 0.357142500000009,
          "durationTicks": 96,
          "midi": 78,
          "name": "F#5",
          "ticks": 96000,
          "time": 288.8970314479167,
          "velocity": 0.7322834645669292
        },
        {
          "duration": 0.714285000000018,
          "durationTicks": 192,
          "midi": 50,
          "name": "D3",
          "ticks": 96000,
          "time": 288.8970314479167,
          "velocity": 0.6062992125984252
        },
        {
          "duration": 0.714285000000018,
          "durationTicks": 192,
          "midi": 54,
          "name": "F#3",
          "ticks": 96000,
          "time": 288.8970314479167,
          "velocity": 0.6062992125984252
        },
        {
          "duration": 0.714285000000018,
          "durationTicks": 192,
          "midi": 57,
          "name": "A3",
          "ticks": 96000,
          "time": 288.8970314479167,
          "velocity": 0.6062992125984252
        },
        {
          "duration": 0.714285000000018,
          "durationTicks": 192,
          "midi": 61,
          "name": "C#4",
          "ticks": 96000,
          "time": 288.8970314479167,
          "velocity": 0.6062992125984252
        },
        {
          "duration": 0.357142500000009,
          "durationTicks": 96,
          "midi": 76,
          "name": "E5",
          "ticks": 96096,
          "time": 289.2541739479167,
          "velocity": 0.5905511811023622
        },
        {
          "duration": 1.0714274999999702,
          "durationTicks": 288,
          "midi": 78,
          "name": "F#5",
          "ticks": 96192,
          "time": 289.6113164479167,
          "velocity": 0.6377952755905512
        },
        {
          "duration": 0.7142849999999612,
          "durationTicks": 192,
          "midi": 43,
          "name": "G2",
          "ticks": 96192,
          "time": 289.6113164479167,
          "velocity": 0.5118110236220472
        },
        {
          "duration": 0.714285000000018,
          "durationTicks": 192,
          "midi": 55,
          "name": "G3",
          "ticks": 96384,
          "time": 290.32560144791665,
          "velocity": 0.7244094488188977
        },
        {
          "duration": 0.714285000000018,
          "durationTicks": 192,
          "midi": 59,
          "name": "B3",
          "ticks": 96384,
          "time": 290.32560144791665,
          "velocity": 0.7244094488188977
        },
        {
          "duration": 0.714285000000018,
          "durationTicks": 192,
          "midi": 62,
          "name": "D4",
          "ticks": 96384,
          "time": 290.32560144791665,
          "velocity": 0.7244094488188977
        },
        {
          "duration": 0.714285000000018,
          "durationTicks": 192,
          "midi": 66,
          "name": "F#4",
          "ticks": 96384,
          "time": 290.32560144791665,
          "velocity": 0.7244094488188977
        },
        {
          "duration": 0.357142500000009,
          "durationTicks": 96,
          "midi": 78,
          "name": "F#5",
          "ticks": 96480,
          "time": 290.68274394791666,
          "velocity": 0.5748031496062992
        },
        {
          "duration": 0.357142500000009,
          "durationTicks": 96,
          "midi": 78,
          "name": "F#5",
          "ticks": 96576,
          "time": 291.0398864479167,
          "velocity": 0.6299212598425197
        },
        {
          "duration": 0.714285000000018,
          "durationTicks": 192,
          "midi": 55,
          "name": "G3",
          "ticks": 96576,
          "time": 291.0398864479167,
          "velocity": 0.6299212598425197
        },
        {
          "duration": 0.714285000000018,
          "durationTicks": 192,
          "midi": 59,
          "name": "B3",
          "ticks": 96576,
          "time": 291.0398864479167,
          "velocity": 0.6299212598425197
        },
        {
          "duration": 0.714285000000018,
          "durationTicks": 192,
          "midi": 62,
          "name": "D4",
          "ticks": 96576,
          "time": 291.0398864479167,
          "velocity": 0.6299212598425197
        },
        {
          "duration": 0.714285000000018,
          "durationTicks": 192,
          "midi": 66,
          "name": "F#4",
          "ticks": 96576,
          "time": 291.0398864479167,
          "velocity": 0.6299212598425197
        },
        {
          "duration": 0.7142849999999612,
          "durationTicks": 192,
          "midi": 79,
          "name": "G5",
          "ticks": 96672,
          "time": 291.3970289479167,
          "velocity": 0.6299212598425197
        },
        {
          "duration": 0.7142849999999612,
          "durationTicks": 192,
          "midi": 55,
          "name": "G3",
          "ticks": 96768,
          "time": 291.7541714479167,
          "velocity": 0.5905511811023622
        },
        {
          "duration": 0.7142849999999612,
          "durationTicks": 192,
          "midi": 59,
          "name": "B3",
          "ticks": 96768,
          "time": 291.7541714479167,
          "velocity": 0.5905511811023622
        },
        {
          "duration": 0.7142849999999612,
          "durationTicks": 192,
          "midi": 62,
          "name": "D4",
          "ticks": 96768,
          "time": 291.7541714479167,
          "velocity": 0.5905511811023622
        },
        {
          "duration": 0.7142849999999612,
          "durationTicks": 192,
          "midi": 66,
          "name": "F#4",
          "ticks": 96768,
          "time": 291.7541714479167,
          "velocity": 0.5905511811023622
        },
        {
          "duration": 0.1785712500000045,
          "durationTicks": 48,
          "midi": 76,
          "name": "E5",
          "ticks": 96864,
          "time": 292.11131394791664,
          "velocity": 0.5511811023622047
        },
        {
          "duration": 0.1785712500000045,
          "durationTicks": 48,
          "midi": 74,
          "name": "D5",
          "ticks": 96912,
          "time": 292.28988519791665,
          "velocity": 0.5590551181102362
        },
        {
          "duration": 1.785712500000045,
          "durationTicks": 480,
          "midi": 76,
          "name": "E5",
          "ticks": 96960,
          "time": 292.46845644791665,
          "velocity": 0.6220472440944882
        },
        {
          "duration": 0.714285000000018,
          "durationTicks": 192,
          "midi": 43,
          "name": "G2",
          "ticks": 96960,
          "time": 292.46845644791665,
          "velocity": 0.5433070866141733
        },
        {
          "duration": 0.714285000000018,
          "durationTicks": 192,
          "midi": 55,
          "name": "G3",
          "ticks": 97152,
          "time": 293.18274144791667,
          "velocity": 0.7559055118110236
        },
        {
          "duration": 0.714285000000018,
          "durationTicks": 192,
          "midi": 57,
          "name": "A3",
          "ticks": 97152,
          "time": 293.18274144791667,
          "velocity": 0.7559055118110236
        },
        {
          "duration": 0.714285000000018,
          "durationTicks": 192,
          "midi": 61,
          "name": "C#4",
          "ticks": 97152,
          "time": 293.18274144791667,
          "velocity": 0.7559055118110236
        },
        {
          "duration": 0.714285000000018,
          "durationTicks": 192,
          "midi": 64,
          "name": "E4",
          "ticks": 97152,
          "time": 293.18274144791667,
          "velocity": 0.7559055118110236
        },
        {
          "duration": 0.7142849999999612,
          "durationTicks": 192,
          "midi": 55,
          "name": "G3",
          "ticks": 97344,
          "time": 293.8970264479167,
          "velocity": 0.6141732283464567
        },
        {
          "duration": 0.7142849999999612,
          "durationTicks": 192,
          "midi": 57,
          "name": "A3",
          "ticks": 97344,
          "time": 293.8970264479167,
          "velocity": 0.6141732283464567
        },
        {
          "duration": 0.7142849999999612,
          "durationTicks": 192,
          "midi": 61,
          "name": "C#4",
          "ticks": 97344,
          "time": 293.8970264479167,
          "velocity": 0.6141732283464567
        },
        {
          "duration": 0.7142849999999612,
          "durationTicks": 192,
          "midi": 64,
          "name": "E4",
          "ticks": 97344,
          "time": 293.8970264479167,
          "velocity": 0.6141732283464567
        },
        {
          "duration": 0.3571424999999522,
          "durationTicks": 96,
          "midi": 69,
          "name": "A4",
          "ticks": 97440,
          "time": 294.2541689479167,
          "velocity": 0.47244094488188976
        },
        {
          "duration": 0.357142500000009,
          "durationTicks": 96,
          "midi": 73,
          "name": "C#5",
          "ticks": 97536,
          "time": 294.61131144791665,
          "velocity": 0.6377952755905512
        },
        {
          "duration": 0.714285000000018,
          "durationTicks": 192,
          "midi": 55,
          "name": "G3",
          "ticks": 97536,
          "time": 294.61131144791665,
          "velocity": 0.6535433070866141
        },
        {
          "duration": 0.714285000000018,
          "durationTicks": 192,
          "midi": 57,
          "name": "A3",
          "ticks": 97536,
          "time": 294.61131144791665,
          "velocity": 0.6535433070866141
        },
        {
          "duration": 0.714285000000018,
          "durationTicks": 192,
          "midi": 61,
          "name": "C#4",
          "ticks": 97536,
          "time": 294.61131144791665,
          "velocity": 0.6535433070866141
        },
        {
          "duration": 0.714285000000018,
          "durationTicks": 192,
          "midi": 64,
          "name": "E4",
          "ticks": 97536,
          "time": 294.61131144791665,
          "velocity": 0.6535433070866141
        },
        {
          "duration": 0.357142500000009,
          "durationTicks": 96,
          "midi": 74,
          "name": "D5",
          "ticks": 97632,
          "time": 294.96845394791666,
          "velocity": 0.6299212598425197
        },
        {
          "duration": 1.0714274999999702,
          "durationTicks": 288,
          "midi": 69,
          "name": "A4",
          "ticks": 97728,
          "time": 295.32559644791667,
          "velocity": 0.5905511811023622
        },
        {
          "duration": 0.714285000000018,
          "durationTicks": 192,
          "midi": 42,
          "name": "F#2",
          "ticks": 97728,
          "time": 295.32559644791667,
          "velocity": 0.5354330708661418
        },
        {
          "duration": 0.9933025781249398,
          "durationTicks": 267,
          "midi": 73,
          "name": "C#5",
          "ticks": 97749,
          "time": 295.4037213697917,
          "velocity": 0.5905511811023622
        },
        {
          "duration": 0.9151776562499663,
          "durationTicks": 246,
          "midi": 76,
          "name": "E5",
          "ticks": 97770,
          "time": 295.48184629166667,
          "velocity": 0.5905511811023622
        },
        {
          "duration": 0.7142849999999612,
          "durationTicks": 192,
          "midi": 54,
          "name": "F#3",
          "ticks": 97920,
          "time": 296.0398814479167,
          "velocity": 0.7559055118110236
        },
        {
          "duration": 0.7142849999999612,
          "durationTicks": 192,
          "midi": 57,
          "name": "A3",
          "ticks": 97920,
          "time": 296.0398814479167,
          "velocity": 0.7559055118110236
        },
        {
          "duration": 0.7142849999999612,
          "durationTicks": 192,
          "midi": 61,
          "name": "C#4",
          "ticks": 97920,
          "time": 296.0398814479167,
          "velocity": 0.7559055118110236
        },
        {
          "duration": 0.7142849999999612,
          "durationTicks": 192,
          "midi": 64,
          "name": "E4",
          "ticks": 97920,
          "time": 296.0398814479167,
          "velocity": 0.7559055118110236
        },
        {
          "duration": 0.1785712500000045,
          "durationTicks": 48,
          "midi": 76,
          "name": "E5",
          "ticks": 98016,
          "time": 296.39702394791664,
          "velocity": 0.5905511811023622
        },
        {
          "duration": 0.1785712500000045,
          "durationTicks": 48,
          "midi": 76,
          "name": "E5",
          "ticks": 98064,
          "time": 296.57559519791664,
          "velocity": 0.5984251968503937
        },
        {
          "duration": 0.357142500000009,
          "durationTicks": 96,
          "midi": 76,
          "name": "E5",
          "ticks": 98112,
          "time": 296.75416644791665,
          "velocity": 0.5826771653543307
        },
        {
          "duration": 0.714285000000018,
          "durationTicks": 192,
          "midi": 54,
          "name": "F#3",
          "ticks": 98112,
          "time": 296.75416644791665,
          "velocity": 0.6141732283464567
        },
        {
          "duration": 0.714285000000018,
          "durationTicks": 192,
          "midi": 57,
          "name": "A3",
          "ticks": 98112,
          "time": 296.75416644791665,
          "velocity": 0.6141732283464567
        },
        {
          "duration": 0.714285000000018,
          "durationTicks": 192,
          "midi": 61,
          "name": "C#4",
          "ticks": 98112,
          "time": 296.75416644791665,
          "velocity": 0.6141732283464567
        },
        {
          "duration": 0.714285000000018,
          "durationTicks": 192,
          "midi": 64,
          "name": "E4",
          "ticks": 98112,
          "time": 296.75416644791665,
          "velocity": 0.6141732283464567
        },
        {
          "duration": 0.357142500000009,
          "durationTicks": 96,
          "midi": 78,
          "name": "F#5",
          "ticks": 98208,
          "time": 297.11130894791665,
          "velocity": 0.6141732283464567
        },
        {
          "duration": 0.357142500000009,
          "durationTicks": 96,
          "midi": 74,
          "name": "D5",
          "ticks": 98304,
          "time": 297.46845144791666,
          "velocity": 0.5511811023622047
        },
        {
          "duration": 0.714285000000018,
          "durationTicks": 192,
          "midi": 54,
          "name": "F#3",
          "ticks": 98304,
          "time": 297.46845144791666,
          "velocity": 0.6299212598425197
        },
        {
          "duration": 0.714285000000018,
          "durationTicks": 192,
          "midi": 57,
          "name": "A3",
          "ticks": 98304,
          "time": 297.46845144791666,
          "velocity": 0.6299212598425197
        },
        {
          "duration": 0.714285000000018,
          "durationTicks": 192,
          "midi": 61,
          "name": "C#4",
          "ticks": 98304,
          "time": 297.46845144791666,
          "velocity": 0.6299212598425197
        },
        {
          "duration": 0.714285000000018,
          "durationTicks": 192,
          "midi": 64,
          "name": "E4",
          "ticks": 98304,
          "time": 297.46845144791666,
          "velocity": 0.6299212598425197
        },
        {
          "duration": 0.357142500000009,
          "durationTicks": 96,
          "midi": 73,
          "name": "C#5",
          "ticks": 98400,
          "time": 297.8255939479167,
          "velocity": 0.5590551181102362
        },
        {
          "duration": 0.714285000000018,
          "durationTicks": 192,
          "midi": 71,
          "name": "B4",
          "ticks": 98496,
          "time": 298.1827364479167,
          "velocity": 0.5511811023622047
        },
        {
          "duration": 0.714285000000018,
          "durationTicks": 192,
          "midi": 47,
          "name": "B2",
          "ticks": 98496,
          "time": 298.1827364479167,
          "velocity": 0.5511811023622047
        },
        {
          "duration": 0.3571424999999522,
          "durationTicks": 96,
          "midi": 73,
          "name": "C#5",
          "ticks": 98688,
          "time": 298.8970214479167,
          "velocity": 0.6062992125984252
        },
        {
          "duration": 0.7142849999999612,
          "durationTicks": 192,
          "midi": 50,
          "name": "D3",
          "ticks": 98688,
          "time": 298.8970214479167,
          "velocity": 0.7401574803149606
        },
        {
          "duration": 0.7142849999999612,
          "durationTicks": 192,
          "midi": 54,
          "name": "F#3",
          "ticks": 98688,
          "time": 298.8970214479167,
          "velocity": 0.7401574803149606
        },
        {
          "duration": 0.7142849999999612,
          "durationTicks": 192,
          "midi": 59,
          "name": "B3",
          "ticks": 98688,
          "time": 298.8970214479167,
          "velocity": 0.7401574803149606
        },
        {
          "duration": 0.7142849999999612,
          "durationTicks": 192,
          "midi": 62,
          "name": "D4",
          "ticks": 98688,
          "time": 298.8970214479167,
          "velocity": 0.7401574803149606
        },
        {
          "duration": 0.357142500000009,
          "durationTicks": 96,
          "midi": 74,
          "name": "D5",
          "ticks": 98784,
          "time": 299.25416394791665,
          "velocity": 0.6377952755905512
        },
        {
          "duration": 0.714285000000018,
          "durationTicks": 192,
          "midi": 67,
          "name": "G4",
          "ticks": 98880,
          "time": 299.61130644791666,
          "velocity": 0.6220472440944882
        },
        {
          "duration": 0.714285000000018,
          "durationTicks": 192,
          "midi": 71,
          "name": "B4",
          "ticks": 98880,
          "time": 299.61130644791666,
          "velocity": 0.6220472440944882
        },
        {
          "duration": 0.714285000000018,
          "durationTicks": 192,
          "midi": 76,
          "name": "E5",
          "ticks": 98880,
          "time": 299.61130644791666,
          "velocity": 0.6220472440944882
        },
        {
          "duration": 0.714285000000018,
          "durationTicks": 192,
          "midi": 40,
          "name": "E2",
          "ticks": 98880,
          "time": 299.61130644791666,
          "velocity": 0.5905511811023622
        },
        {
          "duration": 0.357142500000009,
          "durationTicks": 96,
          "midi": 67,
          "name": "G4",
          "ticks": 99072,
          "time": 300.3255914479167,
          "velocity": 0.5354330708661418
        },
        {
          "duration": 0.357142500000009,
          "durationTicks": 96,
          "midi": 73,
          "name": "C#5",
          "ticks": 99072,
          "time": 300.3255914479167,
          "velocity": 0.5354330708661418
        },
        {
          "duration": 0.7142849999999612,
          "durationTicks": 192,
          "midi": 45,
          "name": "A2",
          "ticks": 99072,
          "time": 300.3255914479167,
          "velocity": 0.6377952755905512
        },
        {
          "duration": 0.3571424999999522,
          "durationTicks": 96,
          "midi": 71,
          "name": "B4",
          "ticks": 99168,
          "time": 300.6827339479167,
          "velocity": 0.5511811023622047
        },
        {
          "duration": 1.428570000000036,
          "durationTicks": 384,
          "midi": 61,
          "name": "C#4",
          "ticks": 99264,
          "time": 301.03987644791664,
          "velocity": 0.5748031496062992
        },
        {
          "duration": 0.357142500000009,
          "durationTicks": 96,
          "midi": 38,
          "name": "D2",
          "ticks": 99264,
          "time": 301.03987644791664,
          "velocity": 0.5826771653543307
        },
        {
          "duration": 1.3504450781250057,
          "durationTicks": 363,
          "midi": 66,
          "name": "F#4",
          "ticks": 99285,
          "time": 301.11800136979167,
          "velocity": 0.5748031496062992
        },
        {
          "duration": 1.2723201562500321,
          "durationTicks": 342,
          "midi": 69,
          "name": "A4",
          "ticks": 99306,
          "time": 301.19612629166664,
          "velocity": 0.5748031496062992
        },
        {
          "duration": 0.357142500000009,
          "durationTicks": 96,
          "midi": 45,
          "name": "A2",
          "ticks": 99360,
          "time": 301.39701894791665,
          "velocity": 0.6220472440944882
        },
        {
          "duration": 0.357142500000009,
          "durationTicks": 96,
          "midi": 52,
          "name": "E3",
          "ticks": 99456,
          "time": 301.75416144791666,
          "velocity": 0.6220472440944882
        },
        {
          "duration": 0.357142500000009,
          "durationTicks": 96,
          "midi": 55,
          "name": "G3",
          "ticks": 99552,
          "time": 302.11130394791667,
          "velocity": 0.6535433070866141
        },
        {
          "duration": 0.714285000000018,
          "durationTicks": 192,
          "midi": 67,
          "name": "G4",
          "ticks": 99648,
          "time": 302.4684464479167,
          "velocity": 0.5590551181102362
        },
        {
          "duration": 0.357142500000009,
          "durationTicks": 96,
          "midi": 57,
          "name": "A3",
          "ticks": 99648,
          "time": 302.4684464479167,
          "velocity": 0.6299212598425197
        },
        {
          "duration": 0.357142500000009,
          "durationTicks": 96,
          "midi": 60,
          "name": "C4",
          "ticks": 99744,
          "time": 302.8255889479167,
          "velocity": 0.6771653543307087
        },
        {
          "duration": 0.7142849999999612,
          "durationTicks": 192,
          "midi": 67,
          "name": "G4",
          "ticks": 99840,
          "time": 303.1827314479167,
          "velocity": 0.6377952755905512
        },
        {
          "duration": 0.3571424999999522,
          "durationTicks": 96,
          "midi": 60,
          "name": "C4",
          "ticks": 99840,
          "time": 303.1827314479167,
          "velocity": 0.6062992125984252
        },
        {
          "duration": 0.357142500000009,
          "durationTicks": 96,
          "midi": 62,
          "name": "D4",
          "ticks": 99936,
          "time": 303.53987394791665,
          "velocity": 0.6299212598425197
        },
        {
          "duration": 0.357142500000009,
          "durationTicks": 96,
          "midi": 64,
          "name": "E4",
          "ticks": 100032,
          "time": 303.89701644791666,
          "velocity": 0.5826771653543307
        },
        {
          "duration": 0.714285000000018,
          "durationTicks": 192,
          "midi": 48,
          "name": "C3",
          "ticks": 100032,
          "time": 303.89701644791666,
          "velocity": 0.5039370078740157
        },
        {
          "duration": 0.357142500000009,
          "durationTicks": 96,
          "midi": 69,
          "name": "A4",
          "ticks": 100224,
          "time": 304.6113014479167,
          "velocity": 0.5275590551181102
        },
        {
          "duration": 0.7142849999999612,
          "durationTicks": 192,
          "midi": 48,
          "name": "C3",
          "ticks": 100224,
          "time": 304.6113014479167,
          "velocity": 0.5905511811023622
        },
        {
          "duration": 0.3571424999999522,
          "durationTicks": 96,
          "midi": 67,
          "name": "G4",
          "ticks": 100320,
          "time": 304.9684439479167,
          "velocity": 0.5826771653543307
        },
        {
          "duration": 0.714285000000018,
          "durationTicks": 192,
          "midi": 48,
          "name": "C3",
          "ticks": 100416,
          "time": 305.32558644791663,
          "velocity": 0.6141732283464567
        },
        {
          "duration": 0.357142500000009,
          "durationTicks": 96,
          "midi": 64,
          "name": "E4",
          "ticks": 100512,
          "time": 305.68272894791664,
          "velocity": 0.5590551181102362
        },
        {
          "duration": 0.357142500000009,
          "durationTicks": 96,
          "midi": 62,
          "name": "D4",
          "ticks": 100608,
          "time": 306.03987144791665,
          "velocity": 0.5433070866141733
        },
        {
          "duration": 0.357142500000009,
          "durationTicks": 96,
          "midi": 43,
          "name": "G2",
          "ticks": 100608,
          "time": 306.03987144791665,
          "velocity": 0.5826771653543307
        },
        {
          "duration": 0.357142500000009,
          "durationTicks": 96,
          "midi": 62,
          "name": "D4",
          "ticks": 100704,
          "time": 306.39701394791666,
          "velocity": 0.5905511811023622
        },
        {
          "duration": 0.357142500000009,
          "durationTicks": 96,
          "midi": 44,
          "name": "G#2",
          "ticks": 100704,
          "time": 306.39701394791666,
          "velocity": 0.6299212598425197
        },
        {
          "duration": 0.714285000000018,
          "durationTicks": 192,
          "midi": 60,
          "name": "C4",
          "ticks": 100800,
          "time": 306.75415644791667,
          "velocity": 0.5984251968503937
        },
        {
          "duration": 0.714285000000018,
          "durationTicks": 192,
          "midi": 45,
          "name": "A2",
          "ticks": 100800,
          "time": 306.75415644791667,
          "velocity": 0.6141732283464567
        },
        {
          "duration": 0.7142849999999612,
          "durationTicks": 192,
          "midi": 45,
          "name": "A2",
          "ticks": 100992,
          "time": 307.4684414479167,
          "velocity": 0.5984251968503937
        },
        {
          "duration": 0.3571424999999522,
          "durationTicks": 96,
          "midi": 60,
          "name": "C4",
          "ticks": 101088,
          "time": 307.8255839479167,
          "velocity": 0.5433070866141733
        },
        {
          "duration": 0.357142500000009,
          "durationTicks": 96,
          "midi": 62,
          "name": "D4",
          "ticks": 101184,
          "time": 308.18272644791665,
          "velocity": 0.6141732283464567
        },
        {
          "duration": 0.714285000000018,
          "durationTicks": 192,
          "midi": 45,
          "name": "A2",
          "ticks": 101184,
          "time": 308.18272644791665,
          "velocity": 0.5905511811023622
        },
        {
          "duration": 0.357142500000009,
          "durationTicks": 96,
          "midi": 60,
          "name": "C4",
          "ticks": 101280,
          "time": 308.53986894791666,
          "velocity": 0.5354330708661418
        },
        {
          "duration": 0.357142500000009,
          "durationTicks": 96,
          "midi": 59,
          "name": "B3",
          "ticks": 101376,
          "time": 308.89701144791667,
          "velocity": 0.5669291338582677
        },
        {
          "duration": 0.357142500000009,
          "durationTicks": 96,
          "midi": 50,
          "name": "D3",
          "ticks": 101376,
          "time": 308.89701144791667,
          "velocity": 0.6299212598425197
        },
        {
          "duration": 0.357142500000009,
          "durationTicks": 96,
          "midi": 60,
          "name": "C4",
          "ticks": 101472,
          "time": 309.2541539479167,
          "velocity": 0.6141732283464567
        },
        {
          "duration": 0.357142500000009,
          "durationTicks": 96,
          "midi": 52,
          "name": "E3",
          "ticks": 101472,
          "time": 309.2541539479167,
          "velocity": 0.6220472440944882
        },
        {
          "duration": 0.7142849999999612,
          "durationTicks": 192,
          "midi": 65,
          "name": "F4",
          "ticks": 101568,
          "time": 309.6112964479167,
          "velocity": 0.6929133858267716
        },
        {
          "duration": 0.7142849999999612,
          "durationTicks": 192,
          "midi": 53,
          "name": "F3",
          "ticks": 101568,
          "time": 309.6112964479167,
          "velocity": 0.6220472440944882
        },
        {
          "duration": 0.357142500000009,
          "durationTicks": 96,
          "midi": 57,
          "name": "A3",
          "ticks": 101760,
          "time": 310.32558144791665,
          "velocity": 0.5748031496062992
        },
        {
          "duration": 0.714285000000018,
          "durationTicks": 192,
          "midi": 53,
          "name": "F3",
          "ticks": 101760,
          "time": 310.32558144791665,
          "velocity": 0.6220472440944882
        },
        {
          "duration": 0.357142500000009,
          "durationTicks": 96,
          "midi": 60,
          "name": "C4",
          "ticks": 101856,
          "time": 310.68272394791666,
          "velocity": 0.6692913385826772
        },
        {
          "duration": 0.357142500000009,
          "durationTicks": 96,
          "midi": 60,
          "name": "C4",
          "ticks": 101952,
          "time": 311.03986644791667,
          "velocity": 0.6220472440944882
        },
        {
          "duration": 0.714285000000018,
          "durationTicks": 192,
          "midi": 53,
          "name": "F3",
          "ticks": 101952,
          "time": 311.03986644791667,
          "velocity": 0.6141732283464567
        },
        {
          "duration": 0.714285000000018,
          "durationTicks": 192,
          "midi": 64,
          "name": "E4",
          "ticks": 102048,
          "time": 311.3970089479167,
          "velocity": 0.6929133858267716
        },
        {
          "duration": 0.357142500000009,
          "durationTicks": 96,
          "midi": 48,
          "name": "C3",
          "ticks": 102144,
          "time": 311.7541514479167,
          "velocity": 0.5748031496062992
        },
        {
          "duration": 0.357142500000009,
          "durationTicks": 96,
          "midi": 64,
          "name": "E4",
          "ticks": 102240,
          "time": 312.1112939479167,
          "velocity": 0.6377952755905512
        },
        {
          "duration": 0.357142500000009,
          "durationTicks": 96,
          "midi": 53,
          "name": "F3",
          "ticks": 102240,
          "time": 312.1112939479167,
          "velocity": 0.6141732283464567
        },
        {
          "duration": 0.7142849999999612,
          "durationTicks": 192,
          "midi": 59,
          "name": "B3",
          "ticks": 102336,
          "time": 312.4684364479167,
          "velocity": 0.5275590551181102
        },
        {
          "duration": 0.7142849999999612,
          "durationTicks": 192,
          "midi": 62,
          "name": "D4",
          "ticks": 102336,
          "time": 312.4684364479167,
          "velocity": 0.5275590551181102
        },
        {
          "duration": 0.7142849999999612,
          "durationTicks": 192,
          "midi": 55,
          "name": "G3",
          "ticks": 102336,
          "time": 312.4684364479167,
          "velocity": 0.6377952755905512
        },
        {
          "duration": 0.714285000000018,
          "durationTicks": 192,
          "midi": 55,
          "name": "G3",
          "ticks": 102528,
          "time": 313.18272144791666,
          "velocity": 0.5905511811023622
        },
        {
          "duration": 0.357142500000009,
          "durationTicks": 96,
          "midi": 62,
          "name": "D4",
          "ticks": 102624,
          "time": 313.5398639479167,
          "velocity": 0.5039370078740157
        },
        {
          "duration": 0.3571424999999522,
          "durationTicks": 96,
          "midi": 64,
          "name": "E4",
          "ticks": 102720,
          "time": 313.8970064479167,
          "velocity": 0.6299212598425197
        },
        {
          "duration": 0.7142849999999612,
          "durationTicks": 192,
          "midi": 55,
          "name": "G3",
          "ticks": 102720,
          "time": 313.8970064479167,
          "velocity": 0.5905511811023622
        },
        {
          "duration": 0.357142500000009,
          "durationTicks": 96,
          "midi": 62,
          "name": "D4",
          "ticks": 102816,
          "time": 314.25414894791663,
          "velocity": 0.5748031496062992
        },
        {
          "duration": 0.357142500000009,
          "durationTicks": 96,
          "midi": 61,
          "name": "C#4",
          "ticks": 102912,
          "time": 314.61129144791664,
          "velocity": 0.5275590551181102
        },
        {
          "duration": 0.357142500000009,
          "durationTicks": 96,
          "midi": 55,
          "name": "G3",
          "ticks": 102912,
          "time": 314.61129144791664,
          "velocity": 0.5984251968503937
        },
        {
          "duration": 0.357142500000009,
          "durationTicks": 96,
          "midi": 62,
          "name": "D4",
          "ticks": 103008,
          "time": 314.96843394791665,
          "velocity": 0.6614173228346457
        },
        {
          "duration": 0.357142500000009,
          "durationTicks": 96,
          "midi": 53,
          "name": "F3",
          "ticks": 103008,
          "time": 314.96843394791665,
          "velocity": 0.5590551181102362
        },
        {
          "duration": 0.714285000000018,
          "durationTicks": 192,
          "midi": 59,
          "name": "B3",
          "ticks": 103104,
          "time": 315.32557644791666,
          "velocity": 0.6771653543307087
        },
        {
          "duration": 0.714285000000018,
          "durationTicks": 192,
          "midi": 62,
          "name": "D4",
          "ticks": 103104,
          "time": 315.32557644791666,
          "velocity": 0.6771653543307087
        },
        {
          "duration": 0.714285000000018,
          "durationTicks": 192,
          "midi": 67,
          "name": "G4",
          "ticks": 103104,
          "time": 315.32557644791666,
          "velocity": 0.6771653543307087
        },
        {
          "duration": 0.714285000000018,
          "durationTicks": 192,
          "midi": 52,
          "name": "E3",
          "ticks": 103104,
          "time": 315.32557644791666,
          "velocity": 0.6062992125984252
        },
        {
          "duration": 0.357142500000009,
          "durationTicks": 96,
          "midi": 59,
          "name": "B3",
          "ticks": 103296,
          "time": 316.0398614479167,
          "velocity": 0.5354330708661418
        },
        {
          "duration": 0.714285000000018,
          "durationTicks": 192,
          "midi": 52,
          "name": "E3",
          "ticks": 103296,
          "time": 316.0398614479167,
          "velocity": 0.6141732283464567
        },
        {
          "duration": 0.357142500000009,
          "durationTicks": 96,
          "midi": 62,
          "name": "D4",
          "ticks": 103392,
          "time": 316.3970039479167,
          "velocity": 0.6614173228346457
        },
        {
          "duration": 0.3571424999999522,
          "durationTicks": 96,
          "midi": 62,
          "name": "D4",
          "ticks": 103488,
          "time": 316.7541464479167,
          "velocity": 0.6141732283464567
        },
        {
          "duration": 0.3571424999999522,
          "durationTicks": 96,
          "midi": 52,
          "name": "E3",
          "ticks": 103488,
          "time": 316.7541464479167,
          "velocity": 0.5905511811023622
        },
        {
          "duration": 0.357142500000009,
          "durationTicks": 96,
          "midi": 64,
          "name": "E4",
          "ticks": 103584,
          "time": 317.11128894791665,
          "velocity": 0.6456692913385826
        },
        {
          "duration": 0.357142500000009,
          "durationTicks": 96,
          "midi": 47,
          "name": "B2",
          "ticks": 103584,
          "time": 317.11128894791665,
          "velocity": 0.5669291338582677
        },
        {
          "duration": 0.357142500000009,
          "durationTicks": 96,
          "midi": 62,
          "name": "D4",
          "ticks": 103680,
          "time": 317.46843144791666,
          "velocity": 0.5826771653543307
        },
        {
          "duration": 0.714285000000018,
          "durationTicks": 192,
          "midi": 52,
          "name": "E3",
          "ticks": 103680,
          "time": 317.46843144791666,
          "velocity": 0.6141732283464567
        },
        {
          "duration": 0.357142500000009,
          "durationTicks": 96,
          "midi": 62,
          "name": "D4",
          "ticks": 103776,
          "time": 317.82557394791667,
          "velocity": 0.6299212598425197
        },
        {
          "duration": 0.7142849999999612,
          "durationTicks": 192,
          "midi": 60,
          "name": "C4",
          "ticks": 103872,
          "time": 318.1827164479167,
          "velocity": 0.5354330708661418
        },
        {
          "duration": 0.7142849999999612,
          "durationTicks": 192,
          "midi": 45,
          "name": "A2",
          "ticks": 103872,
          "time": 318.1827164479167,
          "velocity": 0.5511811023622047
        },
        {
          "duration": 0.714285000000018,
          "durationTicks": 192,
          "midi": 45,
          "name": "A2",
          "ticks": 104064,
          "time": 318.89700144791664,
          "velocity": 0.6141732283464567
        },
        {
          "duration": 0.357142500000009,
          "durationTicks": 96,
          "midi": 60,
          "name": "C4",
          "ticks": 104160,
          "time": 319.25414394791665,
          "velocity": 0.5433070866141733
        },
        {
          "duration": 0.357142500000009,
          "durationTicks": 96,
          "midi": 62,
          "name": "D4",
          "ticks": 104256,
          "time": 319.61128644791665,
          "velocity": 0.5905511811023622
        },
        {
          "duration": 0.714285000000018,
          "durationTicks": 192,
          "midi": 45,
          "name": "A2",
          "ticks": 104256,
          "time": 319.61128644791665,
          "velocity": 0.6377952755905512
        },
        {
          "duration": 0.357142500000009,
          "durationTicks": 96,
          "midi": 60,
          "name": "C4",
          "ticks": 104352,
          "time": 319.96842894791666,
          "velocity": 0.5826771653543307
        },
        {
          "duration": 0.357142500000009,
          "durationTicks": 96,
          "midi": 59,
          "name": "B3",
          "ticks": 104448,
          "time": 320.3255714479167,
          "velocity": 0.5984251968503937
        },
        {
          "duration": 0.714285000000018,
          "durationTicks": 192,
          "midi": 52,
          "name": "E3",
          "ticks": 104448,
          "time": 320.3255714479167,
          "velocity": 0.6692913385826772
        },
        {
          "duration": 0.357142500000009,
          "durationTicks": 96,
          "midi": 60,
          "name": "C4",
          "ticks": 104544,
          "time": 320.6827139479167,
          "velocity": 0.6141732283464567
        },
        {
          "duration": 0.7142849999999612,
          "durationTicks": 192,
          "midi": 65,
          "name": "F4",
          "ticks": 104640,
          "time": 321.0398564479167,
          "velocity": 0.6456692913385826
        },
        {
          "duration": 0.7142849999999612,
          "durationTicks": 192,
          "midi": 53,
          "name": "F3",
          "ticks": 104640,
          "time": 321.0398564479167,
          "velocity": 0.6614173228346457
        },
        {
          "duration": 0.357142500000009,
          "durationTicks": 96,
          "midi": 57,
          "name": "A3",
          "ticks": 104832,
          "time": 321.75414144791665,
          "velocity": 0.5354330708661418
        },
        {
          "duration": 0.714285000000018,
          "durationTicks": 192,
          "midi": 53,
          "name": "F3",
          "ticks": 104832,
          "time": 321.75414144791665,
          "velocity": 0.6141732283464567
        },
        {
          "duration": 0.357142500000009,
          "durationTicks": 96,
          "midi": 60,
          "name": "C4",
          "ticks": 104928,
          "time": 322.11128394791666,
          "velocity": 0.6299212598425197
        },
        {
          "duration": 0.357142500000009,
          "durationTicks": 96,
          "midi": 60,
          "name": "C4",
          "ticks": 105024,
          "time": 322.46842644791667,
          "velocity": 0.6220472440944882
        },
        {
          "duration": 0.7142849999999612,
          "durationTicks": 192,
          "midi": 53,
          "name": "F3",
          "ticks": 105024,
          "time": 322.46842644791667,
          "velocity": 0.6062992125984252
        },
        {
          "duration": 0.7142849999999612,
          "durationTicks": 192,
          "midi": 57,
          "name": "A3",
          "ticks": 105120,
          "time": 322.8255689479167,
          "velocity": 0.5984251968503937
        },
        {
          "duration": 0.357142500000009,
          "durationTicks": 96,
          "midi": 48,
          "name": "C3",
          "ticks": 105216,
          "time": 323.18271144791663,
          "velocity": 0.5275590551181102
        },
        {
          "duration": 0.357142500000009,
          "durationTicks": 96,
          "midi": 57,
          "name": "A3",
          "ticks": 105312,
          "time": 323.53985394791664,
          "velocity": 0.6141732283464567
        },
        {
          "duration": 0.357142500000009,
          "durationTicks": 96,
          "midi": 41,
          "name": "F2",
          "ticks": 105312,
          "time": 323.53985394791664,
          "velocity": 0.5039370078740157
        },
        {
          "duration": 0.714285000000018,
          "durationTicks": 192,
          "midi": 55,
          "name": "G3",
          "ticks": 105408,
          "time": 323.89699644791665,
          "velocity": 0.5905511811023622
        },
        {
          "duration": 0.714285000000018,
          "durationTicks": 192,
          "midi": 43,
          "name": "G2",
          "ticks": 105408,
          "time": 323.89699644791665,
          "velocity": 0.6141732283464567
        },
        {
          "duration": 0.714285000000018,
          "durationTicks": 192,
          "midi": 43,
          "name": "G2",
          "ticks": 105600,
          "time": 324.61128144791667,
          "velocity": 0.5905511811023622
        },
        {
          "duration": 0.357142500000009,
          "durationTicks": 96,
          "midi": 55,
          "name": "G3",
          "ticks": 105696,
          "time": 324.9684239479167,
          "velocity": 0.5354330708661418
        },
        {
          "duration": 0.357142500000009,
          "durationTicks": 96,
          "midi": 57,
          "name": "A3",
          "ticks": 105792,
          "time": 325.3255664479167,
          "velocity": 0.5984251968503937
        },
        {
          "duration": 0.7142849999999612,
          "durationTicks": 192,
          "midi": 43,
          "name": "G2",
          "ticks": 105792,
          "time": 325.3255664479167,
          "velocity": 0.6220472440944882
        },
        {
          "duration": 0.3571424999999522,
          "durationTicks": 96,
          "midi": 60,
          "name": "C4",
          "ticks": 105888,
          "time": 325.6827089479167,
          "velocity": 0.6377952755905512
        },
        {
          "duration": 0.357142500000009,
          "durationTicks": 96,
          "midi": 60,
          "name": "C4",
          "ticks": 105984,
          "time": 326.03985144791665,
          "velocity": 0.5984251968503937
        },
        {
          "duration": 0.357142500000009,
          "durationTicks": 96,
          "midi": 43,
          "name": "G2",
          "ticks": 105984,
          "time": 326.03985144791665,
          "velocity": 0.6141732283464567
        },
        {
          "duration": 0.357142500000009,
          "durationTicks": 96,
          "midi": 62,
          "name": "D4",
          "ticks": 106080,
          "time": 326.39699394791666,
          "velocity": 0.6377952755905512
        },
        {
          "duration": 0.357142500000009,
          "durationTicks": 96,
          "midi": 45,
          "name": "A2",
          "ticks": 106080,
          "time": 326.39699394791666,
          "velocity": 0.5748031496062992
        },
        {
          "duration": 0.357142500000009,
          "durationTicks": 96,
          "midi": 64,
          "name": "E4",
          "ticks": 106176,
          "time": 326.75413644791666,
          "velocity": 0.6299212598425197
        },
        {
          "duration": 0.714285000000018,
          "durationTicks": 192,
          "midi": 48,
          "name": "C3",
          "ticks": 106176,
          "time": 326.75413644791666,
          "velocity": 0.6299212598425197
        },
        {
          "duration": 0.3571424999999522,
          "durationTicks": 96,
          "midi": 69,
          "name": "A4",
          "ticks": 106368,
          "time": 327.4684214479167,
          "velocity": 0.5511811023622047
        },
        {
          "duration": 0.7142849999999612,
          "durationTicks": 192,
          "midi": 48,
          "name": "C3",
          "ticks": 106368,
          "time": 327.4684214479167,
          "velocity": 0.5748031496062992
        },
        {
          "duration": 0.357142500000009,
          "durationTicks": 96,
          "midi": 67,
          "name": "G4",
          "ticks": 106464,
          "time": 327.82556394791663,
          "velocity": 0.5275590551181102
        },
        {
          "duration": 0.714285000000018,
          "durationTicks": 192,
          "midi": 48,
          "name": "C3",
          "ticks": 106560,
          "time": 328.18270644791664,
          "velocity": 0.5984251968503937
        },
        {
          "duration": 0.357142500000009,
          "durationTicks": 96,
          "midi": 64,
          "name": "E4",
          "ticks": 106656,
          "time": 328.53984894791665,
          "velocity": 0.5433070866141733
        },
        {
          "duration": 0.357142500000009,
          "durationTicks": 96,
          "midi": 62,
          "name": "D4",
          "ticks": 106752,
          "time": 328.89699144791666,
          "velocity": 0.5669291338582677
        },
        {
          "duration": 0.357142500000009,
          "durationTicks": 96,
          "midi": 43,
          "name": "G2",
          "ticks": 106752,
          "time": 328.89699144791666,
          "velocity": 0.5590551181102362
        },
        {
          "duration": 0.357142500000009,
          "durationTicks": 96,
          "midi": 62,
          "name": "D4",
          "ticks": 106848,
          "time": 329.25413394791667,
          "velocity": 0.5433070866141733
        },
        {
          "duration": 0.357142500000009,
          "durationTicks": 96,
          "midi": 48,
          "name": "C3",
          "ticks": 106848,
          "time": 329.25413394791667,
          "velocity": 0.6456692913385826
        },
        {
          "duration": 0.714285000000018,
          "durationTicks": 192,
          "midi": 60,
          "name": "C4",
          "ticks": 106944,
          "time": 329.6112764479167,
          "velocity": 0.5905511811023622
        },
        {
          "duration": 0.714285000000018,
          "durationTicks": 192,
          "midi": 45,
          "name": "A2",
          "ticks": 106944,
          "time": 329.6112764479167,
          "velocity": 0.6141732283464567
        },
        {
          "duration": 0.7142849999999612,
          "durationTicks": 192,
          "midi": 45,
          "name": "A2",
          "ticks": 107136,
          "time": 330.3255614479167,
          "velocity": 0.5748031496062992
        },
        {
          "duration": 0.357142500000009,
          "durationTicks": 96,
          "midi": 60,
          "name": "C4",
          "ticks": 107232,
          "time": 330.68270394791665,
          "velocity": 0.5433070866141733
        },
        {
          "duration": 0.357142500000009,
          "durationTicks": 96,
          "midi": 62,
          "name": "D4",
          "ticks": 107328,
          "time": 331.03984644791666,
          "velocity": 0.6456692913385826
        },
        {
          "duration": 0.714285000000018,
          "durationTicks": 192,
          "midi": 45,
          "name": "A2",
          "ticks": 107328,
          "time": 331.03984644791666,
          "velocity": 0.6141732283464567
        },
        {
          "duration": 0.357142500000009,
          "durationTicks": 96,
          "midi": 60,
          "name": "C4",
          "ticks": 107424,
          "time": 331.39698894791667,
          "velocity": 0.5669291338582677
        },
        {
          "duration": 0.357142500000009,
          "durationTicks": 96,
          "midi": 59,
          "name": "B3",
          "ticks": 107520,
          "time": 331.7541314479167,
          "velocity": 0.6141732283464567
        },
        {
          "duration": 0.357142500000009,
          "durationTicks": 96,
          "midi": 45,
          "name": "A2",
          "ticks": 107520,
          "time": 331.7541314479167,
          "velocity": 0.5748031496062992
        },
        {
          "duration": 0.3571424999999522,
          "durationTicks": 96,
          "midi": 60,
          "name": "C4",
          "ticks": 107616,
          "time": 332.1112739479167,
          "velocity": 0.6299212598425197
        },
        {
          "duration": 0.3571424999999522,
          "durationTicks": 96,
          "midi": 52,
          "name": "E3",
          "ticks": 107616,
          "time": 332.1112739479167,
          "velocity": 0.6535433070866141
        },
        {
          "duration": 0.714285000000018,
          "durationTicks": 192,
          "midi": 65,
          "name": "F4",
          "ticks": 107712,
          "time": 332.46841644791664,
          "velocity": 0.6850393700787402
        },
        {
          "duration": 0.714285000000018,
          "durationTicks": 192,
          "midi": 53,
          "name": "F3",
          "ticks": 107712,
          "time": 332.46841644791664,
          "velocity": 0.6141732283464567
        },
        {
          "duration": 0.357142500000009,
          "durationTicks": 96,
          "midi": 57,
          "name": "A3",
          "ticks": 107904,
          "time": 333.18270144791666,
          "velocity": 0.5354330708661418
        },
        {
          "duration": 0.714285000000018,
          "durationTicks": 192,
          "midi": 53,
          "name": "F3",
          "ticks": 107904,
          "time": 333.18270144791666,
          "velocity": 0.6062992125984252
        },
        {
          "duration": 0.357142500000009,
          "durationTicks": 96,
          "midi": 60,
          "name": "C4",
          "ticks": 108000,
          "time": 333.53984394791667,
          "velocity": 0.6299212598425197
        },
        {
          "duration": 0.357142500000009,
          "durationTicks": 96,
          "midi": 60,
          "name": "C4",
          "ticks": 108096,
          "time": 333.8969864479167,
          "velocity": 0.6062992125984252
        },
        {
          "duration": 0.714285000000018,
          "durationTicks": 192,
          "midi": 53,
          "name": "F3",
          "ticks": 108096,
          "time": 333.8969864479167,
          "velocity": 0.5905511811023622
        },
        {
          "duration": 0.7142849999999612,
          "durationTicks": 192,
          "midi": 64,
          "name": "E4",
          "ticks": 108192,
          "time": 334.2541289479167,
          "velocity": 0.6692913385826772
        },
        {
          "duration": 0.3571424999999522,
          "durationTicks": 96,
          "midi": 48,
          "name": "C3",
          "ticks": 108288,
          "time": 334.6112714479167,
          "velocity": 0.5748031496062992
        },
        {
          "duration": 0.357142500000009,
          "durationTicks": 96,
          "midi": 64,
          "name": "E4",
          "ticks": 108384,
          "time": 334.96841394791664,
          "velocity": 0.6220472440944882
        },
        {
          "duration": 0.357142500000009,
          "durationTicks": 96,
          "midi": 53,
          "name": "F3",
          "ticks": 108384,
          "time": 334.96841394791664,
          "velocity": 0.6456692913385826
        },
        {
          "duration": 0.714285000000018,
          "durationTicks": 192,
          "midi": 59,
          "name": "B3",
          "ticks": 108480,
          "time": 335.32555644791665,
          "velocity": 0.5590551181102362
        },
        {
          "duration": 0.714285000000018,
          "durationTicks": 192,
          "midi": 62,
          "name": "D4",
          "ticks": 108480,
          "time": 335.32555644791665,
          "velocity": 0.5590551181102362
        },
        {
          "duration": 0.714285000000018,
          "durationTicks": 192,
          "midi": 55,
          "name": "G3",
          "ticks": 108480,
          "time": 335.32555644791665,
          "velocity": 0.5984251968503937
        },
        {
          "duration": 0.7142849999999612,
          "durationTicks": 192,
          "midi": 55,
          "name": "G3",
          "ticks": 108672,
          "time": 336.0398414479167,
          "velocity": 0.5748031496062992
        },
        {
          "duration": 0.3571424999999522,
          "durationTicks": 96,
          "midi": 62,
          "name": "D4",
          "ticks": 108768,
          "time": 336.3969839479167,
          "velocity": 0.5196850393700787
        },
        {
          "duration": 0.357142500000009,
          "durationTicks": 96,
          "midi": 64,
          "name": "E4",
          "ticks": 108864,
          "time": 336.75412644791663,
          "velocity": 0.6299212598425197
        },
        {
          "duration": 0.357142500000009,
          "durationTicks": 96,
          "midi": 55,
          "name": "G3",
          "ticks": 108864,
          "time": 336.75412644791663,
          "velocity": 0.5905511811023622
        },
        {
          "duration": 0.357142500000009,
          "durationTicks": 96,
          "midi": 62,
          "name": "D4",
          "ticks": 108960,
          "time": 337.11126894791664,
          "velocity": 0.5511811023622047
        },
        {
          "duration": 0.357142500000009,
          "durationTicks": 96,
          "midi": 53,
          "name": "F3",
          "ticks": 108960,
          "time": 337.11126894791664,
          "velocity": 0.5669291338582677
        },
        {
          "duration": 0.357142500000009,
          "durationTicks": 96,
          "midi": 61,
          "name": "C#4",
          "ticks": 109056,
          "time": 337.46841144791665,
          "velocity": 0.5433070866141733
        },
        {
          "duration": 0.714285000000018,
          "durationTicks": 192,
          "midi": 52,
          "name": "E3",
          "ticks": 109056,
          "time": 337.46841144791665,
          "velocity": 0.5905511811023622
        },
        {
          "duration": 0.357142500000009,
          "durationTicks": 96,
          "midi": 62,
          "name": "D4",
          "ticks": 109152,
          "time": 337.82555394791666,
          "velocity": 0.6456692913385826
        },
        {
          "duration": 0.714285000000018,
          "durationTicks": 192,
          "midi": 59,
          "name": "B3",
          "ticks": 109248,
          "time": 338.18269644791667,
          "velocity": 0.6771653543307087
        },
        {
          "duration": 0.714285000000018,
          "durationTicks": 192,
          "midi": 62,
          "name": "D4",
          "ticks": 109248,
          "time": 338.18269644791667,
          "velocity": 0.6771653543307087
        },
        {
          "duration": 0.714285000000018,
          "durationTicks": 192,
          "midi": 67,
          "name": "G4",
          "ticks": 109248,
          "time": 338.18269644791667,
          "velocity": 0.6771653543307087
        },
        {
          "duration": 0.714285000000018,
          "durationTicks": 192,
          "midi": 52,
          "name": "E3",
          "ticks": 109248,
          "time": 338.18269644791667,
          "velocity": 0.6062992125984252
        },
        {
          "duration": 0.357142500000009,
          "durationTicks": 96,
          "midi": 59,
          "name": "B3",
          "ticks": 109440,
          "time": 338.8969814479167,
          "velocity": 0.5511811023622047
        },
        {
          "duration": 0.7142849999999612,
          "durationTicks": 192,
          "midi": 52,
          "name": "E3",
          "ticks": 109440,
          "time": 338.8969814479167,
          "velocity": 0.6062992125984252
        },
        {
          "duration": 0.3571424999999522,
          "durationTicks": 96,
          "midi": 62,
          "name": "D4",
          "ticks": 109536,
          "time": 339.2541239479167,
          "velocity": 0.6220472440944882
        },
        {
          "duration": 0.357142500000009,
          "durationTicks": 96,
          "midi": 62,
          "name": "D4",
          "ticks": 109632,
          "time": 339.61126644791665,
          "velocity": 0.6456692913385826
        },
        {
          "duration": 0.714285000000018,
          "durationTicks": 192,
          "midi": 52,
          "name": "E3",
          "ticks": 109632,
          "time": 339.61126644791665,
          "velocity": 0.6141732283464567
        },
        {
          "duration": 0.357142500000009,
          "durationTicks": 96,
          "midi": 64,
          "name": "E4",
          "ticks": 109728,
          "time": 339.96840894791666,
          "velocity": 0.6535433070866141
        },
        {
          "duration": 0.357142500000009,
          "durationTicks": 96,
          "midi": 62,
          "name": "D4",
          "ticks": 109824,
          "time": 340.32555144791667,
          "velocity": 0.5748031496062992
        },
        {
          "duration": 0.357142500000009,
          "durationTicks": 96,
          "midi": 47,
          "name": "B2",
          "ticks": 109824,
          "time": 340.32555144791667,
          "velocity": 0.5511811023622047
        },
        {
          "duration": 0.357142500000009,
          "durationTicks": 96,
          "midi": 62,
          "name": "D4",
          "ticks": 109920,
          "time": 340.6826939479167,
          "velocity": 0.6062992125984252
        },
        {
          "duration": 0.357142500000009,
          "durationTicks": 96,
          "midi": 52,
          "name": "E3",
          "ticks": 109920,
          "time": 340.6826939479167,
          "velocity": 0.6535433070866141
        },
        {
          "duration": 0.7142849999999612,
          "durationTicks": 192,
          "midi": 60,
          "name": "C4",
          "ticks": 110016,
          "time": 341.0398364479167,
          "velocity": 0.5826771653543307
        },
        {
          "duration": 0.7142849999999612,
          "durationTicks": 192,
          "midi": 45,
          "name": "A2",
          "ticks": 110016,
          "time": 341.0398364479167,
          "velocity": 0.5511811023622047
        },
        {
          "duration": 0.714285000000018,
          "durationTicks": 192,
          "midi": 45,
          "name": "A2",
          "ticks": 110208,
          "time": 341.75412144791665,
          "velocity": 0.6614173228346457
        },
        {
          "duration": 0.357142500000009,
          "durationTicks": 96,
          "midi": 60,
          "name": "C4",
          "ticks": 110304,
          "time": 342.11126394791665,
          "velocity": 0.5039370078740157
        },
        {
          "duration": 0.357142500000009,
          "durationTicks": 96,
          "midi": 62,
          "name": "D4",
          "ticks": 110400,
          "time": 342.46840644791666,
          "velocity": 0.5984251968503937
        },
        {
          "duration": 0.714285000000018,
          "durationTicks": 192,
          "midi": 45,
          "name": "A2",
          "ticks": 110400,
          "time": 342.46840644791666,
          "velocity": 0.5905511811023622
        },
        {
          "duration": 0.357142500000009,
          "durationTicks": 96,
          "midi": 60,
          "name": "C4",
          "ticks": 110496,
          "time": 342.8255489479167,
          "velocity": 0.5669291338582677
        },
        {
          "duration": 0.357142500000009,
          "durationTicks": 96,
          "midi": 59,
          "name": "B3",
          "ticks": 110592,
          "time": 343.1826914479167,
          "velocity": 0.5984251968503937
        },
        {
          "duration": 0.357142500000009,
          "durationTicks": 96,
          "midi": 52,
          "name": "E3",
          "ticks": 110592,
          "time": 343.1826914479167,
          "velocity": 0.6456692913385826
        },
        {
          "duration": 0.357142500000009,
          "durationTicks": 96,
          "midi": 60,
          "name": "C4",
          "ticks": 110688,
          "time": 343.5398339479167,
          "velocity": 0.6377952755905512
        },
        {
          "duration": 0.357142500000009,
          "durationTicks": 96,
          "midi": 45,
          "name": "A2",
          "ticks": 110688,
          "time": 343.5398339479167,
          "velocity": 0.5511811023622047
        },
        {
          "duration": 0.7142849999999612,
          "durationTicks": 192,
          "midi": 65,
          "name": "F4",
          "ticks": 110784,
          "time": 343.8969764479167,
          "velocity": 0.7007874015748031
        },
        {
          "duration": 0.7142849999999612,
          "durationTicks": 192,
          "midi": 53,
          "name": "F3",
          "ticks": 110784,
          "time": 343.8969764479167,
          "velocity": 0.6141732283464567
        },
        {
          "duration": 0.357142500000009,
          "durationTicks": 96,
          "midi": 57,
          "name": "A3",
          "ticks": 110976,
          "time": 344.61126144791666,
          "velocity": 0.5590551181102362
        },
        {
          "duration": 0.357142500000009,
          "durationTicks": 96,
          "midi": 48,
          "name": "C3",
          "ticks": 110976,
          "time": 344.61126144791666,
          "velocity": 0.6062992125984252
        },
        {
          "duration": 0.357142500000009,
          "durationTicks": 96,
          "midi": 60,
          "name": "C4",
          "ticks": 111072,
          "time": 344.96840394791667,
          "velocity": 0.6456692913385826
        },
        {
          "duration": 0.357142500000009,
          "durationTicks": 96,
          "midi": 53,
          "name": "F3",
          "ticks": 111072,
          "time": 344.96840394791667,
          "velocity": 0.6299212598425197
        },
        {
          "duration": 0.3571424999999522,
          "durationTicks": 96,
          "midi": 60,
          "name": "C4",
          "ticks": 111168,
          "time": 345.3255464479167,
          "velocity": 0.6614173228346457
        },
        {
          "duration": 1.4285699999999792,
          "durationTicks": 384,
          "midi": 55,
          "name": "G3",
          "ticks": 111168,
          "time": 345.3255464479167,
          "velocity": 0.6141732283464567
        },
        {
          "duration": 0.714285000000018,
          "durationTicks": 192,
          "midi": 62,
          "name": "D4",
          "ticks": 111264,
          "time": 345.68268894791663,
          "velocity": 0.6850393700787402
        },
        {
          "duration": 0.357142500000009,
          "durationTicks": 96,
          "midi": 62,
          "name": "D4",
          "ticks": 111456,
          "time": 346.39697394791665,
          "velocity": 0.5748031496062992
        },
        {
          "duration": 0.357142500000009,
          "durationTicks": 96,
          "midi": 60,
          "name": "C4",
          "ticks": 111552,
          "time": 346.75411644791666,
          "velocity": 0.6929133858267716
        },
        {
          "duration": 0.357142500000009,
          "durationTicks": 96,
          "midi": 67,
          "name": "G4",
          "ticks": 111552,
          "time": 346.75411644791666,
          "velocity": 0.6929133858267716
        },
        {
          "duration": 0.357142500000009,
          "durationTicks": 96,
          "midi": 41,
          "name": "F2",
          "ticks": 111552,
          "time": 346.75411644791666,
          "velocity": 0.5039370078740157
        },
        {
          "duration": 0.357142500000009,
          "durationTicks": 96,
          "midi": 57,
          "name": "A3",
          "ticks": 111648,
          "time": 347.11125894791667,
          "velocity": 0.5039370078740157
        },
        {
          "duration": 0.357142500000009,
          "durationTicks": 96,
          "midi": 60,
          "name": "C4",
          "ticks": 111648,
          "time": 347.11125894791667,
          "velocity": 0.5039370078740157
        },
        {
          "duration": 0.357142500000009,
          "durationTicks": 96,
          "midi": 52,
          "name": "E3",
          "ticks": 111648,
          "time": 347.11125894791667,
          "velocity": 0.6929133858267716
        },
        {
          "duration": 0.357142500000009,
          "durationTicks": 96,
          "midi": 57,
          "name": "A3",
          "ticks": 111744,
          "time": 347.4684014479167,
          "velocity": 0.6062992125984252
        },
        {
          "duration": 0.357142500000009,
          "durationTicks": 96,
          "midi": 60,
          "name": "C4",
          "ticks": 111744,
          "time": 347.4684014479167,
          "velocity": 0.6062992125984252
        },
        {
          "duration": 0.357142500000009,
          "durationTicks": 96,
          "midi": 41,
          "name": "F2",
          "ticks": 111744,
          "time": 347.4684014479167,
          "velocity": 0.5118110236220472
        },
        {
          "duration": 0.357142500000009,
          "durationTicks": 96,
          "midi": 57,
          "name": "A3",
          "ticks": 111840,
          "time": 347.8255439479167,
          "velocity": 0.5984251968503937
        },
        {
          "duration": 0.357142500000009,
          "durationTicks": 96,
          "midi": 60,
          "name": "C4",
          "ticks": 111840,
          "time": 347.8255439479167,
          "velocity": 0.5984251968503937
        },
        {
          "duration": 0.357142500000009,
          "durationTicks": 96,
          "midi": 53,
          "name": "F3",
          "ticks": 111840,
          "time": 347.8255439479167,
          "velocity": 0.6692913385826772
        },
        {
          "duration": 0.3571424999999522,
          "durationTicks": 96,
          "midi": 55,
          "name": "G3",
          "ticks": 111936,
          "time": 348.1826864479167,
          "velocity": 0.6456692913385826
        },
        {
          "duration": 0.3571424999999522,
          "durationTicks": 96,
          "midi": 62,
          "name": "D4",
          "ticks": 111936,
          "time": 348.1826864479167,
          "velocity": 0.6456692913385826
        },
        {
          "duration": 0.3571424999999522,
          "durationTicks": 96,
          "midi": 41,
          "name": "F2",
          "ticks": 111936,
          "time": 348.1826864479167,
          "velocity": 0.5039370078740157
        },
        {
          "duration": 0.1785712500000045,
          "durationTicks": 48,
          "midi": 55,
          "name": "G3",
          "ticks": 112032,
          "time": 348.53982894791665,
          "velocity": 0.5826771653543307
        },
        {
          "duration": 0.1785712500000045,
          "durationTicks": 48,
          "midi": 60,
          "name": "C4",
          "ticks": 112032,
          "time": 348.53982894791665,
          "velocity": 0.5826771653543307
        },
        {
          "duration": 0.357142500000009,
          "durationTicks": 96,
          "midi": 52,
          "name": "E3",
          "ticks": 112032,
          "time": 348.53982894791665,
          "velocity": 0.6771653543307087
        },
        {
          "duration": 0.1785712500000045,
          "durationTicks": 48,
          "midi": 55,
          "name": "G3",
          "ticks": 112080,
          "time": 348.71840019791665,
          "velocity": 0.5826771653543307
        },
        {
          "duration": 0.8928562500000226,
          "durationTicks": 240,
          "midi": 60,
          "name": "C4",
          "ticks": 112080,
          "time": 348.71840019791665,
          "velocity": 0.5826771653543307
        },
        {
          "duration": 0.714285000000018,
          "durationTicks": 192,
          "midi": 57,
          "name": "A3",
          "ticks": 112128,
          "time": 348.89697144791666,
          "velocity": 0.5590551181102362
        },
        {
          "duration": 0.357142500000009,
          "durationTicks": 96,
          "midi": 53,
          "name": "F3",
          "ticks": 112128,
          "time": 348.89697144791666,
          "velocity": 0.5826771653543307
        },
        {
          "duration": 0.357142500000009,
          "durationTicks": 96,
          "midi": 52,
          "name": "E3",
          "ticks": 112224,
          "time": 349.25411394791666,
          "velocity": 0.5590551181102362
        },
        {
          "duration": 0.357142500000009,
          "durationTicks": 96,
          "midi": 50,
          "name": "D3",
          "ticks": 112320,
          "time": 349.6112564479167,
          "velocity": 0.6535433070866141
        },
        {
          "duration": 0.357142500000009,
          "durationTicks": 96,
          "midi": 53,
          "name": "F3",
          "ticks": 112320,
          "time": 349.6112564479167,
          "velocity": 0.6535433070866141
        },
        {
          "duration": 0.3571424999999522,
          "durationTicks": 96,
          "midi": 62,
          "name": "D4",
          "ticks": 112416,
          "time": 349.9683989479167,
          "velocity": 0.5433070866141733
        },
        {
          "duration": 0.3571424999999522,
          "durationTicks": 96,
          "midi": 57,
          "name": "A3",
          "ticks": 112416,
          "time": 349.9683989479167,
          "velocity": 0.6299212598425197
        },
        {
          "duration": 0.357142500000009,
          "durationTicks": 96,
          "midi": 62,
          "name": "D4",
          "ticks": 112512,
          "time": 350.32554144791663,
          "velocity": 0.6220472440944882
        },
        {
          "duration": 0.357142500000009,
          "durationTicks": 96,
          "midi": 50,
          "name": "D3",
          "ticks": 112512,
          "time": 350.32554144791663,
          "velocity": 0.5748031496062992
        },
        {
          "duration": 0.357142500000009,
          "durationTicks": 96,
          "midi": 60,
          "name": "C4",
          "ticks": 112608,
          "time": 350.68268394791664,
          "velocity": 0.5590551181102362
        },
        {
          "duration": 0.357142500000009,
          "durationTicks": 96,
          "midi": 57,
          "name": "A3",
          "ticks": 112608,
          "time": 350.68268394791664,
          "velocity": 0.6692913385826772
        },
        {
          "duration": 0.714285000000018,
          "durationTicks": 192,
          "midi": 62,
          "name": "D4",
          "ticks": 112704,
          "time": 351.03982644791665,
          "velocity": 0.6220472440944882
        },
        {
          "duration": 0.357142500000009,
          "durationTicks": 96,
          "midi": 50,
          "name": "D3",
          "ticks": 112704,
          "time": 351.03982644791665,
          "velocity": 0.5590551181102362
        },
        {
          "duration": 0.357142500000009,
          "durationTicks": 96,
          "midi": 53,
          "name": "F3",
          "ticks": 112704,
          "time": 351.03982644791665,
          "velocity": 0.5590551181102362
        },
        {
          "duration": 0.357142500000009,
          "durationTicks": 96,
          "midi": 57,
          "name": "A3",
          "ticks": 112800,
          "time": 351.39696894791666,
          "velocity": 0.6299212598425197
        },
        {
          "duration": 0.714285000000018,
          "durationTicks": 192,
          "midi": 65,
          "name": "F4",
          "ticks": 112896,
          "time": 351.75411144791667,
          "velocity": 0.6377952755905512
        },
        {
          "duration": 0.357142500000009,
          "durationTicks": 96,
          "midi": 50,
          "name": "D3",
          "ticks": 112896,
          "time": 351.75411144791667,
          "velocity": 0.5590551181102362
        },
        {
          "duration": 0.357142500000009,
          "durationTicks": 96,
          "midi": 57,
          "name": "A3",
          "ticks": 112992,
          "time": 352.1112539479167,
          "velocity": 0.6141732283464567
        },
        {
          "duration": 0.357142500000009,
          "durationTicks": 96,
          "midi": 51,
          "name": "D#3",
          "ticks": 113088,
          "time": 352.4683964479167,
          "velocity": 0.5826771653543307
        },
        {
          "duration": 0.357142500000009,
          "durationTicks": 96,
          "midi": 55,
          "name": "G3",
          "ticks": 113088,
          "time": 352.4683964479167,
          "velocity": 0.5826771653543307
        },
        {
          "duration": 0.3571424999999522,
          "durationTicks": 96,
          "midi": 67,
          "name": "G4",
          "ticks": 113184,
          "time": 352.8255389479167,
          "velocity": 0.5511811023622047
        },
        {
          "duration": 0.3571424999999522,
          "durationTicks": 96,
          "midi": 58,
          "name": "A#3",
          "ticks": 113184,
          "time": 352.8255389479167,
          "velocity": 0.6062992125984252
        },
        {
          "duration": 0.357142500000009,
          "durationTicks": 96,
          "midi": 67,
          "name": "G4",
          "ticks": 113280,
          "time": 353.18268144791665,
          "velocity": 0.5748031496062992
        },
        {
          "duration": 0.357142500000009,
          "durationTicks": 96,
          "midi": 51,
          "name": "D#3",
          "ticks": 113280,
          "time": 353.18268144791665,
          "velocity": 0.5433070866141733
        },
        {
          "duration": 0.357142500000009,
          "durationTicks": 96,
          "midi": 67,
          "name": "G4",
          "ticks": 113376,
          "time": 353.53982394791666,
          "velocity": 0.5905511811023622
        },
        {
          "duration": 0.357142500000009,
          "durationTicks": 96,
          "midi": 58,
          "name": "A#3",
          "ticks": 113376,
          "time": 353.53982394791666,
          "velocity": 0.6299212598425197
        },
        {
          "duration": 0.7142849999999612,
          "durationTicks": 192,
          "midi": 69,
          "name": "A4",
          "ticks": 113472,
          "time": 353.89696644791667,
          "velocity": 0.6535433070866141
        },
        {
          "duration": 0.357142500000009,
          "durationTicks": 96,
          "midi": 51,
          "name": "D#3",
          "ticks": 113472,
          "time": 353.89696644791667,
          "velocity": 0.5590551181102362
        },
        {
          "duration": 0.357142500000009,
          "durationTicks": 96,
          "midi": 55,
          "name": "G3",
          "ticks": 113472,
          "time": 353.89696644791667,
          "velocity": 0.5590551181102362
        },
        {
          "duration": 0.3571424999999522,
          "durationTicks": 96,
          "midi": 58,
          "name": "A#3",
          "ticks": 113568,
          "time": 354.2541089479167,
          "velocity": 0.6377952755905512
        },
        {
          "duration": 0.714285000000018,
          "durationTicks": 192,
          "midi": 67,
          "name": "G4",
          "ticks": 113664,
          "time": 354.61125144791663,
          "velocity": 0.5354330708661418
        },
        {
          "duration": 0.357142500000009,
          "durationTicks": 96,
          "midi": 51,
          "name": "D#3",
          "ticks": 113664,
          "time": 354.61125144791663,
          "velocity": 0.5590551181102362
        },
        {
          "duration": 0.357142500000009,
          "durationTicks": 96,
          "midi": 58,
          "name": "A#3",
          "ticks": 113760,
          "time": 354.96839394791664,
          "velocity": 0.6299212598425197
        },
        {
          "duration": 0.357142500000009,
          "durationTicks": 96,
          "midi": 58,
          "name": "A#3",
          "ticks": 113856,
          "time": 355.32553644791665,
          "velocity": 0.4645669291338583
        },
        {
          "duration": 0.357142500000009,
          "durationTicks": 96,
          "midi": 62,
          "name": "D4",
          "ticks": 113856,
          "time": 355.32553644791665,
          "velocity": 0.4645669291338583
        },
        {
          "duration": 0.357142500000009,
          "durationTicks": 96,
          "midi": 55,
          "name": "G3",
          "ticks": 113856,
          "time": 355.32553644791665,
          "velocity": 0.5984251968503937
        },
        {
          "duration": 0.357142500000009,
          "durationTicks": 96,
          "midi": 58,
          "name": "A#3",
          "ticks": 113952,
          "time": 355.68267894791666,
          "velocity": 0.6062992125984252
        },
        {
          "duration": 0.357142500000009,
          "durationTicks": 96,
          "midi": 62,
          "name": "D4",
          "ticks": 113952,
          "time": 355.68267894791666,
          "velocity": 0.6062992125984252
        },
        {
          "duration": 0.357142500000009,
          "durationTicks": 96,
          "midi": 65,
          "name": "F4",
          "ticks": 113952,
          "time": 355.68267894791666,
          "velocity": 0.6062992125984252
        },
        {
          "duration": 0.357142500000009,
          "durationTicks": 96,
          "midi": 55,
          "name": "G3",
          "ticks": 113952,
          "time": 355.68267894791666,
          "velocity": 0.6220472440944882
        },
        {
          "duration": 0.357142500000009,
          "durationTicks": 96,
          "midi": 58,
          "name": "A#3",
          "ticks": 114048,
          "time": 356.03982144791667,
          "velocity": 0.5984251968503937
        },
        {
          "duration": 0.357142500000009,
          "durationTicks": 96,
          "midi": 62,
          "name": "D4",
          "ticks": 114048,
          "time": 356.03982144791667,
          "velocity": 0.5984251968503937
        },
        {
          "duration": 0.357142500000009,
          "durationTicks": 96,
          "midi": 65,
          "name": "F4",
          "ticks": 114048,
          "time": 356.03982144791667,
          "velocity": 0.5984251968503937
        },
        {
          "duration": 0.357142500000009,
          "durationTicks": 96,
          "midi": 48,
          "name": "C3",
          "ticks": 114048,
          "time": 356.03982144791667,
          "velocity": 0.5511811023622047
        },
        {
          "duration": 0.1785712500000045,
          "durationTicks": 48,
          "midi": 67,
          "name": "G4",
          "ticks": 114144,
          "time": 356.3969639479167,
          "velocity": 0.6377952755905512
        },
        {
          "duration": 0.357142500000009,
          "durationTicks": 96,
          "midi": 55,
          "name": "G3",
          "ticks": 114144,
          "time": 356.3969639479167,
          "velocity": 0.5905511811023622
        },
        {
          "duration": 0.8928562499999657,
          "durationTicks": 240,
          "midi": 57,
          "name": "A3",
          "ticks": 114192,
          "time": 356.5755351979167,
          "velocity": 0.5511811023622047
        },
        {
          "duration": 0.8928562499999657,
          "durationTicks": 240,
          "midi": 60,
          "name": "C4",
          "ticks": 114192,
          "time": 356.5755351979167,
          "velocity": 0.5511811023622047
        },
        {
          "duration": 0.8928562499999657,
          "durationTicks": 240,
          "midi": 65,
          "name": "F4",
          "ticks": 114192,
          "time": 356.5755351979167,
          "velocity": 0.5511811023622047
        },
        {
          "duration": 0.7142849999999612,
          "durationTicks": 192,
          "midi": 53,
          "name": "F3",
          "ticks": 114240,
          "time": 356.7541064479167,
          "velocity": 0.5905511811023622
        },
        {
          "duration": 0.357142500000009,
          "durationTicks": 96,
          "midi": 58,
          "name": "A#3",
          "ticks": 114432,
          "time": 357.46839144791664,
          "velocity": 0.6062992125984252
        },
        {
          "duration": 0.357142500000009,
          "durationTicks": 96,
          "midi": 62,
          "name": "D4",
          "ticks": 114432,
          "time": 357.46839144791664,
          "velocity": 0.6062992125984252
        },
        {
          "duration": 0.357142500000009,
          "durationTicks": 96,
          "midi": 65,
          "name": "F4",
          "ticks": 114432,
          "time": 357.46839144791664,
          "velocity": 0.6062992125984252
        },
        {
          "duration": 0.357142500000009,
          "durationTicks": 96,
          "midi": 46,
          "name": "A#2",
          "ticks": 114432,
          "time": 357.46839144791664,
          "velocity": 0.5748031496062992
        },
        {
          "duration": 0.357142500000009,
          "durationTicks": 96,
          "midi": 60,
          "name": "C4",
          "ticks": 114528,
          "time": 357.82553394791665,
          "velocity": 0.6299212598425197
        },
        {
          "duration": 0.357142500000009,
          "durationTicks": 96,
          "midi": 64,
          "name": "E4",
          "ticks": 114528,
          "time": 357.82553394791665,
          "velocity": 0.6299212598425197
        },
        {
          "duration": 0.357142500000009,
          "durationTicks": 96,
          "midi": 67,
          "name": "G4",
          "ticks": 114528,
          "time": 357.82553394791665,
          "velocity": 0.6299212598425197
        },
        {
          "duration": 0.357142500000009,
          "durationTicks": 96,
          "midi": 41,
          "name": "F2",
          "ticks": 114528,
          "time": 357.82553394791665,
          "velocity": 0.5590551181102362
        },
        {
          "duration": 1.458331874999999,
          "durationTicks": 392,
          "midi": 64,
          "name": "E4",
          "ticks": 114624,
          "time": 358.18267644791666,
          "velocity": 0.6141732283464567
        },
        {
          "duration": 1.4285699999999792,
          "durationTicks": 384,
          "midi": 69,
          "name": "A4",
          "ticks": 114624,
          "time": 358.18267644791666,
          "velocity": 0.6141732283464567
        },
        {
          "duration": 0.357142500000009,
          "durationTicks": 96,
          "midi": 41,
          "name": "F2",
          "ticks": 114624,
          "time": 358.18267644791666,
          "velocity": 0.6141732283464567
        },
        {
          "duration": 0.357142500000009,
          "durationTicks": 96,
          "midi": 53,
          "name": "F3",
          "ticks": 114720,
          "time": 358.5398189479167,
          "velocity": 0.6771653543307087
        },
        {
          "duration": 0.3571424999999522,
          "durationTicks": 96,
          "midi": 41,
          "name": "F2",
          "ticks": 114816,
          "time": 358.8969614479167,
          "velocity": 0.5196850393700787
        },
        {
          "duration": 0.357142500000009,
          "durationTicks": 96,
          "midi": 53,
          "name": "F3",
          "ticks": 114912,
          "time": 359.25410394791663,
          "velocity": 0.6692913385826772
        },
        {
          "duration": 0.677082656250036,
          "durationTicks": 182,
          "midi": 67,
          "name": "G4",
          "ticks": 115008,
          "time": 359.61124644791664,
          "velocity": 0.6141732283464567
        },
        {
          "duration": 0.677082656250036,
          "durationTicks": 182,
          "midi": 69,
          "name": "A4",
          "ticks": 115008,
          "time": 359.61124644791664,
          "velocity": 0.6141732283464567
        },
        {
          "duration": 0.357142500000009,
          "durationTicks": 96,
          "midi": 41,
          "name": "F2",
          "ticks": 115008,
          "time": 359.61124644791664,
          "velocity": 0.5433070866141733
        },
        {
          "duration": 0.357142500000009,
          "durationTicks": 96,
          "midi": 53,
          "name": "F3",
          "ticks": 115104,
          "time": 359.96838894791665,
          "velocity": 0.6850393700787402
        },
        {
          "duration": 0.1785712500000045,
          "durationTicks": 48,
          "midi": 65,
          "name": "F4",
          "ticks": 115200,
          "time": 360.32553144791666,
          "velocity": 0.5905511811023622
        },
        {
          "duration": 0.1785712500000045,
          "durationTicks": 48,
          "midi": 69,
          "name": "A4",
          "ticks": 115200,
          "time": 360.32553144791666,
          "velocity": 0.5905511811023622
        },
        {
          "duration": 0.357142500000009,
          "durationTicks": 96,
          "midi": 41,
          "name": "F2",
          "ticks": 115200,
          "time": 360.32553144791666,
          "velocity": 0.5039370078740157
        },
        {
          "duration": 0.1785712500000045,
          "durationTicks": 48,
          "midi": 67,
          "name": "G4",
          "ticks": 115248,
          "time": 360.50410269791666,
          "velocity": 0.5511811023622047
        },
        {
          "duration": 0.357142500000009,
          "durationTicks": 96,
          "midi": 65,
          "name": "F4",
          "ticks": 115296,
          "time": 360.68267394791667,
          "velocity": 0.5511811023622047
        },
        {
          "duration": 0.357142500000009,
          "durationTicks": 96,
          "midi": 53,
          "name": "F3",
          "ticks": 115296,
          "time": 360.68267394791667,
          "velocity": 0.6692913385826772
        },
        {
          "duration": 1.4285699999999792,
          "durationTicks": 384,
          "midi": 62,
          "name": "D4",
          "ticks": 115392,
          "time": 361.0398164479167,
          "velocity": 0.6535433070866141
        },
        {
          "duration": 2.1428549999999973,
          "durationTicks": 576,
          "midi": 67,
          "name": "G4",
          "ticks": 115392,
          "time": 361.0398164479167,
          "velocity": 0.6535433070866141
        },
        {
          "duration": 0.357142500000009,
          "durationTicks": 96,
          "midi": 46,
          "name": "A#2",
          "ticks": 115392,
          "time": 361.0398164479167,
          "velocity": 0.5511811023622047
        },
        {
          "duration": 0.357142500000009,
          "durationTicks": 96,
          "midi": 58,
          "name": "A#3",
          "ticks": 115488,
          "time": 361.3969589479167,
          "velocity": 0.6850393700787402
        },
        {
          "duration": 0.3571424999999522,
          "durationTicks": 96,
          "midi": 46,
          "name": "A#2",
          "ticks": 115584,
          "time": 361.7541014479167,
          "velocity": 0.5196850393700787
        },
        {
          "duration": 0.357142500000009,
          "durationTicks": 96,
          "midi": 58,
          "name": "A#3",
          "ticks": 115680,
          "time": 362.11124394791665,
          "velocity": 0.6456692913385826
        },
        {
          "duration": 0.714285000000018,
          "durationTicks": 192,
          "midi": 58,
          "name": "A#3",
          "ticks": 115776,
          "time": 362.46838644791666,
          "velocity": 0.6535433070866141
        },
        {
          "duration": 0.714285000000018,
          "durationTicks": 192,
          "midi": 62,
          "name": "D4",
          "ticks": 115776,
          "time": 362.46838644791666,
          "velocity": 0.6535433070866141
        },
        {
          "duration": 0.714285000000018,
          "durationTicks": 192,
          "midi": 65,
          "name": "F4",
          "ticks": 115776,
          "time": 362.46838644791666,
          "velocity": 0.6535433070866141
        },
        {
          "duration": 0.357142500000009,
          "durationTicks": 96,
          "midi": 48,
          "name": "C3",
          "ticks": 115776,
          "time": 362.46838644791666,
          "velocity": 0.5590551181102362
        },
        {
          "duration": 0.357142500000009,
          "durationTicks": 96,
          "midi": 60,
          "name": "C4",
          "ticks": 115872,
          "time": 362.82552894791667,
          "velocity": 0.7559055118110236
        },
        {
          "duration": 0.357142500000009,
          "durationTicks": 96,
          "midi": 64,
          "name": "E4",
          "ticks": 115968,
          "time": 363.1826714479167,
          "velocity": 0.6062992125984252
        },
        {
          "duration": 0.357142500000009,
          "durationTicks": 96,
          "midi": 69,
          "name": "A4",
          "ticks": 115968,
          "time": 363.1826714479167,
          "velocity": 0.6062992125984252
        },
        {
          "duration": 0.357142500000009,
          "durationTicks": 96,
          "midi": 48,
          "name": "C3",
          "ticks": 115968,
          "time": 363.1826714479167,
          "velocity": 0.5511811023622047
        },
        {
          "duration": 0.3571424999999522,
          "durationTicks": 96,
          "midi": 67,
          "name": "G4",
          "ticks": 116064,
          "time": 363.5398139479167,
          "velocity": 0.5748031496062992
        },
        {
          "duration": 0.3571424999999522,
          "durationTicks": 96,
          "midi": 49,
          "name": "C#3",
          "ticks": 116064,
          "time": 363.5398139479167,
          "velocity": 0.5984251968503937
        },
        {
          "duration": 1.428570000000036,
          "durationTicks": 384,
          "midi": 62,
          "name": "D4",
          "ticks": 116160,
          "time": 363.89695644791664,
          "velocity": 0.5669291338582677
        },
        {
          "duration": 2.142855000000054,
          "durationTicks": 576,
          "midi": 65,
          "name": "F4",
          "ticks": 116160,
          "time": 363.89695644791664,
          "velocity": 0.5669291338582677
        },
        {
          "duration": 0.357142500000009,
          "durationTicks": 96,
          "midi": 50,
          "name": "D3",
          "ticks": 116160,
          "time": 363.89695644791664,
          "velocity": 0.6299212598425197
        },
        {
          "duration": 0.357142500000009,
          "durationTicks": 96,
          "midi": 57,
          "name": "A3",
          "ticks": 116256,
          "time": 364.25409894791665,
          "velocity": 0.6535433070866141
        },
        {
          "duration": 0.357142500000009,
          "durationTicks": 96,
          "midi": 50,
          "name": "D3",
          "ticks": 116352,
          "time": 364.61124144791665,
          "velocity": 0.5354330708661418
        },
        {
          "duration": 0.357142500000009,
          "durationTicks": 96,
          "midi": 57,
          "name": "A3",
          "ticks": 116448,
          "time": 364.96838394791666,
          "velocity": 0.6614173228346457
        },
        {
          "duration": 0.714285000000018,
          "durationTicks": 192,
          "midi": 60,
          "name": "C4",
          "ticks": 116544,
          "time": 365.3255264479167,
          "velocity": 0.5590551181102362
        },
        {
          "duration": 0.714285000000018,
          "durationTicks": 192,
          "midi": 64,
          "name": "E4",
          "ticks": 116544,
          "time": 365.3255264479167,
          "velocity": 0.5590551181102362
        },
        {
          "duration": 0.357142500000009,
          "durationTicks": 96,
          "midi": 50,
          "name": "D3",
          "ticks": 116544,
          "time": 365.3255264479167,
          "velocity": 0.5433070866141733
        },
        {
          "duration": 0.357142500000009,
          "durationTicks": 96,
          "midi": 57,
          "name": "A3",
          "ticks": 116640,
          "time": 365.6826689479167,
          "velocity": 0.6535433070866141
        },
        {
          "duration": 0.357142500000009,
          "durationTicks": 96,
          "midi": 65,
          "name": "F4",
          "ticks": 116736,
          "time": 366.0398114479167,
          "velocity": 0.6771653543307087
        },
        {
          "duration": 0.357142500000009,
          "durationTicks": 96,
          "midi": 69,
          "name": "A4",
          "ticks": 116736,
          "time": 366.0398114479167,
          "velocity": 0.6771653543307087
        },
        {
          "duration": 0.357142500000009,
          "durationTicks": 96,
          "midi": 50,
          "name": "D3",
          "ticks": 116736,
          "time": 366.0398114479167,
          "velocity": 0.5433070866141733
        },
        {
          "duration": 0.3571424999999522,
          "durationTicks": 96,
          "midi": 69,
          "name": "A4",
          "ticks": 116832,
          "time": 366.3969539479167,
          "velocity": 0.6535433070866141
        },
        {
          "duration": 0.3571424999999522,
          "durationTicks": 96,
          "midi": 72,
          "name": "C5",
          "ticks": 116832,
          "time": 366.3969539479167,
          "velocity": 0.6535433070866141
        },
        {
          "duration": 0.3571424999999522,
          "durationTicks": 96,
          "midi": 57,
          "name": "A3",
          "ticks": 116832,
          "time": 366.3969539479167,
          "velocity": 0.6456692913385826
        },
        {
          "duration": 1.4285699999999792,
          "durationTicks": 384,
          "midi": 67,
          "name": "G4",
          "ticks": 116928,
          "time": 366.75409644791665,
          "velocity": 0.6614173228346457
        },
        {
          "duration": 1.4285699999999792,
          "durationTicks": 384,
          "midi": 74,
          "name": "D5",
          "ticks": 116928,
          "time": 366.75409644791665,
          "velocity": 0.6614173228346457
        },
        {
          "duration": 0.357142500000009,
          "durationTicks": 96,
          "midi": 39,
          "name": "D#2",
          "ticks": 116928,
          "time": 366.75409644791665,
          "velocity": 0.5039370078740157
        },
        {
          "duration": 0.357142500000009,
          "durationTicks": 96,
          "midi": 46,
          "name": "A#2",
          "ticks": 117024,
          "time": 367.11123894791666,
          "velocity": 0.6692913385826772
        },
        {
          "duration": 0.3571424999999522,
          "durationTicks": 96,
          "midi": 51,
          "name": "D#3",
          "ticks": 117120,
          "time": 367.46838144791667,
          "velocity": 0.6299212598425197
        },
        {
          "duration": 0.357142500000009,
          "durationTicks": 96,
          "midi": 46,
          "name": "A#2",
          "ticks": 117216,
          "time": 367.8255239479166,
          "velocity": 0.5590551181102362
        },
        {
          "duration": 0.357142500000009,
          "durationTicks": 96,
          "midi": 41,
          "name": "F2",
          "ticks": 117312,
          "time": 368.18266644791663,
          "velocity": 0.5275590551181102
        },
        {
          "duration": 0.357142500000009,
          "durationTicks": 96,
          "midi": 53,
          "name": "F3",
          "ticks": 117408,
          "time": 368.53980894791664,
          "velocity": 0.6850393700787402
        },
        {
          "duration": 0.357142500000009,
          "durationTicks": 96,
          "midi": 69,
          "name": "A4",
          "ticks": 117504,
          "time": 368.89695144791665,
          "velocity": 0.5275590551181102
        },
        {
          "duration": 0.357142500000009,
          "durationTicks": 96,
          "midi": 74,
          "name": "D5",
          "ticks": 117504,
          "time": 368.89695144791665,
          "velocity": 0.5275590551181102
        },
        {
          "duration": 0.357142500000009,
          "durationTicks": 96,
          "midi": 41,
          "name": "F2",
          "ticks": 117504,
          "time": 368.89695144791665,
          "velocity": 0.5669291338582677
        },
        {
          "duration": 0.357142500000009,
          "durationTicks": 96,
          "midi": 63,
          "name": "D#4",
          "ticks": 117600,
          "time": 369.25409394791666,
          "velocity": 0.5118110236220472
        },
        {
          "duration": 0.357142500000009,
          "durationTicks": 96,
          "midi": 69,
          "name": "A4",
          "ticks": 117600,
          "time": 369.25409394791666,
          "velocity": 0.5118110236220472
        },
        {
          "duration": 0.357142500000009,
          "durationTicks": 96,
          "midi": 53,
          "name": "F3",
          "ticks": 117600,
          "time": 369.25409394791666,
          "velocity": 0.6850393700787402
        },
        {
          "duration": 0.1785712500000045,
          "durationTicks": 48,
          "midi": 65,
          "name": "F4",
          "ticks": 117696,
          "time": 369.61123644791667,
          "velocity": 0.6614173228346457
        },
        {
          "duration": 0.1785712500000045,
          "durationTicks": 48,
          "midi": 69,
          "name": "A4",
          "ticks": 117696,
          "time": 369.61123644791667,
          "velocity": 0.6614173228346457
        },
        {
          "duration": 0.1785712500000045,
          "durationTicks": 48,
          "midi": 72,
          "name": "C5",
          "ticks": 117696,
          "time": 369.61123644791667,
          "velocity": 0.6614173228346457
        },
        {
          "duration": 0.357142500000009,
          "durationTicks": 96,
          "midi": 46,
          "name": "A#2",
          "ticks": 117696,
          "time": 369.61123644791667,
          "velocity": 0.5511811023622047
        },
        {
          "duration": 0.5357137500000135,
          "durationTicks": 144,
          "midi": 65,
          "name": "F4",
          "ticks": 117744,
          "time": 369.7898076979167,
          "velocity": 0.5826771653543307
        },
        {
          "duration": 0.5357137500000135,
          "durationTicks": 144,
          "midi": 69,
          "name": "A4",
          "ticks": 117744,
          "time": 369.7898076979167,
          "velocity": 0.5826771653543307
        },
        {
          "duration": 0.5357137500000135,
          "durationTicks": 144,
          "midi": 72,
          "name": "C5",
          "ticks": 117744,
          "time": 369.7898076979167,
          "velocity": 0.5826771653543307
        },
        {
          "duration": 0.357142500000009,
          "durationTicks": 96,
          "midi": 58,
          "name": "A#3",
          "ticks": 117792,
          "time": 369.9683789479167,
          "velocity": 0.6456692913385826
        },
        {
          "duration": 0.714285000000018,
          "durationTicks": 192,
          "midi": 62,
          "name": "D4",
          "ticks": 117888,
          "time": 370.3255214479167,
          "velocity": 0.5275590551181102
        },
        {
          "duration": 0.714285000000018,
          "durationTicks": 192,
          "midi": 65,
          "name": "F4",
          "ticks": 117888,
          "time": 370.3255214479167,
          "velocity": 0.5275590551181102
        },
        {
          "duration": 1.4285699999999792,
          "durationTicks": 384,
          "midi": 69,
          "name": "A4",
          "ticks": 117888,
          "time": 370.3255214479167,
          "velocity": 0.5275590551181102
        },
        {
          "duration": 0.357142500000009,
          "durationTicks": 96,
          "midi": 46,
          "name": "A#2",
          "ticks": 117888,
          "time": 370.3255214479167,
          "velocity": 0.5275590551181102
        },
        {
          "duration": 0.357142500000009,
          "durationTicks": 96,
          "midi": 58,
          "name": "A#3",
          "ticks": 117984,
          "time": 370.6826639479167,
          "velocity": 0.6929133858267716
        },
        {
          "duration": 0.7142849999999612,
          "durationTicks": 192,
          "midi": 64,
          "name": "E4",
          "ticks": 118080,
          "time": 371.0398064479167,
          "velocity": 0.5590551181102362
        },
        {
          "duration": 0.3571424999999522,
          "durationTicks": 96,
          "midi": 46,
          "name": "A#2",
          "ticks": 118080,
          "time": 371.0398064479167,
          "velocity": 0.5511811023622047
        },
        {
          "duration": 0.357142500000009,
          "durationTicks": 96,
          "midi": 58,
          "name": "A#3",
          "ticks": 118176,
          "time": 371.39694894791666,
          "velocity": 0.7165354330708661
        },
        {
          "duration": 0.1785712500000045,
          "durationTicks": 48,
          "midi": 69,
          "name": "A4",
          "ticks": 118272,
          "time": 371.75409144791666,
          "velocity": 0.6062992125984252
        },
        {
          "duration": 0.357142500000009,
          "durationTicks": 96,
          "midi": 46,
          "name": "A#2",
          "ticks": 118272,
          "time": 371.75409144791666,
          "velocity": 0.5669291338582677
        },
        {
          "duration": 0.1785712500000045,
          "durationTicks": 48,
          "midi": 67,
          "name": "G4",
          "ticks": 118320,
          "time": 371.93266269791667,
          "velocity": 0.5669291338582677
        },
        {
          "duration": 0.3571424999999522,
          "durationTicks": 96,
          "midi": 62,
          "name": "D4",
          "ticks": 118368,
          "time": 372.1112339479167,
          "velocity": 0.6141732283464567
        },
        {
          "duration": 0.3571424999999522,
          "durationTicks": 96,
          "midi": 65,
          "name": "F4",
          "ticks": 118368,
          "time": 372.1112339479167,
          "velocity": 0.6141732283464567
        },
        {
          "duration": 0.3571424999999522,
          "durationTicks": 96,
          "midi": 58,
          "name": "A#3",
          "ticks": 118368,
          "time": 372.1112339479167,
          "velocity": 0.6614173228346457
        },
        {
          "duration": 0.714285000000018,
          "durationTicks": 192,
          "midi": 63,
          "name": "D#4",
          "ticks": 118464,
          "time": 372.4683764479166,
          "velocity": 0.6692913385826772
        },
        {
          "duration": 0.714285000000018,
          "durationTicks": 192,
          "midi": 67,
          "name": "G4",
          "ticks": 118464,
          "time": 372.4683764479166,
          "velocity": 0.6692913385826772
        },
        {
          "duration": 0.357142500000009,
          "durationTicks": 96,
          "midi": 39,
          "name": "D#2",
          "ticks": 118464,
          "time": 372.4683764479166,
          "velocity": 0.5039370078740157
        },
        {
          "duration": 0.357142500000009,
          "durationTicks": 96,
          "midi": 51,
          "name": "D#3",
          "ticks": 118560,
          "time": 372.82551894791663,
          "velocity": 0.7007874015748031
        },
        {
          "duration": 0.714285000000018,
          "durationTicks": 192,
          "midi": 63,
          "name": "D#4",
          "ticks": 118656,
          "time": 373.18266144791664,
          "velocity": 0.6692913385826772
        },
        {
          "duration": 1.428570000000036,
          "durationTicks": 384,
          "midi": 69,
          "name": "A4",
          "ticks": 118656,
          "time": 373.18266144791664,
          "velocity": 0.6692913385826772
        },
        {
          "duration": 0.357142500000009,
          "durationTicks": 96,
          "midi": 39,
          "name": "D#2",
          "ticks": 118656,
          "time": 373.18266144791664,
          "velocity": 0.5196850393700787
        },
        {
          "duration": 0.357142500000009,
          "durationTicks": 96,
          "midi": 51,
          "name": "D#3",
          "ticks": 118752,
          "time": 373.53980394791665,
          "velocity": 0.7086614173228346
        },
        {
          "duration": 0.714285000000018,
          "durationTicks": 192,
          "midi": 62,
          "name": "D4",
          "ticks": 118848,
          "time": 373.89694644791666,
          "velocity": 0.7086614173228346
        },
        {
          "duration": 0.357142500000009,
          "durationTicks": 96,
          "midi": 39,
          "name": "D#2",
          "ticks": 118848,
          "time": 373.89694644791666,
          "velocity": 0.5433070866141733
        },
        {
          "duration": 0.357142500000009,
          "durationTicks": 96,
          "midi": 51,
          "name": "D#3",
          "ticks": 118944,
          "time": 374.25408894791667,
          "velocity": 0.6850393700787402
        },
        {
          "duration": 0.1785712500000045,
          "durationTicks": 48,
          "midi": 60,
          "name": "C4",
          "ticks": 119040,
          "time": 374.6112314479167,
          "velocity": 0.5984251968503937
        },
        {
          "duration": 0.1785712500000045,
          "durationTicks": 48,
          "midi": 69,
          "name": "A4",
          "ticks": 119040,
          "time": 374.6112314479167,
          "velocity": 0.5984251968503937
        },
        {
          "duration": 0.357142500000009,
          "durationTicks": 96,
          "midi": 39,
          "name": "D#2",
          "ticks": 119040,
          "time": 374.6112314479167,
          "velocity": 0.5196850393700787
        },
        {
          "duration": 0.1785712500000045,
          "durationTicks": 48,
          "midi": 67,
          "name": "G4",
          "ticks": 119088,
          "time": 374.7898026979167,
          "velocity": 0.5748031496062992
        },
        {
          "duration": 0.357142500000009,
          "durationTicks": 96,
          "midi": 65,
          "name": "F4",
          "ticks": 119136,
          "time": 374.9683739479167,
          "velocity": 0.5433070866141733
        },
        {
          "duration": 0.357142500000009,
          "durationTicks": 96,
          "midi": 51,
          "name": "D#3",
          "ticks": 119136,
          "time": 374.9683739479167,
          "velocity": 0.6850393700787402
        },
        {
          "duration": 1.4285699999999224,
          "durationTicks": 384,
          "midi": 62,
          "name": "D4",
          "ticks": 119232,
          "time": 375.3255164479167,
          "velocity": 0.5748031496062992
        },
        {
          "duration": 1.4285699999999224,
          "durationTicks": 384,
          "midi": 65,
          "name": "F4",
          "ticks": 119232,
          "time": 375.3255164479167,
          "velocity": 0.5748031496062992
        },
        {
          "duration": 0.3571424999999522,
          "durationTicks": 96,
          "midi": 38,
          "name": "D2",
          "ticks": 119232,
          "time": 375.3255164479167,
          "velocity": 0.5354330708661418
        },
        {
          "duration": 0.357142500000009,
          "durationTicks": 96,
          "midi": 50,
          "name": "D3",
          "ticks": 119328,
          "time": 375.68265894791665,
          "velocity": 0.6692913385826772
        },
        {
          "duration": 0.357142500000009,
          "durationTicks": 96,
          "midi": 50,
          "name": "D3",
          "ticks": 119424,
          "time": 376.03980144791666,
          "velocity": 0.5905511811023622
        },
        {
          "duration": 0.3571424999999522,
          "durationTicks": 96,
          "midi": 46,
          "name": "A#2",
          "ticks": 119520,
          "time": 376.39694394791667,
          "velocity": 0.5511811023622047
        },
        {
          "duration": 0.714285000000018,
          "durationTicks": 192,
          "midi": 48,
          "name": "C3",
          "ticks": 119616,
          "time": 376.7540864479166,
          "velocity": 0.5748031496062992
        },
        {
          "duration": 0.357142500000009,
          "durationTicks": 96,
          "midi": 58,
          "name": "A#3",
          "ticks": 119808,
          "time": 377.46837144791664,
          "velocity": 0.5354330708661418
        },
        {
          "duration": 0.357142500000009,
          "durationTicks": 96,
          "midi": 62,
          "name": "D4",
          "ticks": 119808,
          "time": 377.46837144791664,
          "velocity": 0.5354330708661418
        },
        {
          "duration": 0.357142500000009,
          "durationTicks": 96,
          "midi": 65,
          "name": "F4",
          "ticks": 119808,
          "time": 377.46837144791664,
          "velocity": 0.5354330708661418
        },
        {
          "duration": 0.714285000000018,
          "durationTicks": 192,
          "midi": 36,
          "name": "C2",
          "ticks": 119808,
          "time": 377.46837144791664,
          "velocity": 0.5196850393700787
        },
        {
          "duration": 0.357142500000009,
          "durationTicks": 96,
          "midi": 60,
          "name": "C4",
          "ticks": 119904,
          "time": 377.82551394791665,
          "velocity": 0.6141732283464567
        },
        {
          "duration": 0.357142500000009,
          "durationTicks": 96,
          "midi": 64,
          "name": "E4",
          "ticks": 119904,
          "time": 377.82551394791665,
          "velocity": 0.6141732283464567
        },
        {
          "duration": 0.357142500000009,
          "durationTicks": 96,
          "midi": 67,
          "name": "G4",
          "ticks": 119904,
          "time": 377.82551394791665,
          "velocity": 0.6141732283464567
        },
        {
          "duration": 2.8571400000000153,
          "durationTicks": 768,
          "midi": 57,
          "name": "A3",
          "ticks": 120000,
          "time": 378.18265644791666,
          "velocity": 0.5748031496062992
        },
        {
          "duration": 2.8571400000000153,
          "durationTicks": 768,
          "midi": 60,
          "name": "C4",
          "ticks": 120000,
          "time": 378.18265644791666,
          "velocity": 0.5748031496062992
        },
        {
          "duration": 2.8571400000000153,
          "durationTicks": 768,
          "midi": 65,
          "name": "F4",
          "ticks": 120000,
          "time": 378.18265644791666,
          "velocity": 0.5748031496062992
        },
        {
          "duration": 2.8571400000000153,
          "durationTicks": 768,
          "midi": 41,
          "name": "F2",
          "ticks": 120000,
          "time": 378.18265644791666,
          "velocity": 0.6062992125984252
        }
      ],
      "endOfTrackTicks": 120769
    }
  ]
}
